<svg id="Calque_1" data-name="Calque 1" xmlns="http://www.w3.org/2000/svg" viewBox="0 0 66.52 70.87"><defs><style>.cls-1{fill:#e6332a;}.cls-2{fill:#1d1d1b;}</style></defs><path class="cls-1" d="M27.9,59.8s.13,0,.12,0l-.17,0Z"/><path class="cls-1" d="M28.2,59.45a.41.41,0,0,0-.37-.1c.16.06.09.08.28.14,0,.06-.05.1-.11.09s0,.08.06.11.13-.16,0-.25S28.17,59.44,28.2,59.45Z"/><path class="cls-1" d="M28.45,54.29l0,0Z"/><path class="cls-1" d="M28.54,51.09a0,0,0,0,0,0,0S28.55,51.09,28.54,51.09Z"/><path class="cls-1" d="M28.72,50.55a0,0,0,0,0,0,0S28.73,50.56,28.72,50.55Z"/><path class="cls-1" d="M28.45,54.29l.05-.09C28.45,54.2,28.46,54.25,28.45,54.29Z"/><path class="cls-1" d="M27.8,58.73a.12.12,0,0,0,.05.05l0,0Z"/><path class="cls-1" d="M28.58,55.7v0l.07,0Z"/><path class="cls-1" d="M28.61,56.78s-.13,0-.19,0a.13.13,0,0,1,.09,0Z"/><path class="cls-1" d="M28.36,58.49l0,0S28.37,58.5,28.36,58.49Z"/><path class="cls-1" d="M28.61,54.92h0Z"/><path class="cls-1" d="M28.9,49.55h0S28.91,49.57,28.9,49.55Z"/><path class="cls-1" d="M28.8,40.39c-.13.1-.16-.17-.3,0C28.55,40.36,28.71,40.52,28.8,40.39Z"/><path class="cls-1" d="M27.82,58.71v0Z"/><path class="cls-1" d="M28.5,40.37h0v0Z"/><path class="cls-1" d="M28.81,47.25l-.06,0A.08.08,0,0,0,28.81,47.25Z"/><path class="cls-1" d="M28.62,49l0,0S28.62,49,28.62,49Z"/><path class="cls-1" d="M28.62,46.36s0,0,0-.06h0S28.64,46.34,28.62,46.36Z"/><path class="cls-1" d="M28.62,45.44h0v0Z"/><path class="cls-1" d="M27.88,58.73l-.06,0s0,0,0,0Z"/><path class="cls-1" d="M27.53,46.32l0-.14A.59.59,0,0,0,27.53,46.32Z"/><path class="cls-1" d="M27.66,34.15l0,0S27.64,34.14,27.66,34.15Z"/><path class="cls-1" d="M27.53,45.74s.08-.05.09-.08l0,0Z"/><path class="cls-1" d="M28.68,40.15c.09,0,.06.07.13.06,0-.16.13-.06.21-.17-.11,0-.16-.06-.11-.15l-.14.13c-.16-.23.25-.2.09-.43l.1.07c-.06-.11,0-.43-.24-.55,0,0,.11,0,.13,0,0-.28-.25-.63-.1-.85l.07,0s-.14-.09-.06-.15.07,0,.07,0-.13-.14-.08-.21l.08.06c.1-.27-.2-.42-.25-.65.21,0,.29-.21.32-.32h0c0-.32-.18-.54-.26-.84.23-.18.09-.62.23-.91,0,0-.17,0-.19-.06s-.15-.2,0-.19v0c.2,0,.14-.2.15-.31h-.26c.38-.3-.14-.77.2-.93a.7.7,0,0,1-.1-.16,4.56,4.56,0,0,1-1.11-.13,1,1,0,0,0-.06.14c0,.08.18.11.21.2h-.15l.16.12L27.6,34l0,.09a.13.13,0,0,1,.12-.07c.06.13-.11.33-.19.33l.13.31c-.06,0-.08-.06-.12-.1.15.17-.16,0,0,.18,0,0,.09,0,.12,0a.39.39,0,0,0-.05.38l-.11,0c0,.24.05.49.05.76.05-.1.23-.08.25,0l-.16,0c.1,0,.06-.08.18,0s-.18.07-.23,0l.05.12c-.05,0-.07,0-.13,0,.1.05-.16.21,0,.28h-.05c0,.26.06.38.06.6.14,0,.11.08.22.15a1.67,1.67,0,0,0-.14.51c.07.14.12,0,.2.1-.12,0-.11.2-.2.1a1.58,1.58,0,0,0,.13.58s.07-.07.11,0-.05.12-.11.11h0c.18.32-.37.74-.11,1h0l.14.26c0,.12-.1-.07-.18,0,.21.28,0,.45.11.69-.37.18,0,.64-.21.89l.09,0c.08.07,0,.08-.07.13s.08-.07.12,0a5,5,0,0,1-.2,1.66c0,.2.45.11.24.37l-.16-.07c.19.4,0,.83.16,1.23,0,0-.09,0-.09-.07s0,.32.09.32-.08,0-.13,0,.15.21,0,.26,0,0-.05,0,0,.25.12.2c-.06.15.06.29,0,.41.16.08-.07.25.15.28-.23,0-.18.26-.08.36-.07,0-.07.08-.16,0s0,.21.16.19c-.27.2.21.4-.13.51a5,5,0,0,1,.25.91c-.22,0,0-.32-.25-.31.09.27.28.43.23.7,0,.07-.1,0-.14-.06.09.27,0,.53.1.77,0,0,0,0-.06,0s0,.11.07.11l0,0c.15-.08.31.19.39.2-.29-.08-.08.24-.44.11a.14.14,0,0,0,.13.06s-.06.06-.13,0c.05.17.16.11.16.26s-.07,0-.13,0c.1.07.19.15.15.28s-.07,0-.07,0c0,.23.26.39.17.64-.22-.08-.07.08-.26.09l.06.14.09-.06c0,.12.13.22.07.32L27.84,51l0,.21.07-.12c.09.12.23,0,.18.14,0,0,0,.12-.11.18h0c.05.06.12.12.07.2s-.2,0-.24,0c.15.06,0,.27.2.35a.21.21,0,0,0-.15,0L28,52a.11.11,0,0,1-.13,0c0,.16.23,0,.13.14,0,0,0,0-.05,0,0,.2.08.38,0,.55s0-.15-.2-.09c0,.26.22.53.18.78l0-.05c.26,0-.13.19,0,.31s-.14,0-.11,0c-.05.17.06.35.14.61l-.06,0c-.06.1,0,.26-.07.37s.06.09.15,0c-.38.34.21.64-.11.94,0,0-.06-.09-.06-.06l.06.25c.12,0,.07,0,.16-.08a.19.19,0,0,1,.12.16c-.08-.11-.18,0-.25.05h.11c-.2.13.23,0,.1.2H28.1c0,.07.11.13.09.2s-.06-.07-.17-.07.25.2.12.29,0-.11-.08-.15-.11.11-.14.19h0l-.07.17,0,0c.34.13.06.26.29.43-.22-.17-.13,0-.28,0s-.08.11-.13.09c.12.08-.09.14.09.25-.05,0,0,.09-.13.07,0,.11.08,0,.14,0,.17.16-.19.38,0,.61s.25.24.33.43-.17-.05-.17-.05a.21.21,0,0,0,0,.27.22.22,0,0,0-.13,0c0,.08.17.06.1.16a.77.77,0,0,1-.19-.08c0,.09.13.18.17.28S27.9,59,27.84,59a1.06,1.06,0,0,0,.11.21c-.07-.08.06-.11.1-.12l0,.07c.28-.07-.05-.27,0-.41l.2.06-.17-.14c.05,0,.17,0,.2,0,.1-.1-.07-.09,0-.17s0,0,0,0l-.06-.09c.05,0,.15,0,.12,0,.12-.17-.15-.27,0-.34v0c-.07-.24-.15,0-.32-.2l.37-.12-.15,0a.06.06,0,0,1,.07-.06c-.1-.09-.06,0-.16,0,.14-.11-.06-.32.18-.35-.12,0-.09.12-.17,0,.26,0,0-.14.07-.25s.07.13.18,0c-.22-.07.05-.21,0-.3s-.07-.2-.13-.35c.06,0,.09-.28.16-.42h0c-.18,0-.15-.17-.18-.28a.24.24,0,0,1,.19.08v-.1a.19.19,0,0,1-.11-.12l.14,0c0-.13-.16-.27-.07-.44-.13,0-.35.14-.43,0,.06,0,.18,0,.21,0s-.06,0,0-.08l.12.07c.05-.08-.1,0-.09-.1s.07,0,.15,0,0,0,0,.08a.32.32,0,0,1,.15-.19c-.05,0-.13,0-.14-.05s.12,0,.17-.12,0-.12-.15-.12c0,0,.07,0,.11-.06s0-.32-.17-.24v0c-.14-.22.08-.46,0-.68h.05c-.05-.14,0-.3-.14-.39s.09-.1.15-.08-.09-.11,0-.26c.08.1.07,0,.06.1,0-.13.12-.16,0-.3.12.05.15-.1.12-.16l-.09.09a.41.41,0,0,1,0-.19l.17,0c.19-.27-.34-.49,0-.69-.11-.07-.08.14-.21.08s.25-.25.25-.29-.24-.16-.17-.34c-.06,0-.22,0-.27-.09s.24-.15.29-.07,0,0,0,0,0,.09.1,0h-.05c.06-.06.05-.23.15-.19-.06-.1-.1,0-.13,0,.08-.15,0-.24.06-.41,0,0-.1.05-.1,0,.07-.25-.11-.11-.14-.27s.21,0,.14-.13.16,0,.2,0c-.11-.15.08-.28.1-.36l0,.08a.32.32,0,0,1,0-.13l-.12,0s0-.09.07-.09-.19,0-.3-.05c.06-.07-.06-.19.09-.21-.05.19.16,0,.18.14,0,0,0-.07,0-.12l0,0c.14-.18-.18-.08-.17-.28.08,0,.16,0,.14-.07s-.14,0-.21,0-.05-.13,0-.2l0,.08c-.09,0-.08-.09-.11-.17s.05.07.08,0c-.15-.09.16-.21.05-.35.06-.06.17,0,.21-.06s.12-.16,0-.31c-.11,0-.08.05-.2-.06l.08.26-.17-.17c0,.08.08.16.06.21s-.07-.07-.17,0c.18-.11-.1-.21,0-.34h.29c.13-.19-.15-.33-.08-.57l-.05.08c-.11,0,0-.15-.06-.23.1,0,.13,0,.19-.08s0-.17-.18-.19l.12-.11c.06-.19-.27-.22-.24-.41.11.06.17,0,.25.1,0-.06,0-.12-.05-.12s-.13-.17,0-.23-.14,0-.13-.11h0s-.06-.11-.17,0c.31-.2,0-.54.24-.71a3.34,3.34,0,0,1-.07-.42s.05,0,0,0c.09-.17-.28-.1-.18-.3s.08.11.14,0c.32,0,0-.24.15-.37l0,0c.1-.1-.13-.24-.1-.4h.05a.81.81,0,0,1-.27-.48c.13.05.07.07.2,0s-.21,0-.24-.12.13-.14.26-.16v.13c.17-.06,0-.17,0-.24h.08c0-.2-.22-.2-.2-.42l-.06,0c-.19-.12.1-.1,0-.22l.2,0a2,2,0,0,1-.23-.42c.15.08.22.25.31.35a.43.43,0,0,0-.08-.25s0,0,0,0a.4.4,0,0,1-.22-.37c.37,0,.09-.41.38-.52-.13-.27.06-.54,0-.86-.29.11,0-.09-.31-.08,0-.07,0-.1,0-.1Z"/><path class="cls-1" d="M28.43,54.33h0Z"/><path class="cls-1" d="M28,55.84l0,0Z"/><path class="cls-1" d="M27.92,56.5l-.05.09A.21.21,0,0,0,27.92,56.5Z"/><path class="cls-1" d="M27.85,57h0Z"/><path class="cls-1" d="M27.69,49v0S27.67,49,27.69,49Z"/><path class="cls-1" d="M28,51.38A.27.27,0,0,1,28,51.3C27.94,51.35,27.94,51.38,28,51.38Z"/><path class="cls-1" d="M27.53,46.34h0v0Z"/><path class="cls-1" d="M28,51.19a.09.09,0,0,0,0,.11A.14.14,0,0,0,28,51.19Z"/><path class="cls-1" d="M27.79,59.18v0h0Z"/><path class="cls-1" d="M27.81,59.21v0S27.82,59.21,27.81,59.21Z"/><path class="cls-1" d="M27.86,59.29l0,0S27.82,59.28,27.86,59.29Z"/><path class="cls-1" d="M27.86,58.52h0Z"/><path class="cls-1" d="M27.84,58.31s-.11.13-.07.19h0C27.73,58.48,27.93,58.36,27.84,58.31Z"/><path class="cls-1" d="M28.46,57.47l0,.17s.13-.07.14,0C28.72,57.43,28.44,57.69,28.46,57.47Z"/><path class="cls-1" d="M28.54,56.94c0,.09.08,0,.11,0S28.59,56.88,28.54,56.94Z"/><path class="cls-1" d="M28.54,53.14h.12C28.65,53.08,28.62,53.15,28.54,53.14Z"/><polygon class="cls-1" points="27.89 52.41 27.81 52.48 27.93 52.52 27.89 52.41"/><polygon class="cls-1" points="28.79 51.98 28.8 52.02 28.76 51.9 28.79 51.98"/><path class="cls-1" d="M28.74,45.6l-.15,0C28.61,45.67,28.79,45.68,28.74,45.6Z"/><path class="cls-1" d="M28.58,42.84c.08,0,.13-.1.05-.15S28.56,42.81,28.58,42.84Z"/><polygon class="cls-1" points="28.84 34.58 28.89 34.63 28.84 34.53 28.84 34.58"/><path class="cls-1" d="M15.43,59.47c0,.05,0,.14,0,.12v-.16Z"/><path class="cls-1" d="M15.55,59.77a.89.89,0,0,0,0-.36c0,.15,0,.09-.05.27,0,0,0,0,0-.11s0,0,0,.07,0,.13.09,0A.34.34,0,0,1,15.55,59.77Z"/><path class="cls-1" d="M17.37,60v0S17.36,60,17.37,60Z"/><path class="cls-1" d="M18.49,60.12s0,0,0,0S18.5,60.13,18.49,60.12Z"/><path class="cls-1" d="M18.69,60.3h0S18.68,60.31,18.69,60.3Z"/><path class="cls-1" d="M17.37,60l0,0S17.38,60,17.37,60Z"/><path class="cls-1" d="M15.81,59.38a.05.05,0,0,0,0,0h0Z"/><path class="cls-1" d="M16.87,60.16h0v0Z"/><path class="cls-1" d="M16.49,60.19s0-.14,0-.2,0,.09,0,.1Z"/><path class="cls-1" d="M15.89,59.94v0A0,0,0,0,0,15.89,59.94Z"/><path class="cls-1" d="M17.15,60.19v0Z"/><path class="cls-1" d="M27.78,59.15v0S27.79,59.15,27.78,59.15Z"/><path class="cls-1" d="M28.22,59.84h0v0Z"/><path class="cls-1" d="M19,60.47h0S19,60.48,19,60.47Z"/><path class="cls-1" d="M22.26,60.37c0-.12.06-.16,0-.29C22.27,60.13,22.22,60.29,22.26,60.37Z"/><path class="cls-1" d="M15.82,59.4h0Z"/><path class="cls-1" d="M22.27,60.08h0v0Z"/><path class="cls-1" d="M19.85,60.39a.13.13,0,0,1,0-.06A.18.18,0,0,0,19.85,60.39Z"/><path class="cls-1" d="M19.24,60.19l0,0Z"/><path class="cls-1" d="M20.16,60.2s0,0,0,0v0S20.17,60.22,20.16,60.2Z"/><path class="cls-1" d="M20.48,60.2v0h0Z"/><path class="cls-1" d="M26.79,59.22s0,.08,0,.12S26.85,59.21,26.79,59.22Z"/><path class="cls-1" d="M15.81,59.46s0-.05,0-.06h0A.07.07,0,0,0,15.81,59.46Z"/><path class="cls-1" d="M20.17,59.11l0,0S20.19,59.11,20.17,59.11Z"/><path class="cls-1" d="M24.45,59.24l0,0Z"/><path class="cls-1" d="M20.38,59.11l0,.09v0Z"/><path class="cls-1" d="M26.81,59.34Z"/><path class="cls-1" d="M27.15,59s0,.17,0,.28,0-.14,0-.23-.07.22-.1.21V59.2c0,.14-.11,0-.16.19v0a2.07,2.07,0,0,1,0,.25s0,.12,0,0,0-.05,0-.08l0,.05c0-.17,0-.06,0-.19,0,.06-.09.2-.13.15s.08-.05,0-.2l.05.06c0-.26,0,0,0-.26-.08,0-.08.08-.15,0a1.85,1.85,0,0,0,0,.23c-.1.17-.08-.42-.16-.19s0,.32-.08.21l0-.19c-.07,0,0,.27-.11.14s.06-.06,0-.08,0,.11-.07.11v-.17c-.07,0-.15.15-.23.18a.86.86,0,0,0,0-.16c-.11.09-.22,0-.32-.12l0,.15a.32.32,0,0,1,0-.1s0,.1,0,.15,0-.08,0-.12c-.07.12-.19.26-.26.1v0c-.05-.06-.06.3-.11.16v0c-.12-.06-.25.07-.34-.15,0,.21-.12-.09-.13.2-.07-.15-.05-.2-.15-.3s0,.19-.07.22V59.2l0,.16,0-.18,0,0a.27.27,0,0,1,0,.11c0,.07-.11-.1-.11-.18l-.12.13a.83.83,0,0,1,0-.12c-.06.15,0-.16-.06,0s0,.09,0,.12-.09-.09-.13,0V59.1c-.09,0-.18,0-.27,0a.36.36,0,0,1,0,.25v-.16c0,.1,0,.06,0,.18s0-.18,0-.24l0,.06a.3.3,0,0,1,0-.13c0,.1-.08-.17-.1,0v0c-.09,0-.14,0-.21.06s0,.11-.05.22-.12-.15-.19-.14,0,.12,0,.2c0-.13-.07-.11,0-.21a.39.39,0,0,0-.2.13c0,.05,0,.08,0,.12s0-.05,0-.11v0c-.11.19-.26-.36-.35-.1h0l-.09.13c-.05,0,0-.09,0-.17-.1.21-.16,0-.24.11-.07-.37-.23,0-.32-.21v.09c0,.08,0,0,0-.07s0,.07,0,.12c-.19.11-.39-.13-.59-.21s0,.46-.13.25l0-.16c-.15.19-.3,0-.44.15,0,0,0-.08,0-.08s-.11,0-.11.09,0-.09,0-.14-.08.15-.09,0,0,0,0,0-.09,0-.07.12c-.05-.06-.1.06-.14,0,0,.15-.09-.07-.1.14,0-.22-.09-.18-.13-.07,0-.07,0-.07,0-.16s-.08,0-.07.15c-.07-.26-.14.22-.18-.12a1.12,1.12,0,0,1-.32.25c0-.22.11,0,.11-.26-.1.1-.15.29-.25.23s0-.09,0-.13-.18,0-.27.1a.14.14,0,0,1,0-.06s0,0,0,.07l0,0c0,.15-.07.31-.07.38,0-.29-.08-.07,0-.43a.27.27,0,0,0,0,.13s0-.06,0-.14,0,.17-.09.16a.6.6,0,0,1,0-.12c0,.09-.06.19-.11.15s0-.07,0-.07-.14.25-.23.16,0-.07,0-.25l0,0,0,.09s-.08.13-.11.07l0-.07-.08,0,.05.07c-.05.1,0,.23-.06.18s0,0-.06-.11h0c0,.06,0,.12-.07.08s0-.21,0-.25c0,.16-.09,0-.12.21a.86.86,0,0,0,0-.15l0,.12a.26.26,0,0,1,0-.14c-.06,0,0,.24-.05.14s0,0,0-.05-.14.08-.2,0,.06,0,0-.2c-.09,0-.18.22-.27.17l0,0c0,.27-.07-.12-.11,0a.75.75,0,0,0,0-.12c-.06,0-.12.07-.21.15v-.07c0-.06-.1,0-.13-.06s0,0,0,.15c-.12-.38-.23.21-.33-.11,0,0,0-.06,0-.06l-.09.06c0,.11,0,.07,0,.16s0,.12-.06.12a.35.35,0,0,0,0-.25.41.41,0,0,1,0,.11c-.05-.2,0,.23-.07.09v-.06s0,.11-.07.1,0-.07,0-.17-.07.24-.1.11,0,0,.05-.07,0-.12-.07-.14h0l-.06-.07,0,0c-.05.34-.09.06-.15.28.06-.21,0-.12,0-.27s0-.09,0-.13c0,.12-.05-.09-.09.08,0,0,0,0,0-.12,0,0,0,.08,0,.14s-.13-.2-.21,0-.09.25-.16.33a.32.32,0,0,1,0-.17c0-.07-.06-.06-.09,0a.66.66,0,0,0,0-.13s0,.18-.06.11l0-.2a1,1,0,0,1-.1.18.45.45,0,0,1,0-.18.31.31,0,0,0-.1.21l0,0a.33.33,0,0,1,0-.14c0-.11,0,0,0,.09l0,0c0,.28.09,0,.14,0l0,.21.05-.17s0,.17,0,.2,0-.08.06,0v0l0-.06s0,.15,0,.12.1-.16.12,0h0c.09-.07,0-.15.07-.33l0,.37V59.9s0,0,0,.08c0-.1,0-.06,0-.16,0,.14.11-.07.12.17,0-.11,0-.08,0-.16,0,.25.05,0,.08.07s0,.06,0,.18c0-.22.08.05.11,0s.07-.08.12-.14.1.1.15.17v0c0-.18.06-.15.1-.19a.46.46,0,0,1,0,.2h0c0-.06,0-.09.05-.11v.14s.09-.16.15-.07c0-.13-.05-.35,0-.44a1.35,1.35,0,0,1,0,.22s0-.06,0,0l0,.11c0,.05,0-.09,0-.08s0,.07,0,.14,0,0,0,0a.23.23,0,0,1,.07.15.27.27,0,0,1,0-.14c.05,0,0,.11.05.16s0,0,0-.14,0,.07,0,.11.11,0,.09-.17h0c.08-.14.17.08.25,0v.05c0-.06.1,0,.13-.14s0,.09,0,.15,0-.09.09,0,0,.07,0,.06.06.12.11,0c0,.12,0,.15.06.11l0-.08s0,0,.06,0v.16c.1.2.17-.34.25,0,0-.12-.06-.08,0-.22,0,0,.09.26.1.26s.06-.24.12-.18a.43.43,0,0,1,0-.27.5.5,0,0,1,0,.3s0,0,0,0a.12.12,0,0,0,0,.11V60.2c0,.06.08.06.07.15a.1.1,0,0,0,0-.12c0,.08.09,0,.14.06s0-.1,0-.1,0-.11.09-.14,0,.21,0,.14a.34.34,0,0,1,0,.2c.05-.11.1.07.13.09l0,.05s0,0,0,0v-.11s0,0,0,.07,0-.2,0-.3c0,.06.06-.06.07.09-.07,0,0,.16-.05.18a0,0,0,0,1,0,0,0,0,0,0,1,0,0c.06.14,0-.17.09-.17s0,.17,0,.15,0-.15,0-.21,0-.05.07-.05l0,0c0-.08,0-.07.06-.1s0,0,0,.08c0-.16.08.15.12,0,0,.06,0,.17,0,.21.06-.12.06.12.12,0a.23.23,0,0,1,0-.2l-.09.08.05-.17s-.05.07-.07,0,0-.06,0-.16c0,.18.08-.1.12,0v.29c.06.13.11-.15.2-.08l0,0c0-.11.05,0,.08-.06a.84.84,0,0,0,0,.19c0-.07.06,0,.07-.19l0,.13c.07,0,.08-.28.15-.24s0,.17,0,.25.05,0,.05-.05.06-.13.08,0,0-.14,0-.14a.08.08,0,0,1,0,.05c0-.05,0-.06,0-.17.07.3.19,0,.25.24a.26.26,0,0,1,.15-.07s0,0,0,0,0-.27.1-.17,0,.08,0,.14c0,.32.08,0,.13.14v0c0,.11.08-.12.14-.1v.05a.42.42,0,0,1,.17-.26c0,.13,0,.07,0,.19s0-.2,0-.24a.72.72,0,0,1,.06.27h0c0,.17.06,0,.09,0v.08c.07,0,.07-.22.15-.21V60c0-.19,0,.11.07,0l0,.19a.9.9,0,0,1,.14-.22,1.09,1.09,0,0,1-.12.3s.09,0,.11-.11,0,.07,0,0,.08-.23.13-.23c0,.38.15.1.19.39.09-.14.19.06.3,0,0-.29,0,0,0-.31,0,0,0,0,0,0l.07.17c0,.09,0,.07,0,.14s0,.13.06.21c0-.11,0-.16.06-.12l-.05-.14c.08-.16.07.26.15.1l0,.09c0-.05.15,0,.19-.24,0,0,0,.12,0,.14s.22-.26.29-.11v.08s0-.14.05-.07v.08s.05-.13.08-.09l0,.09c.09.09.14-.2.23-.25a.39.39,0,0,0,.11.32v0c.11,0,.19-.18.29-.27.07.24.22.1.33.23a.31.31,0,0,1,0-.19s.07-.15.06,0h0c0,.19.07.14.11.15v-.26c.1.37.26-.14.32.2,0-.07.06-.07.08-.13v.14a.21.21,0,0,0,.19,0l0,.1c.05,0,.06-.41.1-.41l0,.2c.08,0,.16.18.25,0a.25.25,0,0,1,0,.1s.15.14.14-.14c0,.18.08,0,.13-.06v.13c0-.17,0-.22.09-.27s0,.11,0,.08,0-.13.08-.06l0,.09s0,0,.06-.14.09,0,.09.16c0-.08,0-.18.06-.14s0,.07,0,.09.1-.16.15,0a.38.38,0,0,0,0,.08l-.1,0c0,.13,0,.15,0,.32,0-.09.1-.3.15-.24v0h0s0,0,0,0,0,0,0,0,.05,0,.07.06c0-.14,0-.12,0-.23s0,0,0,0v0h-.05c0-.07,0-.13.06,0,0-.09,0-.18,0-.22,0,.19.09.29.1.41.07-.08.17,0,.21-.31,0,0,0,.08,0,.12a.16.16,0,0,0,0,.06c0-.07.12,0,.13-.21,0,.08,0,.17,0,.14v.05c.14.29.22-.46.37-.09a.11.11,0,0,1,0-.06c.17.16.35-.16.52.1,0,.06,0-.06.08-.15v.15l0-.17c.08-.13.13.36.22.13V60s.1-.06.09,0,0-.1,0,0v.08l.08-.14c.06.06,0,.31.08.33a.65.65,0,0,0,.08-.28s0,0,0-.13l0,0a1.52,1.52,0,0,0,0-.62l-.05.14,0-.11h0c0-.1,0,0-.06,0s0-.1,0-.12l0,.22c0-.09,0-.18,0-.23,0,.1,0,.2,0,.27,0-.1,0-.19,0-.1a.2.2,0,0,1,0-.12c0,.07-.07,0-.08.15,0-.13-.09,0-.09-.18,0,0,0,.17-.07.18.05-.26-.09,0-.08-.3,0,.23-.11.11-.17.23v0s0-.09-.06-.13a1.21,1.21,0,0,1-.08.35c0-.18,0-.22,0-.4,0,.15-.07.15-.06.28a.78.78,0,0,1,0-.21c0,.24,0,0,0,.19-.05-.12,0-.23-.06-.16A.24.24,0,0,1,27.15,59ZM26,59.43Zm-.1,0h0c0,.05,0,.1,0,.09S25.91,59.47,25.9,59.43Zm.2,1s0,0,0,0l0,0v0A.15.15,0,0,1,26.1,60.39Z"/><path class="cls-1" d="M26.13,60.21h0v0Z"/><path class="cls-1" d="M17.36,60h0v0Z"/><polygon class="cls-1" points="24.56 59.17 24.56 59.2 24.57 59.17 24.56 59.17"/><path class="cls-1" d="M16.82,59.53v0Z"/><path class="cls-1" d="M16.59,59.5l0,0A.11.11,0,0,0,16.59,59.5Z"/><path class="cls-1" d="M16.41,59.43v.06h0Z"/><path class="cls-1" d="M19.23,59.27h0Z"/><path class="cls-1" d="M18.39,59.59a.33.33,0,0,1,0-.06S18.39,59.51,18.39,59.59Z"/><polygon class="cls-1" points="20.17 59.1 20.17 59.1 20.17 59.1 20.17 59.1"/><path class="cls-1" d="M18.46,59.53s0,0,0,0S18.45,59.55,18.46,59.53Z"/><path class="cls-1" d="M15.65,59.37h0v0Z"/><path class="cls-1" d="M15.64,59.39h0Z"/><path class="cls-1" d="M15.61,59.44l0,0S15.61,59.4,15.61,59.44Z"/><path class="cls-1" d="M15.88,59.43v0Z"/><path class="cls-1" d="M16,59.42s0-.11-.06-.08v0C15.9,59.31,15.94,59.5,16,59.42Z"/><path class="cls-1" d="M16.25,60l-.06,0s0,.12,0,.14S16.17,60,16.25,60Z"/><path class="cls-1" d="M16.44,60.12s0,.07,0,.1S16.46,60.16,16.44,60.12Z"/><path class="cls-1" d="M17.77,60.12v.12S17.77,60.19,17.77,60.12Z"/><polygon class="cls-1" points="18.03 59.47 18 59.39 17.99 59.5 18.03 59.47"/><polygon class="cls-1" points="18.18 60.36 18.17 60.38 18.21 60.33 18.18 60.36"/><path class="cls-1" d="M20.43,60.32v-.16S20.4,60.36,20.43,60.32Z"/><path class="cls-1" d="M21.4,60.16c0,.08,0,.13.05.05S21.41,60.14,21.4,60.16Z"/><polygon class="cls-1" points="24.3 60.41 24.29 60.46 24.32 60.42 24.3 60.41"/><path class="cls-1" d="M13.72,64.72s0,.13.06.11l0-.16Z"/><path class="cls-1" d="M14,65a.91.91,0,0,0-.08-.36c0,.15,0,.09,0,.28,0,0-.05,0-.07-.1s0,0,0,.08.11.1.11,0A.23.23,0,0,1,14,65Z"/><path class="cls-1" d="M16.09,64.45h0Z"/><path class="cls-1" d="M17.39,64.08s0,0,0,0A0,0,0,0,0,17.39,64.08Z"/><path class="cls-1" d="M17.66,64.17h0Z"/><path class="cls-1" d="M16.09,64.45l.05,0S16.11,64.46,16.09,64.45Z"/><path class="cls-1" d="M14.11,64.48v0a0,0,0,0,1,0,0Z"/><path class="cls-1" d="M15.58,64.78h0s0,0,0,.07Z"/><path class="cls-1" d="M15.16,65a.88.88,0,0,0-.05-.19c0,.06,0,.08,0,.1Z"/><path class="cls-1" d="M14.4,65v0A0,0,0,0,1,14.4,65Z"/><path class="cls-1" d="M15.9,64.7a.08.08,0,0,0,0,0Z"/><path class="cls-1" d="M27.51,59.37v0Z"/><path class="cls-1" d="M28.24,59.83h0l0,.08Z"/><path class="cls-1" d="M18.12,64.19h0S18.12,64.2,18.12,64.19Z"/><path class="cls-1" d="M21.71,62.78c-.08-.11,0-.18-.09-.28S21.63,62.72,21.71,62.78Z"/><path class="cls-1" d="M14.13,64.5s0,0,0,0S14.13,64.49,14.13,64.5Z"/><path class="cls-1" d="M21.62,62.5h0Z"/><path class="cls-1" d="M19,63.78l0-.05S19,63.76,19,63.78Z"/><path class="cls-1" d="M18.26,63.84h0Z"/><path class="cls-1" d="M19.29,63.47s0,0,0,0h0S19.3,63.49,19.29,63.47Z"/><path class="cls-1" d="M19.65,63.34v0h0Z"/><path class="cls-1" d="M26.41,59.84a.24.24,0,0,1,.06.11C26.43,59.86,26.48,59.81,26.41,59.84Z"/><path class="cls-1" d="M14.14,64.56a.21.21,0,0,1,0-.06h0S14.13,64.55,14.14,64.56Z"/><path class="cls-1" d="M18.93,62.44h0Z"/><path class="cls-1" d="M23.79,60.81v0S23.79,60.8,23.79,60.81Z"/><path class="cls-1" d="M19.16,62.35a.19.19,0,0,0,.07.08,0,0,0,0,1,0,0Z"/><path class="cls-1" d="M26.47,60Z"/><path class="cls-1" d="M26.75,59.5c-.06,0,0,.18.05.28s-.07-.11-.13-.19,0,.23,0,.23l0-.07c0,.15-.12,0-.11.24l0,0a2,2,0,0,1,.1.23s0,.13-.06,0,0-.05,0-.09v.06c-.08-.15,0-.07,0-.19,0,.07,0,.23-.1.2s.07-.09,0-.21l.08,0c-.13-.23,0,0-.09-.25-.1,0-.06.12-.16.1s0,.13.07.22S26,59.72,26,60s.08.31,0,.23l0-.19c-.08,0,0,.27-.08.18s0-.08,0-.1,0,.12,0,.13l-.06-.15c-.07,0-.12.2-.2.26s0-.1-.06-.14c-.08.12-.25.07-.39,0v.15s0-.05,0-.08,0,.09,0,.15-.06-.07-.06-.12c0,.15-.12.33-.25.21v0c-.08,0,0,.3-.08.2v0c-.16,0-.26.17-.44,0,.05.2-.17,0-.08.24-.12-.11-.12-.17-.26-.22s0,.19,0,.23l-.05-.14v.16l-.09-.16,0,0a.19.19,0,0,1,.06.1c0,.08-.16-.06-.19-.13l-.08.17a.28.28,0,0,1,0-.13c0,.17-.07-.15-.08,0a.76.76,0,0,1,0,.11.1.1,0,0,0-.17,0l0-.1c-.1,0-.17.11-.28.15.06,0,.11.21.08.23l-.06-.14c0,.1.05,0,.05.17s-.09-.16-.08-.22l0,.07A.42.42,0,0,1,23,61c0,.1-.14-.12-.11,0l0,0c-.1,0-.13.1-.21.14s0,.12,0,.23-.18-.1-.25-.06,0,.12,0,.2c-.05-.11-.12-.08-.11-.18a.43.43,0,0,0-.18.21.27.27,0,0,1,.06.1s-.07,0-.09-.09h0c-.06.22-.41-.24-.43,0h0l-.06.16c-.06,0,0-.1-.07-.16,0,.24-.19,0-.23.2-.2-.32-.25.12-.43-.07l0,.08c0,.09-.05,0-.08,0s.06.06.06.11c-.18.18-.48,0-.73,0-.09,0,.11.44-.06.28l0-.16c-.09.24-.33.11-.43.32,0,0,0-.08,0-.09s-.12,0-.09.13,0-.08-.07-.12,0,.17-.09.07,0,0,0,0-.1,0,0,.14c-.08,0-.09.1-.16,0,0,.16-.13,0-.07.18-.07-.21-.16-.13-.16,0,0-.07-.06-.06-.08-.15s-.06.07,0,.18c-.17-.22-.08.26-.24,0a1.43,1.43,0,0,1-.28.37c-.07-.21.12-.07,0-.28-.08.12-.08.32-.2.31s0-.09,0-.13c-.08.12-.22,0-.27.2a.06.06,0,0,1,0-.06s-.06,0,0,.08v0c.08.13,0,.32,0,.39-.07-.28-.12,0-.19-.39a.17.17,0,0,0,0,.13s-.05,0-.06-.12,0,.17,0,.19,0-.07,0-.13c0,.1,0,.2-.06.18s0-.06,0-.06-.07.29-.2.24c0-.21-.06-.05-.12-.23l0,.08.05.07s0,.16-.1.11V63.4l-.08.06.08,0c0,.11.08.22,0,.19s0,0-.11-.08h0c0,.07,0,.13-.05.1s-.06-.19-.08-.23c0,.16-.1.08-.07.25a.54.54,0,0,0,0-.15l0,.12s-.05,0-.07-.12.1.22,0,.15,0,0,0-.05-.12.13-.21.1,0-.07,0-.21c-.09.07-.14.29-.25.28h0c.08.25-.11-.09-.12,0s0-.14,0-.11-.11.11-.19.22V64c-.06,0-.11,0-.17,0s0,.07,0,.15c-.26-.31-.18.29-.41,0,0,0,0-.07,0-.06l-.08.09c0,.1,0,.06.09.14s0,.12,0,.13-.06-.17-.1-.22l0,.1c-.12-.17.07.22-.05.12v-.06s0,.12,0,.12,0-.07,0-.17,0,.26-.07.15,0,0,0-.09-.08-.09-.12-.11h0l-.09,0,0,0c.07.34-.08.09-.07.33,0-.22,0-.12-.08-.26a.28.28,0,0,1-.08-.11c0,.12-.09-.07-.07.11,0,0,0,0-.07-.11,0,.06,0,.08.05.14s-.22-.13-.23.11,0,.27-.06.38a.25.25,0,0,1,0-.17c-.07-.06-.1,0-.11,0a.45.45,0,0,0-.06-.12s0,.17,0,.12a1.08,1.08,0,0,1,0-.19c0,.06,0,.15,0,.21a.47.47,0,0,1,0-.19.27.27,0,0,0,0,.24l0,0s0-.11,0-.13.07,0,.09.07l0,0c.13.26.09-.08.15-.08l.05.2v-.18a.38.38,0,0,1,.06.19c.07.08,0-.08.08,0a.08.08,0,0,1,0,0l0-.08s.05.14,0,.12.05-.18.13,0v0c.07-.1,0-.15,0-.34l.17.33,0-.14s0,0,.05.06c0-.11,0-.06,0-.16.09.11.11-.1.2.12,0-.12-.08-.07-.05-.16.1.23,0-.07.12,0s0,.08.05.17c-.05-.22.1,0,.12,0s.05-.1.09-.18.15,0,.23.09v0c0-.17,0-.16,0-.21a.33.33,0,0,1,0,.2l0,0c0-.06,0-.09,0-.12l0,.13c.05,0,.05-.18.14-.12,0-.12-.17-.31-.13-.42a.48.48,0,0,1,.06.21s0-.07,0,0v.12s0-.1,0-.1,0,.06.06.13,0,0,0,0a.24.24,0,0,1,.13.12c0-.06-.05-.13,0-.15s.06.11.1.14,0,0,0-.15,0,.06.06.09.12-.06,0-.19h0c0-.17.21,0,.28-.08l0,0c0-.07.1-.08.1-.19s.07.07.08.13,0-.1.1,0,0,.07,0,.07.11.09.12,0c0,.12.09.13.1.09l-.06-.07a.08.08,0,0,1,.08,0l0,.16c.17.15.07-.39.27-.1,0-.12-.09-.06-.11-.19s.19.2.21.2,0-.25.07-.22a.39.39,0,0,1-.06-.26c.06,0,.15.2.13.26s0,0,0,0,0,.06,0,.11v0c.05,0,.11,0,.13.11a.09.09,0,0,0-.06-.12c.1.06.1,0,.19,0s-.06-.09,0-.09,0-.12.06-.17.06.21.1.11a.26.26,0,0,1,.06.2c0-.13.14,0,.18,0v.06s0,0,0,0L18,64.15a.09.09,0,0,1,.06.06,1.71,1.71,0,0,1-.08-.29s.05-.09.11,0c-.09,0,.06.15,0,.19s0,0,0,0a.06.06,0,0,1,0,0c.12.1,0-.18.05-.2s.08.15.08.13-.06-.14-.06-.21,0-.07.07-.07l0,0c0-.08,0-.08,0-.12s0,.06,0,.08c0-.16.14.12.15,0,.05,0,.06.15.1.18s.1.09.13,0-.05-.07,0-.2l-.08.12v-.19s0,.1-.07.09,0-.08,0-.16c.1.15,0-.13.14,0l.1.28c.11.09.08-.19.2-.16l-.05,0c0-.12.05,0,.07-.09a.87.87,0,0,0,.09.17c0-.07.07,0,0-.21l.08.11c.1,0,0-.29.08-.29s.07.16.05.25.05,0,0-.06,0-.15.08-.07,0-.14,0-.15l0,0s0-.08,0-.17c.18.26.2-.1.36.12a.57.57,0,0,1,.14-.13s0,0,0,0-.05-.27.06-.21,0,.1,0,.14c.12.3.08-.07.2.09v0c.08.09.06-.15.13-.15s0,0,0,0a.43.43,0,0,1,.1-.31.67.67,0,0,0,.05.19s-.07-.19,0-.25a.82.82,0,0,1,.15.23l0,0c.09.16.07,0,.11,0l0,.08c.07-.06,0-.24.1-.26l0-.05c0-.19.07.09.07-.06l.08.18a1.52,1.52,0,0,1,.09-.28,1.13,1.13,0,0,1,0,.34.12.12,0,0,0,.08-.15s0,.07,0,0,0-.24.08-.26c.11.35.19,0,.33.29.06-.17.24,0,.36-.09-.15-.26,0,0-.08-.3,0,0,0,0,.05,0l.15.14c.05.08,0,.07,0,.14s.07.11.14.17c-.05-.1,0-.16,0-.13l-.1-.11c0-.19.16.2.2,0v.1c0-.07.18-.06.14-.3,0,0,.06.1,0,.13s.16-.33.3-.22l0,.07s0-.15,0-.09,0,.08,0,.08,0-.14.05-.11v.08c.15,0,.1-.25.18-.33a.35.35,0,0,0,.23.26v0c.14,0,.16-.25.25-.37.15.19.28,0,.44.08a.27.27,0,0,1,0-.19s0-.16.08,0h0c.09.18.13.11.17.1l-.08-.25c.25.32.26-.24.44.06,0-.07,0-.08,0-.16l.05.14a.31.31,0,0,0,.22-.06v.1c.06,0-.07-.4,0-.43l.08.19c.1,0,.25.1.28-.11,0,0,0,.09,0,.1s.21.07.1-.19c.07.17.1,0,.13-.12l0,.14c0-.18,0-.23,0-.3s.05.1,0,.08,0-.14.07-.09v.09c.05,0,0,0,0-.16s.11,0,.16.11c0-.07,0-.17,0-.15a.18.18,0,0,1,0,.09c.11.06.06-.19.17-.09a.34.34,0,0,0,0,.08l-.12,0c0,.11.11.12.13.3,0-.11,0-.33.08-.29s0,0,0,0h0s0,0,0,0,0,0,.06,0,.08,0,.1,0,0-.12-.07-.22,0,0,0,0,0,0,0,0h0l-.06,0c0-.07,0-.14,0-.08s0-.18,0-.22c.1.17.21.24.26.35.05-.1.17-.12.13-.38,0,0,.05.06.07.1s0,0,0,.07.12-.08.07-.25c.09.06,0,.17.09.11v.06c.25.21.09-.53.39-.24,0,0,0,0,0-.05.25.08.34-.29.63-.12.07,0,0-.08,0-.17l.06.13v-.18c0-.15.26.29.28,0l-.05-.09c.05,0,.1-.09.13,0s0-.11,0-.06l0,.07,0-.16c.09,0,.1.3.21.27a.48.48,0,0,0,0-.29s-.05,0-.08-.11l0,0a1.27,1.27,0,0,0-.26-.56l0,.15-.05-.1.05,0c-.07-.09-.06,0-.05.07a.72.72,0,0,0-.07-.11l0,.23c0-.08,0-.18-.09-.21s.09.18.07.26c-.07-.09-.09-.17-.09-.07a.23.23,0,0,1,0-.13c0,.08-.07.06,0,.18-.07-.11-.08.07-.16-.14a.42.42,0,0,1,0,.2c0-.26-.11,0-.19-.24,0,.23-.1.14-.12.29,0,0,0-.06,0,0s-.08-.07-.12-.1a.83.83,0,0,1,0,.37c-.1-.16-.05-.22-.12-.39.05.15,0,.18,0,.29a.79.79,0,0,1-.12-.18c.08.23,0,.05,0,.2-.09-.1-.09-.21-.12-.12A.22.22,0,0,1,26.75,59.5Zm-1.16.86h0l0,0Zm-.11,0,.05,0s0,.1,0,.1S25.51,60.44,25.48,60.41Zm.56.81s0,0,0,0l0,0h0A.14.14,0,0,1,26,61.22Z"/><path class="cls-1" d="M26,61h0l0,0v0Z"/><path class="cls-1" d="M16.07,64.44h0s0,0,0,0Z"/><polygon class="cls-1" points="23.89 60.7 23.9 60.74 23.9 60.7 23.89 60.7"/><path class="cls-1" d="M15.31,64.21l0,0Z"/><path class="cls-1" d="M15,64.27l-.06,0Z"/><path class="cls-1" d="M14.81,64.28s0,0,0,.06h0Z"/><path class="cls-1" d="M17.93,63h0S17.93,63,17.93,63Z"/><path class="cls-1" d="M17.09,63.62a.17.17,0,0,0,0-.07S17.07,63.55,17.09,63.62Z"/><polygon class="cls-1" points="18.92 62.44 18.92 62.44 18.93 62.44 18.92 62.44"/><path class="cls-1" d="M17.15,63.54s0,0,0,0S17.14,63.56,17.15,63.54Z"/><path class="cls-1" d="M13.93,64.54h0v0Z"/><path class="cls-1" d="M13.92,64.56h0S13.93,64.57,13.92,64.56Z"/><path class="cls-1" d="M13.91,64.62v-.05S13.9,64.58,13.91,64.62Z"/><path class="cls-1" d="M14.22,64.5l0,0Z"/><path class="cls-1" d="M14.29,64.46s-.08-.09-.1,0v0C14.19,64.38,14.3,64.54,14.29,64.46Z"/><path class="cls-1" d="M14.84,64.92h-.08s.07.1,0,.13C14.94,65.16,14.74,64.93,14.84,64.92Z"/><path class="cls-1" d="M15.07,64.92s0,.07,0,.1S15.11,65,15.07,64.92Z"/><path class="cls-1" d="M16.58,64.37l0,.12S16.6,64.44,16.58,64.37Z"/><polygon class="cls-1" points="16.64 63.65 16.59 63.59 16.61 63.7 16.64 63.65"/><polygon class="cls-1" points="17.12 64.43 17.11 64.46 17.14 64.4 17.12 64.43"/><path class="cls-1" d="M19.63,63.47l-.06-.14S19.61,63.53,19.63,63.47Z"/><path class="cls-1" d="M20.67,62.93c0,.07.08.1.08,0S20.67,62.91,20.67,62.93Z"/><polygon class="cls-1" points="24.02 61.98 24.02 62.03 24.05 61.98 24.02 61.98"/><path class="cls-1" d="M21.59,66.91s.11.09.1.07l-.12-.12Z"/><path class="cls-1" d="M21.88,67a1.26,1.26,0,0,0-.26-.26c.11.11.06.07.19.21s-.06,0-.1-.06,0,0,0,.07.12,0,.06,0A.3.3,0,0,1,21.88,67Z"/><path class="cls-1" d="M23,66.16h0Z"/><path class="cls-1" d="M23.61,65.58s0,0,0,0Z"/><path class="cls-1" d="M23.84,65.59h0Z"/><path class="cls-1" d="M23,66.16l.05,0S23,66.16,23,66.16Z"/><path class="cls-1" d="M21.71,66.63a.05.05,0,0,0,0,0v0Z"/><path class="cls-1" d="M22.83,66.53h0l0,0Z"/><path class="cls-1" d="M22.66,66.77a.86.86,0,0,0-.14-.14s.06.06.06.08Z"/><path class="cls-1" d="M22.18,67v0Z"/><path class="cls-1" d="M23,66.4l0,0Z"/><path class="cls-1" d="M27.51,59.63h0Z"/><path class="cls-1" d="M28.25,59.82h0l.06.05Z"/><path class="cls-1" d="M24.15,65.5h0S24.15,65.51,24.15,65.5Z"/><path class="cls-1" d="M25.68,63.59c-.11-.06-.09-.14-.22-.2C25.5,63.42,25.6,63.56,25.68,63.59Z"/><path class="cls-1" d="M21.73,66.64h0S21.73,66.63,21.73,66.64Z"/><path class="cls-1" d="M25.46,63.39Z"/><path class="cls-1" d="M24.49,65l0,0Z"/><path class="cls-1" d="M24,65.2h0Z"/><path class="cls-1" d="M24.5,64.68s0,0,0,0h0S24.52,64.69,24.5,64.68Z"/><path class="cls-1" d="M24.66,64.49l0,0v0Z"/><path class="cls-1" d="M27.07,60.24l.1.07C27.09,60.25,27.09,60.2,27.07,60.24Z"/><path class="cls-1" d="M21.77,66.69s0,0,0,0h0Z"/><path class="cls-1" d="M23.68,64h0Z"/><path class="cls-1" d="M25.92,61.59v0Z"/><path class="cls-1" d="M23.78,63.84l.09,0,0,0Z"/><path class="cls-1" d="M27.17,60.31Z"/><path class="cls-1" d="M27.09,59.9s.13.13.2.2S27.18,60,27.1,60s.13.18.11.19,0,0-.06-.05c.09.12,0,.07.06.22l0,0,.19.16s.07.1,0,0,0,0-.05-.07l0,0c-.14-.1,0-.06-.12-.14s.1.18,0,.17,0-.08-.13-.15h.07c-.22-.15,0,0-.2-.17-.07,0,0,.1,0,.11s.11.08.17.15-.35-.23-.22,0,.23.23.12.19l-.14-.14s.19.2.06.16,0-.07,0-.08.06.09,0,.11l-.13-.11c0,.06,0,.19,0,.25a1.27,1.27,0,0,0-.12-.1c0,.12-.12.11-.24.1l.09.12a.18.18,0,0,1-.08-.06c-.06,0,.07.06.1.11s-.07,0-.1-.07c.06.12.11.28-.05.22l0,0c-.07,0,.19.23.06.17v0c-.11,0-.08.19-.29.1.15.15-.12,0,.09.2-.14-.05-.17-.1-.29-.11s.12.15.12.18L26,61.5l.1.13-.15-.1v0a.28.28,0,0,1,.1.06c0,.07-.14,0-.2-.05l0,.14a.3.3,0,0,1-.07-.1c.09.14-.12-.1-.05,0l.09.08c-.08,0-.11,0-.1,0l-.08-.07c-.06,0-.05.13-.09.18a.48.48,0,0,1,.18.16L25.61,62c.06.07.06,0,.13.12s-.15-.11-.18-.15l0,.06a.45.45,0,0,1-.09-.1c.06.08-.16-.06,0,.07l0,0c-.05,0,0,.11-.06.16s.07.09.14.17-.17,0-.2,0,.09.09.14.15c-.1-.08-.12,0-.18-.11s0,.07,0,.2.07,0,.1.07-.06,0-.11-.06h0c.09.19-.4-.09-.25.13h0l.06.15s-.06-.08-.13-.11c.11.19-.11.07,0,.21-.31-.21-.09.14-.32,0l.07.05c.06.07-.05,0-.07,0s.07,0,.1.08-.29.14-.45.2.32.32.12.23l-.11-.12c.07.21-.15.16-.1.35,0,0-.06-.06-.05-.07s-.06.06,0,.13-.07-.06-.11-.08.08.14,0,.07,0,0,0,0,0,0,.06.12c-.08,0,0,.1-.09.07.1.12-.1,0,.06.15-.17-.15-.18-.06-.12,0s-.07,0-.13-.09,0,.07.09.14c-.24-.14.09.22-.19,0a1.13,1.13,0,0,1,0,.35c-.16-.15,0-.08-.14-.23,0,.11.14.27.05.29s-.06-.07-.09-.1-.11.09-.06.22a.09.09,0,0,1,0-.05s-.05,0,0,.07v0c.12.08.19.24.25.29-.2-.21-.1,0-.35-.27a.53.53,0,0,0,.09.11.32.32,0,0,1-.1-.09c0,.07.1.13.07.16a.76.76,0,0,1-.09-.09c.06.07.12.15.07.15s-.06,0-.05-.05.12.25,0,.24c-.15-.16-.07,0-.21-.15l0,.06.08,0s.06.13,0,.11l0-.07v.07l.07,0c.06.09.18.15.12.15s0,0-.12,0h0s.07.1,0,.09-.15-.14-.18-.16,0,.08.09.21a.57.57,0,0,0-.11-.11l.09.09s-.06,0-.12-.08.19.15.08.12l0,0c-.07,0,0,.13-.08.12s0-.06-.14-.15c0,.08.08.25,0,.28h0c.19.18-.13,0-.06.06a.54.54,0,0,0-.08-.08c-.06,0,0,.11,0,.21l-.05,0c-.06,0-.07,0-.11,0s0,0,.1.11c-.34-.18.05.26-.25.11,0,0,0,0,0,0v.09l.13.09c.05,0,.08.1.07.11a.48.48,0,0,0-.2-.15l.08.07c-.17-.1.17.16,0,.1l-.05,0s.06.1,0,.1,0,0-.12-.12.16.2,0,.13,0,0,0-.07-.11-.06-.14-.06h-.08l0,0c.24.25,0,.09.14.28-.13-.18-.08-.09-.19-.19a.47.47,0,0,1-.12-.07c.08.1-.09,0,0,.11,0,0,0,0-.11-.07s.07,0,.11.09-.21,0-.08.14.15.22.17.31a.39.39,0,0,1-.12-.13c-.07,0-.07,0,0,.05l-.1-.08s.12.13.05.1a.86.86,0,0,1-.13-.14.89.89,0,0,0,.08.17c-.07,0-.08-.09-.12-.13a.31.31,0,0,0,.1.19l.05,0s-.09-.07-.1-.09.06,0,.09,0v0c.23.17,0-.09,0-.1l.15.14-.11-.14s.14.1.15.14,0-.07.06,0l0,0,0-.06s.11.1.08.09-.07-.16.06-.07h0c0-.09-.11-.1-.21-.25l.3.22-.11-.11s0,0,.07,0-.05,0-.11-.11c.12.06,0-.11.19,0-.08-.08-.09,0-.12-.11.2.16,0-.06.1,0s0,.07.13.12c-.16-.16.07,0,0-.05s0-.09,0-.16.13,0,.2,0l0,0c-.13-.12-.08-.13-.09-.18a.57.57,0,0,1,.14.15l0,0s-.06-.07-.06-.1l.09.1s-.07-.16,0-.14c-.1-.08-.29-.2-.32-.29a.7.7,0,0,1,.15.15s0-.05,0,0l.07.09c.05,0-.06-.07-.05-.08s.06,0,.12.09,0,0,0,0,.08,0,.14.06-.1-.09-.1-.11.1.07.15.09,0,0-.09-.12.06,0,.09.06.05-.08-.08-.16h0c-.07-.14.15,0,.14-.13l0,0c0-.06,0-.08,0-.17a.32.32,0,0,1,.12.09s-.05-.09,0-.06.06,0,0,.06.12,0,0-.07c.09.09.14.08.12,0l-.08,0a0,0,0,0,1,0,0l.12.11c.2.08-.17-.32.12-.14-.07-.09-.09,0-.18-.13s.24.12.25.11-.15-.18-.08-.18a.66.66,0,0,1-.18-.19s.21.13.23.17h0a.16.16,0,0,0,.07.08l0,0c.06,0,.08,0,.15.06a.14.14,0,0,0-.1-.08c.09,0,0,0,.11,0l-.08-.06c.1,0-.06-.1,0-.15s.15.15.13.07.12.09.15.13.1,0,.13,0l0,.05a.08.08,0,0,1,0-.05L24,65.51s0,0,.07,0-.16-.12-.22-.21,0-.08.11,0c-.08,0,.12.09.11.14s0,0,0,0l0,0c.13.06-.12-.13-.08-.17s.13.1.12.08-.12-.08-.15-.14,0-.06,0-.07h0c-.06-.06,0-.06-.05-.1s0,0,.05.06.16.06.11,0,.12.1.16.12.12.05.08,0a.41.41,0,0,1-.15-.14l0,.1-.1-.14s0,.08,0,.08A.34.34,0,0,0,24,65c.15.1,0-.11.07-.06l.22.2c.13,0-.06-.17,0-.17l-.05,0c-.08-.08,0,0,0-.08a.93.93,0,0,0,.16.11c-.06,0,0,0-.11-.16l.12.06c.07,0-.17-.23-.11-.24s.13.11.17.18,0,0,0-.06-.07-.12,0-.07-.1-.1-.08-.11l0,0a.42.42,0,0,0-.12-.12c.26.16.08-.12.31,0a.19.19,0,0,1,0-.13s0,0,0,0-.19-.2-.08-.17,0,.07.1.1c.25.2,0-.08.17,0v0c.1,0-.05-.13,0-.15l0,0A.46.46,0,0,1,24.8,64a.86.86,0,0,0,.14.13s-.16-.13-.16-.18a1.4,1.4,0,0,1,.23.14l0,0c.14.1,0,0,.06,0l.06,0c0-.06-.13-.18-.08-.22l-.05,0c-.12-.15.1,0,0-.07l.15.12a.92.92,0,0,1-.09-.23,1.88,1.88,0,0,1,.17.27s0-.06,0-.13,0,0,0,0-.14-.19-.11-.22c.28.25.14,0,.38.15,0-.15.15-.07.18-.15-.24-.17,0,0-.22-.22,0,0,0,0,0,0l.17.07c.08,0,0,.06.09.11s.11.06.19.1c-.09-.07-.11-.12-.06-.11l-.13-.06c-.08-.15.23.12.15,0l.06.08c0-.06.07-.09-.09-.27a.53.53,0,0,1,.11.09c.07,0-.09-.29.06-.24l.06,0s-.09-.11,0-.07l.06,0s-.07-.11,0-.1l.05.07c.12,0-.08-.22-.08-.3.17.14.26.15.3.15l0,0c.08,0,0-.23-.05-.34.21.11.19-.06.34,0a.44.44,0,0,1-.14-.13c.05,0-.08-.14.07,0h0c.16.12.15.06.17,0l-.19-.18c.33.19,0-.24.31-.05,0-.06,0-.07-.06-.13l.11.09c.06,0,.09,0,.11-.09l.06.07s-.27-.3-.26-.33L27,62c0-.05.22,0,.12-.15l.06.08s.18,0,0-.17c.14.12.06,0,0-.12l.1.09c-.11-.13-.15-.17-.16-.23s.09.07,0,0-.08-.1,0-.08l.06.07s0,0-.07-.13.06,0,.16.05c-.06-.05-.12-.13-.08-.12l.06.06c.11,0-.06-.16.06-.1l.07.05s-.06,0-.07,0,.14.07.25.21c-.05-.09-.18-.26-.11-.25l0,0h0s0,0,0,0h.05c.08.06.07,0,.09,0s-.08-.09-.18-.15,0,0,0,0h0l0,0c0-.05-.07-.1,0-.07l-.16-.16c.17.11.27.14.37.21,0-.09,0-.13-.13-.32,0,0,.07,0,.1.06s0,0,0,0,0-.08-.09-.21c.08,0,.11.13.12.07l0,0c.29.11-.24-.43.12-.27a.11.11,0,0,1-.06,0c.21,0,.06-.31.34-.23.06,0,0-.08-.07-.15l.12.09-.11-.14c-.06-.12.34.17.2,0l-.08-.06s0-.1.09,0-.07-.07,0,0l.06,0L28.26,60c.08,0,.23.21.29.17a.72.72,0,0,0-.17-.23.22.22,0,0,1-.11-.06l0-.05a2,2,0,0,0-.49-.38l.08.12-.09-.06v0c-.09-.06,0,0,0,.07a.37.37,0,0,0-.1-.07l.14.17c-.07,0-.12-.13-.18-.14s.16.12.2.18-.16-.11-.1,0a.24.24,0,0,1-.09-.08c0,.06,0,.06.07.14-.11-.07,0,.08-.18-.07,0,0,.11.14.1.16-.17-.2-.05,0-.26-.15.16.17,0,.14.09.26l0,0s-.08,0-.13,0a1.23,1.23,0,0,1,.23.28c-.16-.1-.16-.16-.3-.28.12.11.08.15.19.22a.8.8,0,0,1-.19-.11c.18.16,0,0,.12.15-.11,0-.18-.14-.14-.06A.4.4,0,0,1,27.09,59.9Zm-.26.93h0v0Zm0,.06a0,0,0,0,0,0,0s.08.06.07.07S26.83,60.91,26.79,60.89Zm.82.51s0,0,0,0,0,0,0,0v0Z"/><path class="cls-1" d="M27.49,61.27h0l0,0,0,0Z"/><path class="cls-1" d="M23,66.16Z"/><polygon class="cls-1" points="25.92 61.48 25.95 61.5 25.93 61.48 25.92 61.48"/><path class="cls-1" d="M22.33,66.15l0,0Z"/><path class="cls-1" d="M22.19,66.26h0Z"/><path class="cls-1" d="M22.05,66.32l.05,0h0Z"/><path class="cls-1" d="M23.34,64.6h0S23.32,64.58,23.34,64.6Z"/><path class="cls-1" d="M23.16,65.29s0,0,0-.06S23.1,65.24,23.16,65.29Z"/><polygon class="cls-1" points="23.68 63.95 23.68 63.96 23.68 63.95 23.68 63.95"/><path class="cls-1" d="M23.15,65.21s0,0,0,0S23.16,65.23,23.15,65.21Z"/><path class="cls-1" d="M21.62,66.72h0Z"/><path class="cls-1" d="M21.63,66.73v0A0,0,0,0,0,21.63,66.73Z"/><path class="cls-1" d="M21.65,66.78v0S21.63,66.75,21.65,66.78Z"/><path class="cls-1" d="M21.79,66.62l0,0Z"/><path class="cls-1" d="M21.81,66.57s-.1,0-.09,0l0,0C21.7,66.53,21.87,66.64,21.81,66.57Z"/><path class="cls-1" d="M22.43,66.81h-.06s.1.07.1.09C22.63,67,22.37,66.84,22.43,66.81Z"/><path class="cls-1" d="M22.58,66.76s.06,0,.08.07S22.63,66.77,22.58,66.76Z"/><path class="cls-1" d="M23.25,66l.09.08S23.3,66,23.25,66Z"/><polygon class="cls-1" points="22.88 65.42 22.81 65.38 22.89 65.46 22.88 65.42"/><polygon class="cls-1" points="23.64 65.92 23.64 65.94 23.63 65.88 23.64 65.92"/><path class="cls-1" d="M24.72,64.6l-.12-.09S24.74,64.65,24.72,64.6Z"/><path class="cls-1" d="M25.09,63.94c.06.05.11.07.06,0S25.08,63.92,25.09,63.94Z"/><polygon class="cls-1" points="26.73 62.45 26.76 62.49 26.74 62.44 26.73 62.45"/><path class="cls-1" d="M39.62,59.8c.05,0,.14,0,.12,0l-.16,0Z"/><path class="cls-1" d="M39.93,59.49a.44.44,0,0,0-.37-.08c.15.05.09.06.28.12,0,0-.06.08-.12.07s0,.08.07.1.13-.14,0-.22A.21.21,0,0,1,39.93,59.49Z"/><path class="cls-1" d="M40.18,55l0,0A0,0,0,0,0,40.18,55Z"/><path class="cls-1" d="M40.27,52.13a0,0,0,0,0,0,0Z"/><path class="cls-1" d="M40.45,51.65a0,0,0,0,0,0,0S40.46,51.66,40.45,51.65Z"/><path class="cls-1" d="M40.18,55l0-.08S40.19,54.91,40.18,55Z"/><path class="cls-1" d="M39.53,58.86a.1.1,0,0,0,0,0,.05.05,0,0,1,0,0Z"/><path class="cls-1" d="M40.31,56.19v0l.07,0Z"/><path class="cls-1" d="M40.34,57.14s-.14,0-.2,0,.09,0,.1,0Z"/><path class="cls-1" d="M40.09,58.65l0,0Z"/><path class="cls-1" d="M40.34,55.5h0Z"/><path class="cls-1" d="M40.62,50.77h0S40.64,50.78,40.62,50.77Z"/><path class="cls-1" d="M40.52,42.7c-.12.09-.16-.15-.29,0C40.28,42.67,40.44,42.81,40.52,42.7Z"/><path class="cls-1" d="M39.55,58.84v0S39.55,58.83,39.55,58.84Z"/><path class="cls-1" d="M40.23,42.69Z"/><path class="cls-1" d="M40.54,48.74l-.06,0Z"/><path class="cls-1" d="M40.35,50.25v0A0,0,0,0,0,40.35,50.25Z"/><path class="cls-1" d="M40.35,48s0,0,0-.05h0S40.37,47.94,40.35,48Z"/><path class="cls-1" d="M40.35,47.15h0v0Z"/><path class="cls-1" d="M39.61,58.86l-.06,0s0,0,0,0Z"/><path class="cls-1" d="M39.26,47.93l0-.13A.25.25,0,0,0,39.26,47.93Z"/><path class="cls-1" d="M39.39,37.2l0,0S39.37,37.2,39.39,37.2Z"/><path class="cls-1" d="M39.26,47.41a.22.22,0,0,0,.09-.07h0Z"/><path class="cls-1" d="M40.41,42.49c.08-.05.06.06.13,0s.13-.06.21-.15c-.11,0-.16,0-.12-.13l-.14.11c-.16-.2.26-.17.1-.37l.09.06c0-.1,0-.38-.24-.48,0,0,.12,0,.14,0,0-.25-.25-.55-.11-.75l.08,0s-.14-.08-.07-.13.08,0,.08,0-.13-.12-.08-.18l.08,0c.09-.24-.2-.37-.25-.57.21,0,.28-.19.32-.29h0c0-.28-.18-.47-.27-.73.24-.17.1-.55.23-.81,0,0-.16,0-.19-.06s-.15-.16,0-.16v0c.19-.05.14-.18.15-.27l-.26,0c.37-.26-.14-.67.2-.81-.07-.06-.07-.14-.13-.2h.14a1.19,1.19,0,0,0,0-.47l.1.05c0-.12-.41-.15-.41-.26l.2,0v0a6.65,6.65,0,0,1-1-.11.44.44,0,0,1-.11.24c.21,0-.09.29.2.31-.15.17-.2.13-.29.37,0,.06.18.09.21.17h-.16l.16.11-.18.06,0,.08a.11.11,0,0,1,.11-.06c.07.11-.1.28-.18.28l.13.28c-.06,0-.08,0-.12-.09.15.15-.16,0,0,.16a.25.25,0,0,1,.12,0c-.09.06-.09.22,0,.33l-.11,0c0,.2,0,.43,0,.66.05-.08.23-.06.25,0l-.16,0c.1,0,.06-.07.18,0s-.18.06-.24,0l.06.1s-.07,0-.13,0c.1,0-.16.18,0,.24h-.05c0,.23.05.33.06.52.14,0,.11.07.22.13a1.37,1.37,0,0,0-.14.46c.07.11.12,0,.2.08-.13,0-.11.18-.2.09a1.38,1.38,0,0,0,.12.51c.05,0,.08-.06.12,0s-.05.1-.11.09h0c.19.28-.36.65-.1.88h0l.13.23c0,.11-.09-.07-.17,0,.21.26,0,.4.11.61-.37.16,0,.57-.21.78h.09c.08.06-.05.07-.07.11s.07-.06.12,0a4.18,4.18,0,0,1-.2,1.47c0,.18.45.1.24.32l-.16-.06c.19.36,0,.73.16,1.09,0,0-.09,0-.09-.06s0,.27.09.28-.09,0-.14,0,.15.19,0,.23,0,0,0,0,0,.23.12.18c-.06.14.06.26,0,.36.15.07-.07.23.14.25-.22,0-.18.23-.07.31-.07,0-.07.07-.16,0s0,.18.15.17c-.26.17.22.35-.12.45a3.85,3.85,0,0,1,.25.8c-.22,0,0-.28-.25-.27.09.24.28.38.22.62,0,.06-.09,0-.13-.06.09.24,0,.47.1.68,0,0,0,0-.06,0s0,.1.07.1l0,0c.15-.07.31.16.38.17-.29-.07-.07.21-.43.1a.15.15,0,0,0,.13.06s-.06,0-.14,0c.06.15.17.1.16.23s-.06,0-.12,0c.09.07.19.14.15.26s-.07,0-.07,0c0,.2.25.34.16.56-.21-.07-.07.07-.25.08l0,.12.09,0c0,.1.13.2.07.28L39.57,52l0,.19.07-.11c.1.11.24,0,.18.13,0,0,0,.1-.11.15h0c.06,0,.12.11.08.18a1.91,1.91,0,0,1-.24,0c.15,0,0,.24.2.3a.27.27,0,0,0-.15,0l.12,0s-.06,0-.13,0,.23,0,.13.12l0,0c-.05.17.08.33,0,.48s0-.13-.2-.08c0,.23.22.47.18.69l0,0c.26,0-.13.16,0,.27s-.15,0-.12,0,.07.31.15.54l-.07,0c-.06.09,0,.23-.06.33s0,.08.15.05c-.38.29.21.56-.11.82,0,0-.06-.08-.06-.05l.06.22c.11,0,.07,0,.16-.08a.19.19,0,0,1,.12.15c-.08-.1-.18,0-.25,0h.11c-.2.11.23,0,.09.18h-.06c0,.06.11.11.1.18s-.07-.07-.17-.07.25.18.11.26,0-.1-.07-.13-.11.1-.14.16h0l-.07.16.05,0c.34.11.06.23.28.38-.21-.15-.12,0-.27,0s-.09.1-.13.08c.12.08-.09.12.08.23,0,0,0,.07-.12.06,0,.09.08,0,.14,0s-.2.34,0,.55.25.21.33.37-.17,0-.17,0a.17.17,0,0,0,0,.24s-.08,0-.14,0,.18.05.11.14a1.07,1.07,0,0,1-.19-.07c0,.08.13.16.17.24s-.12,0-.18-.07a.93.93,0,0,0,.11.19c-.07-.07.06-.11.1-.11l0,.06c.28-.06,0-.24,0-.36l.21,0-.17-.12s.17-.05.2,0-.08-.07,0-.15h0L40,58.56s.15,0,.12,0c.11-.15-.16-.24,0-.3v0c-.07-.21-.15,0-.33-.18l.37-.1-.15,0s0-.07.08-.06c-.1-.08-.06,0-.16,0,.14-.11-.06-.29.17-.31-.11,0-.08.1-.16,0,.25,0,0-.13.07-.22s.06.11.18,0c-.22-.06.05-.18,0-.26s-.08-.17-.14-.31.1-.25.17-.37h0c-.18,0-.15-.15-.19-.24a.23.23,0,0,1,.2.07v-.09a.15.15,0,0,1-.11-.11l.14,0c0-.12-.16-.24-.07-.39-.13,0-.35.12-.44,0,.07,0,.19,0,.22,0s-.06,0,0-.07l.11.06c0-.07-.09,0-.08-.09s.07,0,.14,0,0,0,0,.07a.28.28,0,0,1,.15-.17c-.05,0-.13,0-.14,0s.11,0,.16-.11,0-.1-.14-.1.07,0,.11-.06,0-.28-.17-.21v0h0c-.14-.2.08-.42,0-.61h.05c-.06-.12,0-.26-.14-.35s.09-.08.15-.06-.09-.1,0-.23c.08.09.07,0,.06.09,0-.12.12-.14,0-.27.12,0,.15-.08.12-.14l-.09.08a.33.33,0,0,1,0-.17l.16,0c.2-.24-.34-.43,0-.61-.12-.06-.08.13-.22.07,0-.11.26-.22.26-.25s-.24-.14-.18-.3c-.05,0-.21,0-.27-.08s.25-.13.3-.07a0,0,0,0,1,0,0s.05.08.11,0h-.06c.06-.06.06-.21.15-.17s-.09,0-.12,0c.08-.14,0-.22.06-.36,0,0-.1,0-.1,0,.07-.21-.11-.09-.14-.24s.21,0,.14-.11.15,0,.2,0c-.11-.13.07-.24.1-.32l0,.07s0-.07,0-.11l-.12,0s0-.07.07-.07-.2,0-.3,0c.06-.06-.06-.17.09-.19,0,.17.16,0,.18.13a.11.11,0,0,1,0-.11s0,0,0,0c.14-.16-.17-.07-.17-.24.09,0,.17,0,.15-.07s-.15,0-.21,0,0-.12,0-.18l0,.07c-.08,0-.07-.08-.1-.15s0,.07.08,0c-.16-.09.16-.19.05-.31.06,0,.17,0,.21,0-.12-.13.12-.14,0-.28-.12,0-.09,0-.2,0l.08.22-.17-.14c0,.07.07.14,0,.18s-.06-.06-.16,0c.18-.09-.1-.18,0-.29h.29c.13-.16-.15-.29-.08-.5l0,.07c-.11,0,0-.13-.06-.2.1,0,.13,0,.19-.06s0-.16-.19-.18l.13-.09c0-.17-.27-.2-.24-.36.1,0,.17,0,.25.08,0,0,0-.1,0-.1s-.13-.16,0-.21-.14,0-.14-.09h0s-.06-.09-.17,0c.3-.17,0-.47.24-.62a1.72,1.72,0,0,1-.07-.37s0,0,0,0c.09-.15-.28-.09-.18-.26s.08.09.14,0c.32,0,0-.2.14-.32l0,0c.11-.09-.12-.22-.09-.36h0a.73.73,0,0,1-.26-.42c.13,0,.07.06.19,0s-.2,0-.23-.11a.46.46,0,0,1,.26-.14v.12c.17-.06,0-.15,0-.21h.08c0-.18-.22-.18-.21-.37l0,0c-.2-.1.1-.09,0-.19l.19,0a2.41,2.41,0,0,1-.22-.37c.14.07.22.22.3.3a.43.43,0,0,0-.07-.22,0,0,0,0,1,0,0,.37.37,0,0,1-.22-.34c.37,0,.09-.35.38-.45-.14-.24.06-.48,0-.76-.29.1,0-.08-.31-.07,0-.06,0-.09,0-.09Z"/><path class="cls-1" d="M40.16,55h0l0,0Z"/><polygon class="cls-1" points="39.32 36.94 39.35 36.94 39.32 36.91 39.32 36.94"/><path class="cls-1" d="M39.68,56.31l0,0Z"/><path class="cls-1" d="M39.65,56.89l0,.08A.25.25,0,0,0,39.65,56.89Z"/><path class="cls-1" d="M39.58,57.33h0Z"/><path class="cls-1" d="M39.42,50.28h0S39.4,50.25,39.42,50.28Z"/><path class="cls-1" d="M39.74,52.38s-.05,0-.06-.06S39.66,52.38,39.74,52.38Z"/><path class="cls-1" d="M39.25,47.94h0Z"/><path class="cls-1" d="M39.68,52.22a.08.08,0,0,0,0,.1S39.7,52.25,39.68,52.22Z"/><path class="cls-1" d="M39.52,59.26v0h0Z"/><path class="cls-1" d="M39.54,59.28v0S39.55,59.28,39.54,59.28Z"/><path class="cls-1" d="M39.59,59.35l0-.05S39.55,59.34,39.59,59.35Z"/><path class="cls-1" d="M39.58,58.67h0Z"/><path class="cls-1" d="M39.57,58.49s-.11.11-.08.17h0C39.46,58.64,39.65,58.53,39.57,58.49Z"/><path class="cls-1" d="M40.19,57.75l0,.15c.05,0,.12-.06.14,0C40.45,57.72,40.17,57.94,40.19,57.75Z"/><path class="cls-1" d="M40.27,57.28c0,.08.07,0,.1,0S40.31,57.22,40.27,57.28Z"/><path class="cls-1" d="M40.27,53.93h.12C40.37,53.88,40.34,53.94,40.27,53.93Z"/><polygon class="cls-1" points="39.62 53.29 39.54 53.35 39.65 53.38 39.62 53.29"/><polygon class="cls-1" points="40.51 52.92 40.53 52.94 40.48 52.84 40.51 52.92"/><path class="cls-1" d="M40.47,47.29l-.16,0S40.51,47.36,40.47,47.29Z"/><path class="cls-1" d="M40.31,44.86c.08,0,.13-.09,0-.13S40.29,44.83,40.31,44.86Z"/><polygon class="cls-1" points="40.56 37.58 40.61 37.63 40.57 37.54 40.56 37.58"/><path class="cls-1" d="M52.65,60.13s0-.14,0-.12v.16Z"/><path class="cls-1" d="M52.53,59.83a.89.89,0,0,0,0,.36c0-.15,0-.09,0-.27,0,0,0,0,0,.11s0,0,0-.07,0-.13-.09,0A.34.34,0,0,1,52.53,59.83Z"/><path class="cls-1" d="M50.72,59.57l0,0Z"/><path class="cls-1" d="M49.61,59.48s0,0,0,0A0,0,0,0,0,49.61,59.48Z"/><path class="cls-1" d="M49.42,59.3h0S49.42,59.29,49.42,59.3Z"/><path class="cls-1" d="M50.72,59.57l0,0S50.71,59.56,50.72,59.57Z"/><path class="cls-1" d="M52.28,60.22s0,0,0,0h0Z"/><path class="cls-1" d="M51.22,59.44h0v0Z"/><path class="cls-1" d="M51.59,59.42s0,.13,0,.19a.16.16,0,0,1,0-.1A.34.34,0,0,0,51.59,59.42Z"/><path class="cls-1" d="M52.19,59.66v0Z"/><path class="cls-1" d="M51,59.41a.43.43,0,0,0,0,0A.09.09,0,0,0,51,59.41Z"/><path class="cls-1" d="M40.39,60.45v0Z"/><path class="cls-1" d="M40,59.76h0v0Z"/><path class="cls-1" d="M49.07,59.13Z"/><path class="cls-1" d="M45.87,59.23c0,.12-.06.16,0,.29C45.86,59.47,45.91,59.31,45.87,59.23Z"/><path class="cls-1" d="M52.27,60.2h0Z"/><path class="cls-1" d="M45.86,59.52h0Z"/><path class="cls-1" d="M48.27,59.21v0Z"/><path class="cls-1" d="M48.86,59.41v0Z"/><path class="cls-1" d="M48,59.4s0,0,0,0v0S48,59.38,48,59.4Z"/><path class="cls-1" d="M47.63,59.41v0h0Z"/><path class="cls-1" d="M41.37,60.38a.49.49,0,0,1,0-.12C41.36,60.36,41.31,60.39,41.37,60.38Z"/><path class="cls-1" d="M52.28,60.14a.22.22,0,0,1,0,.06h0Z"/><path class="cls-1" d="M47.94,60.5l0,0S47.92,60.5,47.94,60.5Z"/><path class="cls-1" d="M43.69,60.36v0S43.69,60.38,43.69,60.36Z"/><path class="cls-1" d="M47.74,60.5a.41.41,0,0,0,0-.1.08.08,0,0,1,0,0Z"/><path class="cls-1" d="M41.36,60.26Z"/><path class="cls-1" d="M41,60.59s0-.18,0-.29,0,.14.05.23.06-.21.09-.21a.21.21,0,0,1,0,.08c0-.14.12,0,.16-.19,0,0,0,0,0,0a2.36,2.36,0,0,1,0-.25s0-.12,0,0,0,.05,0,.08l0-.05c0,.17,0,.06,0,.19,0-.06.1-.2.13-.15s-.08.05,0,.2l-.06-.06c0,.26,0,0,0,.26.07.05.08-.08.15,0a1.69,1.69,0,0,1,0-.23c.1-.17.07.42.15.19s0-.32.08-.21l0,.19c.07,0,0-.27.11-.14s-.06.06,0,.08,0-.1.07-.1v.16c.07,0,.15-.14.23-.18a.43.43,0,0,0,0,.16c.1-.09.22,0,.31.12l0-.15a.16.16,0,0,1,0,.1c0,.05,0-.09,0-.15s0,.08,0,.12c.07-.12.19-.26.26-.1v0c.05.06.06-.3.11-.16v0c.12.07.25-.07.34.15,0-.21.12.09.13-.2.07.15.05.2.14.3s0-.19.07-.22v.16l.05-.16,0,.18,0,0a.17.17,0,0,1,0-.11c0-.07.11.1.11.18l.11-.13a.21.21,0,0,1,0,.12c.06-.15,0,.16.07,0a.48.48,0,0,1,0-.12c0,.09.09.09.14,0v.11c.08,0,.17,0,.26,0a.42.42,0,0,1,0-.25v.16c0-.1,0-.06,0-.18s0,.18,0,.24l0-.06a.56.56,0,0,1,0,.13c0-.09.07.17.09,0v.05c.09,0,.14-.05.21-.06s0-.11.05-.22.12.15.18.14,0-.12,0-.2c0,.13.07.12,0,.21s.1,0,.2-.13a.26.26,0,0,1,0-.12s0,.05,0,.11v0c.11-.19.26.36.35.1v0l.1-.14s0,.09,0,.17c.1-.21.16,0,.24-.11.07.37.23,0,.31.21v-.08c0-.09,0,0,0,.07s0-.08,0-.13c.19-.11.39.13.58.21s0-.46.13-.25l0,.16c.14-.19.29,0,.43-.15,0,0,0,.08,0,.08s.11,0,.11-.09,0,.09,0,.14.08-.15.09,0a.43.43,0,0,1,0,0c0-.06.09,0,.07-.12,0,.06.1-.06.14,0,0-.15.09.07.1-.14,0,.22.09.18.12.07,0,.07,0,.07,0,.17s.07,0,.06-.16c.07.26.14-.22.18.12a1.12,1.12,0,0,1,.32-.25c0,.22-.11,0-.11.26.1-.1.15-.29.25-.23s0,.09,0,.13.18,0,.27-.1,0,0,0,.06,0,0,0-.07v0a.92.92,0,0,1,.07-.38c0,.29.08.07,0,.44a.37.37,0,0,0,0-.14.2.2,0,0,1,0,.14c.06-.06,0-.17.1-.16a.6.6,0,0,1,0,.12c0-.09,0-.19.1-.15s0,.07,0,.07.13-.25.22-.16,0,.07,0,.25l0,0,0-.09s.08-.13.11-.07l0,.07.08,0,0-.07c0-.1,0-.23,0-.18s0,0,.06.11h0c0-.06,0-.12.07-.08s0,.21,0,.25c0-.16.09,0,.12-.21a.86.86,0,0,0,0,.15l0-.12a.26.26,0,0,1,0,.14c.06,0,0-.24,0-.14s0,0,0,0,.13-.08.2,0-.06,0,0,.2c.09,0,.19-.22.28-.17l0,0c0-.27.06.12.11,0s0,.15,0,.12.12-.07.21-.15v.07c0,.06.09,0,.13.06s0,0,0-.15c.11.38.22-.2.32.11,0,0,0,.06,0,.06l.09-.06c0-.11,0-.07,0-.16s0-.12.06-.12a.35.35,0,0,0,0,.25.41.41,0,0,1,0-.11c0,.2,0-.23.07-.09v.06s0-.11.07-.09,0,.06,0,.16.07-.24.1-.11,0,0,0,.07,0,.12.07.14h0l.06.07v-.05c0-.34.09-.06.15-.28-.06.21,0,.12,0,.27a.61.61,0,0,1,0,.13c0-.12,0,.09.09-.08,0,.05,0,0,0,.12,0,0,0-.08,0-.14s.14.2.22,0,.08-.25.15-.33a.3.3,0,0,1,0,.17c0,.07.06.06.1,0a.31.31,0,0,0,0,.13s0-.18,0-.11a1.38,1.38,0,0,1,0,.2s.07-.14.1-.18a.45.45,0,0,1,0,.18.31.31,0,0,0,.11-.21l0,0s0,.11,0,.13,0,0,0-.09l0,0c0-.28-.09,0-.14,0l0-.21,0,.17a.44.44,0,0,1,0-.2c0-.1,0,.08-.06,0v0l0,.06s0-.15,0-.12-.09.16-.11,0h0c-.08.07,0,.15-.07.33l0-.37v.15s0,0,0-.08c0,.1,0,.07,0,.16,0-.13-.12.07-.13-.17,0,.11,0,.08,0,.16,0-.25-.05,0-.09-.07s.05-.06,0-.18c0,.22-.07-.05-.1,0s-.07.08-.12.14-.1-.1-.15-.17v0c0,.19-.06.15-.1.19a.46.46,0,0,1,0-.2h0c0,.06,0,.09,0,.11v-.14s-.09.16-.15.07c0,.13.05.35,0,.44a.59.59,0,0,1,0-.21s0,0,0,0l0-.11s0,.09,0,.08,0-.07,0-.14,0,0,0,0a.31.31,0,0,1-.06-.15c0,.06,0,.13,0,.14s0-.11,0-.16,0,0,0,.14,0-.07,0-.11-.11,0-.08.17h0c-.08.15-.16-.08-.24,0v-.05c0,.06-.1,0-.14.14a.26.26,0,0,1,0-.15s0,.09-.09,0,0-.07,0-.06-.05-.12-.1,0c0-.13,0-.16-.06-.12l0,.08s0,0-.07,0l0-.16c-.1-.2-.17.34-.25,0,0,.12.06.08,0,.22,0,0-.09-.26-.1-.26s-.05.24-.12.18a.42.42,0,0,1,0,.27.44.44,0,0,1,0-.3s0,0,0,0,0-.05,0-.11v.06c0-.06-.08-.06-.07-.15a.1.1,0,0,0,0,.12c0-.08-.08,0-.14-.06s0,.11,0,.1,0,.12-.1.14,0-.21,0-.14,0-.15,0-.2c0,.11-.09-.07-.12-.09l0,0a0,0,0,0,1,0,0l0,.11s0,0,0-.07,0,.2,0,.3c0-.06-.07.07-.08-.09.07,0,0-.15.05-.18s0,0,0,0,0,0,0,0,0,.17-.1.17,0-.17,0-.15,0,.15,0,.21,0,0-.07,0l0,0c0,.09,0,.07-.06.1s0,0,0-.08c0,.16-.08-.15-.12-.05,0-.06,0-.16,0-.2s-.05-.12-.11,0a.23.23,0,0,1,0,.2l.09-.08,0,.17s0-.07.07,0,0,.06,0,.16c0-.18-.08.1-.12,0v-.29c-.06-.13-.11.15-.2.08l0,0c0,.12-.05,0-.08.06a.5.5,0,0,0,0-.19c0,.07-.06,0-.06.19l0-.13c-.07,0-.08.28-.14.24s0-.17,0-.25,0,0,0,0-.06.13-.08,0,0,.14,0,.14v0s0,.06,0,.17c-.06-.3-.18,0-.24-.24a.29.29,0,0,1-.15.07s0,0,0,0,0,.27-.11.17,0-.08,0-.14c0-.32-.08,0-.13-.14v0c0-.11-.08.12-.14.1v0a.42.42,0,0,1-.17.26c0-.13,0-.07,0-.19s0,.2,0,.24a1,1,0,0,1-.06-.27H47c0-.17-.06,0-.09,0v-.08c-.07,0-.08.22-.15.21v.06c0,.19,0-.11-.08,0v-.19a1.43,1.43,0,0,1-.15.22,1.54,1.54,0,0,1,.12-.3s-.09,0-.1.11,0-.07,0,0-.07.23-.13.23c0-.38-.14-.1-.18-.39-.1.14-.19-.06-.3,0,0,.29,0,0,0,.31,0,0,0,0,0,0l-.07-.18c0-.09,0-.07,0-.14s0-.13-.06-.21c0,.11,0,.16-.06.12l.05.14c-.08.16-.07-.26-.15-.1l0-.09s-.15,0-.2.24c0,0,0-.12,0-.14s-.22.26-.3.11V59.2s0,.14-.06.07,0-.08,0-.08,0,.13-.07.09l0-.09c-.1-.09-.15.2-.23.26a.4.4,0,0,0-.11-.33v0c-.11,0-.19.18-.29.27-.07-.24-.22-.1-.32-.23a.55.55,0,0,1,0,.19s-.07.15-.07,0h0c0-.19-.07-.14-.11-.15v.26c-.1-.37-.27.14-.32-.2,0,.07-.06.07-.08.13v-.14a.21.21,0,0,0-.19,0l0-.09s-.06.4-.1.4l0-.2c-.08,0-.16-.18-.24,0a.28.28,0,0,1,0-.1s-.15-.14-.13.14c0-.18-.09,0-.13.07v-.14c0,.17,0,.22-.09.27s0-.11,0-.07,0,.13-.09.05l0-.09s0,0-.06.14-.08,0-.09-.16c0,.08,0,.18,0,.15a.11.11,0,0,1,0-.09c-.07-.1-.11.15-.16,0s0-.07,0-.08.11,0,.1,0a1.09,1.09,0,0,1,0-.32c0,.09-.1.3-.14.24a.06.06,0,0,0,0,0v0s0,0,0,0a.08.08,0,0,0,0,0c0-.1,0-.05-.07-.06s0,.12,0,.23,0,0,0,0h.06c0,.07,0,.13-.06,0,0,.09,0,.18,0,.22,0-.19-.09-.29-.1-.41-.07.08-.17,0-.21.31,0,0,0-.08,0-.12a.16.16,0,0,0,0-.06c0,.07-.12,0-.13.21-.05-.08,0-.17,0-.14v0c-.13-.29-.22.46-.37.09a.11.11,0,0,1,0,.06c-.17-.16-.35.16-.52-.1,0-.06,0,.06-.08.15v-.15l0,.17c-.08.13-.13-.36-.22-.13v.1s-.1.06-.09,0,0,.1,0,0V59.5l-.08.14c-.06-.06,0-.31-.08-.33a.65.65,0,0,0-.08.28s0,0,0,.13l0,0a1.53,1.53,0,0,0,0,.62l0-.14,0,.11h0c0,.1,0,0,.06,0a.29.29,0,0,0,0,.12l0-.22c0,.09,0,.18,0,.23s0-.2,0-.27c0,.1,0,.19,0,.1a.2.2,0,0,1,0,.12c0-.07.07,0,.08-.15,0,.13.09,0,.09.18,0-.05,0-.17.07-.17-.05.25.09,0,.08.29,0-.23.11-.1.17-.23v0s0,.09.06.13a1,1,0,0,1,.08-.35c0,.18,0,.22,0,.4,0-.15.07-.15.05-.28a.71.71,0,0,1,0,.21c0-.24,0,0,0-.19,0,.12,0,.23.06.16A.28.28,0,0,1,41,60.59Zm1.14-.42Zm.1,0h0s0-.1,0-.09S42.24,60.13,42.26,60.17Zm-.21-1s0,0,0,0l0,0v0Z"/><path class="cls-1" d="M42,59.39h0v0Z"/><path class="cls-1" d="M50.74,59.59h0v0Z"/><polygon class="cls-1" points="43.58 60.43 43.58 60.4 43.58 60.43 43.58 60.43"/><path class="cls-1" d="M51.27,60.07v0Z"/><path class="cls-1" d="M51.5,60.1l0,0Z"/><path class="cls-1" d="M51.67,60.17a.11.11,0,0,1,0-.06h0Z"/><path class="cls-1" d="M48.88,60.33h0Z"/><path class="cls-1" d="M49.71,60l0,.06S49.71,60.09,49.71,60Z"/><polygon class="cls-1" points="47.95 60.5 47.95 60.49 47.94 60.49 47.95 60.5"/><path class="cls-1" d="M49.64,60.07s0,0,0,0S49.66,60.05,49.64,60.07Z"/><path class="cls-1" d="M52.43,60.23h0v0Z"/><path class="cls-1" d="M52.44,60.21h0Z"/><path class="cls-1" d="M52.47,60.16l0,0S52.47,60.2,52.47,60.16Z"/><path class="cls-1" d="M52.2,60.17v0Z"/><path class="cls-1" d="M52.13,60.18s0,.11.07.08v0C52.19,60.29,52.15,60.1,52.13,60.18Z"/><path class="cls-1" d="M51.84,59.56l0,0c0-.05,0-.12,0-.14S51.91,59.58,51.84,59.56Z"/><path class="cls-1" d="M51.65,59.48s0-.07,0-.1S51.63,59.44,51.65,59.48Z"/><path class="cls-1" d="M50.32,59.48v-.12S50.33,59.41,50.32,59.48Z"/><polygon class="cls-1" points="50.07 60.13 50.09 60.21 50.1 60.1 50.07 60.13"/><polygon class="cls-1" points="49.92 59.24 49.93 59.22 49.89 59.27 49.92 59.24"/><path class="cls-1" d="M47.69,59.28v.16S47.72,59.24,47.69,59.28Z"/><path class="cls-1" d="M46.73,59.44c0-.08,0-.13-.06,0S46.72,59.46,46.73,59.44Z"/><polygon class="cls-1" points="43.84 59.19 43.86 59.14 43.82 59.18 43.84 59.19"/><path class="cls-1" d="M54.12,65.24s.05-.13,0-.12l-.07.15Z"/><path class="cls-1" d="M54.09,64.91a.78.78,0,0,0-.16.33c.07-.14.06-.08.15-.24s0,.06,0,.11,0,0,.07,0,0-.15-.09-.06A.23.23,0,0,1,54.09,64.91Z"/><path class="cls-1" d="M52.15,63.94v0Z"/><path class="cls-1" d="M50.92,63.4l0,0Z"/><path class="cls-1" d="M50.77,63.16h0S50.78,63.15,50.77,63.16Z"/><path class="cls-1" d="M52.15,63.94l0-.06S52.13,63.92,52.15,63.94Z"/><path class="cls-1" d="M53.68,65.18s0,0,0,0h0Z"/><path class="cls-1" d="M52.75,64h0s0,0,0-.06Z"/><path class="cls-1" d="M53.18,64.14s-.06.12-.08.18,0-.08,0-.08Z"/><path class="cls-1" d="M53.77,64.61h0Z"/><path class="cls-1" d="M52.45,63.88a.11.11,0,0,0,0-.05S52.45,63.86,52.45,63.88Z"/><path class="cls-1" d="M40.22,60.59v0A.08.08,0,0,0,40.22,60.59Z"/><path class="cls-1" d="M40,59.77h0l0-.07Z"/><path class="cls-1" d="M50.44,62.85Z"/><path class="cls-1" d="M46.8,61.65c0,.13-.12.13-.1.28C46.71,61.88,46.83,61.75,46.8,61.65Z"/><path class="cls-1" d="M53.67,65.15h0Z"/><path class="cls-1" d="M46.7,61.93h0v0Z"/><path class="cls-1" d="M49.5,62.6a.15.15,0,0,1,0,.07A.15.15,0,0,0,49.5,62.6Z"/><path class="cls-1" d="M50.11,63v0A0,0,0,0,0,50.11,63Z"/><path class="cls-1" d="M49.09,62.66s0,0,0,0v0S49.09,62.64,49.09,62.66Z"/><path class="cls-1" d="M48.73,62.53v0h0Z"/><path class="cls-1" d="M41.35,60.92l0-.12C41.35,60.89,41.28,60.91,41.35,60.92Z"/><path class="cls-1" d="M53.7,65.1s0,.05,0,.05h0A.17.17,0,0,0,53.7,65.1Z"/><path class="cls-1" d="M48.71,63.68l-.06,0S48.69,63.68,48.71,63.68Z"/><path class="cls-1" d="M44,61.84h0S44,61.86,44,61.84Z"/><path class="cls-1" d="M48.48,63.6v-.1l0,0Z"/><path class="cls-1" d="M41.38,60.8Z"/><path class="cls-1" d="M40.89,61s.08-.16.13-.25,0,.14,0,.23.15-.18.18-.16a.41.41,0,0,1,0,.08c.1-.12.13,0,.25-.12a.09.09,0,0,0,0,0,2.46,2.46,0,0,1,.07-.24s.09-.09.06,0,0,0,0,.07l0,0c0,.17-.06,0-.1.17.07,0,.18-.15.2-.09s-.11,0-.11.18l0-.08c0,.26,0,0-.08.25.06.07.12,0,.18,0,.05-.08,0-.13.09-.21s-.06.43.1.25.14-.3.16-.17l-.08.17c.07,0,.13-.24.17-.09s-.08,0-.08.06S42,61,42,61l0,.16c.09,0,.22-.08.32-.08s-.06.09,0,.15.23.1.31.24l.09-.12s0,.06,0,.09,0-.09.08-.13,0,.08,0,.12.3-.17.33,0l0,0c0,.07.17-.26.18-.11l0,0c.11.11.31,0,.34.28.09-.19.1.13.2-.14,0,.17,0,.21.07.34s.1-.16.15-.17l0,.14.1-.13,0,.18.05,0a.15.15,0,0,1,0-.11c.08-.05.09.14.07.22l.16-.08c0,.06,0,.07-.08.1s0,.15.07,0a.27.27,0,0,1,0-.11c0,.1.06.12.13.1l0,.1c.08.06.21,0,.31.06s.05-.23.09-.23l0,.15c0-.08,0-.07.07-.16s0,.18-.08.22l.07,0s0,.07-.06.12,0,.18.11,0v.05c.1,0,.17,0,.25,0s.07-.09.14-.18c0,.06.07.19.15.2s.06-.1.11-.17c0,.12,0,.13,0,.21a.48.48,0,0,0,.27,0,.22.22,0,0,1,0-.12s0,.07,0,.12h0c.19-.13.17.45.36.24h0l.15-.09s-.06.08-.05.17c.18-.16.16.09.3,0-.05.38.27.07.28.32l0-.08c.05-.07,0,.06,0,.08s0-.08,0-.12c.25,0,.4.28.59.43s.19-.41.22-.18l-.08.14c.23-.12.32.13.54,0,0,0,0,.08-.06.07s.12.05.16,0,0,.08,0,.14.14-.12.11,0,0,0,0,0,.1.05.12-.09c0,.09.14,0,.16.08.08-.13.07.11.15-.09-.07.2,0,.2.12.12s0,.07,0,.16.1,0,.13-.13c0,.28.23-.14.16.2a1.14,1.14,0,0,1,.44-.11c-.08.2-.13,0-.21.19.14-.05.27-.2.36-.11s-.05.08-.07.11.2.1.33,0,0,0,0,0,0,0,.07,0l0,0c0-.15.18-.26.21-.34-.13.27.07.11-.11.43a.2.2,0,0,0,.07-.11s0,.06,0,.12.1-.13.16-.11a.6.6,0,0,1-.06.11c.06-.08.13-.15.16-.1s0,.07,0,.06.24-.18.3-.06c-.1.19,0,.08,0,.25l.07,0V64s.13-.09.14,0l0,.06h.09l0-.08c.08-.07.07-.22.11-.15s0,0,0,.13h0s.08-.1.1,0-.07.19-.08.23c.07-.14.12,0,.2-.15a.48.48,0,0,0,0,.14l.06-.11a.27.27,0,0,1,0,.14c.06,0,.06-.23.1-.11s0,0,0,0,.17,0,.22.06-.07,0-.1.18c.11,0,.28-.13.36-.06v0c.1-.24,0,.14.12.05s-.06.13,0,.1.16,0,.29,0l0,.06c0,.07.1.07.13.11s.05,0,.07-.14c0,.41.32-.1.33.24,0,0-.05,0,0,0l.12,0a.5.5,0,0,0,0-.16c0-.06.08-.1.1-.09s-.06.17-.06.24a1,1,0,0,1,0-.1c0,.2.08-.22.11-.06l0,0s.08-.08.11-.06,0,.05-.09.15.16-.2.15-.07,0,0-.08,0,0,.12,0,.16h0l.05.09v0c.16-.31.12,0,.26-.21-.13.18,0,.11-.1.25s0,.1,0,.13,0,.11.12,0c0,0,0,0,0,.13s0-.08,0-.14.08.24.25.07.18-.21.28-.26a.28.28,0,0,1-.08.16c0,.08,0,.08.11,0a.25.25,0,0,0,0,.13s.08-.16.09-.08a.91.91,0,0,1-.09.17s.11-.1.17-.13a.34.34,0,0,1-.1.16A.27.27,0,0,0,54,65v0s0,.11-.05.12,0-.06,0-.1l0,0c.07-.28-.12,0-.16,0l.09-.19-.11.14s0-.16.07-.18-.06.05-.05-.06,0,0,0,0l-.06,0s0-.14.06-.1c0-.14-.16.1-.14,0h0c-.11,0-.06.14-.18.28l.07-.37-.06.14a.08.08,0,0,1,0-.08c-.07.08,0,.06-.07.14,0-.14-.15,0-.08-.21-.06.1,0,.1-.06.16.07-.25-.08,0-.08-.11s.08,0,.07-.17c-.1.21-.06-.07-.11,0s-.1,0-.18.07-.08-.13-.11-.21v0c-.07.17-.12.12-.17.14a.49.49,0,0,1,.09-.18h0a.16.16,0,0,1-.09.08l.06-.12c-.06,0-.16.11-.2,0,0,.12-.06.35-.16.41a.81.81,0,0,1,.08-.2s0,0,0,0l.07-.09c0-.06,0,.08-.07.06s0-.07,0-.14,0,0,0,0a.24.24,0,0,1,0-.16s0,.12-.07.12,0-.11,0-.17,0,0-.09.12c0,0,0-.07,0-.11s-.13,0-.15.13h0c-.14.11-.15-.14-.26-.11v0c-.07,0-.12,0-.2.08a.3.3,0,0,1,0-.15s-.07.07-.1,0,0-.08.06,0,0-.14-.12,0c.06-.11,0-.17,0-.14v.1a.13.13,0,0,1-.08,0l.07-.15c0-.23-.3.25-.27-.1-.07.1,0,.1,0,.22,0,0,0-.28,0-.29s-.14.21-.19.12-.06.21-.13.24,0-.25.07-.28,0,0,0,0a.11.11,0,0,0,0-.1l0,0c0-.06-.08-.08,0-.16a.09.09,0,0,0,0,.12c0-.1-.1,0-.14-.12s0,.11,0,.1-.08.09-.15.09.09-.19,0-.15a.21.21,0,0,1,.07-.18c-.09.08-.08-.11-.11-.14l0,0s0,0-.06,0l0,.12s0,0,0-.08-.05.19-.13.27-.09,0,0-.11c.06.07,0-.15.12-.15s0,0,0,0a.05.05,0,0,1,0,0c0-.16-.1.15-.17.12s0-.16,0-.15,0,.15-.09.2-.07,0-.09,0l0,0c0,.08-.06.06-.1.08s0,0,0-.07c-.09.13,0-.18-.12-.1s.06-.16,0-.2,0-.14-.12-.07,0,.09-.09.18l.13,0L49.8,63s.09-.05.1,0,0,.05-.07.15c0-.18-.12.06-.13-.07l.1-.27c0-.15-.18.09-.25,0l0,.06c0,.1-.07,0-.11,0a.49.49,0,0,0,0-.19c0,.06-.06,0-.14.14v-.13c-.06-.08-.18.23-.24.17s0-.17.12-.22,0,0-.06,0-.11.1-.1,0-.07.13-.09.11a.07.07,0,0,1,0,0s-.07.05-.08.16c0-.32-.22-.06-.2-.33a.62.62,0,0,1-.19,0s0,0,0,0-.13.24-.17.12.07-.06.06-.13c.1-.3-.1,0-.09-.18l0,0c0-.11-.14.08-.2,0a.12.12,0,0,0,0,0,.41.41,0,0,1-.28.18c.06-.11.05,0,.09-.17s-.07.19-.13.2a.68.68,0,0,1,0-.27H48c0-.17-.07,0-.09-.05l0-.07c-.09,0-.15.17-.23.13l0,.06c-.11.16,0-.12-.09,0l.05-.19c-.05,0-.17.14-.24.15a1,1,0,0,1,.24-.23.12.12,0,0,0-.16.06s.05-.05.05,0-.16.18-.22.16c.14-.35-.13-.15-.07-.44-.16.09-.2-.13-.33-.16,0,.29,0,0-.13.28,0,0-.05,0,0,0l0-.2c0-.09,0,0,.07-.12s0-.13,0-.22c0,.11-.07.14-.1.09v.15c-.15.12,0-.27-.14-.15l.06-.08c-.06,0-.17-.06-.3.15,0,0,0-.12,0-.13s-.33.15-.37,0l0-.06s-.09.11-.09,0,0-.06,0-.07-.1.1-.11.05l0-.07c-.08-.13-.23.13-.34.15a.36.36,0,0,0,0-.35v0c-.11-.07-.27.09-.42.13,0-.25-.21-.18-.28-.35a.28.28,0,0,1-.09.17s-.12.12,0-.07h0c0-.19,0-.16-.07-.18l-.1.24c0-.4-.35,0-.29-.32,0,0-.09,0-.14.09l0-.13a.23.23,0,0,0-.2-.09l.05-.09c-.05,0-.2.35-.25.34l0-.2c-.09,0-.12-.23-.28-.09,0,0,0-.08.05-.08s-.12-.2-.2.08c.06-.18-.09-.06-.17,0l.06-.12c-.1.15-.12.19-.2.22s0-.11,0-.07-.08.11-.11,0l.05-.08s-.05,0-.11.11-.08-.07,0-.19c0,.07-.09.16-.11.11a.29.29,0,0,1,0-.08c0-.11-.17.11-.18,0a.15.15,0,0,0,0-.08l.1.06c.05-.12,0-.15.1-.3-.07.07-.21.24-.24.17v-.05h0s0,0,0,0a.11.11,0,0,0,0,0c0-.1,0-.08-.07-.09s-.07.1-.07.22,0,0,0,0h0l.07,0c0,.06-.08.11-.09,0a1.63,1.63,0,0,1-.11.2c0-.19,0-.32,0-.43s-.2,0-.34.21c0,0,0-.08,0-.12s0,0,0,0-.14,0-.21.15c0-.1.09-.15,0-.15l0-.05c-.06-.33-.41.35-.45-.06a.08.08,0,0,1,0,.07c-.14-.23-.45,0-.55-.32,0-.06-.08,0-.14.11l0-.14-.11.14c-.12.09,0-.39-.2-.2l0,.09s-.13,0-.09-.09,0,.1,0,0l0-.07-.13.09c0-.08.12-.28,0-.34a.6.6,0,0,0-.19.23s0,.06,0,.14l-.05,0a1.39,1.39,0,0,0-.16.61l.11-.11,0,.11h0c0,.11,0,0,.08,0a1.05,1.05,0,0,0,0,.13l.14-.19c0,.09-.09.16-.07.22.06-.09,0-.2.11-.25,0,.11,0,.19,0,.12a.17.17,0,0,1-.06.11c.06-.06.09,0,.15-.11,0,.13.11,0,0,.2,0,0,.11-.14.14-.14-.14.23.1,0,0,.31.11-.2.17,0,.27-.15s0,.05,0,0,0,.1,0,.15c.07-.18.14-.2.21-.3,0,.19-.1.2-.15.37.05-.14.13-.11.16-.24a.67.67,0,0,1,0,.22c.09-.23,0,0,.13-.16,0,.13-.07.22,0,.17A.21.21,0,0,1,40.89,61Zm1.42.07Zm.11,0,0,0c0-.05,0-.1,0-.09S42.42,61,42.42,61.08Zm.1-1s0,0,0,0h0v0Z"/><path class="cls-1" d="M42.42,60.25h0v0l0,0Z"/><path class="cls-1" d="M52.16,64h0v0Z"/><polygon class="cls-1" points="43.83 61.86 43.84 61.83 43.82 61.85 43.83 61.86"/><path class="cls-1" d="M52.59,64.63s0,0,0,0Z"/><path class="cls-1" d="M52.84,64.75l0,.06A.39.39,0,0,1,52.84,64.75Z"/><path class="cls-1" d="M53,64.88l0,0h0Z"/><path class="cls-1" d="M49.81,63.91h0S49.79,63.92,49.81,63.91Z"/><path class="cls-1" d="M50.86,63.94,50.8,64S50.83,64,50.86,63.94Z"/><polygon class="cls-1" points="48.71 63.69 48.71 63.69 48.71 63.68 48.71 63.69"/><path class="cls-1" d="M50.76,64s0,0,0,0S50.78,64,50.76,64Z"/><path class="cls-1" d="M53.85,65.25h0v0Z"/><path class="cls-1" d="M53.86,65.24h0Z"/><path class="cls-1" d="M53.91,65.2l0,0S53.9,65.24,53.91,65.2Z"/><path class="cls-1" d="M53.61,65.1l0,0S53.6,65.12,53.61,65.1Z"/><path class="cls-1" d="M53.52,65.08s0,.12,0,.1l0,0C53.55,65.21,53.57,65,53.52,65.08Z"/><path class="cls-1" d="M53.4,64.38l.05.06s0-.13,0-.13C53.47,64.13,53.48,64.43,53.4,64.38Z"/><path class="cls-1" d="M53.22,64.23s0-.07,0-.1S53.21,64.18,53.22,64.23Z"/><path class="cls-1" d="M51.73,63.7l0-.12S51.76,63.62,51.73,63.7Z"/><polygon class="cls-1" points="51.22 64.2 51.22 64.29 51.27 64.18 51.22 64.2"/><polygon class="cls-1" points="51.35 63.3 51.37 63.29 51.31 63.31 51.35 63.3"/><path class="cls-1" d="M48.83,62.44l0,.15S48.88,62.41,48.83,62.44Z"/><path class="cls-1" d="M47.69,62.2c0-.08,0-.13,0-.07S47.68,62.21,47.69,62.2Z"/><polygon class="cls-1" points="44.53 60.8 44.57 60.76 44.52 60.78 44.53 60.8"/><path class="cls-1" d="M46,67.2s.11-.09.08-.09l-.13.1Z"/><path class="cls-1" d="M46.21,66.93a1.5,1.5,0,0,0-.3.23c.13-.09.09,0,.24-.16s0,0-.07.09,0,0,.07,0,.07-.12,0-.07Z"/><path class="cls-1" d="M45.5,65.75v0A0,0,0,0,0,45.5,65.75Z"/><path class="cls-1" d="M45,65.06l0,0S45,65,45,65.06Z"/><path class="cls-1" d="M45.05,64.83h0Z"/><path class="cls-1" d="M45.5,65.75l0,0S45.5,65.73,45.5,65.75Z"/><path class="cls-1" d="M45.79,67.05l0,0h0Z"/><path class="cls-1" d="M45.84,65.94h0l0,0Z"/><path class="cls-1" d="M46.05,66.13l-.15.12.08,0Z"/><path class="cls-1" d="M46.17,66.63h0Z"/><path class="cls-1" d="M45.73,65.76l0,0Z"/><path class="cls-1" d="M39.68,60.48l0,0Z"/><path class="cls-1" d="M40,59.78h0l.06-.06Z"/><path class="cls-1" d="M45,64.51h0S45,64.51,45,64.51Z"/><path class="cls-1" d="M43.33,62.77c-.07.1-.15.07-.22.19S43.3,62.85,43.33,62.77Z"/><path class="cls-1" d="M45.8,67h0S45.79,67,45.8,67Z"/><path class="cls-1" d="M43.11,63h0v0Z"/><path class="cls-1" d="M44.54,64.11l0,0Z"/><path class="cls-1" d="M44.69,64.58v0A0,0,0,0,0,44.69,64.58Z"/><path class="cls-1" d="M44.24,64.07s0,0,0,0h0S44.25,64.05,44.24,64.07Z"/><path class="cls-1" d="M44.08,63.89l0,0h0Z"/><path class="cls-1" d="M40.22,61l.09-.09C40.24,61,40.19,61,40.22,61Z"/><path class="cls-1" d="M45.85,67l-.05,0s0,0,0,0S45.84,67,45.85,67Z"/><path class="cls-1" d="M43.42,64.78v0S43.41,64.77,43.42,64.78Z"/><path class="cls-1" d="M41.4,62.29h0Z"/><path class="cls-1" d="M43.32,64.67l0-.08,0,0Z"/><path class="cls-1" d="M40.31,60.9Z"/><path class="cls-1" d="M39.89,60.92s.15-.1.23-.16-.08.1-.14.17.19-.1.2-.08l-.06,0c.13-.07.06.06.22,0l0,0a1.36,1.36,0,0,1,.18-.17s.11,0,0,0l-.07,0,.05,0c-.11.12-.06,0-.15.11s.19-.08.18,0-.09,0-.18.12l0-.08c-.18.2,0,0-.2.18,0,.07.1,0,.1.06s.1-.09.18-.14-.28.32-.07.21.25-.2.19-.09l-.15.11c0,.05.23-.16.17,0s-.08,0-.09,0,.1,0,.12,0l-.13.11c.06,0,.19,0,.25,0a.35.35,0,0,0-.11.1c.11,0,.09.13.06.25l.13-.07a.23.23,0,0,1-.07.06c0,.06.07-.06.13-.08s-.05.07-.09.09c.12,0,.29-.07.21.07l0,0c0,.06.25-.17.18-.05h0c0,.11.18.1.06.29.17-.12,0,.13.21-.05-.07.13-.12.15-.14.27s.15-.1.19-.1l-.11.1.14-.08-.13.13h.05a.23.23,0,0,1,.07-.08c.07,0,0,.13-.08.18l.15,0a.41.41,0,0,1-.11.06c.15-.07-.11.11,0,0a.65.65,0,0,1,.09-.08c-.05.08,0,.11,0,.11l-.08.07c0,.06.12.06.16.11a.47.47,0,0,1,.19-.16l-.12.11c.09,0,0,0,.14-.11s-.12.13-.17.15h.06l-.1.08c.08,0-.09.15,0,0l0,0c0,.05.11,0,.15.08s.1-.06.19-.12-.06.17,0,.2.1-.07.17-.12c-.09.09,0,.12-.13.16s.06,0,.19,0a.34.34,0,0,1,.08-.09s0,.06-.07.1h0c.2-.07-.14.38.1.26h0l.14,0s-.08,0-.12.12c.2-.09,0,.11.2.06-.25.28.13.11,0,.32l.06-.07c.08,0,0,0,0,.08s.05-.07.09-.09.1.3.13.46.36-.28.25-.09l-.13.1c.21,0,.14.17.33.14,0,0-.07,0-.08,0s0,.06.13,0-.07.06-.1.1.15-.06.07,0l0,0c.05,0,0,.06.13,0,0,.08.09,0,0,.1.13-.09,0,.1.16,0-.17.14-.09.17,0,.12s0,.06-.11.12.07,0,.15-.07c-.16.21.23-.07,0,.18a1.22,1.22,0,0,1,.34,0c-.16.15-.07,0-.24.11.12,0,.29-.1.29,0s-.08.06-.11.08.08.11.21.08a.07.07,0,0,1-.05,0s0,0,.07,0h0a1.54,1.54,0,0,1,.32-.22c-.23.18,0,.1-.31.31a.3.3,0,0,0,.11-.07s0,.05-.1.09.14-.08.17,0l-.1.07c.08,0,.17-.09.16,0s0,0-.06,0,.26-.09.24,0c-.18.12,0,.06-.18.18h.07l.05-.07s.14,0,.11,0l-.07,0,.06,0,0-.07c.09,0,.17-.15.16-.09s0,0-.06.11h0c.06,0,.11-.06.1,0l-.19.16c.13-.09.08,0,.22-.07a.69.69,0,0,0-.12.1l.1-.07a.35.35,0,0,1-.09.1s.16-.17.12-.06,0,0,0,0,.12,0,.11.1-.06,0-.17.11c.07,0,.26,0,.27,0v0c.2-.17-.07.12.05.06l-.09.07c0,.06.1,0,.21,0l0,0c0,.06,0,.08,0,.12s.06,0,.13-.09c-.23.32.26,0,.07.26,0,0-.05,0-.05,0h.09a.77.77,0,0,0,.1-.12c.06,0,.11-.06.12-.05a.55.55,0,0,0-.17.17l.08-.07c-.13.16.17-.15.1,0l0,0s.1,0,.1,0-.06,0-.14.09.22-.12.14,0,0,0-.08,0-.07.1-.07.13h0l0,.08,0,0c.28-.2.09,0,.29-.1-.19.1-.1.07-.21.17a.27.27,0,0,1-.08.1c.1-.06-.05.09.1,0,0,0,0,0-.08.1s.06-.06.11-.1-.09.2.12.1.24-.12.33-.14a.39.39,0,0,1-.14.11c0,.07,0,.07,0,.06a.75.75,0,0,0-.09.09s.14-.11.11,0l-.16.11L46,67a.77.77,0,0,1-.15.1.29.29,0,0,0,.21-.07l0,0L46,67c-.1,0,0-.06,0-.09h0c.2-.2-.08,0-.1-.06l.17-.12-.15.08s.11-.12.15-.12-.07,0,0-.06,0,0,0,0l-.07,0s.11-.1.1-.07-.17,0-.06-.07h0c-.09,0-.12.1-.28.18l.26-.27-.12.1s0,0,.05-.07-.05,0-.13.1c.08-.11-.1,0,.07-.18-.09.07,0,.08-.13.11.19-.18-.06,0,0-.1s.08,0,.15-.12c-.18.14,0-.07-.05-.06s-.09,0-.16,0,0-.12,0-.19l0,0c-.14.11-.14.06-.19.07a.6.6,0,0,1,.17-.12l0,0a.17.17,0,0,1-.11,0l.11-.08s-.17,0-.13,0c-.09.08-.24.25-.33.27a1.31,1.31,0,0,1,.16-.13s0,0,0,0l.1-.06s-.08.06-.09,0,0-.06.11-.11,0,0,0,0a.29.29,0,0,1,.08-.14.36.36,0,0,1-.12.09s.08-.09.11-.14,0,0-.13.08,0-.06.07-.09-.07,0-.17.07h0c-.15,0,0-.15-.11-.15l0,0c-.07,0-.08,0-.17,0s0-.07.09-.11-.08,0,0,0,0-.06.07,0,.06-.11-.07-.06c.1-.07.1-.12.06-.11l-.05.08s0,0,0,0l.13-.1c.1-.19-.34.13-.12-.13-.1.06,0,.08-.15.15s.15-.22.14-.22-.21.12-.19,0-.15.15-.22.16a.53.53,0,0,1,.21-.21s0,0,0,0a.17.17,0,0,0,.09-.06l-.05,0c0-.05,0-.08.08-.14a.13.13,0,0,0-.09.09c0-.08,0,0,0-.12s-.06.08-.07.07-.1.06-.15,0,.17-.13.09-.12.11-.1.15-.13,0-.1,0-.13l0,0s0,0,0,0l-.08.08s0,0,0-.06a2.59,2.59,0,0,1-.23.19c0-.06-.08,0,0-.11,0,.08.11-.1.16-.09s0,0,0,0,0,0,0,0-.15.1-.18.06.12-.12.1-.11-.11.1-.17.13-.06,0-.07,0v0c-.07,0-.07,0-.1,0s0,0,.06,0c-.13.08.08-.15,0-.1a1.79,1.79,0,0,0,.14-.15c-.11,0,.07-.11,0-.08a.31.31,0,0,1-.16.12h.1l-.15.08s.08,0,.07,0a.25.25,0,0,0-.12.11c.11-.14-.12,0,0-.08l.22-.19c.06-.12-.17,0-.16-.06l0,0c-.1.07,0,0-.09,0a.79.79,0,0,0,.13-.14s0,0-.17.08l.07-.1c0-.07-.24.14-.25.08a1.72,1.72,0,0,1,.2-.15s0,0-.05,0-.13,0-.07,0-.12.09-.12.07l0,0s-.06,0-.13.1c.19-.23-.11-.09.05-.29a.28.28,0,0,1-.12,0l0,0c0-.09-.23.16-.19.06s.08,0,.12-.09c.23-.22-.08,0,0-.16h0c.07-.09-.13,0-.14,0l0,0a.42.42,0,0,1-.28.08.48.48,0,0,0,.16-.12s-.15.14-.21.14a2,2,0,0,1,.17-.21l0,0c.12-.13,0,0,0-.06l.06-.05c-.06,0-.2.1-.23.05l0,0c-.16.11.07-.09-.06,0l.14-.13a1.05,1.05,0,0,1-.24.06,1.61,1.61,0,0,1,.28-.13s0,0-.13,0,.06,0,0,0-.21.11-.23.07c.29-.24,0-.14.2-.35-.15,0-.05-.15-.12-.2-.2.22,0,0-.25.19,0,0,0,0,0,0l.09-.16c.06-.07.07,0,.11-.07s.09-.1.13-.18c-.08.08-.13.09-.11.05l-.08.12c-.16.06.15-.21,0-.15l.09,0c-.06,0-.08-.09-.28,0,0,0,.08-.09.11-.09s-.31.05-.23-.09l.06,0s-.12.07-.08,0,.06,0,.06-.05-.12.06-.1,0l.07,0c0-.12-.22,0-.3,0,.16-.14.18-.23.18-.28l0,0c0-.08-.23,0-.35,0,.15-.19,0-.19,0-.33a.39.39,0,0,1-.15.11s-.14.07,0-.06h0c.13-.14.07-.13.06-.16l-.2.17c.23-.3-.24-.06,0-.31-.06,0-.08,0-.14,0l.11-.09a.13.13,0,0,0-.08-.12l.08-.06s-.33.24-.36.22l.15-.15s.05-.21-.13-.13l.08-.06s0-.18-.17,0c.14-.12,0-.06-.12,0l.11-.09c-.15.1-.19.13-.25.13s.08-.08.06,0-.11.07-.08,0l.07,0s0,0-.13,0,0-.07.07-.15c-.06,0-.15.1-.13.06l.07,0c0-.11-.17,0-.1-.07l.06-.06s0,.06,0,.07.08-.13.23-.22c-.09,0-.27.14-.25.08l0,0h0s0,0,0,0,0,0,0,0,0-.07,0-.09-.1.07-.17.16h0l0,0c-.07,0-.12.07-.07,0l-.19.13c.13-.14.18-.25.26-.33-.09,0-.12-.06-.33.09,0,0,0-.06.07-.1l.06,0c-.07,0-.08,0-.22.07,0-.08.14-.1.08-.12l0,0c.15-.27-.46.18-.25-.15l0,.06c0-.21-.29-.1-.18-.37,0-.06-.08,0-.16,0l.11-.1-.16.09c-.13,0,.22-.32,0-.21l-.07.07s-.09,0,0-.09-.09.06,0,0l.06,0-.14,0c0-.07.23-.19.2-.26a.89.89,0,0,0-.25.14.27.27,0,0,1-.08.11h0a1.87,1.87,0,0,0-.45.43l.13-.06-.07.08,0,0c-.07.09,0,0,.07,0a.48.48,0,0,0-.08.1l.19-.12c-.07.06-.15.1-.17.16s.14-.15.21-.17-.13.13,0,.09a.26.26,0,0,1-.1.07c.07,0,.06,0,.16-.05-.09.1.06,0-.1.17,0,0,.15-.09.17-.08-.22.15,0,.06-.18.24.19-.14.14,0,.26-.06l0,0s0,.08-.07.12a1.28,1.28,0,0,1,.31-.19c-.12.15-.18.14-.31.26.12-.1.15-.06.24-.16a.66.66,0,0,1-.14.17c.18-.16,0,0,.17-.1-.07.11-.17.16-.09.14A.29.29,0,0,1,39.89,60.92Zm.89.37h0Zm0,.06,0,0,.08-.06A.2.2,0,0,0,40.83,61.35Zm.61-.75s0,0,0,0h0Z"/><path class="cls-1" d="M41.29,60.7h0v0l0,0Z"/><path class="cls-1" d="M45.49,65.77Z"/><polygon class="cls-1" points="41.29 62.27 41.32 62.25 41.29 62.27 41.29 62.27"/><path class="cls-1" d="M45.4,66.38l0,0Z"/><path class="cls-1" d="M45.49,66.53l0,0A.17.17,0,0,0,45.49,66.53Z"/><path class="cls-1" d="M45.52,66.68l0,0h0Z"/><path class="cls-1" d="M44,65.2h0Z"/><path class="cls-1" d="M44.66,65.46l-.06,0S44.6,65.51,44.66,65.46Z"/><polygon class="cls-1" points="43.42 64.79 43.42 64.78 43.42 64.78 43.42 64.79"/><path class="cls-1" d="M44.58,65.46s0,0,0,0S44.61,65.46,44.58,65.46Z"/><path class="cls-1" d="M45.86,67.15h0v0Z"/><path class="cls-1" d="M45.87,67.14h0S45.89,67.13,45.87,67.14Z"/><path class="cls-1" d="M45.93,67.13h0S45.89,67.15,45.93,67.13Z"/><path class="cls-1" d="M45.79,67l0,0Z"/><path class="cls-1" d="M45.74,66.94s-.06.1,0,.09l0,0C45.69,67.05,45.81,66.9,45.74,66.94Z"/><path class="cls-1" d="M46.06,66.37v.06s.08-.1.1-.09C46.25,66.19,46.08,66.43,46.06,66.37Z"/><path class="cls-1" d="M46,66.21s0,0,.08-.07A.11.11,0,0,0,46,66.21Z"/><path class="cls-1" d="M45.36,65.46l.1-.08S45.42,65.41,45.36,65.46Z"/><polygon class="cls-1" points="44.75 65.75 44.7 65.81 44.8 65.74 44.75 65.75"/><polygon class="cls-1" points="45.35 65.07 45.37 65.06 45.31 65.07 45.35 65.07"/><path class="cls-1" d="M44.2,63.84l-.11.1S44.25,63.82,44.2,63.84Z"/><path class="cls-1" d="M43.6,63.4c0-.06.08-.11,0-.07S43.58,63.4,43.6,63.4Z"/><polygon class="cls-1" points="42.35 61.6 42.4 61.57 42.35 61.58 42.35 61.6"/><path class="cls-2" d="M51.79,39l-.18,0L15.35,32.3a1,1,0,0,1-.64-.41,1,1,0,0,1-.15-.74L19.13,6.38a1,1,0,0,1,1.14-.78l36.27,6.69a.93.93,0,0,1,.63.41,1,1,0,0,1,.16.73L52.76,38.2A1,1,0,0,1,51.79,39ZM16.67,30.54,51,36.88,55.22,14,20.88,7.71Z"/><path class="cls-2" d="M35.38,26.33a1,1,0,0,1-.76-.36L19.33,7.18l1.53-1.24L35.61,24.08,55.87,12.4l1,1.71-21,12.09A1,1,0,0,1,35.38,26.33Z"/><rect class="cls-2" x="14.34" y="25.76" width="19" height="1.97" transform="translate(-9.96 14.86) rotate(-28.91)"/><rect class="cls-2" x="44.73" y="20.82" width="1.97" height="19.35" transform="translate(-9.01 35.51) rotate(-38.95)"/></svg>