<svg id="Calque_1" data-name="Calque 1" xmlns="http://www.w3.org/2000/svg" viewBox="0 0 69.25 70.87"><defs><style>.cls-1{fill:#e6332a;}.cls-2{fill:#1d1d1b;}</style></defs><path class="cls-1" d="M38.73,39.19c0,.16.11-.09.05.11C38.73,39.27,38.69,39.24,38.73,39.19Z"/><path class="cls-1" d="M38.77,39.84c.25.62-.34,1.2-.52,1.78,0,.07-.14-.12-.2,0a1.45,1.45,0,0,1-.54.74,3.17,3.17,0,0,1-1,.45,1.25,1.25,0,0,0,0,.29l-.06-.06c0,.17.2.38.19.53s-.05,0-.1,0c.12,0,.09.26.18.31s-.12.06-.15.14l.13.07c.32.18.06.56.26.84,0,0-.06,0-.08,0a9.05,9.05,0,0,1,.45,1.65.17.17,0,0,0-.17,0c.13,0,.19.18.24.32-.12.09.15.24.11.43h0c.15.11,0,.2.12.28l-.09.1c.2,0-.06.2,0,.3h0c.06.09,0,.16,0,.25h0c.08.21,0,.35.14.33-.1.09-.08-.21-.23-.06a11.63,11.63,0,0,1,.45,2.17c0,.1-.06.15-.11.18s.07.26.15.33-.07,0-.07.09.19.18.14.32c0-.07-.1-.11-.15-.1.14.15.14.33.21.51a.41.41,0,0,0-.11-.12.45.45,0,0,1,.09.32c-.06,0-.11,0-.14,0l0-.08c-.32-.1.1.17-.17.11,0,0,0-.05,0-.09-.07.15-.45.1-.64.15a0,0,0,0,0,0,0,2.77,2.77,0,0,0-.65,0c-.08,0,0-.21-.19-.17,0,.16-.36.06-.23.25a1.52,1.52,0,0,0-.59,0c.08-.06-.09-.2.06-.22l-.11-.1c0-.07.11,0,.08-.06s-.3.07-.36,0-.27.3-.5.32c.11-.07-.06-.19,0-.22l-.31.33c-.08,0,0-.14-.13-.09s0,.07-.07.11-.32,0-.35-.13.12,0,0-.09-.14.06-.28.06v0c-.09,0-.27.07-.17.16s0-.1.07-.05-.26.12-.45.12c.07,0,.07-.07.1-.12a3,3,0,0,1-.92.23c-.06.08.22-.14.23-.1a1.2,1.2,0,0,0-.59,0,.84.84,0,0,1,.08-.52s-.13.1-.1.08c0-.19.15-.24.12-.33s0-.14,0-.26,0,0,0,.07a2.25,2.25,0,0,1,0-.53,1.33,1.33,0,0,1,.08-.51c-.05,0-.14-.18-.13-.25l.1,0c.06,0,0-.22.1-.22-.11-.15.05.54,0,.34.1,0-.13-.27,0-.22,0-.12-.09-.26,0-.37s.13.12.13,0,0-.05-.06-.2l0-.1c-.1,0,0-.16-.09-.11.09,0,0-.27.14-.23l.13,0c0-.08-.13-.14-.18-.21s0,0,.07,0c-.2,0,0-.19-.11-.3.08-.15,0-.42.18-.48a.51.51,0,0,1-.05-.4s0,.08.06.09,0-.11,0-.2.14-.17.22-.26-.16-.1-.22-.12c.21-.1-.09-.37.1-.5,0,0,.08.2.14.1s-.12-.25,0-.43l-.17,0c.11-.07-.06-.28.1-.24,0-.07.08-.22-.08-.21.16-.29,0-.75.3-.91,0,0,0-.15-.07-.14s.06.11,0,.13,0-.05-.06-.06.06-.16.19-.06c.12-.2-.25-.24-.16-.51.06,0,.09,0,.09-.07l-.1-.16c0-.18.16-.09.27-.08s0-.21-.07-.26l.15-.1c-.11.08-.06-.08-.08-.13l0,0c.05,0,0-.12,0-.18s-.11.11-.14.17,0-.12-.08-.19c.11,0,.09-.1.11-.13s-.1,0-.09,0,0-.06.09-.05-.06,0,0,.06.15-.06.08-.11-.23.09-.15,0h.12l.07-.12-.11.06,0,0h0c-.08,0-.11,0-.2,0s0-.09,0-.11h0s0,0-.06,0a.32.32,0,0,0-.17,0l0,0a.38.38,0,0,0-.26-.08c-.07-.15.19-.34,0-.33s-.29,0-.28.1c-.16-.22-.49-.31-.54-.6-.05,0-.06,0-.13,0-.21-.32-.58-.62-.54-1,.08.08.09,0,.14-.06-.12,0,0-.14-.11-.1s-.12,0-.11.17a.93.93,0,0,1-.22-.68c0,.07-.07,0-.11,0,.15,0,.12-.19.05-.31h-.09l.07-.1s-.2,0-.13-.16l.09,0c-.09-.12-.24-.31-.16-.46l.12-.13c0-.06-.09-.16-.13,0,.09-.25.11-.41.23-.48a1.79,1.79,0,0,1,.19-1.55l.05,0c.12-.09-.07-.12,0-.18s.16,0,.18.1c.15-.13,0-.26.07-.39s0,.12-.09,0,.2-.19.11-.29c.07,0,.13.07.16.12l0-.13c.2,0,0,.42.28.41l0-.09c.17,0,0,.3.16.13,0-.12-.08-.31-.19-.27.12-.2-.18-.28,0-.47.1,0-.13.17,0,.2s.12-.22.22-.28c-.12.06-.15-.11-.11-.18s0,.15.17,0c0-.08.07-.23-.09-.17-.06-.18.19-.1.18-.27.12,0,0,.34.23.25-.1-.07.1-.28-.1-.35a.12.12,0,0,1,.15.14c.14,0,.11-.34.27-.17l0-.13a1.15,1.15,0,0,1,.2,0c.08,0,.21-.31.28-.15,0,0,.24-.12.1-.2s-.11.16-.26,0c.15.07.18-.11.24-.19l0,0s.15-.08.15-.16,0,.09.06.09v-.13c.18-.12.11.16.29.06l-.11.13s.12,0,.2,0a3.11,3.11,0,0,1,0-.32c.1-.07.08.09.16,0l-.11.15s.14.12.28.09.2-.23,0-.25c.08,0,.19,0,.15.1.16-.07,0-.1.09-.19s.28.12.4.2l-.13.18h.1c-.11.15.07.09,0,.23s.14,0,.2-.08c-.22-.21.19-.31.13-.5.28-.07.17.47.46.17,0-.06.1-.2-.08-.15.17,0,.13-.2.34-.11-.16.08.14.22-.09.32,0-.06-.11-.05-.15,0s0,.2.15.21.24,0,.23-.1-.16,0-.08-.12.23.17.35,0c-.14,0-.16-.12-.14-.2l.17,0-.05.07c.25.09.1-.13.35-.06l.08.18c-.08.11-.34-.14-.34.08.16,0,.23,0,.37,0h-.12s0,.3.29.21,0-.07.08-.14c.25.06.35,0,.51.07-.09.13.27.14,0,.2a.42.42,0,0,0-.52-.13c0,.2-.18-.1-.28.07.18.06.12.24.11.35s.11,0,.14,0,0-.12,0-.23a.83.83,0,0,0,.56.09.09.09,0,0,1-.1.14,1.86,1.86,0,0,1,.66.4c0-.24.24.12.24-.06s-.11-.29,0-.31-.05.06,0,.12,0,.22.23.16c-.24-.1-.17.15-.3.24.19,0-.06.07.06.17a1.52,1.52,0,0,1,.53.25c.06.26.38.45.5.64s-.17.15-.14.26.1-.17.14,0h0c.07,0,.07.37.31.32l-.19,0s.06,0,.09.08-.09.08-.14,0c-.07.16.1.22.16.35L38.9,38c.16.2.1.37.18.58H39l.08.12a.09.09,0,0,0-.06.17l-.29-.28c0-.1.13.07.22,0s0-.25-.1-.26,0,.08.08.12c-.13.06-.15,0-.26-.08s0,.1,0,.1a.34.34,0,0,1-.15-.24c.07.06.07-.07.11,0-.12,0-.19-.07-.21-.22s-.21-.21-.25-.38a.59.59,0,0,1,.37.12c0-.13-.06-.12-.06-.25s-.25,0-.37,0l.07-.06c-.11-.08-.21,0-.29-.15a2.16,2.16,0,0,0-.49-.6l.06-.07c-.22.06-.36-.2-.54-.22-.18-.22-.54-.2-.61-.39A12.4,12.4,0,0,0,35,35.65l.1-.13c-.1.09-.06-.08-.15-.06.1.11-.13.13-.19.21a.7.7,0,0,0-.66.16l0-.09c-.15.2-.4.09-.64.15,0,0-.11-.09-.17-.06-.07.19-.13.21-.26.37a3.26,3.26,0,0,1-.47.17c-.3.45-.75.73-.92,1.23l-.11,0c-.06.52-.41,1-.32,1.47L31,39c-.07.13,0,.31.16.27-.05.14.1.32,0,.41s.11.15.15.25a.92.92,0,0,0,.16.59v-.07s-.12,0-.11.08.1.34.26.16c0,.3.39.46.43.76,0-.06.09,0,.13,0,.16.16.26.42.48.44,0,.05-.11.05,0,.11s.05-.06.13,0l.18.08.09.06.2.1.7.41a5.76,5.76,0,0,0-.09.66l0,.79,0,.56-.12,1.09,0,0c.14.26-.23.54,0,.75,0,.05,0,.21-.12.16.1.2-.16.52,0,.8a.11.11,0,0,0,0-.07c-.12.27,0,.52-.13.8,0,0,0-.08-.07-.1s.16.29-.06.33c0,.06.1.05.1,0a10,10,0,0,0-.11,2c-.17.46-.36,0-.24.38,0,0,.08,0,0,0,0,.15-.26.2-.16.31s.06.08.14.09c-.1.19-.22.2-.13.3l-.08,0c.15,0,.12.13.19.13a.53.53,0,0,0,.17-.12l.13,0,.27,0,1.09-.06c.72,0,1.43-.07,2.15-.09h.22v0h0l0-.33c-.07-.48-.13-1-.16-1.48a.75.75,0,0,0,0-.74s0,0,.07,0c-.15,0-.06-.25-.2-.27-.05-.53-.16-1-.25-1.56,0,.09.16.11.13,0l-.11-.09,0,0c0-.06-.11-.13-.15,0a11.64,11.64,0,0,1-.26-1.84l-.06-.93,0-.23-.05-.43-.1-.83c.22-.12.44-.22.65-.35l.23-.1,0,0,.06,0,0,0a1.15,1.15,0,0,0,.19-.14,2.39,2.39,0,0,0,.31-.34,2.14,2.14,0,0,0,1.1-2.12.52.52,0,0,1,.2.1A.63.63,0,0,1,38.77,39.84Z"/><path class="cls-1" d="M38.7,39c.07,0,.11-.16.21-.08C38.84,38.94,38.77,39,38.7,39Z"/><path class="cls-1" d="M37.79,35.83s0-.06,0-.08.11,0,.11.06S37.83,35.82,37.79,35.83Z"/><path class="cls-1" d="M37.05,35.28c0-.05.24,0,.35.06Z"/><path class="cls-1" d="M36.34,34.69c-.06-.08,0-.1.07-.07S36.37,34.66,36.34,34.69Z"/><path class="cls-1" d="M36.23,34.81c-.07,0-.09-.07-.12-.11S36.29,34.71,36.23,34.81Z"/><path class="cls-1" d="M34.33,34.41s-.15.07-.2,0S34.35,34.31,34.33,34.41Z"/><path class="cls-1" d="M33.44,34.66s0,0-.07,0,0-.08,0-.1Z"/><polygon class="cls-1" points="32.2 46.8 32.17 46.71 32.24 46.73 32.2 46.8"/><path class="cls-1" d="M32.72,52.72c.14,0,.07.07.09.07S32.88,52.71,32.72,52.72Z"/><polygon class="cls-1" points="36.22 52.39 36.19 52.4 36.2 52.26 36.22 52.39"/><path class="cls-2" d="M57.65,39.32a1,1,0,0,1-.34-.06A9.76,9.76,0,0,1,52.2,34.2c-1.49-3.35-2.88-5.76-6.84-6.93C41,26,28.4,26,24.09,27.27c-4,1.19-5.35,3.58-6.85,6.93a9.73,9.73,0,0,1-5.1,5.06,1,1,0,0,1-1.3-.66c-.1-.36-2.41-8.76,3.84-15s19.51-5.81,20.07-5.79,13.89-.35,20,5.79h0c6.25,6.24,3.94,14.64,3.84,15a1,1,0,0,1-.51.61A1,1,0,0,1,57.65,39.32ZM16.09,25c-4.29,3.91-3.91,9.42-3.57,11.79a8,8,0,0,0,2.9-3.42c1.61-3.6,3.33-6.68,8.12-8,4.52-1.28,17.85-1.28,22.37,0,4.79,1.35,6.51,4.43,8.12,8a8.06,8.06,0,0,0,2.9,3.42A14.69,14.69,0,0,0,53.36,25C47.77,18.88,24.87,17,16.09,25Z"/><path class="cls-2" d="M31.21,15.82a3.72,3.72,0,1,1,3.72-3.72A3.73,3.73,0,0,1,31.21,15.82Zm0-5.44a1.72,1.72,0,1,0,1.72,1.72A1.72,1.72,0,0,0,31.21,10.38Z"/><rect class="cls-2" x="24.4" y="16.01" width="6.62" height="2" transform="matrix(0.6, -0.8, 0.8, 0.6, -2.49, 29.07)"/><path class="cls-2" d="M37.77,15.82a3.72,3.72,0,1,1,3.72-3.72A3.72,3.72,0,0,1,37.77,15.82Zm0-5.44a1.72,1.72,0,1,0,1.72,1.72A1.72,1.72,0,0,0,37.77,10.38Z"/><rect class="cls-2" x="40.36" y="13.7" width="2" height="6.62" transform="translate(-1.97 28.08) rotate(-36.69)"/><path class="cls-2" d="M12,38.59c.16-.31-.21.08.07-.23A.17.17,0,0,1,12,38.59Z"/><path class="cls-2" d="M58.27,39.3c.94.69,1.49,2.06,2.28,3,.08.12-.2.07,0,.32a6.53,6.53,0,0,1,1.21,4.18l-.07-.07c0,.26.22.56.22.85,0,0-.07-.09-.11,0,.13.07.08.51.18.63s-.14.1-.19.25l.13.16c.33.46,0,1.09,0,1.72,0,0,0-.1-.08-.05a9.22,9.22,0,0,1-.6,3.31c0-.06-.1-.13-.17-.09.11.1,0,.44-.09.73-.19.06-.09.53-.34.81V55c0,.31-.27.3-.21.58l-.19.08c.12.21-.29.27-.32.51h0c-.07.2-.22.23-.3.4h0c-.22.39-.47.52-.34.61-.19,0,.22-.38-.08-.3a9.9,9.9,0,0,1-3.14,3.07c-.17,0-.27.08-.34,0-.1.11-.45.31-.53.44,0,0-.12,0-.19,0-.26.07-.18.29-.47.36.09-.09.1-.16,0-.19a2.55,2.55,0,0,1-.73.5S54,61,53.94,61c-.24.27-.56.2-.79.39l.07-.13c-.46.06-.06.23-.45.31.08-.06,0-.08,0-.13A4.32,4.32,0,0,1,51.6,62a0,0,0,0,0,0,0c-.39.12-.8.19-1.21.35-.17,0,0-.23-.4-.11,0,.18-.69.22-.4.38a4.6,4.6,0,0,0-1.16.17c.14-.1-.21-.2.08-.26l-.24-.08c0-.08.23,0,.15-.09a4.89,4.89,0,0,1-.7.15,2.31,2.31,0,0,1-.93.47c.2-.09-.14-.19,0-.23l-.59.42c-.15,0-.05-.14-.26-.07,0,.05-.07.08-.13.13s-.62.1-.7-.08.24-.06.07-.11-.28.1-.56.12v0c-.18,0-.53.12-.32.2s-.06-.1.13-.06a1.44,1.44,0,0,1-.71.18c.09,0,.08-.08.11-.13a5.28,5.28,0,0,1-1.17.31c0,.08.15-.17.21-.13-.53-.09-1.09.22-1.54.06.07,0,0,.12,0,.09-.26,0-.25-.12-.42-.07,0-.08-.2,0-.38,0s0,0,.11,0a5.41,5.41,0,0,1-1.75.1c0,.05-.34.18-.47.17l0-.11c-.11-.07-.42,0-.45-.09-.27.14,1-.12.68,0-.09-.09-.51.18-.43,0-.25,0-.5.13-.75,0,.08,0,.21-.15,0-.15-.37,0-.11.06-.4.1l-.19,0c0,.11-.32,0-.19.11,0-.09-.52.05-.48-.13l0-.15c-.16,0-.26.16-.38.22s-.07,0-.06-.07c0,.22-.37,0-.56.15-.32-.08-.83,0-1-.15a1.64,1.64,0,0,1-.77.11c.06,0,.14,0,.15-.08-.18-.06-.22,0-.39,0,0,0-.36-.13-.56-.21s-.16.19-.19.26c-.23-.22-.71.14-1-.06.09,0,.37-.1.16-.16-.23-.22-.46.17-.83.06l.09.18c-.17-.11-.55.1-.51-.09-.12.07-.44-.06-.4.12-.6-.16-1.48.07-1.85-.27-.09,0-.3,0-.26.09s.2-.07.25,0a.1.1,0,0,0-.1.08c-.19-.05-.34-.07-.15-.21-.42-.12-.45.29-1,.2,0-.07,0-.1-.17-.1l-.31.11c-.35-.05-.19-.18-.19-.3-.19,0-.41,0-.5.08l-.22-.17c.16.12-.15.06-.24.09l.09,0c0-.05-.25,0-.36,0s.24.12.35.15c-.09.05-.24,0-.37.08.05-.12-.3-.1-.44-.13s-.2.09-.25.08-.28,0-.14-.11.13.07.23,0c-.11-.06-.09-.17-.33-.11s0,.25-.3.14c.09,0,.11-.07.18-.11l-.3-.09,0,.11s0,0,0,0-.48,0-.56.11a3.68,3.68,0,0,1-.47-.15h0a.83.83,0,0,0-.58,0v0a1.07,1.07,0,0,0-.47,0c-.24-.12,0-.43-.32-.33s-.43.14-.34.23c-.45-.16-1-.06-1.39-.33-.08,0,0,.07-.18.06a5.69,5.69,0,0,1-1.92-.58c.21,0,0-.1.06-.16-.18,0-.15-.16-.26,0s0,.15.13.24a2.79,2.79,0,0,1-1.2-.45c.1.09,0,.08-.09.08.08-.14-.19-.27-.43-.31l-.07.08-.1-.15c-.09,0-.17.15-.34,0a.19.19,0,0,0,0-.12,1.44,1.44,0,0,1-.81-.25L14.28,61c-.11,0-.32-.06-.16.08-.35-.3-.59-.46-.64-.64a5.1,5.1,0,0,1-2.39-1.49l.07,0c-.12-.22-.17,0-.26-.16.11,0,0-.23.17-.16-.19-.29-.4-.23-.58-.37-.09,0,.17.09,0,.14s-.27-.4-.41-.35c0-.11.11-.13.19-.13l-.19-.11c0-.31.61.24.59-.1l-.14-.13c0-.23.45.27.19-.12-.19-.11-.46-.11-.39.07-.31-.31-.4.06-.68-.32,0-.15.24.29.28.14s-.32-.31-.4-.5c.08.21-.15.15-.25,0s.2,0,0-.24c-.1,0-.33-.23-.23,0-.23,0-.15-.33-.37-.41.05-.16.45.13.3-.22-.08.12-.38-.31-.45,0,0-.15,0-.21.16-.16,0-.21-.46-.33-.26-.51H8.35c0-.08,0-.18,0-.31s-.42-.47-.23-.53c0,0-.2-.44-.27-.24s.22.24.11.45c.06-.23-.18-.34-.28-.46l.06,0c-.06-.08-.13-.28-.23-.3.07.05.1,0,.1-.08l-.15,0c-.18-.33.17-.15,0-.48l.18.22s0-.2-.07-.35S7.3,53,7.2,53c-.1-.18.09-.12-.08-.28l.21.21s.1-.22,0-.48-.3-.38-.29-.09c0-.14,0-.34.08-.25-.11-.3-.1.07-.23-.18.05-.13.07-.48.14-.7l.23.24,0-.18c.18.2.09-.14.26,0a.87.87,0,0,0-.13-.37c-.18.4-.4-.35-.59-.22-.12-.5.48-.37.1-.85-.05.09-.24-.15-.15.17,0-.32-.25-.2-.17-.58.1.27.21-.31.36.08-.08,0,0,.22,0,.28.08-.13.22,0,.2-.3S7.08,49,7,49s0,.3-.11.18c-.06-.39.14-.45-.09-.61,0,.24-.11.31-.2.3l-.05-.29.08.06c.07-.46-.15-.14-.11-.59l.17-.21c.13.12-.09.65.15.58,0-.29-.09-.39,0-.66l0,.21c0-.11.32-.19.18-.61,0-.22-.08-.06-.16-.08,0-.46,0-.61,0-.91.15.08.11-.52.22-.17a1.21,1.21,0,0,0-.06,1c.22-.15-.06.35.13.47,0-.37.24-.33.37-.38a.71.71,0,0,0,0-.26c-.12,0-.13.08-.25.07a2.4,2.4,0,0,0,0-1c.08-.12.19,0,.17.11a5.91,5.91,0,0,1,.35-1.42c-.27.23.11-.5-.11-.36s-.31.4-.36.24.08,0,.14,0c0-.22.27-.24.16-.48-.08.45.21.16.33.29,0-.33.1,0,.2-.25a4.54,4.54,0,0,1,.21-1A7.91,7.91,0,0,0,9,41.74c.17-.13.25.08.39-.1s-.26.07,0-.21v0c0-.13.48-.52.34-.76l.09.21s0-.13.07-.19.15,0,.12.11c.24-.12.26-.41.4-.62l-.19.06a9.19,9.19,0,0,1,.65-.94l.08.07.09-.24c.05.11.24,0,.24-.2l-.15.69c-.15.11,0-.24-.15-.21s-.33.36-.28.48a.51.51,0,0,0,.12-.26c.15,0,0,.23,0,.38,0-.06.15-.13.12-.17a1.32,1.32,0,0,1-.25.51c0-.17-.14,0-.13,0,.1.09,0,.31-.22.55s-.25.54-.47.82a1.24,1.24,0,0,1,0-.63c-.18.15-.13.21-.32.37a.84.84,0,0,1,0,.58l-.09,0c-.1.26,0,.33-.15.61a8,8,0,0,0-.72,1.44l-.1,0c.11.3-.2.8-.19,1.14-.25.52-.18,1.2-.39,1.46-.06,1,0,1.85,0,2.87l-.15-.17c.11.18-.08.13,0,.31.1-.22.17.24.27.35a2.59,2.59,0,0,0,.34,1.39l-.09,0a4,4,0,0,1,.36,1.34.44.44,0,0,0,0,.33,3.18,3.18,0,0,1,.54.66c.12.27.29.71.38,1a19.25,19.25,0,0,0,2.12,2.58l0,.14a19.6,19.6,0,0,0,2.72,2l-.19.13c.22.21.61.29.62.13.23.2.69.25.79.48.26.17.37.08.61.15a4.45,4.45,0,0,0,1.3.51l-.13-.06c-.07,0-.11.11,0,.16s.73.29.6,0c.55.31,1.41.26,1.95.56,0-.07.12,0,.19-.08a6.47,6.47,0,0,0,1.52.28c.08,0-.15.09.07.13s0-.09.18-.1c.89,0,1.76.35,2.58.39,1.44,0,2.94.12,4.33.13v.05c.47-.18,1.09.21,1.46-.07.11,0,.42,0,.34.12.37-.12,1,.13,1.58,0a.39.39,0,0,0-.14,0c.55.11,1,0,1.6,0-.06,0-.16,0-.18.09.22.09.53-.21.65,0,.13,0,.09-.12,0-.11a36.85,36.85,0,0,0,3.92-.1c.94.14.06.4.8.22.06,0,0-.09.05,0,.29-.07.45.25.65.13-.09-.14.13-.08.13-.17.57.08.69.21,1.14.09l0,.08c.52-.23,1.14-.13,1.57-.4A42.58,42.58,0,0,0,50.67,61a14.93,14.93,0,0,0,6.89-3.64,1.89,1.89,0,0,0,1-1s0,.08,0,.06c-.11-.13.29-.39.2-.54a11.16,11.16,0,0,0,1.39-2.54c-.05.15,0,.28.11.1l0-.23h.05c0-.13,0-.29-.09-.19a13.38,13.38,0,0,0,.6-7.38,6.7,6.7,0,0,0-.69-2,16.82,16.82,0,0,0-2.93-5.06A1.7,1.7,0,0,1,58.27,39.3Z"/><path class="cls-2" d="M11.73,38.94c-.11,0-.28.19-.26,0C11.55,38.93,11.69,38.88,11.73,38.94Z"/><path class="cls-2" d="M7.74,44.07s-.06.08-.08.1,0-.18,0-.23S7.72,44,7.74,44.07Z"/><path class="cls-2" d="M7.24,45.7c-.06,0,0-.41,0-.63Z"/><path class="cls-2" d="M6.7,47.24c-.07.13-.1.09-.08-.1C6.66,47.13,6.67,47.2,6.7,47.24Z"/><path class="cls-2" d="M6.86,47.37a.39.39,0,0,1-.11.25C6.81,47.62,6.74,47.31,6.86,47.37Z"/><path class="cls-2" d="M6.76,50.87c0,.08.12.25,0,.34C6.85,51.12,6.65,50.82,6.76,50.87Z"/><path class="cls-2" d="M7.22,52.44c0,.06,0,.08,0,.13s-.09,0-.12,0Z"/><polygon class="cls-2" points="31.31 63.69 31.14 63.72 31.17 63.65 31.31 63.69"/><path class="cls-2" d="M43.57,63.55c.16-.06.12.06.15.07C43.57,63.63,43.77,63.52,43.57,63.55Z"/><polygon class="cls-2" points="50.11 62.37 50.06 62.38 50.05 62.23 50.11 62.37"/></svg>