<svg id="Calque_1" data-name="Calque 1" xmlns="http://www.w3.org/2000/svg" viewBox="0 0 113.39 113.39"><defs><style>.cls-1{fill:#dcbd71;}.cls-2{fill:#fff;}</style></defs><circle class="cls-1" cx="56.69" cy="56.69" r="53.79"/><path class="cls-2" d="M79.91,57.92H33.47a1,1,0,0,1-1-1V46.11a1,1,0,0,1,1-1H79.91a1,1,0,0,1,1,1V56.92A1,1,0,0,1,79.91,57.92Zm-45.44-2H78.91V47.11H34.47Z"/><path class="cls-2" d="M77.47,87.83H35.92a1,1,0,0,1-1-1V56.92a1,1,0,0,1,1-1H77.47a1,1,0,0,1,1,1V86.83A1,1,0,0,1,77.47,87.83Zm-40.55-2H76.47V57.92H36.92Z"/><path class="cls-2" d="M56.42,89.17c0,.17.13-.08.06.11C56.42,89.26,56.38,89.23,56.42,89.17Z"/><path class="cls-2" d="M56.51,44.45c.38.53,0,1.24.24,1.83,0,.06-.21,0-.16.13a3.13,3.13,0,0,1-.11,2.16l-.06,0c0,.13.15.3.12.44s0,0-.11,0c.12,0,.06.26.15.32s-.14,0-.19.12l.13.08c.32.22,0,.54.14.84,0,0,0,0-.08,0a7.3,7.3,0,0,1,.23,1.65.19.19,0,0,0-.19,0c.14,0,.18.19.2.34-.14.06.14.25.06.42h0c.16.12-.08.18.1.29l-.12.08c.21.05-.1.18,0,.28h0c.05.1-.06.15,0,.24h0c.06.22-.06.34.1.34-.13.07-.06-.21-.24-.09A9.59,9.59,0,0,1,56.81,56c-.06.08-.08.13-.14.15s0,.27.11.33-.08,0-.09.09.18.14.1.28a.12.12,0,0,0-.15-.06c.13.12.11.28.15.43,0,0,0-.06-.1,0,.14.15,0,.28.06.42l-.09-.05c-.11.22.19.06.13.25,0,0-.07,0-.11,0,.17.17.12.46.17.64h0a2.11,2.11,0,0,0,0,.61c0,.08-.23,0-.19.18.18,0,.07.35.28.23,0,.17-.1.45,0,.57-.08-.08-.23.08-.25-.06l-.11.11c-.08,0,0-.12-.07-.08s.08.28,0,.35.33.26.35.48c-.07-.11-.2,0-.24,0L57,61c0,.07-.15,0-.1.12s.08,0,.12.07,0,.31-.14.34,0-.12-.1,0,.07.14.07.27h0c0,.09.08.26.18.16s-.11,0,0-.07a.44.44,0,0,1,.13.36s-.07,0-.13-.06a1.44,1.44,0,0,1,.25.57c.09,0-.16-.07-.11-.1-.12.26.17.53,0,.75,0,0,.12,0,.09,0s-.13.12-.09.2,0,.1,0,.18,0,0,0-.05a1.37,1.37,0,0,1,.06.85s.18.17.18.23l-.12,0c-.06,0,0,.2-.08.22.14.13-.12-.51,0-.33-.1,0,.18.24,0,.21,0,.12.13.24,0,.36,0,0-.16-.1-.15,0s.05,0,.09.19l0,.09c.11,0,0,.16.11.09-.1,0,.05.26-.13.24l-.15,0c0,.07.16.12.22.18a.11.11,0,0,1-.07,0c.23,0,0,.18.16.27-.08.16,0,.41-.15.48.07.13.15.24.1.38,0,0,0-.07-.07-.07s0,.11,0,.19-.13.17-.21.27.18.08.26.09c-.22.11.14.35-.06.49,0,0-.11-.18-.16-.08-.22.11.16.23,0,.41l.18,0c-.11.08.11.27-.08.25.07.06-.06.21.12.19-.15.3.09.72-.23.9,0,0,0,.15.09.13s-.07-.1,0-.12.06,0,.08,0-.05.16-.2.07c-.11.21.3.21.23.47-.07,0-.1,0-.09.09l.13.14c0,.17-.17.1-.29.1s0,.2.1.24l-.15.11c.11-.08.07.08.1.12l0,0s0,.12,0,.17.11-.12.13-.18,0,.12.11.18c-.13,0-.09.15-.1.22s.11.09.1.12,0,.13-.1.07.06-.07,0-.11-.16.05-.08.16.24,0,.16.14c0-.05-.07-.05-.12-.09l-.06.15h.11l0,0c.11,0,0,.23.16.26s-.07.16-.09.23h0a.21.21,0,0,0,0,.28h0a.28.28,0,0,0,.08.23c-.09.12-.42,0-.28.17s.2.2.27.15c-.07.22.11.47-.06.68,0,0,.07,0,.1.08-.05.32.13.69-.09,1,0-.1-.11,0-.18,0,.1.08-.1.1.07.13s.15,0,.19-.1a.75.75,0,0,1,0,.6c.05-.05.08,0,.11,0-.16,0-.19.13-.13.24l.1,0-.1.07s.2,0,.11.15l-.1,0c.08.12.21.28.13.4l-.14.1s.1.14.14,0c-.09.2-.1.34-.22.41a1.85,1.85,0,0,1,.29,1.29h-.07c-.07.11.12.06.07.14s-.15.08-.23,0c-.08.17.12.21.16.32s-.07-.09.06-.07-.08.22.07.25c-.06,0-.17,0-.23,0l.07.09c-.17.12-.3-.27-.51-.14l0,.09c-.15.08-.17-.24-.22,0s.28.18.35.09c0,.2.34.09.33.32-.08.06,0-.18-.14-.14s.07.21,0,.3c0-.1.2,0,.22,0s-.13-.07-.15.09.15.17.21,0c.19.06-.06.17.09.26-.13,0-.31-.17-.37,0,.13,0,.17.21.36.12,0,.07-.14.07-.22,0s.24.23,0,.26l.14,0s-.08.07-.15.12.18.28,0,.27c0,0,0,.23.15.15s-.1-.14.08-.21c-.15.09,0,.18.07.25H57.6s0,.14.09.16a.08.08,0,0,0-.11,0l.12,0c0,.17-.21,0-.18.2l-.09-.12s-.09.08,0,.16.24.09.32.12-.12,0,0,.13l-.13-.12s-.18.08-.18.21.2.2.25.07a.09.09,0,0,1-.14.1c0,.15.12,0,.18.11s-.17.2-.27.3l-.18-.13v.09c-.15-.11-.11.05-.26,0s0,.13.06.18c.25-.17.34.19.56.15.06.23-.54.14-.2.38.06,0,.23.08.17-.07,0,.15.22.1.13.27-.09-.13-.23.14-.36,0,.07,0,.06-.1,0-.13s-.23,0-.23.14,0,.21.14.2,0-.14.12-.08-.15.21.07.28c0-.11.12-.14.2-.14l.06.13-.09,0c-.06.21.16.06.13.27l-.16.09c-.15,0,.06-.3-.17-.26,0,.13.11.18,0,.3a.73.73,0,0,1,0-.09s-.32.1-.14.29.09,0,.17,0c0,.21.12.27.13.41-.17,0,0,.25-.19.09a.32.32,0,0,0-.07-.45c-.2.08,0-.17-.18-.22,0,.17-.2.17-.33.19s0,.1.07.13.12,0,.24,0a.53.53,0,0,0,.16.48.12.12,0,0,1-.2,0,2.28,2.28,0,0,1,0,.69c.2-.14,0,.24.21.15s.19-.22.28-.15-.09,0-.13,0-.18.15,0,.24c-.06-.21-.24,0-.4-.08.09.15-.11,0-.11.14a1.61,1.61,0,0,1,.19.5c-.15.21,0,.53,0,.72s-.25,0-.28.14.19-.09.11.09l0,0c0,.06-.12.34.14.4l-.2-.06s0,.07,0,.09-.12.05-.16,0c-.13.11,0,.24,0,.36l.11-.08c.09.22,0,.36,0,.56h-.11l.06.12c-.1,0-.17.08-.08.14l-.28-.31c.07-.09.14.09.25,0s.06-.24,0-.27,0,.08.05.13c-.16,0-.15-.08-.25-.14s0,.09,0,.1a.35.35,0,0,1-.1-.27c.06.08.1,0,.14,0-.13,0-.17-.12-.14-.28s-.1-.29,0-.47a.82.82,0,0,1,.3.28c.07-.11,0-.13.07-.24a.55.55,0,0,1-.33-.24h.11c-.06-.13-.21-.13-.18-.3a6.17,6.17,0,0,0,.06-.8h.11c-.22-.12-.08-.41-.18-.57.1-.29-.1-.61.08-.76a5.76,5.76,0,0,1-.12-1.44l.15.09c-.11-.1.08-.06.06-.15-.12.1-.15-.13-.24-.19a.87.87,0,0,0-.12-.73h.1c-.19-.21,0-.45,0-.71,0,0,.14-.07.13-.15-.17-.14-.15-.21-.26-.41a1.49,1.49,0,0,1,.11-.54A9.76,9.76,0,0,1,56,78.75l.12,0c-.26-.56,0-1.25-.16-1.73l.21,0c.06-.15-.06-.34-.2-.3.06-.15-.1-.38.07-.47s-.1-.19-.13-.32a1.56,1.56,0,0,0,0-.71l0,.07a.1.1,0,0,0,.15,0c-.06-.11,0-.4-.19-.29.14-.31-.12-.72.07-1-.06,0-.07-.05-.12-.08,0-.27.13-.56,0-.78,0,0,.11.07.12,0s-.09,0-.12-.08c-.13-.44.12-.89.09-1.29a14.2,14.2,0,0,1-.08-2.15h0c-.19-.23.19-.53-.09-.72,0,0,0-.2.11-.16-.13-.19.13-.51,0-.78,0,0,0,0,0,.07.1-.27,0-.5.05-.78,0,0,0,.08.09.09s-.21-.26,0-.32c0-.06-.12,0-.11,0A8.28,8.28,0,0,0,55.85,65c.14-.46.4,0,.22-.39,0,0-.09,0,0,0s.27-.21.14-.31-.08-.06-.17-.07c.1-.28.23-.33.12-.56l.07,0c-.21-.26-.1-.56-.34-.78-.05-1.43-.19-2.8-.21-4.2s-.07-2.72.06-4.12a.68.68,0,0,0,.12-.72s0,0,.07,0c-.17,0,0-.26-.18-.29,0-.52,0-1,0-1.53,0,.09.15.13.14,0l-.1-.11h0c0-.07-.1-.15-.16-.08-.14-1.33.19-2.65.15-4a3.64,3.64,0,0,0,0-1.09A7.66,7.66,0,0,0,56,43.89.85.85,0,0,1,56.51,44.45Z"/><path class="cls-2" d="M56.41,89c.08,0,.12-.15.23,0C56.57,88.93,56.48,89,56.41,89Z"/><path class="cls-2" d="M57.25,85.86s0,0,0,0,.07.07,0,.1S57.28,85.88,57.25,85.86Z"/><path class="cls-2" d="M57.3,85.07c.07,0,.13.18.14.28Z"/><path class="cls-2" d="M57.6,84.33c.06-.07.09,0,.09,0S57.63,84.34,57.6,84.33Z"/><path class="cls-2" d="M57.43,84.27c0-.06,0-.09.09-.12S57.56,84.29,57.43,84.27Z"/><path class="cls-2" d="M57.65,82.66s-.07-.12,0-.16S57.75,82.69,57.65,82.66Z"/><path class="cls-2" d="M57.54,81.92s0,0,0-.07.09,0,.1,0Z"/><polygon class="cls-2" points="57.24 68.3 57.28 68.38 57.21 68.37 57.24 68.3"/><path class="cls-2" d="M57.24,62.33c-.05-.08.07,0,.08-.07S57.23,62.24,57.24,62.33Z"/><polygon class="cls-2" points="56.87 59.12 56.88 59.14 56.73 59.13 56.87 59.12"/><path class="cls-2" d="M55.44,44.83c.45.15-.18-.21.31.07A.28.28,0,0,1,55.44,44.83Z"/><path class="cls-2" d="M56.92,44.08c1.26-.92,3.3-1.18,4.77-2,.18-.08,0,.21.42,0a37,37,0,0,1,5.71-2.2l-.08.11c.36-.13.68-.51,1-.67,0,0-.08.11,0,.12,0-.15.61-.39.71-.56s.2,0,.4,0l.12-.24a2.78,2.78,0,0,1,.84-.74,4.12,4.12,0,0,0,.95-.87s0,.13,0,.11a27,27,0,0,0,2.73-3.75c0,.07.05.17.14.12-.08-.14.15-.56.3-.94.22-.09.22-.68.47-1.08l0,.05c0-.38.29-.45.22-.79l.18-.17c-.13-.21.28-.44.26-.76h0c0-.28.17-.39.2-.65l0,0c.07-.59.26-.91.09-.93.17-.18,0,.58.2.29a13.3,13.3,0,0,0-.52-5.92,1.29,1.29,0,0,1,0-.45,3,3,0,0,0-.53-.77c0,.05,0-.16,0-.25-.16-.34-.37-.22-.56-.56.13.09.21.1.22,0-.32-.19-.63-.51-1-.7.06,0,.15.05.17,0-.43-.14-.67-.45-1.07-.5l.17,0c-.56-.31-.23.11-.72-.09.13,0,.09,0,.12-.07a13.24,13.24,0,0,0-1.79.05s0,0,0,0a5.94,5.94,0,0,0-1.66.35c-.22,0,0-.25-.54,0,.08.15-.89.4-.5.48a6.09,6.09,0,0,0-1.48.58c.17-.16-.31-.11,0-.29l-.33,0c0-.08.31-.11.18-.15s-.69.44-.87.5a6.54,6.54,0,0,1-1,1c.21-.21-.25-.09-.1-.22-.18.25-.34.52-.51.78s-.12-.1-.33.11c0,0,0,.13-.09.22s-.63.55-.82.47.24-.24,0-.15c-.29.24-.26.31-.54.56l0,0c-.21.14-.48.56-.22.44s-.13,0,.1-.17a2.92,2.92,0,0,1-.6.79c.07-.11,0-.14,0-.21-.26.45-.57.88-.89,1.34.07.06,0-.27.11-.3-.56.48-.79,1.26-1.27,1.64,0-.08.14,0,.11,0-.21.27-.3.2-.38.41-.07,0-.12.25-.23.46s-.06,0,0-.14c-.14.29-.64,1.47-1,2.1a1.48,1.48,0,0,1-.08.64l-.08-.1c-.12.12-.2.53-.3.52,0,.39.4-1.34.32-.85-.13.09-.08.71-.18.55a4.23,4.23,0,0,1-.31.95c.05-.08-.06-.31-.14,0-.13.47,0,.15-.07.54l0,.25c.1.05-.13.42,0,.27-.11,0-.11.7-.27.61L57.1,33a1.42,1.42,0,0,0,.11.55s-.06.07-.08.06c.21.07-.11.49,0,.76a7.81,7.81,0,0,1-.31,1.3,3.34,3.34,0,0,1,0,1c0-.08,0-.19-.06-.21-.08.24,0,.3,0,.53a4,4,0,0,0-.23.76c.06.34.18.22.25.26-.22.31.14,1,0,1.35,0-.12-.12-.5-.17-.21-.21.32.18.62.09,1.13l.18-.13c-.11.23.13.74,0,.69.07.17,0,.6.14.54-.1.83.23,2-.05,2.54,0,.12,0,.42.12.35s-.09-.27,0-.35c0,.11.06.12.09.13,0,.27,0,.47-.18.24a1,1,0,0,0,0,.17l-.68.18c-.17-.38-.49-.33-.71-1,.08,0,.08-.06,0-.25l-.28-.32c-.18-.44,0-.31.14-.37-.12-.22-.25-.51-.38-.57v-.35c0,.25-.16-.15-.23-.24l.07.09c0-.07-.13-.31-.2-.44-.06.06,0,.35.1.5-.11-.09-.19-.28-.32-.4.13,0-.1-.41-.18-.59s-.22-.19-.24-.25-.16-.34,0-.22,0,.19.13.28c0-.16.08-.19-.13-.44s-.19.17-.32-.27c.08.09.13.09.21.15l-.14-.4-.1,0c0-.06,0,0,0-.06-.16-.06-.33-.55-.49-.57-.11-.18-.14-.43-.23-.61l0,0a1.5,1.5,0,0,0-.44-.65h0a1.74,1.74,0,0,0-.37-.51c-.11-.33.3-.31,0-.56s-.45-.36-.44-.2a18.85,18.85,0,0,1-1-1.63c-.09-.05-.08,0-.21-.12A22,22,0,0,1,49,32.64c.2.17.09-.06.14-.1-.22-.11-.09-.27-.27-.22s-.12.1,0,.32a8.41,8.41,0,0,1-1.06-1.27c.06.14,0,.07-.14,0,.14-.08-.1-.4-.36-.57l-.1,0-.06-.2c-.11-.06-.24.05-.39-.22a.17.17,0,0,0,0-.14,2.71,2.71,0,0,1-.88-.62l-.12-.29c-.12-.08-.35-.17-.19,0-.38-.44-.68-.65-.75-.87a11,11,0,0,1-1.56-.75,10.88,10.88,0,0,0-1.54-.7l0-.06c-.24-.15-.17.08-.34,0,.11,0-.16-.2.07-.23-.38-.17-.53,0-.76,0,0,.09.19-.05.14.07s-.49-.09-.52.07c-.09-.05,0-.16,0-.23l-.2.1c-.14-.06,0-.16.13-.26s.33-.18.16-.28l-.23,0c-.26-.13.63-.23,0-.23-.27.1-.41.38-.19.38-.46.19-.12.38-.51.57-.15,0,.3-.19.18-.25s-.36.27-.51.38c.19-.11.15.13.09.23s0-.21-.22,0c0,.1-.06.35.12.19.1.17-.19.25-.11.46-.17.07-.18-.43-.37-.09.13,0,.07.51.3.34-.06.14-.16.14-.22,0-.13.22.19.55-.07.62l.14.08a2.93,2.93,0,0,0-.12.31c0,.22.29.64.09.67,0,.06.16.55.24.32s-.19-.31,0-.52c-.11.24.12.42.22.57l-.07.05c.06.09.13.32.23.35-.07-.06-.1,0-.09.09l.15.06c.23.4-.15.18.06.57a2.88,2.88,0,0,1-.22-.27c0,.06,0,.25.13.42s.31.12.42.15c.14.2-.07.15.14.32l-.26-.23s-.06.27.1.57.43.38.32.06c.08.15.14.38,0,.31.22.31.07-.1.3.14,0,.16.14.56.19.83l-.33-.19.12.19c-.28-.17,0,.19-.22.13a1.26,1.26,0,0,0,.34.39c-.07-.52.57.23.67,0,.43.45-.19.65.51.94,0-.12.3,0,0-.25.23.31.33.06.57.46-.3-.19.08.42-.35.14.07,0-.15-.24-.21-.29,0,.18-.19.12.08.43s.41.42.47.3-.27-.27-.07-.24c.37.33.29.52.59.51-.23-.21-.19-.35-.12-.41l.29.22h-.11c.36.45.23,0,.61.41l.07.3c-.2,0-.54-.61-.63-.37.26.26.42.26.64.53l-.23-.14c.09.1,0,.42.5.63.25.12.11,0,.17-.08.46.36.66.4,1,.62-.17.09.52.41.08.3a2.25,2.25,0,0,0-1-.73c0,.3-.34-.32-.56-.25.35.32.21.45.18.6a1,1,0,0,0,.31.17c.12-.06,0-.17.06-.27a2.73,2.73,0,0,0,1.14.7c.11.16,0,.22-.19.11.53.35,1.08.74,1.57,1.1-.22-.37.6.32.46,0s-.41-.48-.21-.46-.05.07,0,.15c.27.05.24.37.54.35-.52-.25-.22.15-.39.22.4.15-.08.09.28.31s.89.34,1.31.53a6.92,6.92,0,0,0,1.79.92c.21.19,0,.27.22.43s-.15-.29.28,0h-.06c.16,0,.81.51,1.06.34l-.22.11a.63.63,0,0,0,.26.07c0,.06.06.16-.11.13.24.25.63.25.95.39l-.16-.19c.58.16.91.42,1.45.61l-.06.09.35.07c-.12.07.14.26.34.25l-.93-.1c-.2-.16.31,0,.21-.18a1,1,0,0,0-.71-.26.89.89,0,0,0,.36.1c0,.17-.28,0-.47.07.11,0,.23.14.27.11a2.31,2.31,0,0,1-.75-.23c.24,0-.08-.14,0-.14-.08.11-.41,0-.79-.2-.22-.27-.79-.25-1.23-.5a2,2,0,0,1,.83.05c-.26-.19-.32-.14-.58-.34a1.22,1.22,0,0,1-.75,0l0-.1c-.36-.12-.43,0-.84-.23l-2-1.15,0-.1c-.41,0-1-.53-1.48-.71-.62-.52-1.49-.92-1.71-1.32a14.84,14.84,0,0,1-3.09-2.75l.27.09c-.25-.12-.05-.18-.23-.36.1.3-.35-.18-.54-.27A10.33,10.33,0,0,0,39.3,34l.08-.07a4.59,4.59,0,0,1-1-1.81.88.88,0,0,0-.06-.45,3.3,3.3,0,0,1-.65-1.08,4.55,4.55,0,0,1-.13-1.65,3.05,3.05,0,0,1,.84-2.64,3.54,3.54,0,0,1,2.77-.9l.12.14a5.34,5.34,0,0,1,2.63.87l2,1.36-.23.08c.31.31.81.57.82.4.28.33.9.63,1,1,.3.34.46.32.75.56.57.7.81.92,1.39,1.54l-.13-.17c-.09,0-.16,0,0,.18s.7.92.69.53a21.6,21.6,0,0,1,1.7,2.42c0-.1.15.08.24.13a21.68,21.68,0,0,0,1.17,1.91c0,.12-.2-.12,0,.16s.07,0,.23.14a28.56,28.56,0,0,1,1.68,3.3,45.32,45.32,0,0,1,2.13,4.31l-1.6.42-.11-1.27,0,0c-.23-.64.09-1.54-.22-2,0-.16,0-.6.09-.49-.16-.51.07-1.46-.1-2.22a.68.68,0,0,0,0,.19c.1-.76,0-1.44.11-2.25,0,.08,0,.23.07.26.11-.3-.15-.76.09-.91,0-.18-.1-.14-.1,0a28.61,28.61,0,0,1,1-5.49c.63-1.21.39.07.63-1,.08-.06-.05-.09,0-.09.11-.4.5-.46.51-.77-.18,0,0-.21-.06-.25a6.79,6.79,0,0,0,.92-1.36l0,.08c.22-.76.83-1.4,1-2.05A18.69,18.69,0,0,1,70,18.18a7.32,7.32,0,0,1,3.38.09,5.39,5.39,0,0,1,2.86,2,9.91,9.91,0,0,1,1.63,6.21,9.57,9.57,0,0,0-.35,2.14c0-.05,0-.12-.06-.05.15.08-.14.74,0,.88a17.31,17.31,0,0,1-1.74,4.23c.11-.22.06-.39-.08-.13l-.08.32-.06,0c-.09.18-.13.42,0,.26a15.62,15.62,0,0,1-3.94,4.47,26.84,26.84,0,0,1-5.17,2.68c-.85.29-2,.81-2.9,1.18-1.37.39-2.68.74-4,1.14-.64.2-1.28.41-1.91.66a8.2,8.2,0,0,0-.89.39.55.55,0,0,0-.16.1h0a1.34,1.34,0,0,0-.23-.26c-.11-.16-.27-.15-.2-.16a.1.1,0,0,0,0,0l.07-.11c0-.07.07-.2.11-.33s0-.07,0-.07h.24a.88.88,0,0,1-.27.2s0,0,0,.05a.58.58,0,0,1-.18.32.43.43,0,0,1,.24.16s0,0,0-.07A2,2,0,0,1,56.92,44.08Z"/><path class="cls-2" d="M54.91,44.63c-.06-.11-.34-.28-.06-.28C54.85,44.43,55,44.58,54.91,44.63Z"/><path class="cls-2" d="M47.4,40.08s-.08-.09-.1-.12.21,0,.26.12S47.46,40.07,47.4,40.08Z"/><path class="cls-2" d="M45.59,38.83c.07,0,.48.19.72.33Z"/><path class="cls-2" d="M44.18,37.35c-.1-.16,0-.16.14,0C44.31,37.38,44.24,37.35,44.18,37.35Z"/><path class="cls-2" d="M44,37.38a.55.55,0,0,1-.19-.29C43.73,37.15,44.08,37.33,44,37.38Z"/><path class="cls-2" d="M41.17,34.05c-.06-.08-.24-.23-.23-.35C41,33.82,41.31,34.05,41.17,34.05Z"/><path class="cls-2" d="M40,32.42a.28.28,0,0,0-.08-.15c0-.12.09,0,.14,0Z"/><polygon class="cls-2" points="56.8 39.84 56.85 40.07 56.77 40.04 56.8 39.84"/><path class="cls-2" d="M61.79,24.7c.13-.18.16-.06.19-.08C61.85,24.77,62,24.51,61.79,24.7Z"/><polygon class="cls-2" points="69.05 19.69 68.98 19.72 68.96 19.57 69.05 19.69"/></svg>