<svg id="Calque_1" data-name="Calque 1" xmlns="http://www.w3.org/2000/svg" viewBox="0 0 36.42 19.2"><path fill="#ffffff" d="M10.93,17c.1.12-.14,0,0,.11C11,17.06,11,17,10.93,17Z"/><path fill="#ffffff" d="M34.45,11.23c-.32-.53-1.06-.39-1.49-.78-.05,0-.05.2-.17.11a2.47,2.47,0,0,0-1.91-.46l0,.07c-.13,0-.22-.21-.35-.22s0,.06,0,.11c0-.12-.21-.11-.24-.21s-.08.12-.15.16l0-.15c-.12-.36-.48-.1-.71-.33,0,0,0,.07,0,.09A5.88,5.88,0,0,0,28,9.08a.26.26,0,0,1,0,.19c0-.15-.14-.21-.26-.27-.09.13-.2-.18-.37-.12v0c-.09-.17-.19.06-.25-.14L27,8.88c0-.22-.19.07-.26-.05v0c-.08-.06-.15,0-.22,0v0c-.19-.09-.32,0-.29-.15-.09.11.18.09,0,.25a6,6,0,0,0-1.91-.4c-.09.05-.13.07-.16.12s-.24,0-.29-.14,0,.07-.08.08-.11-.19-.25-.14a.15.15,0,0,1,0,.16c-.1-.13-.25-.13-.37-.19s.05,0,0,.1c-.13-.16-.27,0-.38-.09l0,.09c-.21.1-.05-.19-.23-.14,0,0,0,.07,0,.11-.15-.18-.42-.15-.57-.21v0a2.81,2.81,0,0,1-.55-.08c-.08,0,0,.22-.18.18,0-.19-.31-.1-.19-.3-.16,0-.42.07-.52,0,.07.08-.09.22.05.25l-.11.1c0,.08.1,0,.07.08s-.26-.09-.32-.06c-.12-.12-.22-.33-.42-.35.09.07-.06.2,0,.23L19.73,8c-.07,0,0,.15-.11.1s0-.08-.07-.12-.27,0-.3.13.1,0,0,.11-.13-.07-.25-.07v0c-.08,0-.24-.08-.15-.18s0,.11.06.06a.36.36,0,0,0-.33-.14c.05,0,0,.08.06.13a1.35,1.35,0,0,0-.53-.25c0-.09.07.15.1.11-.24.11-.5-.15-.69,0,0,0,0-.12,0-.1s-.11.14-.18.1-.1,0-.17,0,0,0,0,0a1.11,1.11,0,0,0-.78,0s-.16-.17-.22-.16l0,.11c-.05.07-.19,0-.2.1-.13-.13.48.09.31,0,0,.1-.24-.17-.2,0-.11,0-.23-.12-.33,0s.1.15,0,.15,0-.05-.19-.09l-.08,0c0-.11-.15,0-.1-.1,0,.09-.24,0-.2.14l0,.14c-.07,0-.13-.14-.19-.19a.12.12,0,0,0,0,.07c0-.22-.16,0-.26-.13-.14.1-.37,0-.43.2-.12-.05-.23-.12-.35-.06s.06,0,.07.07-.1,0-.17,0-.15.15-.23.24-.1-.18-.12-.25c-.07.23-.33-.1-.43.11,0,0,.17.09.09.15-.07.23-.23-.13-.38,0V8.12c-.05.12-.26-.08-.21.1-.07-.05-.19.09-.2-.09-.24.19-.67,0-.78.38,0,0-.13,0-.13-.07s.11.06.12,0-.05,0-.06-.06-.14.08,0,.21c-.16.14-.24-.26-.47-.15,0,.07,0,.1-.06.1l-.15-.09c-.15.06-.06.18,0,.3s-.18,0-.23-.06l-.07.17c.05-.13-.08-.06-.13-.08l0,0c0,.05-.11,0-.16,0s.09-.12.13-.16-.11,0-.18-.07c0,.12-.12.11-.18.14S10,8.63,10,8.64s-.12,0,0,.11,0-.08.1,0,0,.16-.13.1,0-.24-.16-.13c.05,0,.06.07.1.1l-.12.09,0-.11s0,0,0,.06-.22,0-.28-.11-.12.11-.18.14h0a.2.2,0,0,1-.26,0v0a.25.25,0,0,1-.22,0c-.09.11.07.42-.09.32S8.49,9.06,8.52,9c-.18.12-.46,0-.6.23,0,0,0-.07-.09-.08-.28.12-.66,0-.83.32.1,0,0,.1.06.17s0,.12-.13,0,0-.14,0-.2c-.19,0-.46.06-.53.19,0-.06,0-.08-.06-.09.07.15,0,.21-.16.2l0-.09,0,.11S6,9.53,6,9.65a.21.21,0,0,1,0,.11c-.12,0-.31-.12-.39,0l0,.16s-.15-.05-.09-.12L5.26,10c-.06,0-.13.11-.14.18A4.6,4.6,0,0,0,3,10.62l.13,0c-.06.09-.28,0-.32,0,.16,0,.12.12.37.12-.08.11-.48,0-.7.09s.24,0,0-.06c-.09,0-.19.15-.51.11a1.53,1.53,0,0,0,.46.07c-.12,0-.05,0-.08.06a.44.44,0,0,0,.38,0,1.47,1.47,0,0,1,.6.07s-.12,0-.1,0c.2.06.18,0,.32,0s.14,0,.11.05a1.06,1.06,0,0,1-.59-.05c.12.15-.54,0-.27.21s-.17-.16.09-.1.11.17.28.27c-.2-.1-.34,0-.3,0,.24.11.13-.07.33.08-.09,0,0,.19-.24.06-.2.08.28.17.19.29.23,0,.22-.22.5-.07-.21,0,0,.25-.32.21.14.07.26,0,.3,0s0,.33.33.25l-.09.09a1.45,1.45,0,0,0,.29.06c.09.07.18.38.32.24,0,0,.25.23.07.26s-.09-.21-.32-.16c.22,0,.21.2.26.31l.06-.05c0,.05.08.09,0,.17a.09.09,0,0,1,.09-.08l0,.12c.08.14.16-.14.25,0l0-.15s.11,0,.14.06l-.12.31c0,.09.11-.07.1.07v-.17s.17-.08.25,0,0,.27-.1.24a.1.1,0,0,0,.16-.05c.07.11-.09.08-.05.2a3.66,3.66,0,0,1,.39,0l0-.22.06.05c0-.17.11-.05.16-.2.06,0,.07.1.09.16-.28.08-.08.36-.26.5.12.19.45-.32.39.09-.06,0-.09.21-.15.08.11.06-.08.22.1.26,0-.15.24-.1.2-.3,0,.06-.11,0-.11-.05s.13-.18.23-.09.14.14,0,.22-.09-.09-.13,0,.24,0,.15.23c-.07-.08-.17,0-.23.07l.06.11,0-.08c.18.08-.06.16.1.26l.17-.07c.06-.14-.25-.13-.07-.28.1.07,0,.19.18.21a.24.24,0,0,1,0-.09s.27-.18.28.07,0,.08-.09.14c.13.15.12.26.21.35.09-.15.18.13.19-.09A.29.29,0,0,1,7,14.87c.19-.1-.13-.07,0-.26.12.1.24-.06.35-.14s0,.09,0,.12-.11.07-.19.16a.49.49,0,0,1,.24.41c.08,0,.14-.12.1-.17a1.69,1.69,0,0,0,.49.39c-.23.07.14.18,0,.25s-.27,0-.28.12.05-.07.1-.08c0,.14.22-.05.17.14-.11-.18.13-.21.2-.36,0,.16.07-.08.17,0a1.32,1.32,0,0,0,.23.44c.24,0,.37.31.5.43s.18-.18.28-.14-.19.09,0,.14v0c0,.07.31.11.19.34l.08-.18s0,0,0,.09.1-.07.09-.13c.16,0,.15.15.24.23l-.13,0c.09.19.26.19.37.34l.07-.09,0,.13c0-.1.18-.09.16,0l0-.4c-.11,0,0,.16-.13.21s-.21-.09-.16-.19,0,.06.06.12c.11-.1,0-.16.06-.27s.09,0,.07.06a.32.32,0,0,0-.14-.23c0,.09-.09.05-.1.1.09-.11,0-.21-.1-.28s-.14-.24-.29-.31a.65.65,0,0,0,0,.39c-.12,0-.08-.08-.2-.09a.57.57,0,0,0,0-.39l-.07.07c-.06-.11,0-.23-.1-.3a7.38,7.38,0,0,1-.6-.43l-.07.07c.05-.24-.23-.3-.29-.47-.25-.09-.36-.43-.57-.39a4.82,4.82,0,0,0-.93-.93l0,.16c0-.14-.1,0-.15,0,.15,0,0-.19,0-.3-.23,0-.36-.31-.43-.51l-.07.07c0-.26-.3-.28-.5-.41,0,0-.14.06-.18,0s-.08-.27-.09-.41a.69.69,0,0,0-.28-.1.29.29,0,0,0-.1-.27c-.05-.07-.22-.16.07-.15L5,11.41c.32,0,.39,0,.47-.05a.34.34,0,0,1,.26-.06,1.51,1.51,0,0,1-.09-.18.18.18,0,0,1,.31.1c.1-.11.35,0,.37-.21s.19,0,.31,0a1,1,0,0,1,.59-.22l0,0s-.07-.11,0-.14.32-.15.3.11c.23-.21.66-.06.86-.32,0,.07.07.07.11.1.23-.06.44-.26.66-.2,0,0-.09-.09,0-.13s0,.09.1.1c.4,0,.73-.34,1.1-.36a11.47,11.47,0,0,0,1.89-.29l0,0c.23.15.44-.29.65,0,0-.05.18,0,.13-.13.18.11.44-.18.69,0,0,0,0,0-.06,0,.22-.14.45,0,.69-.14,0,0-.08,0-.09-.08s.25.18.28-.06c.05,0,.05.11,0,.11a4.9,4.9,0,0,1,1.71,0c.41-.16,0-.4.34-.24,0-.05,0,.09,0,0s.18-.27.27-.16.06.08.07.17c.25-.11.29-.24.5-.14l0-.08c.24.21.5.08.71.31,1.27.07,2.49.17,3.73.31s2.41.29,3.66.32a.56.56,0,0,1,.65,0s0,0,0-.07c0,.16.22.05.22.21a10.55,10.55,0,0,1,1.34.26c-.07,0-.08-.17,0-.14l.07.12,0,0c.06,0,.1.13,0,.16,1.14.38,2.35.33,3.47.7a2.92,2.92,0,0,1,.92.3,5.24,5.24,0,0,1,2.51.65A.74.74,0,0,0,34.45,11.23Z"/><path fill="#ffffff" d="M10.81,16.88c-.08,0-.19,0-.2.15C10.67,17,10.77,16.94,10.81,16.88Z"/><path fill="#ffffff" d="M8.1,15.69s-.06,0-.07,0,0,.1.05.08S8.09,15.73,8.1,15.69Z"/><path fill="#ffffff" d="M7.51,15.26c0,.06,0,.21.11.27Z"/><path fill="#ffffff" d="M6.8,15.05c-.08,0-.09,0,0,.1S6.79,15.09,6.8,15.05Z"/><path fill="#ffffff" d="M6.87,14.9a.12.12,0,0,0-.14,0C6.78,14.84,6.81,15,6.87,14.9Z"/><path fill="#ffffff" d="M5.62,14.11s0-.12-.12-.08S5.57,14.21,5.62,14.11Z"/><path fill="#ffffff" d="M5.17,13.59s0,0,0,0-.06.07,0,.09Z"/><polygon points="13.05 8.15 12.97 8.13 12.99 8.2 13.05 8.15"/><path fill="#ffffff" d="M18.54,7.74c.08,0,.05-.06.06-.07S18.63,7.76,18.54,7.74Z"/><polygon points="21.49 8.18 21.46 8.18 21.46 8.33 21.49 8.18"/><path fill="#ffffff" d="M14.14,1.78c.08.05,0,0,0,0Z"/><path fill="#ffffff" d="M14.13,1.81l0,0S14.12,1.82,14.13,1.81Z"/><path fill="#ffffff" d="M14,2c.09,0,.08-.09.18,0S14.06,2.1,14,2Z"/><polygon points="14 1.91 14.04 1.95 13.95 1.9 14 1.91"/><polygon points="13.99 1.84 14 1.86 13.9 1.86 13.99 1.84"/><path fill="#ffffff" d="M13.85,2.16l.06,0c0-.1-.1-.07-.1-.13s.12.12.17,0c0,.07-.11.09,0,.17S13.91,2.17,13.85,2.16Z"/><path fill="#ffffff" d="M10.82,3.7v0S10.81,3.69,10.82,3.7Z"/><path fill="#ffffff" d="M10.05,4.2s0,0,0,0a.08.08,0,0,0,0,0Z"/><path fill="#ffffff" d="M11.41,3.53a.43.43,0,0,1,0,0S11.42,3.51,11.41,3.53Z"/><path fill="#ffffff" d="M7.07,7.44l0,0h0l0,0Z"/><path fill="#ffffff" d="M9.13,4.68l0,0A0,0,0,0,1,9.13,4.68Z"/><path fill="#ffffff" d="M11.68,3.33h0v0Z"/><path fill="#ffffff" d="M10.19,3.89l0,0S10.18,3.9,10.19,3.89Z"/><path fill="#ffffff" d="M13.26,2.78s0,0,0,0S13.23,2.77,13.26,2.78Z"/><path fill="#ffffff" d="M13,3h0S13,3,13,3Z"/><path fill="#ffffff" d="M12.84,3.11Z"/><path d="M13.22,2.8c0,.05.1.18,0,.07v0s-.06,0-.08,0,0,0,0,0a.11.11,0,0,0,0-.05S13.18,2.79,13.22,2.8Z"/><path fill="#ffffff" d="M10.84,3.72s0,0,0,0Z"/><path fill="#ffffff" d="M11.14,3.65s0,0,0,0Z"/><path fill="#ffffff" d="M12,3h0Z"/><path fill="#ffffff" d="M11.1,3.69s0,0,0,0S11.12,3.69,11.1,3.69Z"/><path fill="#ffffff" d="M11.76,3.23h0Z"/><path fill="#ffffff" d="M3.94,10.53s0,0,0-.07-.07.06,0,.1H3.93l0-.1C4,10.47,3.89,10.51,3.94,10.53Z"/><path fill="#ffffff" d="M7,7.77v0s0,0,0,.09-.09-.15-.18-.18l0,0A.26.26,0,0,0,7,7.77Z"/><path fill="#ffffff" d="M6.86,7.63h0v0s0,0,0,0A.11.11,0,0,1,6.86,7.63Z"/><path fill="#ffffff" d="M4.47,10.06v0S4.48,10.06,4.47,10.06Z"/><path fill="#ffffff" d="M10,5.67h0S10,5.68,10,5.67Z"/><path fill="#ffffff" d="M7.32,7.38a0,0,0,0,0,0,0h0Z"/><path fill="#ffffff" d="M5.39,7.63c.08.08,0,0,0,.07l-.06,0S5.37,7.64,5.39,7.63Z"/><polygon points="3.94 10.57 3.93 10.56 3.93 10.56 3.94 10.57"/><path fill="#ffffff" d="M4.59,8.21v0Z"/><path fill="#ffffff" d="M7,7.47l.1-.08v.05C7,7.4,7,7.52,7,7.47Z"/><path fill="#ffffff" d="M5.54,7.44c0,.08,0,.15,0,.15s-.06-.11-.06,0l.11.07a.12.12,0,0,1-.17.07l0,.06,0,0s0,.13-.13.09.14.09.11.13L5.29,8s0,0,0,.06-.08,0,0,.08c0-.08,0-.14-.1-.21C5.1,8,5,7.8,5,7.89L5,8s-.09,0-.15,0l0,0c0,.1-.16.06-.12.22H4.7a.08.08,0,0,1,0,.07s-.14,0-.15,0c0,.18-.17.07-.26.2.07.07,0,.07,0,.11H4.31l0,0s0,0,0,0h0l0,.06,0-.06v.08c.09.06.1,0,.17,0s0,.17-.12.1l-.07.12c0,.05,0,0,0,.06s0,0-.07,0h0c0,.07-.1,0-.15,0s.05,0,.08,0,0,0,0,0h.07s0,0,0,0L4.07,9c-.06,0,0-.1-.09-.12-.41.21-.31.72-.83.75,0,.09,0,.24-.09.23v0c-.08,0,0,.14-.1.09l-.1-.05s0,.08,0,.11-.08.11-.18,0c-.06.08-.07.14-.15.19h0c0,.06-.09,0-.06,0s.09,0,.08.05-.12.11-.1.17a.2.2,0,0,1-.1,0s0,.14.07.13c-.1,0,0,.13-.13,0s-.09.19-.25.14a.86.86,0,0,0-.19.52l0,0c.09.07,0,.22.13.25-.09,0-.11.07-.11.13l.06,0c0-.12,0,0,.08-.09s0,0,0,0a1.74,1.74,0,0,0,.15-.13l0,0c0-.09.18,0,.27,0s0,0-.12-.15.3.29.22.05h0c.07-.09-.07,0-.07-.14s.1.21.26.17a.24.24,0,0,1-.07-.18c.09.07.21,0,.32.09a.07.07,0,0,1,0-.11c-.07,0-.07,0-.1,0s-.1-.08-.1-.13c.14.11.23-.05.38.07,0,0,0-.1-.07-.15s.09,0,.12,0V11c0-.1.19-.05.27-.09l0,0c.07,0,.18,0,.22,0s-.09-.11-.11-.15-.21-.07-.2-.19.22.13.27,0a.08.08,0,0,1,0,.13c.08,0,.11-.15.2-.08s0,0,0,0,.2.12.19.06,0,0-.08-.07.05,0,.09,0-.08.06-.18-.08c.08-.13.2,0,.35,0s.07-.06.09-.12,0,0,0,0c0-.17.09,0,.08-.17a.17.17,0,0,0,.23-.09s0-.05-.07-.05.31,0,.35-.21h0c.06-.06.14-.09.19-.18s0,0-.06,0,.22-.08.29-.22.07-.09,0-.18c.09-.07.06.14.14.06v0c.16,0,.18-.2.33-.22a.21.21,0,0,1,0-.19.25.25,0,0,0,.16,0l.06-.1c0,.1.06,0,.09,0s-.05-.08-.13-.09.19.13.24,0l0-.09s0,0-.07,0,0-.13.11-.1,0,.13.08.11c-.1-.12.07,0,0-.18,0,0,.11.06.13,0l0,0c0-.06.09.08.14,0s-.1-.07-.1-.13.06,0,.08-.06.1.13.14.11-.11-.15-.17-.13,0-.14-.09-.16c.13,0,.21,0,.35,0,0,0,0-.06,0-.08s.2.15.2.09,0,.06.06.09H7c0-.07-.12-.07-.14-.13l0-.07c.07,0,.1.11.12.17,0-.1.1,0,.1-.05S7,8,6.89,8.05l0-.06c0-.06-.1,0-.15-.06s.11,0,.15-.07-.06.06-.16,0,.12-.06.07-.17,0,.12-.12,0-.1-.19,0-.19a.08.08,0,0,1,0,.12l0,0,0,.07s.09,0,.11-.07v0s.14,0,.13,0l-.08,0c-.05-.07,0-.12,0-.2s.1-.11.16,0l0,0c.11.11,0-.13.12,0s0,0,0,0a.16.16,0,0,1,.1.16l-.11-.07c0,.12-.09,0-.09.12s0,0,0,0a.12.12,0,0,1,.15-.06s.06.08,0,.11.13.1.21,0l-.1-.06c.06-.08.16,0,.23.08s0-.18,0-.17.1,0,.16,0a.21.21,0,0,0-.18-.06h0c0-.08.22,0,.06-.11-.05.1-.22,0-.34,0s-.06,0,0,.09a.55.55,0,0,1-.14-.21c.1,0,.13.1.21.07s.12,0,.18-.06l0,.07c.08,0,.18-.09.23,0s0-.07,0-.07l-.07,0c0-.06,0-.12,0-.16s.13,0,.18-.07.26.18.33.07-.12,0-.15-.13.17,0,.28,0,.05.07.09.11l0,0c-.07-.07,0,0-.09,0a.11.11,0,0,1,0-.1l-.05,0s.1,0,0-.09l.13.06c0-.1.08,0,.15,0V6.9l0-.06c.06,0,0,.1.1.07-.12-.07,0-.1-.08-.2s-.06.07-.1,0a.54.54,0,0,0,0-.17s0,0,.06,0l.16.29c.07,0-.11-.27-.07-.28s0,0-.07-.09c.1,0,.25,0,.31,0l-.06,0c.08,0,0-.07.1,0s0,0,0,.06a7.07,7.07,0,0,1,.65-.5c-.08-.1,0-.14.05-.19s.06.07,0,.06a.15.15,0,0,0,.15,0c-.05-.09,0-.1.06-.1s-.07-.1-.1,0-.18-.08-.1-.15a.45.45,0,0,0,.41,0c0-.06.1,0,.09-.11l0,0s0,0,.09,0-.06-.11-.1-.14c.12,0,.25.05.34,0s-.08-.12,0-.15.37-.12.48-.32V4.65l.12.08a1.8,1.8,0,0,1,.35-.5s0,0-.07,0,.24.07.26,0l-.08-.1c.08,0,.21.07.3,0s-.07,0-.07-.09l0,0c-.06,0,0-.08,0-.09s0,0,0,0,0-.08,0-.13a.06.06,0,0,1,.07.05c0-.06,0,0-.06-.09s0,0,.1,0A.21.21,0,0,1,12,4c0-.09,0-.14,0-.22l.06,0v0l0,0h0c.24.05.35-.18.55-.21l.09-.13c-.12,0-.18.08-.25,0h0s0,.05-.09,0V3.42c0-.09.15.14.11,0-.09,0,0-.09-.11-.11s.06,0,.13,0a.08.08,0,0,0,0,.05s.08-.07.16,0,0,0,0,0a.11.11,0,0,0,0-.09h0s.12.08.14,0,0,0-.08-.06.07-.17.11-.28a.31.31,0,0,0,0,.16h0s0,0,.06,0l0,0s0,0,.07,0,.06,0,0,0l-.06,0S13,3,13,3A.2.2,0,0,1,13,2.83L13,3c0-.11,0-.09.05-.12-.07-.18.22-.06.13-.2l-.06.06c-.05-.11-.2-.14-.22-.21h.14c0,.14.17.07.24.19s0-.13.09-.09-.09-.06-.07-.1.08.06.1,0a.12.12,0,0,1-.06-.06c0-.05.07,0,.12,0h0c.07,0,0-.07,0-.1h.16s-.13,0-.13-.1-.07.21-.21,0,.12,0,.09-.1c.07.08.12,0,.17,0v0c.06,0,.12.15.17.08s-.08-.08,0-.11a.2.2,0,0,1,.08,0v0c0,.07.07,0,.09,0s-.08-.06-.07-.1-.15-.11-.19-.07.13,0,.13.1-.1,0-.17,0l0,0c-.1-.14-.15,0-.27-.15s0,0,0,0,0,0-.07,0l.07,0c0,.15-.09,0-.13.09s.17,0,.15.08-.06,0-.1,0l0,.13-.19,0c.05,0,.07,0,.12,0s0,.19-.09.13V2.42a.08.08,0,0,1-.1,0A.13.13,0,0,1,13,2.31s0,.1-.07,0,0,0-.07,0,0,0,.05.11-.08.1-.15,0,.07,0,0-.08,0,0-.06,0,0,.13.08.16-.08,0-.13,0l.05.06-.07,0c0,.08.13.13.11.21s-.19-.19-.28-.17l.08.07a.07.07,0,0,1-.13,0,.34.34,0,0,1,0-.14v0c-.07,0,0-.16-.1-.1.1.1,0,.25.06.36a.47.47,0,0,1-.17,0s0-.09-.07-.13c0,.17-.18,0-.18.2,0,0,0,0,0,0l0,0s-.05,0-.05,0l-.05.06s0,0,0,0v0h0c-.07-.06,0,.08,0,.12h0c0,.07-.15-.05-.12.07v0s0,0,0,0v0s0,0,0,0-.06,0-.11,0v0l0,0s-.16,0-.17.1-.14-.1-.22-.07l.07.08-.06.08s0,.08,0,.13h0c0,.12-.05.08-.09.07s-.08,0-.07,0-.09,0-.13,0h0v0c0,.06-.09,0-.08.06s.12.11.08.2l-.07,0,0,0s0,.1-.08,0,0-.14,0-.21-.15,0-.21,0,0,0,0,0,0,.09,0,.11-.08,0-.12,0l-.1-.11c-.08,0-.09.1-.1.16s.14,0,.17,0c.15.22.18,0,.25,0s.1,0,.06.12-.06,0-.09,0,.1.07,0,.12-.12-.08,0-.1c-.15,0-.14,0-.26.07.08-.05-.11-.08-.1-.16.07.1.17,0,.11.09l.08,0s-.11,0-.1-.11-.08.05-.19,0c.06,0,0,.1,0,.17s-.1,0-.09,0h.07s0,.11,0,.15-.07,0-.09-.08-.13,0-.16.13.08.08.14,0l0,.07a1,1,0,0,1-.48-.17c-.15,0,.05.22-.19.15,0,0,.06.1.09.12s0,.06-.08,0V4.54c-.1,0-.14.1-.2.14s0,.07.09.07,0,.07,0,.09-.12-.12-.2-.12c-.52.46-1.13.8-1.63,1.29l0,0A4.27,4.27,0,0,0,6.33,7v0c0,.26-.23-.15-.19.15-.21-.11-.2.15-.39.11l0,.06C5.59,7.16,5.7,7.48,5.54,7.44ZM12,3V3C12,3.05,12,3.05,12,3Zm-.57.48s0-.09,0-.11l0,.07c0-.07.08-.06.12-.13s.07.06,0,.07S11.5,3.6,11.4,3.52Zm1.52-.47Zm-.31.2a.11.11,0,0,0,0,0S12.59,3.22,12.61,3.25Zm-.53.57s.07,0,.05-.07A.23.23,0,0,0,12.08,3.82ZM8.59,6.53h0c.06,0,0,0,.08,0s-.06-.07-.09-.07Zm-1.84,1s0,0,0,0,0,0,0,0h0s-.06-.06-.09-.1S6.65,7.44,6.75,7.57Z"/><path fill="#ffffff" d="M7.63,7.49h0Z"/><path fill="#ffffff" d="M6.75,7.57a.23.23,0,0,1,0-.07A.06.06,0,0,1,6.75,7.57Z"/><path fill="#ffffff" d="M13.52,1.93h0V1.86c.09,0,.13,0,.2.11-.1,0-.11,0-.18.06Z"/><path fill="#ffffff" d="M13.82,2.37l0,.09,0,0Z"/><path fill="#ffffff" d="M13.32,3.06l0-.07C13.39,3,13.37,3.11,13.32,3.06Z"/><path fill="#ffffff" d="M13,2.21l.06,0s0,.08-.08,0S13,2.23,13,2.21Z"/><path fill="#ffffff" d="M13.19,3.18c-.08-.07,0,.07-.1,0S13.12,3.1,13.19,3.18Z"/><path fill="#ffffff" d="M12.66,2.42c0-.08,0,0,.06-.08S12.71,2.46,12.66,2.42Z"/><path fill="#ffffff" d="M12.74,3.18s.06,0,.08,0-.05,0-.07,0h.13c0,.07,0,.13,0,.19S12.75,3.25,12.74,3.18Z"/><path fill="#ffffff" d="M12.57,2.47s0-.1,0-.12.05.1,0,.12l.06.06C12.67,2.6,12.62,2.43,12.57,2.47Z"/><path fill="#ffffff" d="M12.7,3.44v0c.07,0,.1,0,.19,0A.25.25,0,0,1,12.7,3.44Z"/><path fill="#ffffff" d="M12.53,2.7l-.07-.09s0,0,0,0,0,0,0,0S12.59,2.7,12.53,2.7Z"/><path fill="#ffffff" d="M12.33,2.7h-.08l0-.13C12.3,2.56,12.26,2.62,12.33,2.7Z"/><path fill="#ffffff" d="M12.31,2.8v0l-.17-.07A.49.49,0,0,1,12.31,2.8Z"/><path fill="#ffffff" d="M11.87,4.07s0-.11,0-.05S11.87,4.14,11.87,4.07Z"/><path fill="#ffffff" d="M11.49,3.22s-.11,0-.16,0S11.46,3.17,11.49,3.22Z"/><path fill="#ffffff" d="M11.31,3.26h0Z"/><path fill="#ffffff" d="M9.9,4.05h0Z"/><path fill="#ffffff" d="M9.94,4.05s.07,0,.11,0H9.9S9.91,4,9.94,4.05Z"/><path fill="#ffffff" d="M9.67,4.29s0,0,.07,0S9.68,4.33,9.67,4.29Z"/><path fill="#ffffff" d="M8.57,6.92s0,0-.07,0S8.54,6.92,8.57,6.92Z"/><polygon points="8.45 6.92 8.47 6.95 8.49 7 8.45 6.92"/><path fill="#ffffff" d="M8.32,7.15h0Z"/><path fill="#ffffff" d="M8.36,7.16h0Z"/><path fill="#ffffff" d="M8.36,7.14l0,0h0S8.37,7.15,8.36,7.14Z"/><path fill="#ffffff" d="M8.27,7.2l0-.11c.07,0,0,.08.09.14Z"/><path fill="#ffffff" d="M8.13,7.28S8,7.24,8,7.36c-.14,0-.11-.19-.25-.14.07-.13.2.15.25,0C8,7.34,8.09,7.27,8.13,7.28Z"/><path fill="#ffffff" d="M8,7.1c.05,0,0,.08,0,.06S8,7.06,8,7.1Z"/><polygon points="7.9 7.38 7.9 7.45 7.87 7.42 7.9 7.38"/><path fill="#ffffff" d="M7.8,7.49l.07,0S7.81,7.55,7.8,7.49Z"/><path fill="#ffffff" d="M7.69,7.69s-.14-.07-.06-.09v0S7.65,7.71,7.69,7.69Z"/><path fill="#ffffff" d="M7.16,7.77a0,0,0,0,1,.07,0H7.16Z"/><path fill="#ffffff" d="M6.91,7.44c0-.1.06,0,.07-.09S7,7.4,6.91,7.44Z"/><path fill="#ffffff" d="M7.19,7.93a0,0,0,0,0,0,0S7.23,8,7.19,7.93Z"/><path fill="#ffffff" d="M7.08,8s0,0,0,.07,0,.09-.11.06a.66.66,0,0,0-.12-.17c.08,0,.23.11.16,0L7.22,8C7.19,8.06,7.11,7.93,7.08,8Z"/><path fill="#ffffff" d="M7,7.6v.08s-.06,0-.09,0S7,7.61,7,7.6Z"/><polygon points="6.71 8.16 6.62 8.19 6.64 8.16 6.71 8.16"/><polygon points="6.69 8.22 6.71 8.26 6.62 8.24 6.69 8.22"/><polygon points="6.65 8.31 6.66 8.3 6.71 8.3 6.65 8.31"/><path fill="#ffffff" d="M6.53,8.44l0,0s0-.08.06,0S6.51,8.4,6.53,8.44Z"/><path fill="#ffffff" d="M5.2,7.68a.11.11,0,0,1,.06.09l-.08-.06S5.21,7.7,5.2,7.68Z"/><path fill="#ffffff" d="M5.21,7.87l-.11,0c.05-.06.11,0,.17,0s-.08,0-.09,0Z"/><path fill="#ffffff" d="M4.27,8.7c.05.05,0,.06.1.06-.08,0-.11.05-.18.09s-.11-.07-.07-.07l.09,0,0,0C4.18,8.65,4.25,8.77,4.27,8.7Z"/><path fill="#ffffff" d="M2.13,11.3a.14.14,0,0,1,.05.08C2.12,11.38,2.14,11.29,2.13,11.3Z"/></svg>