<svg id="Calque_1" data-name="Calque 1" xmlns="http://www.w3.org/2000/svg" viewBox="0 0 36.42 19.2"><path d="M25.6,17c-.1.12.14,0,0,.11C25.54,17.06,25.53,17,25.6,17Z"/><path d="M2.09,11.23c.31-.53,1.05-.39,1.48-.78.06,0,.05.2.17.11a2.49,2.49,0,0,1,1.91-.46l0,.07c.12,0,.21-.21.35-.22s0,.06,0,.11c0-.12.21-.11.24-.21s.08.12.16.16l0-.15c.12-.36.48-.1.71-.33,0,0,0,.07,0,.09a5.88,5.88,0,0,1,1.42-.54.26.26,0,0,0,0,.19c0-.15.14-.21.26-.27.09.13.2-.18.37-.12v0c.08-.17.18.06.24-.14l.09.11c0-.22.19.07.26-.05v0c.08-.06.15,0,.22,0l0,0c.18-.09.31,0,.28-.15.09.11-.18.09,0,.25a6,6,0,0,1,1.92-.4c.08.05.13.07.15.12s.24,0,.29-.14,0,.07.08.08.11-.19.25-.14a.15.15,0,0,0,0,.16c.1-.13.25-.13.37-.19s0,0,0,.1c.13-.16.26,0,.38-.09l0,.09c.21.1,0-.19.22-.14,0,0,0,.07,0,.11.15-.18.42-.15.58-.21,0,0,0,0,0,0a2.71,2.71,0,0,0,.55-.08c.08,0,0,.22.18.18,0-.19.31-.1.19-.3.16,0,.42.07.52,0-.07.08.09.22,0,.25l.1.1c0,.08-.1,0-.07.08s.26-.09.32-.06c.12-.12.23-.33.43-.35-.1.07.05.2,0,.23L16.8,8c.07,0,0,.15.11.1S17,8,17,8s.28,0,.31.13-.11,0,0,.11.13-.07.25-.07v0c.08,0,.24-.08.15-.18s0,.11-.07.06a.37.37,0,0,1,.33-.14s0,.08-.06.13a1.33,1.33,0,0,1,.54-.25c0-.09-.08.15-.1.11.23.11.49-.15.69,0,0,0,0-.12,0-.1s.11.14.18.1.1,0,.18,0,0,0,0,0a1.12,1.12,0,0,1,.78,0s.17-.17.22-.16l0,.11c.05.07.2,0,.2.1.13-.13-.48.09-.31,0,0,.1.24-.17.2,0,.11,0,.23-.12.34,0s-.11.15,0,.15.05-.05.19-.09l.08,0c0-.11.15,0,.1-.1,0,.09.24,0,.21.14l0,.14c.07,0,.13-.14.19-.19a.12.12,0,0,1,0,.07c0-.22.16,0,.26-.13.14.1.38,0,.43.2.12-.05.23-.12.36-.06,0,0-.07,0-.08.07s.1,0,.18,0,.14.15.22.24.1-.18.12-.25c.07.23.33-.1.44.11-.05,0-.18.09-.1.15.08.23.23-.13.38,0V8.12c.06.12.26-.08.21.1.07-.05.19.09.2-.09.24.19.67,0,.78.38,0,0,.13,0,.13-.07s-.1.06-.11,0,.05,0,.05-.06.14.08,0,.21c.16.14.24-.26.47-.15,0,.07,0,.1.06.1l.15-.09c.15.06.06.18,0,.3s.18,0,.24-.06l.06.17c0-.13.09-.06.13-.08l0,0c0,.05.1,0,.15,0s-.08-.12-.13-.16.11,0,.18-.07c0,.12.12.11.18.14s.11-.09.13-.08.12,0,0,.11,0-.08-.1,0,0,.16.13.1,0-.24.16-.13c0,0-.06.07-.1.1l.12.09,0-.11s0,0,0,.06.22,0,.28-.11.13.11.19.14h0a.2.2,0,0,0,.26,0v0a.23.23,0,0,0,.21,0c.09.11-.07.42.09.32S28,9.06,28,9c.18.12.45,0,.59.23,0,0,0-.07.09-.08.28.12.66,0,.83.32-.1,0,0,.1-.06.17s.06.12.13,0,0-.14,0-.2c.19,0,.45.06.52.19,0-.06,0-.08.06-.09-.06.15.05.21.17.2l0-.09,0,.11c.05,0,.1-.17.17,0a.21.21,0,0,0,0,.11c.13,0,.31-.12.39,0l0,.16c.05,0,.15-.05.09-.12l.19.18c.06,0,.13.11.14.18a4.6,4.6,0,0,1,2.09.46l-.13,0c.06.09.28,0,.32,0-.16,0-.12.12-.37.12.08.11.48,0,.7.09s-.23,0,0-.06c.09,0,.19.15.51.11a1.52,1.52,0,0,1-.45.07c.11,0,0,0,.08.06a.46.46,0,0,1-.39,0,1.47,1.47,0,0,0-.6.07s.13,0,.1,0a.57.57,0,0,1-.31,0c-.11,0-.14,0-.12.05a1.06,1.06,0,0,0,.59-.05c-.12.15.55,0,.27.21s.17-.16-.09-.1-.11.17-.28.27c.2-.1.34,0,.3,0-.24.11-.13-.07-.33.08.1,0,0,.19.25.06.2.08-.28.17-.19.29-.23,0-.22-.22-.51-.07.21,0,0,.25.32.21-.14.07-.26,0-.3,0-.19.06,0,.33-.33.25l.09.09a1.45,1.45,0,0,1-.29.06c-.09.07-.18.38-.32.24,0,0-.25.23-.07.26s.1-.21.33-.16c-.23,0-.22.2-.27.31L32,13.16c0,.05-.09.09-.06.17a.09.09,0,0,0-.08-.08l0,.12c-.08.14-.16-.14-.25,0l0-.15s-.12,0-.15.06l.12.31c0,.09-.1-.07-.1.07v-.17s-.17-.08-.25,0,0,.27.11.24a.1.1,0,0,1-.17-.05c-.07.11.09.08.05.2a3.66,3.66,0,0,0-.39,0l0-.22-.06.05c0-.17-.11-.05-.16-.2-.06,0-.07.1-.08.16.27.08.08.36.25.5-.12.19-.44-.32-.39.09.06,0,.09.21.15.08-.11.06.08.22-.1.26,0-.15-.24-.1-.2-.3,0,.06.11,0,.12-.05s-.14-.18-.24-.09-.13.14-.05.22.09-.09.13,0-.24,0-.15.23c.07-.08.18,0,.23.07l-.06.11,0-.08c-.19.08.05.16-.11.26l-.17-.07c-.06-.14.25-.13.07-.28-.1.07,0,.19-.18.21a.79.79,0,0,0,0-.09s-.27-.18-.29.07,0,.08.09.14c-.13.15-.12.26-.21.35-.09-.15-.18.13-.18-.09.11,0,.32-.16.27-.33s.13-.07,0-.26c-.12.1-.24-.06-.34-.14s0,.09,0,.12.11.07.19.16a.46.46,0,0,0-.23.41C29,15.15,29,15,29,15a1.69,1.69,0,0,1-.49.39c.23.07-.14.18,0,.25s.27,0,.28.12-.05-.07-.1-.08c0,.14-.21-.05-.17.14.11-.18-.12-.21-.2-.36-.05.16-.07-.08-.17,0a1.32,1.32,0,0,1-.23.44c-.24,0-.37.31-.49.43s-.19-.18-.28-.14.18.09,0,.14v0c0,.07-.31.11-.18.34l-.09-.18s0,0,0,.09-.11-.07-.1-.13c-.16,0-.15.15-.23.23l.13,0c-.09.19-.27.19-.38.34l-.07-.09,0,.13c-.05-.1-.17-.09-.16,0l0-.4c.11,0,0,.16.13.21s.21-.09.16-.19,0,.06-.06.12c-.11-.1,0-.16-.06-.27s-.09,0-.06.06,0-.15.13-.23c0,.09.09.05.1.1-.08-.11,0-.21.1-.28s.14-.24.29-.31a.65.65,0,0,1,0,.39c.12,0,.08-.08.21-.09,0-.11-.11-.25-.05-.39l.07.07c.06-.11,0-.23.1-.3a7.38,7.38,0,0,0,.6-.43l.07.07c0-.24.24-.3.29-.47.26-.09.36-.43.57-.39a5.12,5.12,0,0,1,.93-.93l0,.16c0-.14.1,0,.15,0-.15,0,0-.19,0-.3.24,0,.36-.31.43-.51l.07.07c0-.26.3-.28.5-.41s.14.06.19,0,.08-.27.09-.41a.59.59,0,0,1,.28-.1.27.27,0,0,1,.09-.27c0-.07.23-.16-.07-.15l.19-.05c-.32,0-.39,0-.47-.05a.33.33,0,0,0-.26-.06,1.51,1.51,0,0,0,.09-.18.18.18,0,0,0-.31.1c-.1-.11-.34,0-.37-.21s-.19,0-.3,0a1,1,0,0,0-.6-.22l.06,0s.07-.11,0-.14-.33-.15-.31.11c-.23-.21-.65-.06-.86-.32,0,.07-.07.07-.11.1-.23-.06-.44-.26-.66-.2,0,0,.09-.09,0-.13s0,.09-.1.1c-.41,0-.74-.34-1.1-.36a11.59,11.59,0,0,1-1.9-.29l0,0c-.23.15-.44-.29-.65,0,0-.05-.18,0-.13-.13-.18.11-.43-.18-.69,0,0,0,0,0,.06,0-.22-.14-.45,0-.68-.14,0,0,.07,0,.08-.08s-.25.18-.27-.06c-.06,0-.06.11,0,.11a4.9,4.9,0,0,0-1.71,0c-.4-.16,0-.4-.34-.24,0-.05,0,.09,0,0s-.18-.27-.28-.16-.06.08-.07.17c-.24-.11-.29-.24-.49-.14l0-.08c-.25.21-.51.08-.71.31-1.28.07-2.5.17-3.74.31s-2.41.29-3.66.32a.56.56,0,0,0-.65,0s0,0,0-.07c0,.16-.22.05-.22.21a10.55,10.55,0,0,0-1.34.26c.07,0,.08-.17,0-.14l-.07.12,0,0s-.1.13,0,.16c-1.13.38-2.35.33-3.46.7a3,3,0,0,0-.93.3,5.17,5.17,0,0,0-2.5.65A.71.71,0,0,1,2.09,11.23Z"/><path d="M25.73,16.88c.07,0,.18,0,.19.15C25.86,17,25.77,16.94,25.73,16.88Z"/><path d="M28.44,15.69s0,0,.06,0,0,.1-.05.08S28.45,15.73,28.44,15.69Z"/><path d="M29,15.26c0,.06,0,.21-.11.27Z"/><path d="M29.73,15.05c.09,0,.09,0,0,.1S29.74,15.09,29.73,15.05Z"/><path d="M29.66,14.9a.12.12,0,0,1,.14,0C29.76,14.84,29.72,15,29.66,14.9Z"/><path d="M30.92,14.11S31,14,31,14,31,14.21,30.92,14.11Z"/><path d="M31.37,13.59s0,0,0,0,.05.07,0,.09Z"/><polygon points="23.48 8.15 23.56 8.13 23.54 8.2 23.48 8.15"/><path d="M18,7.74c-.07,0,0-.06-.06-.07S17.9,7.76,18,7.74Z"/><polygon points="15.05 8.18 15.07 8.18 15.07 8.33 15.05 8.18"/><path d="M22.39,1.78c-.07.05,0,0,0,0Z"/><path d="M22.41,1.81v0A0,0,0,0,0,22.41,1.81Z"/><path d="M22.56,2c-.09,0-.08-.09-.17,0S22.47,2.1,22.56,2Z"/><polygon points="22.54 1.91 22.49 1.95 22.59 1.9 22.54 1.91"/><polygon points="22.54 1.84 22.53 1.86 22.63 1.86 22.54 1.84"/><path d="M22.68,2.16l-.05,0c0-.1.09-.07.09-.13s-.12.12-.17,0c0,.07.11.09,0,.17S22.62,2.17,22.68,2.16Z"/><path d="M25.71,3.7v0S25.72,3.69,25.71,3.7Z"/><path d="M26.49,4.2a.06.06,0,0,0,0,0s0,0,0,0Z"/><path d="M25.12,3.53a.07.07,0,0,0,0,0A.09.09,0,0,0,25.12,3.53Z"/><path d="M29.47,7.44l0,0h0l0,0Z"/><path d="M27.41,4.68l0,0Z"/><path d="M24.86,3.33h0s0,0,0,0h0Z"/><path d="M26.35,3.89v0S26.35,3.9,26.35,3.89Z"/><path d="M23.27,2.78s0,0,0,0S23.3,2.77,23.27,2.78Z"/><path d="M23.54,3h0S23.53,3,23.54,3Z"/><path d="M23.69,3.11Z"/><path d="M23.31,2.8c0,.05-.09.18,0,.07v0s.06,0,.08,0l0,0a.11.11,0,0,1,0-.05S23.35,2.79,23.31,2.8Z"/><path d="M25.69,3.72s0,0,0,0Z"/><path d="M25.39,3.65l0,0Z"/><path d="M24.58,3h0S24.58,3,24.58,3Z"/><path d="M25.43,3.69l0,0A0,0,0,0,0,25.43,3.69Z"/><path d="M24.77,3.23h0Z"/><path d="M32.6,10.53s0,0,0-.07.07.06,0,.1h.06l0-.1C32.58,10.47,32.64,10.51,32.6,10.53Z"/><path d="M29.55,7.77v0s0,0,0,.09.1-.15.18-.18,0,0,0,0A.3.3,0,0,1,29.55,7.77Z"/><path d="M29.68,7.63h0v0s0,0,0,0A0,0,0,0,0,29.68,7.63Z"/><path d="M32.06,10.06v0S32.05,10.06,32.06,10.06Z"/><path d="M26.55,5.67h0S26.54,5.68,26.55,5.67Z"/><path d="M29.21,7.38s0,0,0,0h0Z"/><path d="M31.14,7.63c-.08.08,0,0,0,.07l.06,0S31.17,7.64,31.14,7.63Z"/><polygon points="32.6 10.57 32.6 10.56 32.6 10.56 32.6 10.57"/><path d="M31.94,8.21v0A0,0,0,0,0,31.94,8.21Z"/><path d="M29.55,7.47l-.1-.08,0,.05C29.52,7.4,29.49,7.52,29.55,7.47Z"/><path d="M30.76,7.24l0-.06c-.19,0-.17-.22-.38-.11,0-.3-.22.11-.19-.15l0,0a4,4,0,0,0-1.07-.9l0,0c-.5-.49-1.11-.83-1.63-1.29-.08,0-.12.11-.19.12s-.07,0,0-.09.07-.06.1-.07-.1-.16-.21-.14v.09s-.06,0-.08,0,.06-.11.09-.12c-.24.07,0-.13-.18-.15a1.07,1.07,0,0,1-.49.17V4.41s.07-.1.14,0-.13-.07-.17-.13-.05.08-.09.08,0-.11,0-.15h.07c0-.07-.06,0-.09,0s0-.12,0-.17c-.11,0-.09,0-.19,0s-.07.06-.1.11l.09,0c-.07-.11,0,0,.1-.09,0,.08-.18.11-.1.16-.12,0-.11-.08-.26-.07.07,0,0,0,0,.1s0,0,0-.12,0-.09-.1,0,.06-.06.06-.12.11.21.25,0c0,0,.13,0,.18,0s0-.17-.11-.16l-.09.11s-.11.05-.13,0,.05-.09,0-.11,0,0,0,0-.14,0-.22,0a.66.66,0,0,1,0,.21c-.08.07-.05,0-.09,0s0,0,0,0l-.06,0c0-.09.1-.12.07-.2s-.08,0-.08-.06v0h0c-.05,0-.08,0-.14,0s0,0-.06,0-.15,0-.1-.07h0s-.05-.11,0-.13l-.05-.08.07-.08c-.09,0-.12,0-.22.07s-.13-.11-.18-.1,0,0,0,0v0c-.05,0-.08,0-.11,0s0,0,0,0l0,0s0,0,0,0v0c0-.12-.1,0-.12-.07h0s.05-.18,0-.12h0v0s0,0,0,0-.07,0,0,0l-.06-.06s0,0-.05,0l0,0s0,0,0,0c0-.17-.17,0-.18-.2-.06,0,0,.1-.06.13a.58.58,0,0,1-.18,0c0-.11,0-.26.06-.36-.06-.06,0,.08-.09.1v0a.17.17,0,0,1,0,.14.07.07,0,0,1-.13,0l.08-.07c-.08,0-.17.12-.28.17s.07-.13.12-.21l-.08,0,.05-.06c-.05,0-.1,0-.13,0s0-.12.08-.16-.11.08-.06,0,0,0,0,.08-.1,0-.15,0,.07,0,.05-.11-.08,0-.07,0-.05,0-.07,0a.12.12,0,0,1,0,.14.1.1,0,0,1-.11,0v.06c-.11.06,0-.12-.09-.13a.65.65,0,0,0,.13,0l-.2,0,0-.13s0,0-.09,0,.1,0,.14-.08-.14.06-.13-.09l.07,0s-.09,0-.07,0,0,0,0,0-.17,0-.27.15l0,0c-.07,0-.17.05-.17,0s.09-.08.13-.1-.15.12-.19.07,0,.08-.07.1.06.11.1,0v0s.05,0,.07,0,0,.07,0,.11.11-.13.17-.08v0c.06,0,.11,0,.18,0,0,.11.09,0,.08.1s-.09-.1-.21,0-.08.07-.13.1H23s-.06.15,0,.1h0c.06,0,.1-.08.12,0a.16.16,0,0,1-.05.06s.06,0,.09,0-.07.06-.06.1,0,.07.08.09.24-.05.24-.19h.14c0,.07-.17.1-.22.21l-.06-.06c-.09.14.2,0,.13.2,0,0,0,0,.05.12l.08-.12a.26.26,0,0,1,0,.14l.05,0-.05,0c0,.08,0,.06,0,0a.07.07,0,0,1,.08,0l-.06,0a.1.1,0,0,0,.07,0h0a.31.31,0,0,0,0-.16c0,.11.12.13.11.28s-.08,0-.08.06.1,0,.14,0h0a.11.11,0,0,0,0,.09s0,0,0,0,.11,0,.16,0a.08.08,0,0,0,0-.05c.08,0,.15-.09.14,0s0,.14-.12.11c0,.16.09-.07.11,0v.07c-.05.07-.08,0-.09,0h0c-.06,0-.13-.07-.25,0l.09.13c.21,0,.31.26.55.21h0l0,0v0l.06,0c0,.08,0,.13,0,.22a.15.15,0,0,1,0-.12c.06-.06.08-.09.11,0s-.07,0-.07.09,0-.06.07-.05,0,.08,0,.13,0,0,0,0,0,.08-.06.09l.06,0c0,.06-.07,0-.08.09s.22-.07.31,0-.11.13-.09.1.2,0,.26,0,0,0-.07,0a1.61,1.61,0,0,1,.35.5l.13-.08,0,.11c.11.2.3.23.48.32s0,.1,0,.15.22,0,.34,0c0,0-.14.1-.1.14s.08-.07.09,0l0,0c0,.07.05,0,.09.11a.47.47,0,0,0,.42,0c.07.07-.11.11-.11.15s0,0-.1,0,.11,0,.07.1.06,0,.14,0,0,0,0-.06.13.09,0,.19a7.07,7.07,0,0,1,.65.5c.08,0,0,0,0-.06s0,.06.1,0l-.06,0c.05.06.2,0,.3,0-.06,0,0,.09-.07.09s-.14.31-.07.28l.16-.29s.06,0,.07,0,0,.15,0,.17-.08,0-.1,0,0,.13-.09.2c.07,0,0-.06.1-.07l0,.06V6.83c.07,0,.15-.07.15,0l.14-.06c-.06.09,0,0,0,.09l-.06,0s0,.05,0,.1,0,0-.08,0l0,0S28.21,7,28.2,7s.19-.12.28,0-.11,0-.15.13.29-.12.34-.07.1,0,.18.07c-.07,0,0,.1,0,.16l-.07,0s0,0,0,.07.15,0,.23,0l0-.07c.06,0,.15,0,.18.06s.11,0,.21-.07a.46.46,0,0,1-.14.21s0,0-.05-.09-.29.08-.34,0c-.16.13.07,0,.06.11h0a.21.21,0,0,0-.18.06c.06,0,.16-.13.16,0s0,.14,0,.17.17-.16.23-.08l-.1.06c.08.07.14-.1.21,0s.09-.07,0-.11a.11.11,0,0,1,.15.06s0,0,.05,0-.12,0-.09-.12l-.1.07a.15.15,0,0,1,.09-.16s0,0,0,0,0,.09.12,0l0,0c.06-.1.13,0,.17,0s0,.13,0,.2l-.09,0c0,.08.1,0,.14,0v0a0,0,0,0,0,0,0s0,0,0,0,.1,0,.11.07l.05-.07,0,0a.07.07,0,0,1,0-.12c.09,0,0,.13,0,.19s-.06,0-.12,0,.06.06.08.17-.08-.06-.16,0,.1,0,.14.07-.1,0-.14.06v.06c-.09-.06-.08.13-.17.11s.11-.05.1.05c0-.06.05-.16.12-.17l0,.07c0,.06-.13.06-.13.13h.07s0-.06.06-.09.14-.08.21-.09,0,0,0,.08c.14,0,.22,0,.35,0-.09,0-.08.1-.08.16s-.14.07-.18.13.13-.06.14-.11.09,0,.08.06-.08.08-.1.13.1-.1.14,0l0,0c0,.05.09,0,.13,0-.06.15.11.06,0,.18.1,0,0-.08.09-.11s.09.06.1.1-.07,0-.07,0l-.05.09c.05.14.21-.13.25,0s-.07,0-.14.09.09.07.09,0a.37.37,0,0,1,.06.1.28.28,0,0,0,.17,0,.31.31,0,0,1,0,.19c.14,0,.16.19.32.22v0c.08.08.05-.13.14-.06-.09.09,0,.11,0,.18s.25.07.29.22,0,0-.06,0,.13.12.19.18h0c0,.17.22.15.35.21,0,0-.05,0-.07.05a.17.17,0,0,0,.23.09c0,.15.07,0,.09.17a0,0,0,0,1,0,0c0,.06,0,.08.08.12s.27-.1.36,0c-.11.14-.1,0-.19.08s.09,0,.09,0,0,0-.08.07.2-.07.19-.06,0,0,0,0,.12.07.2.08a.08.08,0,0,1,0-.13c0,.08.18,0,.27,0s-.14.08-.2.19-.05.14-.11.15.15,0,.22,0l0,0c.08,0,.25,0,.27.09V10.9a.13.13,0,0,0,.12,0s0,.13-.07.15c.14-.12.23,0,.38-.07,0,0-.07.1-.1.13s0-.09-.1,0a.07.07,0,0,1,0,.11c.11-.06.23,0,.32-.09a.23.23,0,0,1-.06.18c.15,0,.12-.28.25-.17s-.14.05-.07.14h0c-.09.24.15-.11.21-.05s-.11,0-.12.15.24-.11.27,0l0,0s.11.11.16.13l0,0c0,.09.07,0,.07.09l.06,0c0-.06,0-.16-.11-.13.09,0,0-.18.13-.25l0,0a.8.8,0,0,0-.19-.52c-.16.05-.1-.15-.25-.14s0,0-.13,0c.06,0,.08-.09.07-.13a.18.18,0,0,1-.09,0c0-.06,0-.23-.1-.17s0,0,.07-.05-.08,0-.06,0h0a.74.74,0,0,1-.15-.19c-.1.12-.11,0-.17,0s0-.08,0-.11l-.11.05c-.1,0,0-.09-.1-.09v0c-.07,0-.11-.14-.09-.23-.52,0-.42-.54-.83-.75,0,0,0,.08-.09.12l-.08-.05c0,.05,0,0,0,0h.08s0,0,0,0,.06,0,.08,0-.14.09-.15,0h0s-.07,0-.08,0,0,0,0-.06l-.07-.12c-.13.07-.11-.08-.12-.1s.09,0,.17,0V8.58l0,.06,0-.06h0s-.05,0,0,0,0,0,0,0h-.07c.08,0,0,0,.05-.11-.09-.13-.23,0-.26-.2,0,0-.12.09-.14,0s0,0,0-.07h-.07c0-.16-.07-.12-.12-.22l0,0a.13.13,0,0,1-.15,0l.06-.06c0-.09-.15.11-.17,0-.06.07-.05.13-.1.21.05-.09,0-.15,0-.08s0,0,0-.06l-.07,0s.06-.1.1-.13-.09,0-.13-.09l0,0,0-.06A.11.11,0,0,1,31,7.63l.1-.07c0-.08,0,0-.06,0s-.05-.07,0-.15C30.83,7.48,30.94,7.16,30.76,7.24ZM24.56,3V3S24.51,3.05,24.56,3Zm.45.4c-.08,0,0,0,0-.07s.09.06.11.13l0-.07a.11.11,0,0,1,0,.11C25,3.6,25,3.34,25,3.42Zm-1.42-.36h0Zm.35.14a.06.06,0,0,0,0,0S24,3.2,23.94,3.2Zm.46.55s0,.06.05.07S24.44,3.78,24.4,3.75ZM28,6.44s-.09,0-.09.07,0,0,.08,0h0A.51.51,0,0,0,28,6.44Zm1.91,1a.93.93,0,0,0-.1.1h0s0,0,0,0,0,0,0,0S29.93,7.45,29.87,7.4Z"/><path d="M28.91,7.49h0Z"/><path d="M29.78,7.57s0,0,0-.07A.06.06,0,0,0,29.78,7.57Z"/><path d="M23,1.93h0V1.86a.27.27,0,0,0-.19.11c.09,0,.1,0,.18.06Z"/><path d="M22.71,2.37s0,.08,0,.09l0,0Z"/><path d="M23.21,3.06l0-.07C23.14,3,23.16,3.11,23.21,3.06Z"/><path d="M23.5,2.21l-.06,0s0,.08.08,0S23.53,2.23,23.5,2.21Z"/><path d="M23.35,3.18c.07-.07,0,.07.09,0S23.41,3.1,23.35,3.18Z"/><path d="M23.87,2.42c0-.08,0,0-.05-.08S23.82,2.46,23.87,2.42Z"/><path d="M23.79,3.18s-.06,0-.08,0,.05,0,.07,0h-.12c0,.07,0,.13,0,.19S23.78,3.25,23.79,3.18Z"/><path d="M24,2.47s0-.1,0-.12-.05.1,0,.12l-.06.06C23.86,2.6,23.91,2.43,24,2.47Z"/><path d="M23.83,3.44v0c-.08,0-.11,0-.2,0A.25.25,0,0,0,23.83,3.44Z"/><path d="M24,2.7l.08-.09s0,0,0,0,0,0,0,0S23.94,2.7,24,2.7Z"/><path d="M24.2,2.7h.08l0-.13C24.24,2.56,24.27,2.62,24.2,2.7Z"/><path d="M24.22,2.8v0l.18-.07A.48.48,0,0,0,24.22,2.8Z"/><path d="M24.66,4.07s0-.11,0-.05S24.66,4.14,24.66,4.07Z"/><path d="M25,3.22s.11,0,.16,0S25.07,3.17,25,3.22Z"/><path d="M25.22,3.26h0Z"/><path d="M26.64,4.05h0Z"/><path d="M26.59,4.05s-.07,0-.11,0h.16S26.62,4,26.59,4.05Z"/><path d="M26.86,4.29s0,0-.06,0S26.85,4.33,26.86,4.29Z"/><path d="M28,6.92s0,0,.07,0S28,6.92,28,6.92Z"/><polygon points="28.08 6.92 28.06 6.95 28.05 7 28.08 6.92"/><path d="M28.21,7.15h0Z"/><path d="M28.17,7.16h0Z"/><path d="M28.17,7.14l0,0h0S28.16,7.15,28.17,7.14Z"/><path d="M28.26,7.2l0-.11c-.07,0,0,.08-.1.14Z"/><path d="M28.4,7.28s.17,0,.11.08c.14,0,.11-.19.25-.14-.06-.13-.2.15-.25,0C28.51,7.34,28.44,7.27,28.4,7.28Z"/><path d="M28.52,7.1c-.05,0,0,.08,0,.06S28.58,7.06,28.52,7.1Z"/><polygon points="28.63 7.38 28.63 7.45 28.67 7.42 28.63 7.38"/><path d="M28.73,7.49l-.07,0S28.73,7.55,28.73,7.49Z"/><path d="M28.84,7.69s.14-.07.06-.09v0S28.88,7.71,28.84,7.69Z"/><path d="M29.37,7.77s-.05,0-.07,0h.08Z"/><path d="M29.62,7.44c0-.1-.06,0-.07-.09S29.56,7.4,29.62,7.44Z"/><path d="M29.34,7.93s0,0-.05,0S29.3,8,29.34,7.93Z"/><path d="M29.45,8s0,0-.05.07.05.09.11.06a.52.52,0,0,1,.13-.17c-.09,0-.23.11-.17,0L29.31,8C29.34,8.06,29.42,7.93,29.45,8Z"/><path d="M29.54,7.6v.08s.06,0,.09,0S29.56,7.61,29.54,7.6Z"/><polygon points="29.82 8.16 29.91 8.19 29.89 8.16 29.82 8.16"/><polygon points="29.84 8.22 29.82 8.26 29.91 8.24 29.84 8.22"/><polygon points="29.88 8.31 29.88 8.3 29.82 8.3 29.88 8.31"/><path d="M30,8.44l0,0s0-.08-.07,0S30,8.4,30,8.44Z"/><path d="M31.33,7.68a.15.15,0,0,0-.06.09l.08-.06S31.32,7.7,31.33,7.68Z"/><path d="M31.32,7.87l.11,0c0-.06-.1,0-.16,0s.07,0,.08,0Z"/><path d="M32.26,8.7c0,.05,0,.06-.09.06a.4.4,0,0,1,.17.09s.11-.07.07-.07l-.09,0,0,0C32.35,8.65,32.29,8.77,32.26,8.7Z"/><path d="M34.4,11.3a.22.22,0,0,0,0,.08C34.42,11.38,34.39,11.29,34.4,11.3Z"/></svg>