<svg id="Calque_1" data-name="Calque 1" xmlns="http://www.w3.org/2000/svg" viewBox="0 0 79.37 70.87"><defs><style>.cls-1{fill:#1d1d1b;}</style></defs><path d="M42.76,62.4h-.87C25.35,61.76,18.22,46,17.92,45.3l-.2-.45.17-.46c.06-.17,6.34-17,24-17.17a22.26,22.26,0,0,1,8.91,1.83c4.51,1.85,10.79,6,15.11,15.24l.22.49-.2.5C65.9,45.45,58.77,62.4,42.76,62.4ZM20.37,44.76c1.27,2.5,8.1,14.67,21.62,15.18S62.23,47.5,63.49,44.83C55.84,29.08,42.15,29.66,42,29.67,27.38,29.82,21.47,42.14,20.37,44.76Z"/><path d="M13.37,28s-.12.13-.09.12l.14-.14Z"/><path d="M13.22,28.37a1.59,1.59,0,0,0,.32-.32l-.26.23s0-.08.07-.13,0,0-.09,0-.07.17.05.09Z"/><path d="M14.45,29.88v0Z"/><path d="M15.27,30.76l0,0Z"/><path d="M15.27,31.06v0S15.26,31.07,15.27,31.06Z"/><path d="M14.45,29.88l0,.07C14.48,29.91,14.45,29.91,14.45,29.88Z"/><path d="M13.74,28.18l-.05,0h0Z"/><path d="M14,29.66h0l-.06.06Z"/><path d="M13.62,29.41s.12-.11.17-.16l-.09.07Z"/><path d="M13.34,28.76h0Z"/><path d="M14.14,29.88l0,.05Z"/><path d="M23.45,36.4l0,0Z"/><path d="M23.23,37.34h0l-.06.07Z"/><path d="M15.41,31.47Z"/><path d="M18.05,33.65c.07-.14.18-.11.25-.27C18.26,33.43,18.08,33.54,18.05,33.65Z"/><path d="M13.73,28.21h0S13.74,28.2,13.73,28.21Z"/><path d="M18.3,33.38h0Z"/><path d="M16.12,32l0-.07Z"/><path d="M15.8,31.36v0Z"/><path d="M16.53,32s0,0,0,0l0,0S16.52,32,16.53,32Z"/><path d="M16.79,32.23v0h0Z"/><path d="M22.61,35.76a1.13,1.13,0,0,1-.1.13C22.59,35.79,22.66,35.79,22.61,35.76Z"/><path d="M13.67,28.25s.05,0,.06,0a0,0,0,0,0,0,0Z"/><path d="M17.44,31l0,.05A.08.08,0,0,0,17.44,31Z"/><path d="M20.73,34.14h0S20.75,34.12,20.73,34.14Z"/><path d="M17.6,31.14l-.06.11,0,0Z"/><path d="M22.51,35.89Z"/><path d="M23.06,35.82s-.17.15-.26.24.08-.14.15-.24-.23.15-.25.13l.06-.08c-.15.11-.09-.07-.28.07l0,0a2.81,2.81,0,0,1-.2.24s-.12.07,0,0,0,0,.08-.06l-.06,0c.12-.17.07,0,.18-.15-.08,0-.24.11-.23,0s.11,0,.2-.16v.09c.18-.27,0,0,.21-.24,0-.1-.13,0-.15-.08-.09.08-.11.14-.2.21s.29-.45.05-.29-.29.28-.24.14l.17-.16c0-.07-.26.22-.21,0s.1,0,.11,0c.08-.18-.12.07-.15.05l.14-.16c-.08,0-.25,0-.34,0a.47.47,0,0,0,.13-.15c-.15,0-.16-.17-.15-.33l-.15.11s0-.07.07-.09-.08.08-.14.12.05-.09.1-.13c-.16.07-.37.11-.3-.08l0,0c0-.09-.29.23-.22.07l0,0c0-.14-.26-.11-.15-.38-.19.19,0-.17-.27.1.07-.18.13-.22.13-.38s-.18.15-.23.15l.12-.14-.16.12.13-.19-.06,0s0,.08-.07.12,0-.18.06-.25l-.19,0a.34.34,0,0,1,.13-.09c-.18.1.12-.15,0-.06s-.08.08-.11.11,0-.15-.06-.15l.1-.09c-.05-.08-.18-.07-.25-.14a.53.53,0,0,1-.21.23l.12-.16c-.09.08,0,.08-.15.17s.13-.19.19-.22l-.08,0s.07-.06.12-.12.07-.2-.09-.06l0,0c-.07-.07-.15,0-.22-.09-.11.13-.11.08-.22.17,0-.08,0-.23,0-.26s-.11.1-.19.16c.1-.12,0-.16.14-.22a.36.36,0,0,0-.27,0,.36.36,0,0,1-.08.12s0-.08.06-.13h0c-.25.1.09-.53-.19-.35h0l-.19.06s.1-.07.14-.17c-.25.13-.1-.14-.28-.07.26-.39-.2-.13-.08-.41l-.06.08c-.09.07,0-.06,0-.09s-.05.09-.1.12c-.23,0-.2-.39-.29-.6s-.41.39-.3.13l.15-.13c-.28.08-.23-.21-.48-.16,0,0,.08-.07.09-.06s-.08-.08-.16,0,.07-.08.1-.13-.19.08-.1,0a.07.07,0,0,1,.05,0c-.06,0-.06-.08-.16.06,0-.1-.13,0-.1-.12-.14.12,0-.13-.19.06.19-.2.07-.23,0-.15.06-.06,0-.09.12-.17s-.09,0-.18.1c.16-.29-.29.11,0-.24a1.45,1.45,0,0,1-.46,0c.18-.2.11.06.29-.16-.15,0-.35.15-.38,0s.09-.08.13-.11c-.15,0-.13-.15-.3-.1l.06,0s0-.06-.08,0h0c-.1.16-.3.24-.37.31.26-.25,0-.13.33-.44l-.13.11a.27.27,0,0,1,.11-.13c-.09,0-.16.13-.21.09l.12-.11c-.1.07-.2.14-.2.07s.05-.07.06-.06-.32.14-.31,0c.2-.18,0-.09.18-.26l-.08,0-.06.09s-.17.07-.15,0l.09-.05-.09,0,0,.09c-.11.06-.19.22-.19.14s0,0,0-.15h0c-.06,0-.13.08-.12,0s.18-.19.2-.23c-.14.13-.11,0-.26.11a.79.79,0,0,0,.13-.14l-.12.1a.33.33,0,0,1,.1-.14c0-.06-.18.23-.15.09l0,0c0-.1-.17,0-.17-.12s.08,0,.2-.17c-.1,0-.34.08-.37,0v0c-.23.23.05-.17-.09-.09a.59.59,0,0,0,.11-.1c0-.08-.15,0-.29,0l.06-.05c0-.08,0-.1-.05-.16s-.07,0-.14.13c.22-.44-.35,0-.17-.33,0,0,.07,0,.07-.05h-.12a.69.69,0,0,0-.11.17c-.07.05-.13.08-.15.07s.15-.17.19-.24l-.09.1c.13-.22-.19.2-.13,0l.05-.05s-.13.07-.13,0,.07,0,.16-.14-.26.18-.18,0,.06,0,.1,0,.07-.13.07-.17h0v-.11l0,.05c-.32.29-.12,0-.36.16.23-.15.11-.1.24-.24a.32.32,0,0,1,.08-.14c-.12.09,0-.13-.14,0,0,0,0,0,.09-.13-.06,0-.06.08-.12.13s.06-.28-.19-.12-.28.17-.4.2a.46.46,0,0,1,.16-.15c0-.09,0-.1-.07-.07a.49.49,0,0,0,.1-.13s-.16.15-.13.06l.18-.16-.22.1a.55.55,0,0,1,.17-.15.36.36,0,0,0-.26.12l0,.06s.09-.11.12-.13,0,.08,0,.12l0,0c-.22.27.11,0,.13.07l-.18.18.18-.13c0,.06-.13.17-.17.18s.08,0,0,.08,0,0,0,0l.08,0s-.11.14-.11.1c-.05.15.21-.08.1.08h0c.13,0,.13-.13.33-.25l-.27.37.13-.13s0,0-.05.08c.11-.07.05-.06.14-.14-.08.16.15,0,0,.25.1-.1,0-.11.14-.15-.2.25.08,0,0,.13s-.09,0-.16.16c.2-.19,0,.1.08.08.15-.17.12,0,.21,0s0,.16,0,.26l0,0c.15-.17.17-.1.23-.11a.65.65,0,0,1-.19.17l0,0a.19.19,0,0,1,.12-.07l-.12.12c.05,0,.21-.08.18,0,.11-.11.25-.36.37-.39a1.13,1.13,0,0,1-.18.19s.06,0,0,0l-.11.08c0,.07.09-.08.1-.05s-.05.08-.11.15,0-.06,0,0a.4.4,0,0,1-.07.19c0-.05.1-.12.13-.12s-.08.12-.1.18,0,0,.15-.1-.05.07-.07.11.1.07.21-.1h0c.18-.08.06.19.17.19l0,0c.09,0,.11,0,.23,0s-.05.11-.1.16.1-.06.08.05-.05.08-.08,0-.06.15.09.06c-.11.11-.1.18-.05.16l.05-.11s0,0,0,.05l-.15.15c-.08.25.42-.2.2.16.12-.09,0-.11.16-.22,0,0-.14.3-.13.31s.24-.18.24-.08c0-.06.16-.21.24-.23s-.16.27-.22.29,0,0,0,0a.14.14,0,0,0-.1.09l0-.05c0,.07,0,.11-.07.19a.16.16,0,0,0,.1-.12c0,.11.06.06.06.15a.49.49,0,0,1,.08-.1c0,.13.12-.07.19-.06s-.19.19-.08.16-.12.15-.17.19c.13-.07,0,.14,0,.18l-.06,0s.05,0,.06,0l.08-.12a.08.08,0,0,1,0,.08,2.12,2.12,0,0,1,.26-.26c0,.07.1,0,0,.14,0-.1-.12.15-.19.13s0,0,0,0,0,0,0,0c-.07.18.16-.14.21-.09s-.12.17-.1.16.11-.15.19-.19.08,0,.09,0v-.05c.07-.08.08,0,.13,0s-.06,0-.08.06c.16-.12-.07.2.05.13,0,.07-.13.16-.15.21.14-.07,0,.15.07.1s.06-.09.18-.17h-.14l.19-.12s-.11,0-.1,0,.07,0,.14-.14c-.11.19.15-.05.08.09l-.24.27c0,.17.22-.05.22.07l0-.06c.11-.1.06,0,.12,0a.9.9,0,0,0-.14.19c.06-.06,0,.05.21-.12l-.08.14c0,.1.29-.2.32-.12s-.14.17-.23.21,0,0,.07,0,.16-.08.1,0,.12-.12.14-.1l0,.05c0-.05.08,0,.15-.15-.19.33.17.11,0,.39a.69.69,0,0,1,.18,0s0,0,0,0,.26-.23.23-.09-.1,0-.13.12c-.25.31.1,0,0,.23h0c-.06.12.17-.06.2,0l0,0a.6.6,0,0,1,.35-.13c-.12.11-.08,0-.17.17s.16-.19.23-.19a1.54,1.54,0,0,1-.18.29l0,0c-.12.18,0,0,0,.08l-.07.07c.08,0,.24-.15.29-.08l0-.06c.19-.15-.06.12.09,0l-.15.19a1.08,1.08,0,0,1,.3-.11,1.66,1.66,0,0,1-.35.2s.09.05.18,0-.07.05-.06,0,.25-.16.29-.12c-.32.35,0,.19-.17.49.19-.06.1.19.21.25.21-.3,0,0,.27-.27,0,0,0,0,0,0l-.08.23c-.06.09-.08,0-.13.11s-.09.13-.12.23c.08-.1.14-.13.13-.07l.08-.16c.19-.09-.16.29,0,.2l-.1.07c.08,0,.12.11.35-.09a.36.36,0,0,1-.11.13c.05.1.38-.09.32.11l-.06.06s.14-.11.09,0-.06.06-.06.07.15-.08.13,0l-.09.07c0,.15.29-.09.39-.08a.54.54,0,0,0-.17.38l0,0c.07.1.3,0,.46,0-.15.27.09.25.06.44a.55.55,0,0,1,.18-.16c0,.06.17-.09,0,.09h0c-.14.2-.06.18,0,.21l.22-.23c-.23.42.32.06.09.41.07,0,.1,0,.17-.06l-.12.13c0,.08,0,.12.14.15l-.1.08s.38-.33.42-.31l-.16.2c.07.06,0,.29.21.17,0,0-.08.08-.1.08s0,.24.23,0c-.15.17.05.08.16,0l-.12.13c.17-.14.21-.18.29-.19s-.08.11-.06.06.13-.09.11,0l-.09.07s.07,0,.17-.09,0,.09-.06.21c.06-.06.17-.14.16-.09l-.08.08c0,.13.21-.08.14.08a.43.43,0,0,0-.06.09S21,36,21.05,36s-.09.17-.26.3c.11-.06.33-.21.31-.12a.09.09,0,0,1,0,0h0s0,0,0,0,0,.05,0,.06,0,.09,0,.11c.11-.13.11-.09.19-.21h-.05l-.05,0c.07-.06.14-.1.09,0L21.5,36c-.13.2-.17.34-.26.45.12,0,.17.07.42-.14.05,0,0,.09-.07.13s0,0-.07,0,.11.06.27-.1c0,.11-.16.14-.08.16l-.05,0c-.13.37.55-.27.37.18a.13.13,0,0,1,0-.07c0,.27.41.11.33.47,0,.08.09,0,.19-.08l-.12.14.18-.12c.16-.07-.2.42.07.27l.07-.11s.13,0,0,.13.1-.09.07,0l-.07.08.18-.07c0,.09-.27.28-.21.36a1,1,0,0,0,.3-.2s0-.07.07-.15h.06a2.17,2.17,0,0,0,.48-.62l-.16.1.08-.12,0,0c.07-.12,0,0-.09,0a.38.38,0,0,0,.09-.13l-.23.17c.07-.09.17-.15.18-.22s-.15.21-.23.24.14-.19,0-.13.08-.09.11-.1-.07,0-.19.08c.09-.14-.09,0,.09-.23-.05,0-.18.13-.21.12.25-.21-.06-.08.18-.33-.22.19-.18,0-.33.09,0,0,.05,0,.05,0s0-.11.06-.17a1.77,1.77,0,0,1-.36.28c.12-.21.21-.2.34-.37-.12.14-.18.09-.28.22A1.22,1.22,0,0,1,23,36c-.2.22-.06,0-.2.14.06-.14.18-.22.08-.18A.33.33,0,0,1,23.06,35.82ZM21.8,35.4Zm-.08-.07s0,0,0,0-.08.09-.09.08A.34.34,0,0,0,21.72,35.33Zm-.63,1s0,0,0,0h0v0Z"/><path d="M21.26,36.22h0l0,0,0,0Z"/><path d="M14.46,29.85h0l0,0Z"/><polygon points="20.87 34.15 20.84 34.18 20.88 34.16 20.87 34.15"/><path d="M14.42,29l0,0Z"/><path d="M14.27,28.85v-.07A.2.2,0,0,0,14.27,28.85Z"/><path d="M14.18,28.66l0,.05h0Z"/><path d="M16.55,30.49h0S16.58,30.48,16.55,30.49Z"/><path d="M15.62,30.2l.08,0S15.69,30.13,15.62,30.2Z"/><polygon points="17.43 30.99 17.43 30.99 17.44 31 17.43 30.99"/><path d="M15.73,30.19s0,0,0,0S15.7,30.2,15.73,30.19Z"/><path d="M13.62,28.06h0l0,0Z"/><path d="M13.6,28.07h0Z"/><path d="M13.54,28.09h0S13.57,28.06,13.54,28.09Z"/><path d="M13.76,28.28l0,0Z"/><path d="M13.83,28.32s.05-.13,0-.12l0,0C13.87,28.18,13.74,28.39,13.83,28.32Z"/><path d="M13.55,29.11V29s-.09.13-.12.12C13.35,29.35,13.51,29,13.55,29.11Z"/><path d="M13.63,29.31s-.06.07-.09.1S13.61,29.37,13.63,29.31Z"/><path d="M14.7,30.25l-.11.12S14.63,30.32,14.7,30.25Z"/><polygon points="15.44 29.82 15.48 29.73 15.38 29.83 15.44 29.82"/><polygon points="14.82 30.77 14.79 30.77 14.86 30.76 14.82 30.77"/><path d="M16.64,32.31l.12-.15S16.58,32.33,16.64,32.31Z"/><path d="M17.54,32.84c-.06.08-.07.15,0,.09S17.57,32.83,17.54,32.84Z"/><polygon points="19.64 35.12 19.59 35.16 19.65 35.14 19.64 35.12"/><path d="M71.06,30.15S71,30,71,30.05l.13.16Z"/><path d="M70.72,30a1.41,1.41,0,0,0,.27.37c-.11-.16,0-.1-.19-.29s.07,0,.12.08,0,0,0-.09-.16-.08-.09,0A.44.44,0,0,1,70.72,30Z"/><path d="M69.06,31h0Z"/><path d="M68.1,31.7a.08.08,0,0,0,0,0A0,0,0,0,0,68.1,31.7Z"/><path d="M67.8,31.67h0S67.79,31.65,67.8,31.67Z"/><path d="M69.06,31,69,31C69,31,69,31,69.06,31Z"/><path d="M70.84,30.5s0,0,0-.06v0Z"/><path d="M69.35,30.52h0s0,0,0-.06Z"/><path d="M69.63,30.23a1.84,1.84,0,0,0,.15.19l-.06-.1Z"/><path d="M70.31,30v0S70.31,30,70.31,30Z"/><path d="M69.11,30.68l0,0Z"/><path d="M61.5,39.13l0,0Z"/><path d="M60.59,38.8h0l-.06-.07Z"/><path d="M67.37,31.75Z"/><path d="M64.89,34.11c.13.09.08.19.24.28C65.08,34.34,65,34.15,64.89,34.11Z"/><path d="M70.82,30.49h0A0,0,0,0,0,70.82,30.49Z"/><path d="M65.13,34.39Z"/><path d="M66.8,32.4s0,0,0,.05S66.82,32.42,66.8,32.4Z"/><path d="M67.44,32.15h0Z"/><path d="M66.71,32.8s0,0,0,0l0,0S66.68,32.78,66.71,32.8Z"/><path d="M66.45,33l0,0v0Z"/><path d="M62.24,38.37l-.12-.1C62.21,38.36,62.2,38.42,62.24,38.37Z"/><path d="M70.78,30.42l0,.07v0Z"/><path d="M67.6,33.82l-.06,0A.07.07,0,0,0,67.6,33.82Z"/><path d="M64.08,36.71v0S64.09,36.73,64.08,36.71Z"/><path d="M67.43,34l-.1-.07s0,0,0,0Z"/><path d="M62.12,38.27Z"/><path d="M62.12,38.81s-.13-.18-.21-.29.14.11.23.18-.13-.24-.1-.26l.07.08c-.09-.17.08-.09,0-.29a.08.08,0,0,1,0,0L61.91,38s-.06-.14,0,0,0,.05,0,.09L62,38c.16.15,0,.08.13.2,0-.08-.09-.25,0-.23s0,.11.14.21l-.09,0c.25.22,0,0,.22.24.09,0,0-.13.09-.14-.07-.09-.12-.12-.19-.22s.41.34.29.08-.25-.32-.11-.25l.14.19c.07,0-.19-.28,0-.22s0,.1,0,.11-.06-.12,0-.14l.14.15c0-.08,0-.25,0-.33a.57.57,0,0,0,.13.14c0-.15.19-.13.35-.11l-.09-.16s.06,0,.08.08-.07-.09-.11-.15.1.06.12.11c-.05-.17-.06-.39.12-.29l0,0c.1,0-.19-.32,0-.23v0c.15,0,.15-.24.4-.1-.16-.21.17,0-.06-.28.17.09.2.15.35.17s-.11-.19-.11-.24l.12.14-.1-.18.17.15v-.06a.39.39,0,0,1-.11-.08c0-.1.18,0,.25.09l0-.2a.37.37,0,0,1,.07.14c-.08-.19.14.14.07,0a.53.53,0,0,1-.1-.12c.1.07.15,0,.15,0l.08.1c.09,0,.1-.17.17-.23a.47.47,0,0,1-.2-.23l.14.14c-.07-.1-.07,0-.15-.17s.17.15.2.21v-.08s0,.07.1.13c-.07-.1.19.1.07-.08l0,0c.07-.07.06-.15.11-.21-.11-.13-.06-.12-.14-.24.08,0,.22.06.27,0s-.09-.11-.14-.21c.11.12.15.06.2.17a.34.34,0,0,0,.05-.26c-.05,0-.08,0-.11-.1s.08,0,.13.08v0c-.06-.26.51.16.37-.15h0l0-.19s0,.11.14.16c-.09-.27.15-.09.1-.27.36.3.16-.19.43,0L66.13,35c0-.09.07,0,.09,0s-.08-.06-.11-.11c.07-.23.42-.16.64-.22.07,0-.34-.45-.1-.32l.11.17c0-.28.24-.2.22-.45,0,0,.06.08,0,.09s.09-.07,0-.16.08.08.13.11-.06-.19,0-.09l0,0c0-.06.09,0,0-.16.1,0,0-.13.13-.08-.1-.16.13,0,0-.2.18.21.22.1.16,0,0,.07.08,0,.15.14s0-.09-.08-.2c.28.2-.06-.29.25,0a1.24,1.24,0,0,1,0-.46c.18.21-.08.1.12.31,0-.15-.11-.37,0-.39s.07.1.09.14c0-.15.17-.11.13-.28a.25.25,0,0,1,0,.07s.06,0,0-.09v0c-.14-.12-.2-.34-.26-.41.22.29.13,0,.39.38a.26.26,0,0,0-.09-.14s.07,0,.12.12c0-.09-.11-.18-.06-.21a.73.73,0,0,1,.09.13c-.06-.11-.11-.22,0-.21s.06.06,0,.07-.1-.34.05-.31c.15.21.08,0,.23.21v-.08l-.09-.07s0-.18,0-.15l0,.09,0-.08-.09,0c0-.11-.2-.21-.11-.2s0,0,.14.06h0c0-.07-.07-.14,0-.12s.16.19.19.23c-.11-.16,0-.11-.07-.28l.12.15L68.76,32s.07,0,.13.11-.21-.2-.07-.16a.33.33,0,0,1,0,.06c.1,0,0-.17.14-.16s0,.08.14.21c0-.09,0-.33.07-.35h0c-.2-.25.16.07.09-.07l.09.11c.08,0,0-.14.05-.28l0,.07c.08,0,.11,0,.16,0s0-.08-.11-.16c.41.27,0-.35.36-.13,0,0,0,.08,0,.07l0-.12c-.1-.1-.07-.05-.16-.12a.27.27,0,0,1,0-.16c0,.1.15.17.22.22l-.09-.1c.2.15-.18-.22,0-.14l0,.06s-.06-.13,0-.14,0,.08.12.18-.15-.28,0-.18,0,.06,0,.1.13.08.17.09h0l.11,0,0,0c-.24-.35,0-.12-.11-.37.12.24.09.12.21.26a.32.32,0,0,1,.13.1c-.07-.13.12,0,0-.14,0,0,0,0,.12.1,0-.06-.08-.07-.13-.13s.28.09.16-.18-.15-.29-.16-.41a.42.42,0,0,1,.13.17c.09,0,.1,0,.08-.06l.11.11s-.12-.18,0-.13a1.33,1.33,0,0,1,.14.19c0-.06-.06-.17-.07-.23a.46.46,0,0,1,.12.19.34.34,0,0,0-.08-.27l-.06,0s.1.1.11.13-.07,0-.11-.06v0c-.25-.25,0,.11-.09.12l-.15-.2.1.19a.56.56,0,0,1-.16-.19c-.11-.07,0,.09-.08,0l0,0,0,.08s-.13-.13-.09-.11c-.14-.07,0,.21-.09.08v0c0,.13.12.15.21.36L70,30.1l.11.15s0,0-.08-.06c.06.12.06.06.12.16-.14-.1,0,.14-.24-.08.09.12.11.06.14.16-.22-.23,0,.08-.13,0s0-.1-.15-.18c.17.23-.09,0-.08.07s0,.12,0,.21c0-.06-.16,0-.25-.05l0,0c.14.18.07.18.08.24a.84.84,0,0,1-.15-.2l0,0a.24.24,0,0,1,0,.14l-.1-.14s.06.22-.07.18c.11.12.33.29.35.41a1.2,1.2,0,0,1-.17-.2s0,.06,0,0l-.07-.12c-.06,0,.07.1,0,.1s-.07-.05-.13-.12,0,0,0,0a.31.31,0,0,1-.17-.1c0,.05.11.13.1.15s-.11-.1-.17-.12,0,0,.09.16-.07-.05-.11-.09-.07.1.07.22h0c.06.19-.2,0-.21.15l0-.05c0,.09-.06.11,0,.23s-.1-.06-.14-.12,0,.11-.06.07-.07-.06,0-.08-.15-.07-.08.09c-.09-.13-.15-.12-.14-.07l.1.06a.05.05,0,0,1-.06,0l-.13-.16c-.23-.12.15.44-.18.18.07.12.1,0,.2.18-.06,0-.29-.18-.3-.17s.15.26,0,.25a.66.66,0,0,1,.2.27s-.24-.19-.26-.25,0,0,0,0a.15.15,0,0,0-.08-.11l0,.05c-.06,0-.11,0-.17-.09a.13.13,0,0,0,.11.11c-.12,0-.07.06-.17.05s.1.08.09.09.07.13,0,.19-.16-.21-.15-.1-.13-.13-.16-.19c.05.14-.14,0-.18,0l0-.06s0,0,0,.06l.11.09s0,0-.08,0a2.67,2.67,0,0,1,.23.29c-.07,0,0,.11-.14,0,.1,0-.13-.14-.11-.2s0,0,0,0a.05.05,0,0,1,0,0c-.16-.08.12.18.06.23s-.14-.15-.14-.12.13.13.17.21,0,.08,0,.08l0,0c.07.08,0,.09,0,.14s0-.07,0-.09c.1.17-.19-.09-.14,0-.07,0-.14-.15-.19-.18,0,.14-.14-.07-.11.06s.09.07.15.2V32.2l.09.2s0-.11,0-.1a.31.31,0,0,0,.12.16c-.17-.14,0,.14-.1.06l-.24-.27c-.16-.07,0,.22-.1.21l.06,0c.09.12,0,0,0,.12a.6.6,0,0,0-.18-.16c.06.06,0,0,.1.22l-.13-.09c-.1,0,.16.31.08.32s-.15-.15-.18-.25,0,0,0,.07.06.17,0,.1.11.14.08.15l0,0s0,.09.13.18c-.3-.24-.13.15-.39-.05a.43.43,0,0,1-.06.17l0,0c-.12,0,.2.28.07.24s0-.11-.11-.15c-.27-.29,0,.1-.22,0v0c-.12-.07,0,.18,0,.2l0,0a.51.51,0,0,1,.08.36c-.09-.12,0-.08-.15-.19s.18.19.17.26a1.69,1.69,0,0,1-.26-.21l0,0c-.17-.15,0,0-.09,0l-.06-.08c0,.08.12.26,0,.3l.05.05c.13.2-.11-.08,0,.08l-.17-.17a1.08,1.08,0,0,1,.07.31,1.3,1.3,0,0,1-.15-.37s-.07.08,0,.18,0-.08,0-.06.12.27.08.31c-.3-.36-.19,0-.47-.24,0,.2-.2.08-.27.18.28.25,0,0,.24.31,0,0,0,0,0,0l-.21-.11c-.09-.07,0-.08-.09-.14s-.13-.1-.22-.15c.09.09.11.16,0,.14l.15.1c.07.2-.26-.19-.2,0l0-.11c0,.08-.13.11,0,.36,0,0-.11-.1-.11-.13s0,.39-.15.31l-.06-.07s.09.15,0,.09-.05-.07-.06-.07.07.16,0,.13l0-.09c-.16,0,0,.29,0,.4-.17-.2-.29-.22-.35-.22l0,0c-.11,0,0,.3,0,.45-.25-.17-.26.07-.45,0a.37.37,0,0,1,.14.19c-.06,0,.07.19-.09,0h0c-.18-.16-.17-.08-.21-.06l.21.25c-.39-.28-.1.32-.42,0,0,.08,0,.1,0,.18l-.11-.13c-.09,0-.13,0-.17.11l-.07-.11s.29.42.26.46L62.78,36c-.07.06-.28-.05-.19.18,0,0-.08-.09-.07-.1s-.24,0,0,.23c-.16-.18-.09,0-.05.15l-.11-.13c.11.19.15.23.15.31s-.1-.09-.06-.07.08.14,0,.11l0-.09s0,.06.06.17-.09,0-.2-.09c.06.08.12.19.07.17s-.06-.07-.06-.09,0,.23-.11.14a.4.4,0,0,0-.07-.07c.05,0,.09-.07.09-.05s-.16-.11-.27-.3c.05.12.17.35.08.33l0,0h0s0,0,0,0,0,0-.06,0-.09,0-.11,0,.07.13.19.22,0,0,0,0a0,0,0,0,0,0,0h0s0,0,0,0,.07.14,0,.09l.16.23c-.19-.16-.32-.21-.42-.32a.46.46,0,0,0,.08.44s-.07,0-.11-.09,0,0,0-.07-.07.1.07.28c-.11,0-.11-.18-.14-.1l0-.06c-.35-.17.2.59-.22.35a.13.13,0,0,1,.06,0c-.27,0-.15.39-.5.27-.08,0,0,.09.06.2l-.13-.14.1.2c0,.17-.4-.25-.28,0l.09.09s0,.12-.12,0,.08.11,0,.07l-.06-.07,0,.18c-.09,0-.24-.3-.33-.25a.77.77,0,0,0,.17.32s.06,0,.13.09v.06a2.2,2.2,0,0,0,.55.55l-.08-.17.11.09,0,0c.11.08,0,0,0-.09l.12.1-.14-.24c.08.08.13.18.2.2s-.18-.17-.21-.26c.11.08.17.17.12.06a.24.24,0,0,1,.09.13c0-.09,0-.08-.06-.2.13.1.05-.1.22.11a.73.73,0,0,1-.09-.22c.18.27.09,0,.31.22-.17-.24,0-.18-.06-.34,0,0,0,.06,0,0a.48.48,0,0,1,.16.08,1.55,1.55,0,0,1-.23-.39c.19.15.17.23.33.39-.13-.15-.08-.2-.2-.31a1.19,1.19,0,0,1,.22.17c-.2-.23,0-.06-.12-.21.14.08.2.2.18.1A.39.39,0,0,1,62.12,38.81Zm.57-1.2h0l0,0Zm.08-.07,0,0s-.08-.09-.07-.1S62.72,37.52,62.77,37.54Zm-1-.75s0,0,0,0v0h0Z"/><path d="M61.94,37v0l0,0L62,37Z"/><path d="M69.09,31h0l0,0Z"/><polygon points="64.05 36.85 64.02 36.82 64.04 36.85 64.05 36.85"/><path d="M69.91,31.07l0,0S69.92,31.08,69.91,31.07Z"/><path d="M70.12,30.94l.06,0A.1.1,0,0,0,70.12,30.94Z"/><path d="M70.32,30.88l0-.06h0Z"/><path d="M68.21,33h0S68.22,33,68.21,33Z"/><path d="M68.61,32.12a.41.41,0,0,1,0,.08S68.67,32.19,68.61,32.12Z"/><polygon points="67.6 33.82 67.6 33.82 67.6 33.82 67.6 33.82"/><path d="M68.61,32.22s0,0,0,0S68.6,32.2,68.61,32.22Z"/><path d="M71,30.4h0l0,0Z"/><path d="M71,30.37v0S71,30.36,71,30.37Z"/><path d="M71,30.31l0,0S71,30.35,71,30.31Z"/><path d="M70.74,30.5l0,.05Z"/><path d="M70.69,30.57s.13.07.12,0l0,0C70.83,30.63,70.64,30.48,70.69,30.57Z"/><path d="M70,30.2H70c-.06,0-.13-.1-.11-.13C69.72,30,70,30.16,70,30.2Z"/><path d="M69.74,30.25s-.07-.07-.09-.1S69.68,30.23,69.74,30.25Z"/><path d="M68.67,31.19l-.1-.12S68.61,31.12,68.67,31.19Z"/><polygon points="69 31.98 69.09 32.04 69 31.92 69 31.98"/><polygon points="68.14 31.25 68.14 31.23 68.14 31.3 68.14 31.25"/><path d="M66.39,32.87l.14.14S66.38,32.81,66.39,32.87Z"/><path d="M65.75,33.7c-.07-.06-.13-.09-.08,0S65.76,33.73,65.75,33.7Z"/><polygon points="63.23 35.51 63.2 35.45 63.21 35.52 63.23 35.51"/><path d="M25.37,17.82c-.11,0,0,0,0,.05Z"/><path d="M25.36,17.87v0S25.37,17.87,25.36,17.87Z"/><path d="M25.37,18.12c-.09,0,0-.13-.14-.11S25.23,18.16,25.37,18.12Z"/><polygon points="25.43 18.01 25.36 18.03 25.48 18.04 25.43 18.01"/><polygon points="25.48 17.96 25.45 17.97 25.55 18.02 25.48 17.96"/><path d="M25.39,18.32l0-.05c.08-.08.14,0,.19-.06s-.2,0-.2-.05.05.13-.1.16S25.33,18.3,25.39,18.32Z"/><path d="M27.25,21.25v0S27.26,21.25,27.25,21.25Z"/><path d="M27.65,22.1a.06.06,0,0,0,0,0l0,0Z"/><path d="M26.8,20.8a.17.17,0,0,0,0-.05S26.79,20.78,26.8,20.8Z"/><path d="M28.27,26.54h0Z"/><path d="M28.21,23s0,0,0,0S28.22,23,28.21,23Z"/><path d="M26.68,20.48v0Z"/><path d="M27.74,21.74a.08.08,0,0,0,0,0S27.74,21.76,27.74,21.74Z"/><path d="M25.52,19.18s0,0,0,0S25.56,19.19,25.52,19.18Z"/><path d="M25.65,19.49h0S25.63,19.5,25.65,19.49Z"/><path d="M25.7,19.7h0S25.69,19.7,25.7,19.7Z"/><path d="M25.55,19.22c-.05,0-.22.11,0,.08l0,0s.05,0,.06.06l0,0a.15.15,0,0,1,0-.06S25.6,19.23,25.55,19.22Z"/><path d="M27.21,21.26s0,0,0,0Z"/><path d="M27,21v0S27,21.05,27,21Z"/><path d="M26.67,20h0Z"/><path d="M27,21.1a0,0,0,0,1,0,0S27,21.09,27,21.1Z"/><path d="M26.67,20.35h0Z"/><path d="M29.13,30.94s0-.05,0-.07c-.14,0,0,.09-.1.07l.05,0,.11-.07C29.16,30.88,29.19,30.94,29.13,30.94Z"/><path d="M28.11,26.88h0c-.05,0-.07,0-.09.07s.2-.09.31-.07,0,0,0,0A.34.34,0,0,1,28.11,26.88Z"/><path d="M28.33,26.83h0l0,0a0,0,0,0,1,0,0Z"/><path d="M29,30.24v0S28.93,30.24,29,30.24Z"/><path d="M26.68,23.47l-.05,0S26.66,23.47,26.68,23.47Z"/><path d="M28.06,26.36a0,0,0,0,0,0,0h0Z"/><path d="M29.77,27.57c-.14,0,0,0-.05.07h.08S29.78,27.59,29.77,27.57Z"/><path d="M29.1,31h0Z"/><path d="M30.13,28.5v0S30.13,28.51,30.13,28.5Z"/><path d="M28.33,26.62l0-.12,0,0C28.34,26.54,28.24,26.63,28.33,26.62Z"/><path d="M29.66,27l.08,0c-.22-.06,0-.28-.29-.29.23-.25-.3,0-.09-.24l0,0a3.55,3.55,0,0,0-.41-1.35l0,0c-.13-.71-.48-1.32-.67-2-.08,0-.19,0-.27,0a.07.07,0,0,1,0-.1c.05,0,.11,0,.14,0s0-.2-.1-.23l-.07.09s0-.07,0-.09.14-.08.17-.07c-.28-.06.06-.14-.07-.23a1.17,1.17,0,0,1-.59-.09l0-.07c0,.07.15,0,.17,0,0-.09-.08-.12-.07-.2s-.11.05-.14,0,.11-.09.1-.14l.08,0c.06-.06-.05,0-.07-.08s.07-.11.16-.13c-.13,0-.07-.07-.17-.11s-.11,0-.18.05l.06.07c0-.13,0,0,.17,0,0,.08-.26,0-.2.09-.11-.08-.06-.12-.21-.19.05.05-.09,0-.12.07s0,0,.12-.1.05-.08-.07-.09.11,0,.15-.08,0,.24.25.12c0,0,.15,0,.17.09s.1-.16,0-.2l-.18.06s-.14,0-.13-.05.11-.05.09-.09,0,0,0,0-.16,0-.22-.1c0,.09-.07.12-.12.2s0,0-.06-.06l0,0h-.07c0-.11.18-.06.21-.14s-.08-.05,0-.1h0v0h0s0-.09-.14-.07,0,0-.06,0-.17,0,0-.12h0a.1.1,0,0,1,.08-.12v-.1l.12,0c-.06-.07-.12,0-.26-.05,0-.08,0-.16-.1-.18a.08.08,0,0,0,0,0l0,.05c0-.06-.07,0-.09-.07s0,0,0,0v0s0,0,0,0l0,0c.1-.1-.1-.06-.08-.12h0s.17-.14.07-.12,0,0,0,0v0a0,0,0,0,0,0,0s-.09,0-.06,0v-.08s0,0,0,0l0,0s0,0,0,0c.13-.16-.14-.12,0-.28-.09,0-.11.07-.15.09a1,1,0,0,1-.2-.05c.09-.09.14-.26.31-.3,0-.09-.09.06-.16,0h0a.29.29,0,0,1-.11.12c-.08,0-.14,0-.12-.07l.13,0c-.07-.07-.25,0-.39,0,0-.08.15-.08.26-.14l-.06,0,.09,0s-.13,0-.11-.09.06-.12.19-.1-.16,0,0-.05c-.11,0,0,0-.07.07s-.09,0-.14-.07.1,0,.13-.07-.11,0-.06-.06,0,0,0-.07A.17.17,0,0,1,26,19c-.05,0-.08,0-.08-.08l0,.05c-.16,0,.07-.11,0-.16s.07,0,.15,0l-.2-.07.12-.1c-.07,0,0-.07-.11,0s.13,0,.2,0-.18,0-.06-.14H26s-.07-.07,0-.09,0,0,0,0c-.19,0-.17-.08-.36,0v0c-.05,0-.2,0-.15-.1s.14,0,.2,0-.23,0-.23,0-.09.06-.15.06,0,.13.07.09v0c.05,0,.08,0,.11,0s-.08.05-.11.07.19-.06.21,0l0,0c.06,0,.09.07.21,0-.12.07.08.07,0,.13-.27.1,0-.14-.2-.13s-.13,0-.2,0l.16.08s-.16.11,0,.1h0s.16,0,.14,0a.16.16,0,0,1-.09,0s.07,0,.1,0-.11,0-.13.06,0,.08,0,.12.27.09.37,0l.14.06c-.07.06-.24,0-.36.08l0-.07c-.19.08.18.11,0,.24,0,0,0,0,0,.13l.17-.07a.29.29,0,0,1-.14.11.08.08,0,0,1,0,.07H25.6c-.08.06,0,.06,0,.05s.05,0,.06.06H25.6a.08.08,0,0,0,.07,0l0,0a.4.4,0,0,0,.15-.12c0,.12,0,.18-.08.31s-.13,0-.13,0,.09.06.16,0l0,0s-.08,0-.08.07a.05.05,0,0,0,0,0c.14,0,.1.07.17.06s0,0,0-.06.22,0,.16,0-.12.11-.19,0c-.15.12.13,0,.09.07l-.05.07c-.1,0-.07-.05-.11,0l0,0c-.09,0-.08-.14-.22-.17v.16c.18.14.12.4.39.47h0l.07,0,0,0h.09c-.09.07-.08.14-.14.21a.24.24,0,0,1,.13-.08c.1,0,.14,0,.12,0s-.08,0-.12.06a.07.07,0,0,1,.1,0s0,.1-.1.12,0,0,0,0,0,.08-.11.06l0,0c-.05.06-.1,0-.14,0s.26.06.33.12-.19.06-.15,0,.22.07.25.13,0,0-.07,0a1.39,1.39,0,0,1,0,.64h.18l-.09.09c0,.24.12.36.24.53s-.1.08-.14.12.23.11.31.22-.21,0-.2.08.13,0,.11,0h-.05c-.07.06,0,.07,0,.14s.2.18.41.21c0,.11-.18,0-.2.08s-.05,0-.11,0,.1.06,0,.12,0,.07.13.09c-.05,0,0-.05.06-.05s.06.15-.09.2c.12.24.19.52.29.78.09,0,0,0,.07,0s0,.07.07.09h-.09c0,.08.19.11.29.16-.09,0,0,.08-.13,0s-.36.22-.26.22l.36-.17s0,0,.05,0a.64.64,0,0,0-.13.15c-.09,0-.09,0-.09-.05-.16.05-.07.14-.23.14.05.06.08,0,.15,0v.07l0-.06c.07,0,.19,0,.13.1h.18c-.13.05,0,.06,0,.1h-.08s0,.07,0,.11,0-.05-.09,0l0,.06c.07,0,.14,0,.17-.06s.26,0,.29.1-.12,0-.24,0,.37,0,.38.11.09.06.13.15-.07.09-.14.13h-.1s0,.05-.05.07c.11-.05.15.08.22.12l.09,0s.14.08.13.14.13,0,.26,0a.69.69,0,0,1-.29.12c.05,0,0-.06,0-.1s-.34-.08-.33-.19c-.24,0,.05.06,0,.13h0s0,0,0,0a.26.26,0,0,0-.22,0c.05.05.25,0,.18.07.08,0-.09.13-.09.17s.28-.06.28,0h-.15c0,.1.21,0,.24.07s.13,0,.12-.07a.1.1,0,0,1,.09.13.19.19,0,0,0,.09,0c.07-.08-.12-.05,0-.14h-.16a.22.22,0,0,1,.21-.1s0,0,0,0c.2-.08-.06.09.13,0l0,0c.13-.06.15,0,.16.09s-.06.13-.15.17l-.07-.05c-.07.06.08.07.09.11l0,0,0,0a.05.05,0,0,1,0,0s.08.07.06.11l.09,0h-.05a.09.09,0,0,1,.1-.09c.09.05-.07.12-.14.17s0-.07-.09-.1,0,.08-.05.19,0-.09-.17-.06.11,0,.1.13-.1,0-.19,0l0,.06c-.05-.1-.18.08-.24,0s.13,0,.06.1.16-.12.23-.09l0,.07c-.06,0-.17,0-.22.06l.07,0s.05-.06.12-.06.19,0,.27,0,0,.06,0,.09c.16,0,.19.15.34.18-.11,0-.15.06-.2.11s-.18,0-.26,0,.17,0,.21,0,.11,0,0,.1-.14,0-.19.06.17,0,.16,0h-.05c0,.05.07.07.14.06-.16.1.06.11-.12.16.08.08.09,0,.16,0s.05.1,0,.13-.06,0-.05-.05l-.11.06c0,.15.3,0,.24.13-.09,0-.1,0-.2,0s0,.11.11,0a.43.43,0,0,1,0,.12.53.53,0,0,0,.19.05c0,.06-.06.13-.1.18.13.1,0,.26.16.36h0c0,.11.14-.1.17,0-.15,0-.07.1-.14.16s.19.18.13.34-.07,0-.08,0,0,.17.06.26h0c-.07.18.11.25.2.37H29c0,.08,0,.2.16.2-.12.13.06,0,0,.19s0,0,0,0,0,.1,0,.16.33,0,.32.2c-.19.07-.08-.07-.24,0,.05,0,.1,0,.06.08l-.13,0c0,.05.25,0,.23.05s.06,0,.05-.05.05.12.12.17a.12.12,0,0,1,.12-.11c0,.1.19.06.29.1-.06.11-.19,0-.32.06s-.15.11-.22.09.14.09.19.15h0c.05.08.26.12.2.22l0-.05s0,.05.13.05c-.07,0-.11.1-.17.09.22,0,.2.16.41.14a.39.39,0,0,1-.18.06c0-.06,0-.1-.06-.1s0,.1-.08.11c.15,0,.24.1.38.08a.31.31,0,0,1-.19.13c.12.12.31-.19.37,0s-.17,0-.17.09h0c-.26.17.22,0,.24.07-.15.07-.13,0-.22.08.06.06.3,0,.28.11h-.07s0,.15.06.2,0,0,0,0,.09,0,0,.13h.09s.08-.15,0-.17c.1,0,.17-.14.31-.16h-.06a.85.85,0,0,0,.19-.55c-.2-.05,0-.19-.15-.26s0,0-.11-.09.14,0,.15-.08a.24.24,0,0,1-.1,0c.06,0,.16-.21,0-.21,0-.07.06,0,.1,0s-.09,0,0-.06h0c0-.08,0-.15,0-.24-.18.05-.1-.07-.17-.08s.05-.08.07-.11h-.15c-.12,0,.06-.1,0-.14l0,0c-.07,0,0-.18.08-.26-.49-.28,0-.7-.28-1.09-.06,0-.08.05-.17.05a.15.15,0,0,1,0-.08c0,.05,0,0,0,0l.07.05h0s.06,0,.06.06-.19,0-.16-.06l0,0s-.06,0,0-.07,0,0,0,0l0-.15c-.18,0-.05-.13-.05-.16s.07.07.19.06l.07-.07-.09,0V29h0s-.08,0-.05,0,0,0,0,0l-.06,0c.1,0,0-.05.12-.08s-.21-.13-.1-.31c-.05,0-.19,0-.19,0a.09.09,0,0,1,.09-.05l-.07,0c.15-.12,0-.15,0-.26H30c-.07,0-.13,0-.13-.1l.1,0c0-.09-.22,0-.18-.07s-.15.1-.24.14c.1-.06.09-.14,0-.09s0-.05,0-.07l-.07,0c0-.05.13-.06.19-.06-.12,0-.06-.09-.06-.15h0v-.08c-.1,0-.13-.08-.11-.15h.16c.05-.07-.06,0-.09,0s0-.08.07-.15C29.57,27.27,29.9,27,29.66,27Zm-3.05-7h0S26.53,20.06,26.61,20.06Zm.16.58c-.08-.05,0-.05,0-.07s.05.1,0,.18l.08-.05s0,.07-.08.1S26.84,20.58,26.77,20.64Zm-1.14-1h0Zm.25.3a.07.07,0,0,0-.05,0Zm.06.73c-.05,0,0,.07,0,.09A.09.09,0,0,0,25.94,20.63Zm1.57,4.24s-.1,0-.13,0,0,.07.06.05h0Zm1.17,1.84-.16.05h0l0,0s0,0,0,0C28.67,26.76,28.71,26.79,28.68,26.71Z"/><path d="M27.68,26.31v0Z"/><path d="M28.48,26.82s0,0,0-.06A.07.07,0,0,0,28.48,26.82Z"/><path d="M25.87,18.27l0,0,0-.06a.39.39,0,0,0-.26,0c.1,0,.07.08.13.15Z"/><path d="M25.27,18.52s-.08.06-.08.07h.06Z"/><path d="M25.27,19.41l0-.08C25.24,19.32,25.18,19.43,25.27,19.41Z"/><path d="M26.15,18.78h-.07c0,.05,0,.09.05.07S26.16,18.81,26.15,18.78Z"/><path d="M25.32,19.58c.12,0,0,.08.08.06S25.43,19.54,25.32,19.58Z"/><path d="M26.36,19.16c.1-.06,0-.06,0-.1S26.29,19.17,26.36,19.16Z"/><path d="M25.75,19.8c-.08,0-.08,0-.07,0h.08l-.12-.06c0,.06-.05.13-.16.16C25.57,19.87,25.69,19.87,25.75,19.8Z"/><path d="M26.41,19.25s.09-.09.07-.12-.13.06-.1.11h-.1C26.23,19.32,26.4,19.19,26.41,19.25Z"/><path d="M25.6,20.06l0,0c-.09,0-.08-.09-.2-.08A.21.21,0,0,0,25.6,20.06Z"/><path d="M26.3,19.48l.13,0c0-.06,0,0-.08,0s0,0,0-.05S26.24,19.45,26.3,19.48Z"/><path d="M26.49,19.58l.08,0,.12-.1C26.62,19.47,26.61,19.55,26.49,19.58Z"/><path d="M26.43,19.68l0,0,.22,0A.65.65,0,0,0,26.43,19.68Z"/><path d="M26,21.06c.05,0,.11-.09.05,0S25.92,21.12,26,21.06Z"/><path d="M26.93,20.48s.08.1.13.12S27,20.45,26.93,20.48Z"/><path d="M27.08,20.61h0Z"/><path d="M27.91,22h0Z"/><path d="M27.86,22s0-.07-.1-.05a.5.5,0,0,0,.15.08S27.93,22,27.86,22Z"/><path d="M28,22.37s0,0-.08,0S27.92,22.4,28,22.37Z"/><path d="M27.16,25.32s0,.05.09,0S27.2,25.33,27.16,25.32Z"/><polygon points="27.28 25.37 27.25 25.39 27.19 25.43 27.28 25.37"/><path d="M27.25,25.65h0S27.24,25.66,27.25,25.65Z"/><path d="M27.2,25.64h0Z"/><path d="M27.22,25.62h0S27.2,25.63,27.22,25.62Z"/><path d="M27.26,25.72l.11-.09c-.08,0-.05.08-.2.08Z"/><path d="M27.35,25.86c0,.06.19.05,0,.13.12.09.23-.11.34,0,0-.15-.31,0-.27-.11C27.4,26,27.39,25.87,27.35,25.86Z"/><path d="M27.59,25.76c-.08,0-.07.07,0,.07S27.67,25.75,27.59,25.76Z"/><polygon points="27.5 26.08 27.45 26.13 27.5 26.13 27.5 26.08"/><path d="M27.51,26.23h-.09S27.47,26.28,27.51,26.23Z"/><path d="M27.48,26.46s.19,0,.12-.05v0S27.51,26.49,27.48,26.46Z"/><path d="M27.94,26.8a0,0,0,0,0-.07,0l.06.05Z"/><path d="M28.42,26.62c.11-.06,0-.06,0-.11S28.39,26.56,28.42,26.62Z"/><path d="M27.8,26.93c-.06,0,0,0,0-.06S27.74,26.94,27.8,26.93Z"/><path d="M27.88,27c-.05,0-.07,0-.1,0s0,.11.06.11a.68.68,0,0,1,.25-.09c-.07-.06-.31,0-.15-.11h-.23C27.7,27.05,27.87,27,27.88,27Z"/><path d="M28.22,26.73l-.06.07a.12.12,0,0,1,.12,0C28.43,26.74,28.24,26.75,28.22,26.73Z"/><polygon points="28.11 27.38 28.17 27.45 28.17 27.42 28.11 27.38"/><polygon points="28.08 27.45 28.03 27.47 28.14 27.5 28.08 27.45"/><polygon points="28.05 27.55 28.06 27.54 28 27.5 28.05 27.55"/><path d="M28.08,27.73l.06,0s0-.08-.05,0S28.13,27.7,28.08,27.73Z"/><path d="M29.91,27.72a.25.25,0,0,0-.12,0l.12,0S29.89,27.73,29.91,27.72Z"/><path d="M29.77,27.88h.14c0-.07-.1-.05-.14-.1s.07,0,0,.08Z"/><path d="M30.09,29.11c-.08,0-.06,0-.13,0s.07.1.11.16.15,0,.12,0l-.08-.06h.06C30.22,29.11,30.07,29.18,30.09,29.11Z"/><path d="M30.35,32.55s-.07,0-.11.05S30.34,32.54,30.35,32.55Z"/><path d="M59.64,18.3c-.09-.07,0,0,0,0Z"/><path d="M59.6,18.32l0,0S59.6,18.33,59.6,18.32Z"/><path d="M59.42,18.5c-.05-.09.09-.09,0-.19S59.3,18.42,59.42,18.5Z"/><polygon points="59.53 18.46 59.48 18.43 59.55 18.52 59.53 18.46"/><polygon points="59.61 18.46 59.58 18.46 59.61 18.56 59.61 18.46"/><path d="M59.29,18.64v-.06c.12,0,.1.09.18.1s-.17-.12-.1-.18-.07.12-.19,0S59.26,18.58,59.29,18.64Z"/><path d="M58.37,22h0Z"/><path d="M58,22.84l-.05,0h0Z"/><path d="M58.41,21.34h.05A0,0,0,0,0,58.41,21.34Z"/><path d="M55.16,26.28l0,0h0l0,0Z"/><path d="M57.73,23.86s0,0,0,0S57.74,23.87,57.73,23.86Z"/><path d="M58.56,21v0h0Z"/><path d="M58.34,22.67s0,0,0,0Z"/><path d="M58.74,19.32s0,0,0,0S58.76,19.35,58.74,19.32Z"/><path d="M58.59,19.62h0S58.58,19.61,58.59,19.62Z"/><path d="M58.48,19.8h0S58.47,19.79,58.48,19.8Z"/><path d="M58.73,19.36c-.06,0-.23-.08-.07,0h0s0,.06,0,.09h0l.05,0S58.75,19.41,58.73,19.36Z"/><path d="M58.34,22s0,0,0,0Z"/><path d="M58.34,21.64a0,0,0,0,0,0,0S58.35,21.65,58.34,21.64Z"/><path d="M58.9,20.72h0S58.91,20.72,58.9,20.72Z"/><path d="M58.31,21.68l0,0A0,0,0,0,0,58.31,21.68Z"/><path d="M58.65,21h0Z"/><path d="M52.5,29.86s0,0,.07,0,0,.08-.12,0a.07.07,0,0,0,0,.06l.12,0C52.56,29.84,52.53,29.9,52.5,29.86Z"/><path d="M54.8,26.39h0c-.06,0-.07,0-.11,0s.2.09.26.18,0,0,0,0A.43.43,0,0,1,54.8,26.39Z"/><path d="M55,26.52h0a0,0,0,0,1,0,0Z"/><path d="M52.89,29.25h0S52.88,29.24,52.89,29.25Z"/><path d="M56.36,23l0,0S56.34,23,56.36,23Z"/><path d="M55.15,26l0,0h0Z"/><path d="M55.41,28.07c-.12-.09,0,0-.09,0l.06.06S55.4,28.09,55.41,28.07Z"/><path d="M52.45,29.86h0Z"/><path d="M55,29h0Z"/><path d="M55.14,26.37l.07-.11-.05,0C55.21,26.33,55.07,26.31,55.14,26.37Z"/><path d="M55.74,27.62l.09,0c-.11-.2.2-.21,0-.42.34,0-.19-.22.11-.22h0a3.38,3.38,0,0,0,.73-1.21l.05,0c.43-.57.64-1.24,1-1.84,0-.08-.16-.11-.19-.19a.07.07,0,0,1,.1,0c0,.06.08.07.1.1s.16-.12.11-.23h-.11s0-.07,0-.09.15.05.16.08c-.14-.24.15-.05.13-.21a1.22,1.22,0,0,1-.33-.49l.07,0c0,.07.14.07.09.15s0-.14.1-.19a.18.18,0,0,1-.12-.08s.14,0,.17,0l0,.07c.08,0,0-.06,0-.09s.13,0,.21,0c-.08-.12,0-.11,0-.2s-.09-.08-.15-.1v.09c.1-.08,0,0,.12.1-.08,0-.17-.18-.2-.09,0-.13.06-.12,0-.28,0,.07-.08-.06-.14,0s.06,0,.15,0,.1,0,0-.11.09.06.16.06-.21.13.08.26c0,0,.07.14,0,.19s.19,0,.15-.13l-.16-.09s-.08-.11,0-.13.12.05.13,0,0,0-.06,0-.08-.13-.07-.22a1.37,1.37,0,0,1-.23,0c-.11-.07,0-.05,0-.09s0,0,0,0l0-.06c.09-.05.16.1.25.06s0-.08,0-.09h0c0-.05,0-.09,0-.15s0,0,0-.07-.09-.14.07-.11h0s.11-.06.15,0l.08-.06.1.07c0-.09-.06-.12-.14-.23.09,0,.09-.14.07-.19a0,0,0,0,0,0,0h-.06c0-.05,0-.08,0-.11s0,0,0,0h0s0,0,0,0h0c.14,0,0-.11,0-.13v0s.22,0,.13,0,0,0,0,0l0,0,0,0s-.06-.07,0-.06l.06-.06s0,0,0-.05h.05s0,0,0,0c.2,0,0-.18.18-.21-.06-.06-.12,0-.16-.05a.81.81,0,0,1-.1-.18c.13,0,.29-.07.43,0,0-.08-.11,0-.14-.09h0a.28.28,0,0,1-.16,0c-.08,0-.07-.13,0-.13l.11.07c0-.09-.19-.17-.28-.28.08,0,.17.06.28.1v-.08l.09.05c0-.05-.08-.1,0-.14s.13,0,.21.07-.12-.11,0-.06c-.09-.08-.07,0-.1,0s0-.1,0-.16.07.07.14.05-.07-.09,0-.08c-.09,0,0-.06,0-.08a.16.16,0,0,1-.18,0s0-.07,0-.11h-.06c-.1-.11.13,0,.12-.1s0,.07.08.12a.93.93,0,0,1-.07-.2l.15,0c-.06,0,0-.05,0-.1.09,0,.08.11.14.15s-.12-.14.06-.15l.06.07s0-.09,0-.07,0,0,0,0-.06-.18-.24-.26l0,0c0-.07-.11-.17,0-.17s.11.08.14.13-.17-.15-.12-.2-.11,0-.15-.07-.1.08,0,.11h0l.07.07c0,.05-.1,0-.14,0s.18.11.14.17h0c0,.06,0,.12.11.19-.13,0,0,.1-.09.1-.25-.13.09-.11,0-.23s-.11-.08-.16-.13l0,.18s-.19-.05-.11,0h0c0,.06.12.1.06.12s-.06,0-.07-.05,0,.06.05.1-.1-.07-.14-.06-.06.06-.08.1c.16.06.12.25.29.24l0,.14c-.09,0-.17-.17-.3-.21l0-.07c-.18-.08,0,.21-.19.15,0,0,0,0-.12.06l.16.08c-.05,0-.15,0-.18,0a.09.09,0,0,1,0,.06s0,0,0-.06-.08,0,0,0,0,.06,0,.08l-.05,0a.09.09,0,0,0,0,.07s0,0,0,0a.5.5,0,0,0,.19,0c-.11.06-.11.14-.28.14s-.09-.08-.1-.08,0,.11.09.14v0c-.05,0-.1,0-.11,0h-.05c.12.08,0,.12.07.16a.1.1,0,0,0,0-.05c.07.07.15.15.07.14s-.16,0-.15-.12c-.2,0,.1.1,0,.13h-.09c-.09-.05,0-.09-.05-.09v0c-.06-.07,0-.15,0-.27l-.12.1c0,.23-.21.36-.08.61h0l.06,0h0l.06.06c-.11,0-.16,0-.25.05a.24.24,0,0,1,.14,0c.09.06.13.08.07.11s0-.06-.12-.06a.09.09,0,0,1,.08.07c-.06,0-.09,0-.16,0s0,0,0,0-.08,0-.12,0V21c-.07,0-.08-.06-.12-.07s.13.22.14.32l-.14-.08c-.07,0,.1.2.07.27s0,0,0-.08a1.32,1.32,0,0,1-.48.42l.13.13h-.12c-.2.14-.18.33-.23.53s-.13,0-.18,0,.07.24,0,.37c0,0-.15-.14-.19-.09s.11.08.06.09l0,0c-.09,0,0,.06-.1.1a.48.48,0,0,0,.12.44c-.06.09-.16-.1-.2-.1s0-.06,0-.1,0,.12-.09.08a.12.12,0,0,0,0,.15s0,0,.08,0-.07.14-.21.06a6.6,6.6,0,0,1-.39.74c.05.08.05,0,.09,0s-.08,0,0,.11l-.06-.06c0,.07,0,.22.07.32-.08-.06-.1,0-.12-.06s-.4-.12-.34-.05l.37.14s0,.06,0,.07-.19,0-.2,0-.05-.08,0-.11c-.14-.08-.15,0-.26-.07,0,.07.08,0,.12.1l-.06,0h.07c0,.07.12.14,0,.16l.11.14c-.12-.06-.05,0-.09.05l-.06-.06s0,.05-.11.05.05,0,0-.09l-.06,0c.06,0,.1.09.16.08s.19.19.12.29-.07-.11-.2-.15.22.3.18.35,0,.11,0,.2c-.06-.07-.11,0-.19,0l-.06-.08s0,.05-.09,0c.11,0,0,.16.06.25l.09,0c0,.06,0,.15,0,.18s.08.12.15.22a.55.55,0,0,1-.28-.13c.05,0,0,0,.09-.05s-.18-.3-.09-.37c-.19-.16,0,.07-.11.08v0h0a.26.26,0,0,0-.12-.19c0,.07.19.15.06.17,0,.08-.15,0-.19.06s.24.17.16.23l-.1-.1c0,.09.15.14.1.22s.1.09.14,0a.09.09,0,0,1,0,.15s0,0,.08.05,0-.12.1-.1l-.11-.1a.21.21,0,0,1,.21.08s0,0,0,0c.2.09-.1,0,.06.12v0c.14,0,.07.14,0,.18s-.13.05-.23,0v-.09c-.09,0,0,.11,0,.15h0s0,.11,0,.12l.08,0,0,0a.09.09,0,0,1,.14,0c0,.1-.15,0-.23,0s0-.06,0-.12-.05.06-.17.09,0-.08-.07-.17,0,.11,0,.16,0-.11-.11-.15l-.06,0c0-.1-.18-.07-.17-.17s.08.11,0,.12c.06,0,.19,0,.22.11l-.07,0c-.08,0-.11-.13-.19-.13l0,.08s.07,0,.12.06.13.13.17.21a.09.09,0,0,1-.1,0c.08.14,0,.24.1.37-.06-.09-.14-.07-.22-.08s-.11-.13-.19-.17.11.13.16.14.07.09,0,.09-.12-.08-.17-.1.14.1.07.15a.07.07,0,0,0,0,0s0,.1.05.14c-.18-.05,0,.12-.19,0,0,.11.09,0,.14.08s0,.11-.08.12,0-.07,0-.07L54,27.46c-.14.07.21.21.06.26s-.07-.06-.14-.13-.06.1.06.09a.3.3,0,0,1-.1.07.35.35,0,0,0,.09.17s-.14,0-.2,0c0,.16-.18.19-.16.36h0c-.07.08.17,0,.12.13-.13-.09-.13,0-.22,0s0,.27-.16.33-.06-.05,0-.07-.1.15-.15.22h0c-.17.06-.1.24-.14.39,0,0-.06-.05-.07-.07a.15.15,0,0,0,0,.25c-.18,0,0,.08-.17.1s0,0,0,0-.08.07-.12.11.19.27.07.37c-.19-.09,0-.1-.15-.18,0,0,0,.08,0,.09s0,0-.1-.08.14.21.12.2.06,0,.07,0-.06.12,0,.21a.1.1,0,0,1,.15,0c-.08.06.09.18.13.28-.12,0-.13-.14-.27-.2s-.17,0-.2-.09,0,.16,0,.23l0,0c0,.09.08.27,0,.3l.06,0s0,.07,0,.13-.15,0-.19-.06c.18.14,0,.26.18.4a.48.48,0,0,1-.17-.1s.09,0,0-.11-.09.05-.13,0,.09.24.2.33a.28.28,0,0,1-.22-.06c0,.17.35.11.26.26s-.09-.14-.18-.06v0c-.3-.07.17.15.12.22s-.08-.11-.21-.11.19.24.11.29l-.06,0S52,32,52,32s0,0,0,0,.05.07-.09.09l.06.06c.07,0,.18,0,.12-.13.06.09.22,0,.33.12l0,0a.83.83,0,0,0,.54-.24c-.1-.17.14-.12.09-.27s0,0,0-.14c0,.05.13.07.16.06a.16.16,0,0,1,0-.1c.07,0,.26,0,.17-.12.08,0,0,0,.07.07s0-.08,0-.07l0,0c0-.08.1-.1.17-.17-.16-.1,0-.12-.06-.18s.09,0,.13,0l-.1-.11c-.08-.1.11,0,.08-.11h0c0-.07.13-.13.24-.12-.11-.55.5-.49.63-.94,0-.05-.09,0-.16-.08a.3.3,0,0,1,0-.1c-.07,0,0,0,0,0v.08l0,0s0,.07,0,.09-.14-.14-.07-.16a.05.05,0,0,1,0,0s0-.07,0-.08,0,0,.06,0l.13-.08c-.12-.13.06-.13.08-.14s0,.1.09.18h.1l-.09-.05.06,0h0s-.06,0,0,0,0,0,0,0l0-.06c.07.07,0,0,.14,0,.13-.11-.05-.25.16-.29-.06,0-.14-.13-.1-.16a.09.09,0,0,1,.09,0l0-.08c.2,0,.13-.09.23-.14l0,0c0-.07-.06-.12,0-.16l.09.05c.1,0-.17-.14-.07-.18a2.76,2.76,0,0,0-.27-.08c.11,0,.16,0,.08-.05s0,0,.05,0l0-.08s.14.06.19.11,0-.11.06-.15l0,0,0-.05c0-.09,0-.15,0-.18l.11.11c.08,0,0-.05-.06-.07s.07-.06.16-.05C55.5,27.72,55.89,27.81,55.74,27.62Zm3.09-6.91h0S58.78,20.65,58.83,20.71Zm-.33.51c0-.09,0,0,.08,0s0,.1-.12.14a.32.32,0,0,1,.09,0s-.06,0-.13,0S58.59,21.23,58.5,21.22Zm0-1.54,0,0h0Zm-.06.38h0Zm-.5.54c-.06,0-.06,0-.06.06A.16.16,0,0,0,58,20.6Zm-2.07,4s-.05-.09-.11-.08-.06,0,0,.08h0C55.83,24.59,55.87,24.6,55.88,24.59Zm-.57,2.11a.46.46,0,0,0-.14-.09h0a.05.05,0,0,1,0,0s0,0,0,0C55.27,26.72,55.28,26.77,55.31,26.7Z"/><path d="M54.93,25.69v0Z"/><path d="M55.1,26.62s0,0,.07,0A.06.06,0,0,0,55.1,26.62Z"/><path d="M59.65,19v0h.08a.43.43,0,0,0-.18-.2c.05.1,0,.11,0,.19Z"/><path d="M59.05,18.69l-.1,0,0,0Z"/><path d="M58.4,19.28l.08,0S58.33,19.23,58.4,19.28Z"/><path d="M59.46,19.52l0-.07c-.06,0-.08.05,0,.09S59.44,19.55,59.46,19.52Z"/><path d="M58.31,19.43c.09.08-.08,0,0,.1S58.41,19.49,58.31,19.43Z"/><path d="M59.32,19.93c.11,0,0-.05.08-.07S59.26,19.88,59.32,19.93Z"/><path d="M58.43,19.91c-.07-.05,0-.07,0-.09l.06.07c0-.08,0-.08,0-.13a.28.28,0,0,1-.22,0A.44.44,0,0,0,58.43,19.91Z"/><path d="M59.28,20s.13,0,.14,0-.13-.05-.15,0l-.07-.06C59.11,19.93,59.32,20,59.28,20Z"/><path d="M58.14,20h0c0-.08,0-.12-.08-.2A.25.25,0,0,0,58.14,20Z"/><path d="M59,20.09l.12.07s0,0-.06-.05,0,0,0,0S59,20,59,20.09Z"/><path d="M59.1,20.3l0,.08.16,0C59.27,20.32,59.2,20.37,59.1,20.3Z"/><path d="M59,20.32h0l.13.18A.87.87,0,0,0,59,20.32Z"/><path d="M57.65,20.9c.05,0,.14,0,.07,0S57.58,20.91,57.65,20.9Z"/><path d="M58.73,21.23s0,.12,0,.17S58.8,21.26,58.73,21.23Z"/><path d="M58.74,21.42v0S58.73,21.42,58.74,21.42Z"/><path d="M58.24,23a0,0,0,0,0,0,0Z"/><path d="M58.22,22.94s0-.08,0-.12a.28.28,0,0,0,0,.17S58.29,23,58.22,22.94Z"/><path d="M58,23.25s0-.05-.05-.07S58,23.24,58,23.25Z"/><path d="M55.32,24.64s0,0,0,.07S55.33,24.67,55.32,24.64Z"/><polygon points="55.36 24.76 55.32 24.75 55.25 24.74 55.36 24.76"/><path d="M55.13,24.92l0,0S55.11,24.92,55.13,24.92Z"/><path d="M55.1,24.88h0Z"/><path d="M55.14,24.88l0,0v0Z"/><path d="M55.08,25l.14,0c0-.07-.08,0-.18-.09Z"/><path d="M55,25.14c-.06,0,.09.17-.06.12,0,.15.24.1.23.25.13-.08-.23-.2-.1-.26C55,25.25,55.06,25.17,55,25.14Z"/><path d="M55.28,25.24c-.07,0-.1,0-.06.05S55.34,25.3,55.28,25.24Z"/><polygon points="54.98 25.39 54.91 25.4 54.95 25.43 54.98 25.39"/><path d="M54.88,25.51l-.06-.08S54.82,25.5,54.88,25.51Z"/><path d="M54.69,25.63s.12.15.12.06h0S54.68,25.68,54.69,25.63Z"/><path d="M54.75,26.21s0-.06,0-.08v.08Z"/><path d="M55.2,26.44c.12,0,0-.06.08-.08S55.22,26.38,55.2,26.44Z"/><path d="M54.56,26.19s0-.05,0-.06S54.5,26.15,54.56,26.19Z"/><path d="M54.54,26.3s-.06,0-.09,0-.09.06,0,.12a.72.72,0,0,1,.23.12c0-.09-.19-.24,0-.18l-.17-.16C54.4,26.19,54.58,26.27,54.54,26.3Z"/><path d="M55,26.37H54.9c.07,0,.06.06.08.09S55,26.39,55,26.37Z"/><polygon points="54.43 26.71 54.42 26.81 54.45 26.79 54.43 26.71"/><polygon points="54.36 26.74 54.32 26.72 54.36 26.82 54.36 26.74"/><polygon points="54.27 26.79 54.28 26.79 54.27 26.72 54.27 26.79"/><path d="M54.16,26.93l.07,0s.08,0,0-.07S54.21,27,54.16,26.93Z"/><path d="M55.4,28.27a.39.39,0,0,0-.11-.06l.09.08S55.37,28.26,55.4,28.27Z"/><path d="M55.19,28.27l.08.12c0-.05,0-.11,0-.18s0,.08,0,.1Z"/><path d="M54.5,29.34c-.08,0-.07,0-.1-.09s0,.12,0,.19.11.11.1.07v-.1l0,0C54.58,29.43,54.43,29.37,54.5,29.34Z"/><path d="M52.13,31.83a.21.21,0,0,0-.11,0C52,31.85,52.13,31.82,52.13,31.83Z"/><path d="M42.08,13.26s-.17,0-.15,0h.21Z"/><path d="M41.71,13.43a1.26,1.26,0,0,0,.46,0c-.2,0-.11,0-.35-.05,0,0,.07-.05.14-.05s0,0-.08,0-.16.07,0,.11Z"/><path d="M41.47,15.71l0,0S41.47,15.7,41.47,15.71Z"/><path d="M41.41,17.11h0S41.39,17.12,41.41,17.11Z"/><path d="M41.19,17.36s0,0,0,0S41.18,17.36,41.19,17.36Z"/><path d="M41.47,15.71l-.06,0C41.47,15.75,41.46,15.72,41.47,15.71Z"/><path d="M42.21,13.73l-.05,0s0,0,0,0Z"/><path d="M41.29,15.09H41.2Z"/><path d="M41.24,14.62a1.29,1.29,0,0,0,.24,0,.22.22,0,0,1-.12,0Z"/><path d="M41.52,13.86l0,0Z"/><path d="M41.26,15.43h0Z"/><path d="M43,28.67h0Z"/><path d="M42.16,29.24h0Z"/><path d="M41,17.81h0S41,17.8,41,17.81Z"/><path d="M41.25,21.83c.15-.06.19.06.36,0C41.55,21.83,41.34,21.76,41.25,21.83Z"/><path d="M42.19,13.74v0S42.2,13.74,42.19,13.74Z"/><path d="M41.61,21.82Z"/><path d="M41.12,18.81h0Z"/><path d="M41.34,18.05l0,0Z"/><path d="M41.38,19.19s0,0,0,0h0S41.35,19.21,41.38,19.19Z"/><path d="M41.39,19.6h0Z"/><path d="M42.87,27.43l-.16,0C42.84,27.45,42.88,27.5,42.87,27.43Z"/><path d="M42.11,13.73h0Z"/><path d="M42.73,19.17l0,.06S42.74,19.19,42.73,19.17Z"/><path d="M42.75,24.52h0S42.77,24.52,42.75,24.52Z"/><path d="M42.74,19.42l-.11,0h0Z"/><path d="M42.71,27.46Z"/><path d="M43.13,27.87c0-.06-.22,0-.35,0s.17,0,.28-.07c-.06,0-.27-.07-.26-.11a.33.33,0,0,1,.1,0c-.18,0,0-.14-.24-.19h.05l-.31,0s-.14-.05,0-.07.06,0,.11,0l-.07,0c.21,0,.08,0,.23,0-.07-.05-.24-.11-.19-.16.21,0,.08.1.26,0l-.08.07c.33-.06,0,0,.33,0,.06-.09-.11-.09-.05-.18-.12,0-.17,0-.29,0s.52-.11.24-.2-.4,0-.26-.09l.23,0c0-.09-.34,0-.18-.13s.08.06.1,0c.19-.07-.13,0-.13-.08l.21,0c0-.09-.19-.18-.23-.28a.41.41,0,0,0,.19,0c-.11-.12,0-.27.13-.4l-.18,0a.2.2,0,0,1,.12,0c.06,0-.12,0-.19,0s.1,0,.16,0c-.16-.08-.34-.23-.15-.33l.06,0c.07-.07-.37-.07-.21-.14h0c.08-.15-.09-.31.17-.43-.26,0,.11-.15-.25-.15.18-.09.24-.07.36-.19s-.23,0-.27-.08h.19l-.2,0,.23,0,0,0a.18.18,0,0,1-.14,0c-.09,0,.13-.14.22-.15l-.16-.13a.33.33,0,0,1,.15,0c-.19-.07.2,0,0-.08a.75.75,0,0,1-.15,0c.11,0,.11-.12.06-.17h.13c0-.11-.07-.22-.07-.33a.48.48,0,0,1-.31,0l.2,0c-.12,0-.07,0-.22,0,0,0,.22,0,.29,0l-.07,0h.16c-.12,0,.2-.1,0-.12h.06c0-.11-.07-.16-.08-.26-.17,0-.14,0-.28-.05.06-.07.19-.15.17-.24s-.15,0-.25,0c.16,0,.14-.09.25,0s0-.13-.16-.25a.44.44,0,0,1-.15,0s.07-.06.14-.06h0c-.24-.14.44-.34.11-.44h0l-.17-.11c0-.05.12,0,.21,0-.26-.12,0-.2-.15-.3.46-.1,0-.28.25-.4h-.1c-.11,0,.06,0,.08-.06s-.1,0-.16,0c-.13-.23.15-.49.24-.74,0-.09-.57,0-.31-.15l.2,0c-.25-.17,0-.36-.21-.53,0,0,.1,0,.1,0,.15,0,0-.13-.11-.13s.11,0,.17,0-.19-.08,0-.11l.06,0c-.07,0,0-.12-.15-.09.07-.07-.08-.12,0-.18-.2,0,.08-.11-.19-.11.28,0,.22-.13.09-.16.09,0,.09,0,.2,0s0-.09-.2-.08c.33-.1-.27-.16.15-.23a1.5,1.5,0,0,1-.32-.38c.27,0,0,.13.32.12-.12-.12-.36-.18-.3-.3s.12,0,.17,0c-.12-.11,0-.23-.13-.33l.07,0s0-.05-.08-.05l0,0c-.18,0-.38-.07-.48-.07.36,0,.09-.11.54-.06a.28.28,0,0,0-.16,0s.07,0,.16,0c-.07-.07-.2,0-.2-.11l.16,0c-.12,0-.24-.07-.19-.12s.08,0,.08,0-.32-.16-.21-.27c.27,0,.09,0,.32-.06l-.07-.05-.11,0s-.17-.09-.1-.13l.1,0-.05-.09-.08.05c-.12,0-.29,0-.23-.05s0-.05.13-.08h0c-.08,0-.16,0-.1-.09h.3c-.19,0-.06-.12-.26-.14h.19l-.15,0a.3.3,0,0,1,.16,0c0-.07-.28,0-.16-.05h.06c.06-.08-.11-.16,0-.24s.06.07.25,0c0-.11-.28-.22-.23-.33l0,0c-.32,0,.16-.09,0-.14,0,0,.19,0,.15,0s-.09-.15-.19-.26h.08c.07,0,0-.11.08-.16s-.07,0-.19,0c.47-.16-.27-.27.12-.42,0,0,.08,0,.08,0l-.08-.11a.88.88,0,0,0-.2,0c-.08,0-.15,0-.15-.06a.47.47,0,0,0,.31,0h-.14c.25-.07-.28,0-.12-.09h.08s-.14-.05-.12-.08.08,0,.21,0-.31-.07-.15-.12.05,0,.09.06.15-.05.18-.09h0l.09-.08-.06,0c-.42,0-.08-.11-.36-.18.27.07.15,0,.34,0a.49.49,0,0,1,.16-.05c-.15,0,.12-.06-.11-.1.06,0,0,0,.16,0-.05,0-.1,0-.18,0s.24-.17,0-.27c-.12-.08-.32-.09-.42-.17a.4.4,0,0,1,.22,0c.08-.05.06-.09,0-.13a.5.5,0,0,0,.17,0s-.22,0-.13-.07a2.24,2.24,0,0,1,.24,0,2.4,2.4,0,0,0-.23-.11.51.51,0,0,1,.23,0,.33.33,0,0,0-.26-.13l-.06,0H42c.13,0-.06.06-.12.06l0,0c-.35,0,.06.11,0,.17h-.26l.22,0a.42.42,0,0,1-.25,0c-.13.05.09,0,0,.08h0l.07,0c-.05,0-.18,0-.14,0-.14.08.2.12,0,.15h0c.09.11.19,0,.41.08l-.46.07h.18s0,0-.09,0c.13,0,.08,0,.2,0-.17.06.09.14-.21.16.14,0,.11,0,.21,0-.32,0,.06.06-.09.11s-.08-.05-.23,0c.28,0,0,.09,0,.13.22,0,.1.08.17.15s-.11.13-.19.19h0c.22,0,.18.07.23.12a.73.73,0,0,1-.25,0v0c.07,0,.11,0,.13.05h-.17c0,.06.21.11.1.19.15,0,.43-.07.54,0a.8.8,0,0,1-.27,0s.07,0,0,0l-.14,0c-.07,0,.11,0,.1,0s-.08,0-.18,0,.05,0,0,0a.27.27,0,0,1-.18.08.42.42,0,0,1,.18,0c0,.06-.15,0-.21.06.09,0,0,.05.18.05l-.13,0c.08,0,0,.14.22.1h0c.18.1-.1.21,0,.31h-.06c.07.06.05.13.18.17a.34.34,0,0,1-.18,0c.05,0,.11,0,0,.12s-.1,0-.08,0-.15.07,0,.13c-.16,0-.2.05-.15.07l.11,0a.1.1,0,0,1,0,.09h-.2c-.25.12.42.2,0,.3.15,0,.1-.07.27,0,0,.05-.32.12-.32.14s.3.06.23.14a.53.53,0,0,1,.33,0c0,.06-.3.08-.36.05s0,0,0,0a.12.12,0,0,0-.13,0h.07c-.07,0-.06.1-.18.09a.11.11,0,0,0,.15,0c-.1.07,0,.11-.07.18h.13c-.09.11.14,0,.17.11s-.26,0-.17.07a.43.43,0,0,1-.25,0c.14.06-.09.12-.11.16l-.06,0s0,0,0,.05l.15,0s0,0-.09,0a1.66,1.66,0,0,1,.38,0c-.08,0,.08.08-.12.1.07-.09-.19,0-.22-.06s0,0,0,0,0,0,0,0c-.17.08.21,0,.21.11S41,18,41,18s.18,0,.27,0c-.09.05.06.05.05.08l0,0c.11,0,.1,0,.13.07s-.06,0-.09,0c.19,0-.2.1-.07.16-.07,0-.2,0-.25,0,.14.06-.15.08,0,.14a.36.36,0,0,1,.25,0l-.1-.11.21.07s-.09-.07-.07-.1.09,0,.21,0c-.22.06.13.09,0,.15h-.36c-.16.09.19.14.1.25l.06,0c.15,0,0,.07.09.1a.65.65,0,0,0-.24,0c.09,0,0,.08.23.08l-.15.05c-.07.09.34.09.3.17s-.21,0-.31,0,0,.05.06.05.17.07.06.1c0,0,.18,0,.17,0H41.5c.06,0,.08,0,.21,0-.37.1,0,.24-.28.32a.55.55,0,0,1,.09.19s-.06,0-.05,0,.35,0,.23.12-.11,0-.18,0c-.4,0,.06.1-.17.16h0c-.13,0,.16.1.13.17h-.06a.5.5,0,0,1,.33.2.48.48,0,0,0-.24,0s.26,0,.3,0a1.22,1.22,0,0,1-.32.08l0-.06c-.21,0,0,.08,0,.11h-.1c0,.09.28.08.26.17h.07c.24.05-.13.05.05.1l-.24,0a1,1,0,0,1,.28.17,1,1,0,0,1-.38-.14s0,.12.14.13-.08,0,0,0,.28.09.28.16c-.47,0-.11.18-.47.24.17.11-.07.24,0,.38.37-.06,0,0,.39,0,0,0,0,0,0,.05l-.22.1c-.1,0-.08,0-.16,0s-.16,0-.26.09c.14,0,.19,0,.14.06l.18-.06c.2.09-.32.09-.12.19l-.11,0c.07.05,0,.19.3.23,0,0-.14,0-.17,0,0,.13.33.27.15.37h-.1s.18,0,.09.06h-.1s.16.05.11.08l-.1,0c-.12.13.25.18.32.28a.5.5,0,0,0-.4.15h0c0,.14.23.23.34.36-.29.09-.12.28-.28.41a.47.47,0,0,1,.24,0s.19.08-.06.08h0c-.24,0-.18.09-.18.14h.32c-.46.14.18.33-.23.41.08,0,.08.07.16.1h-.17a.25.25,0,0,0,0,.24l-.12,0c0,.06.5.06.51.11l-.26,0c0,.1-.21.21,0,.31,0,0-.11,0-.12,0s-.17.2.18.17c-.23,0,0,.1.09.16h-.17c.22,0,.28,0,.34.11s-.14,0-.09,0,.16,0,.07.1l-.11,0c0,.06,0,.05.18.08s0,.1-.2.11c.1,0,.22,0,.18.07h-.11c-.12.09.2.12,0,.19l-.11,0c0-.08,0-.13,0-.13-.16,0-.19.07-.41,0,.12,0,.38.11.31.17h-.07s0,0,0,0,0,0,0,.05-.07.06-.07.09c.17,0,.14,0,.28,0,0,0,0,0,0,0h0s0,0,0-.07.16,0,.07.07l.28,0c-.24,0-.37.12-.52.14.1.08.07.2.4.25,0,0-.09,0-.14,0s0,0-.08,0,0,.15.26.15c-.1.07-.21,0-.17.06h-.07c-.35.18.59.26.13.46l.08,0c-.2.22.21.44-.11.66-.06.06.08.06.19.1h-.18l.21.06c.16.08-.44.17-.15.27l.13,0c0,.05.08.13-.07.13,0,0,.13,0,.07,0h-.1L42,29c-.07.08-.38,0-.4.12a.7.7,0,0,0,.35.09s.06-.05.16-.05l0,0a2,2,0,0,0,.77-.09l-.17-.06.13,0v.05c.13,0,0-.05-.06-.07L43,29,42.7,29c.12,0,.23,0,.29,0-.13,0-.25,0-.34,0,.13,0,.24,0,.13-.06a.33.33,0,0,1,.15,0c-.09,0,0-.09-.19-.1.15,0-.05-.11.22-.11a.62.62,0,0,1-.23-.08c.33,0,0-.12.37-.11-.3,0-.14-.15-.3-.21h.05s.11-.05.17-.08a1.47,1.47,0,0,1-.45-.09c.23-.06.29,0,.51,0-.2,0-.2-.08-.36-.06A1.1,1.1,0,0,1,43,28c-.3,0-.06,0-.24-.06.14-.06.28,0,.19-.08A.28.28,0,0,1,43.13,27.87Zm-.56-1.42h0v0A0,0,0,0,0,42.57,26.45Zm0-.12v.05c-.06,0-.12,0-.12,0S42.51,26.35,42.56,26.33Zm-1.18.29s0,0,0,0l0,0h-.06Z"/><path d="M41.61,26.65h0l0,0h0Z"/><path d="M41.5,15.69h0Z"/><polygon points="42.84 24.65 42.79 24.65 42.83 24.66 42.84 24.65"/><path d="M42.07,15h0Z"/><path d="M42.1,14.71l.06,0S42.1,14.7,42.1,14.71Z"/><path d="M42.17,14.49h0Z"/><path d="M42.49,18h0S42.52,18,42.49,18Z"/><path d="M42.06,17l.08,0S42.15,17,42.06,17Z"/><polygon points="42.74 19.16 42.73 19.16 42.73 19.17 42.74 19.16"/><path d="M42.14,17.05s0,0,0-.05S42.11,17,42.14,17.05Z"/><path d="M42.22,13.53h0Z"/><path d="M42.2,13.52h0Z"/><path d="M42.13,13.48l0,0S42.18,13.49,42.13,13.48Z"/><path d="M42.15,13.83h0Z"/><path d="M42.17,13.91s.13-.05.09-.08h0C42.31,13.84,42.07,13.9,42.17,13.91Z"/><path d="M41.41,14.31l.05-.08c-.07,0-.15,0-.17,0C41.09,14.34,41.44,14.21,41.41,14.31Z"/><path d="M41.32,14.54s-.09,0-.13,0S41.27,14.58,41.32,14.54Z"/><path d="M41.38,16.21h-.16S41.28,16.21,41.38,16.21Z"/><polygon points="42.2 16.51 42.29 16.47 42.15 16.46 42.2 16.51"/><polygon points="41.09 16.73 41.07 16.72 41.13 16.77 41.09 16.73"/><path d="M41.24,19.53h.19S41.18,19.5,41.24,19.53Z"/><path d="M41.47,20.74c-.09,0-.15.05-.06.07S41.5,20.75,41.47,20.74Z"/><polygon points="41.28 24.38 41.22 24.36 41.27 24.4 41.28 24.38"/><path class="cls-1" d="M42.2,53a8,8,0,1,1,8-8A8,8,0,0,1,42.2,53Zm0-13.47a5.51,5.51,0,1,0,5.51,5.51A5.51,5.51,0,0,0,42.2,39.55Z"/></svg>