<svg id="Calque_1" data-name="Calque 1" xmlns="http://www.w3.org/2000/svg" viewBox="0 0 69.25 65.8"><defs><style>.cls-1{fill:#e6332a;}</style></defs><path class="cls-1" d="M53.34,46.84H26.25a2.15,2.15,0,0,1-2.07-1.47L16.86,21.21c-.4-1.31-.94-2.61.49-2.61H55.76a2.09,2.09,0,0,1,2.14,2.24L55.48,45A2.11,2.11,0,0,1,53.34,46.84Z"/><path class="cls-1" d="M53.34,47.82H26.25a3.12,3.12,0,0,1-3-2.17l-7.43-24.5c-.32-1-.64-2-.05-2.84a1.84,1.84,0,0,1,1.58-.69H55.76a3.16,3.16,0,0,1,2.36,1,3,3,0,0,1,.76,2.27L56.45,45.09A3.07,3.07,0,0,1,53.34,47.82ZM17.42,19.58a7.28,7.28,0,0,0,.27,1l.11.35,7.32,24.16a1.16,1.16,0,0,0,1.13.78H53.34a1.13,1.13,0,0,0,1.17-1l2.42-24.16a1,1,0,0,0-.26-.77,1.2,1.2,0,0,0-.91-.39Z"/><circle class="cls-1" cx="29.65" cy="53.54" r="4.12"/><circle class="cls-1" cx="50.04" cy="53.54" r="4.12"/><path class="cls-1" d="M16.76,21.82a1,1,0,0,1-.94-.69L13.39,13l-6.74.59a1,1,0,0,1-.17-1.95L14,11a1,1,0,0,1,1,.69l2.66,8.9A1,1,0,0,1,17,21.78,1,1,0,0,1,16.76,21.82Z"/></svg>