<svg id="Calque_1" data-name="Calque 1" xmlns="http://www.w3.org/2000/svg" viewBox="0 0 66.52 70.87"><defs><style>.cls-1{fill:#e6332a;}.cls-2{fill:#1d1d1b;}</style></defs><path class="cls-1" d="M27.94,17.84c-.14-.06,0,.15-.12,0C27.88,17.79,27.92,17.78,27.94,17.84Z"/><path class="cls-1" d="M22.48,2.32c.54-.3,1.07.23,1.64.15.06,0-.08.19.07.18a2.15,2.15,0,0,1,1.73.82l-.06,0c.09.09.3,0,.41,0s-.07,0-.06.09.23,0,.31,0,0,.15,0,.22l.13-.08c.32-.17.4.26.72.26,0,0-.07,0-.06.06a3.78,3.78,0,0,1,1.34.65.21.21,0,0,0-.12.14c.1-.1.25,0,.37,0,0,.15.26,0,.34.18l0,0c.18,0,.07.18.25.11l0,.13c.17-.12.06.19.19.18l0,0c.1,0,.07.13.15.16v0c.18.09.18.25.29.13,0,.14-.18-.08-.23.12a3,3,0,0,1,.79.58c.22.23.43.48.64.73,0,.09,0,.14,0,.19s.17.16.27.16,0,.08,0,.11.22,0,.25.13a.12.12,0,0,0-.15,0c.17,0,.24.13.34.22s-.06,0-.1,0c.19,0,.12.23.26.28l-.1,0c0,.23.19-.06.23.12,0,0-.06,0-.1,0,.23,0,.33.28.46.38l0,0c.11.13.17.31.34.43,0,.08-.2.1-.07.23.15-.1.24.22.35,0,.06.15.11.41.21.47-.09,0-.15.18-.23.07l0,.14c-.07,0,0-.1-.09,0s.18.19.19.26.38,0,.49.22c-.1,0-.15.14-.21.09L34,11s-.12.08,0,.14.09,0,.14,0,.17.22,0,.32-.09-.07-.11,0,.12.08.17.19h0c0,.08.18.18.23.06s-.09.06-.08,0a.34.34,0,0,1,.26.23s-.08,0-.13,0a1.31,1.31,0,0,1,.41.4c.08,0-.17,0-.14-.05,0,.26.33.39.24.64,0,0,.11-.06.09-.05s-.09.15,0,.2.05.08.1.14,0,0-.06,0a1.16,1.16,0,0,1,.34.71s.22.08.24.14h-.12c0,.07.08.18,0,.21.17.07-.27-.39-.12-.27-.07.07.25.15.1.17,0,.1.2.17.13.3,0,0-.17,0-.14.05s.07,0,.13.14l.07.06c.11,0,0,.15.12.05-.08,0,.12.21-.06.25l-.14,0c0,.06.17.07.24.1s0,0,0,0c.21-.05,0,.17.2.2,0,.16.09.36,0,.46.09.1.19.18.18.31s0-.05-.09-.05,0,.1.07.16-.08.19-.14.3c.1.09.2,0,.27,0-.18.14.22.27.06.44,0,0-.14-.14-.17,0-.19.14.2.16.14.34l.17-.08c-.09.1.16.22,0,.24.08,0,0,.2.14.15-.1.29.2.63-.09.85,0,0,0,.13.11.1s-.08-.08,0-.11.06,0,.08,0,0,.15-.18.1c-.08.2.32.14.29.39-.07,0-.1,0-.08.09l.15.11c0,.15-.15.11-.27.13,0,.08,0,.18.14.2l-.14.12c.1-.09.08.06.12.09l0,0c-.05,0,0,.11,0,.15s.09-.12.11-.18.05.1.13.15c-.13,0-.07.14-.07.21s.12.07.12.09,0,.12-.09.08,0-.07,0-.1-.15.06,0,.15.23,0,.18.1a.69.69,0,0,0-.13-.05l0,.14h.11l0,0c.12,0,.06.2.2.22s-.05.15-.06.22v0a.18.18,0,0,0,.07.25h0a.26.26,0,0,0,.09.2c-.07.12-.41.07-.26.18s.21.16.28.11c-.06.21.13.42,0,.62,0,0,.07,0,.1.06,0,.33.2,1,0,1.28-.05-.16-.11-.08-.18-.12.11.17-.1,0,.08.2s.16.11.19,0c.08.32.11.78,0,.83s.08.06.11.16c-.17-.2-.18,0-.11.19l.11.16-.1,0c0,.1.22.37.13.39a.33.33,0,0,0-.11-.12c.1.27.26.77.19.8l-.15-.13c0,.1.12.41.16.36s-.11-.07-.16-.12l-.18-.18a2.63,2.63,0,0,1-.29-.37c-.12.28-.86-.26-1.37-.68V24.8c-.14-.18-.07.11-.17,0s-.09-.26,0-.28c-.16-.22-.24,0-.38-.09s.12,0,.06.12-.25-.28-.33-.17c0-.09,0-.16.1-.2l-.15,0c0-.24.42-.06.35-.37l-.09,0c0-.19.25,0,.1-.2-.09,0-.28.14-.22.26-.2-.1-.32.19-.48,0,0-.1.15.09.19,0s-.19-.07-.24-.16c0,.1-.11.17-.17.16s.13-.07,0-.17-.21,0-.16.14c-.15.12-.08-.13-.23-.06,0-.14.3-.16.21-.31-.05.12-.26,0-.3.23,0-.07,0-.15.11-.19s-.31.06-.18-.16l-.1.09c0-.05,0-.1,0-.19s-.3,0-.18-.16c0,0-.16-.11-.19,0s.16,0,.1.18c0-.17-.14-.08-.22-.08l0-.06c-.05,0-.11-.07-.18,0a.08.08,0,0,0,.06-.1l-.11.07c-.15,0,.1-.18,0-.24h.14s0-.11-.08-.13l-.27.19c-.1,0,0-.12-.09-.08l.16,0a.2.2,0,0,0,0-.25c-.07,0-.25.05-.2.16a.1.1,0,0,1,0-.17c-.12,0,0,.1-.18.09s0-.25,0-.38l.2-.07-.06-.05c.16,0,0-.11.15-.2,0-.05-.1-.05-.17-.05,0,.29-.33.16-.42.36-.21-.08.21-.5-.17-.36,0,.07-.19.14,0,.17-.09-.1-.21.12-.27,0,.14,0,0-.25.24-.26-.05.05,0,.1.07.1s.14-.17,0-.25-.17-.09-.23,0,.11.06,0,.13-.06-.23-.25-.09c.1,0,0,.16,0,.23l-.13,0,.07-.05c-.12-.17-.14.08-.27-.05l0-.18c.12-.09.18.21.29,0-.09-.08-.19,0-.25-.13l.1,0s.11-.3-.13-.26-.07.05-.12.12c-.17-.1-.27-.06-.38-.13.13-.12-.16-.14,0-.2a.27.27,0,0,0,.37.19c.06-.2.11.11.26,0-.12-.1,0-.25.06-.37s-.1,0-.13,0,0,.12-.11.22a.45.45,0,0,0-.44-.14c0-.08.08-.17.14-.14a1.5,1.5,0,0,1-.48-.38c0,.23-.21-.09-.23.09s0,.26-.06.3,0-.07.06-.12,0-.21-.17-.13c.19.06.17-.17.29-.27-.16,0,.07-.08,0-.16a1.49,1.49,0,0,1-.47-.13c-.07-.22-.38-.28-.52-.38s.13-.22.07-.3,0,.2-.13,0l0,0c-.06,0-.17-.28-.36-.11l.16-.12s-.06,0-.1,0,0-.12.11-.12c0-.16-.19-.11-.28-.17v.13c-.2-.05-.24-.21-.41-.29l.07-.08-.12,0c.08-.07,0-.18-.06-.14l.39-.05c0,.1-.15.06-.17.17s.13.18.21.11-.06,0-.12,0,.15-.07.25-.12-.05-.08-.08-.05a.34.34,0,0,1,.25.08c-.1,0,0,.1-.07.12s.19-.07.28,0,.27.08.37.21a.67.67,0,0,1-.37.09c0,.11.09.06.13.18.1-.05.22-.16.36-.13l-.06.09c.13,0,.22-.09.32,0a4.35,4.35,0,0,0,.54.48l-.05.09c.21-.11.34.16.51.17.15.23.5.25.5.47a4.67,4.67,0,0,1,1.1.68l-.15.07c.13,0,0,.1.07.13,0-.15.18-.05.28-.09.09.21.38.27.58.3l0,.08c.26,0,.33.23.5.39,0,.05,0,.15,0,.18A.87.87,0,0,1,34,22a1.28,1.28,0,0,1,.32.37c.51.1,1,.63,1.07.54V23c.1-.08.15-.05.24,0s.18.18.17.09l.19.39c.05.08.07.08.05,0a2.36,2.36,0,0,0-.18-.37c.06.07-.12-.28.06,0,0,0-.1-.22-.13-.28s0,0,0-.16h0c0,.05.13.13.14.11s.05-.11-.2-.22c.07,0,0-.06,0-.1s0,0,0-.06a.46.46,0,0,1,0-.21c-.06,0-.08,0-.12-.06,0-.24.09-.5,0-.68s.12,0,.12-.05-.09,0-.13-.06c-.13-.37,0-.79,0-1.14a10.21,10.21,0,0,1-.38-1.84h0c-.21-.16.11-.5-.19-.6,0-.06,0-.19.09-.17-.16-.13,0-.46-.21-.64,0,0,0,0,0,0,0-.24-.15-.41-.12-.67,0,0,.06.06.1.06s-.25-.17,0-.28c0-.05-.12,0-.1,0a5.34,5.34,0,0,0-.55-1.57c0-.42.36-.15.09-.39,0,0-.1,0-.05,0-.11-.09.18-.26,0-.3s-.09,0-.18,0c0-.26.11-.35-.06-.49l.07,0c-.28-.13-.26-.42-.56-.51a9.71,9.71,0,0,0-.86-1.59,15.24,15.24,0,0,0-1-1.49,13,13,0,0,0-1-1.43C30.38,8,30,7.52,29.66,7.05c-.06-.32-.08-.34-.36-.49,0,0,.05,0,.05,0-.12.11-.17-.13-.29,0a5.56,5.56,0,0,0-1-.81c.06,0,.17-.06.1-.1L28,5.6l0,0c-.06,0-.16,0-.14.09a5.58,5.58,0,0,1-.69-.47c-.23-.15-.46-.31-.68-.48a6.18,6.18,0,0,0-1.42-.84,2.25,2.25,0,0,0-.87-.3A3.61,3.61,0,0,0,22,2.77.65.65,0,0,1,22.48,2.32Z"/><path class="cls-1" d="M28.09,17.94c0,.08,0,.18-.1.21C28,18.09,28,18,28.09,17.94Z"/><path class="cls-1" d="M29.82,20.27s0,.05,0,.07-.1,0-.09,0S29.79,20.29,29.82,20.27Z"/><path class="cls-1" d="M30.36,20.74c-.05.05-.21,0-.29,0Z"/><path class="cls-1" d="M30.71,21.38c0,.08,0,.1-.08.05S30.68,21.39,30.71,21.38Z"/><path class="cls-1" d="M30.85,21.27a.18.18,0,0,1,0,.14C30.92,21.35,30.76,21.36,30.85,21.27Z"/><path class="cls-1" d="M31.87,22.31s.13,0,.11.09S31.79,22.38,31.87,22.31Z"/><path class="cls-1" d="M32.48,22.62s0,0,0,0-.05.07-.08.06Z"/><polygon class="cls-1" points="36.33 17.11 36.38 17.17 36.31 17.18 36.33 17.11"/><path class="cls-1" d="M34.68,11.92c-.07-.05,0-.07,0-.09S34.64,11.84,34.68,11.92Z"/><polygon class="cls-1" points="33.01 9.49 33.02 9.51 32.89 9.58 33.01 9.49"/><path class="cls-1" d="M40.28,13.78c-.08,0,0,0,0,0Z"/><path class="cls-1" d="M40.26,13.81h0Z"/><path class="cls-1" d="M40.15,14c0-.06.05-.09,0-.14S40,13.94,40.15,14Z"/><polygon class="cls-1" points="40.23 13.93 40.18 13.91 40.26 13.97 40.23 13.93"/><polygon class="cls-1" points="40.29 13.91 40.27 13.92 40.31 13.99 40.29 13.91"/><path class="cls-1" d="M40.08,14.11v0c.09,0,.1,0,.16,0s-.16-.06-.12-.12,0,.11-.13.07S40,14.07,40.08,14.11Z"/><path class="cls-1" d="M40.09,16.79h0S40.1,16.8,40.09,16.79Z"/><path class="cls-1" d="M40,17.51l0,0h0Z"/><path class="cls-1" d="M40,16.31l0,0S40,16.29,40,16.31Z"/><path class="cls-1" d="M38.52,20.64h0l0,0Z"/><path class="cls-1" d="M40,18.33a0,0,0,0,0,0,0S40,18.34,40,18.33Z"/><path class="cls-1" d="M40,16.06h0Z"/><path class="cls-1" d="M40.21,17.32s0,0,0,0Z"/><path class="cls-1" d="M39.8,14.73s0,0,0,0S39.83,14.75,39.8,14.73Z"/><path class="cls-1" d="M39.75,15Z"/><path class="cls-1" d="M39.71,15.13h0Z"/><path class="cls-1" d="M39.8,14.76s-.19,0,0,0h0s0,0,0,.07h0l0,0S39.83,14.79,39.8,14.76Z"/><path class="cls-1" d="M40.06,16.78s0,0,0,0Z"/><path class="cls-1" d="M40,16.54v0S40,16.55,40,16.54Z"/><path class="cls-1" d="M40.23,15.74h0Z"/><path class="cls-1" d="M40,16.58v0S40,16.57,40,16.58Z"/><path class="cls-1" d="M40.08,16Z"/><path class="cls-1" d="M37.23,23.85s0,0,.05,0,0,.07-.1,0,0,0,0,.05h.11S37.27,23.87,37.23,23.85Z"/><path class="cls-1" d="M38.27,20.8h0s-.06,0-.09,0,.18,0,.24.08,0,0,0,0A.35.35,0,0,1,38.27,20.8Z"/><path class="cls-1" d="M38.44,20.86h0v0Z"/><path class="cls-1" d="M37.41,23.32v0S37.4,23.31,37.41,23.32Z"/><path class="cls-1" d="M38.76,18l0,0A0,0,0,0,0,38.76,18Z"/><path class="cls-1" d="M38.46,20.44l0,0h0Z"/><path class="cls-1" d="M39.1,21.94c-.11,0,0,0-.06,0l.05,0S39.1,22,39.1,21.94Z"/><polygon class="cls-1" points="37.2 23.86 37.21 23.86 37.2 23.86 37.2 23.86"/><path class="cls-1" d="M39,22.7h0Z"/><path class="cls-1" d="M38.53,20.72l0-.1,0,0C38.58,20.67,38.46,20.69,38.53,20.72Z"/><path class="cls-1" d="M39.27,21.54h.07c-.13-.13.11-.19-.08-.32.27-.06-.19-.12.05-.18h0a2.52,2.52,0,0,0,.3-1h0c.21-.52.23-1.06.39-1.58,0-.06-.14-.05-.19-.11s0-.06.08,0,.08,0,.1,0,.09-.12,0-.19l-.09,0s0-.05,0-.07.13,0,.15,0c-.17-.15.1-.07,0-.18a1,1,0,0,1-.35-.31l.05,0s.12,0,.09.09,0-.11,0-.16-.09,0-.1,0,.11,0,.12,0l0,0c.06,0,0,0,0-.07s.1-.05.17,0,0-.08-.07-.14-.08,0-.14-.05v.07c.07-.07,0,0,.12.06-.06,0-.17-.11-.17,0,0-.1,0-.1-.06-.21,0,0-.07,0-.11,0s0,0,.12,0,.07,0,0-.09S40,17,40,17s-.13.14.12.19c0,0,.09.09.07.13s.14-.07.09-.13l-.14,0s-.09-.07-.07-.09.1,0,.1,0h0c0-.06-.09-.09-.1-.16a1.38,1.38,0,0,1-.17.08c-.09,0,0,0,0-.07h0l0,0c.06-.06.15,0,.21,0s0-.06,0-.08h0s0,0,0,0h0a.08.08,0,0,0-.06-.1s0,0,0-.05-.1-.09,0-.09h0a.09.09,0,0,1,.11,0l0-.07.09,0c0-.06-.07-.07-.16-.14.07,0,0-.12,0-.16v0h0s0,0,0-.08,0,0,0,0v0s0,0,0,0h0c.11,0,0-.08,0-.11v0s.18,0,.1-.05,0,0,0,0h0l0,0,0-.06s0,0,0,0h0s0,0,0,0,0-.13.09-.19c-.06,0-.1,0-.14,0s-.08-.08-.11-.11.21-.11.34-.06-.09,0-.13,0h0a.21.21,0,0,1-.13,0c-.07,0-.08-.08,0-.09l.1,0c0-.07-.18-.09-.27-.15s.14,0,.23,0V15.1l.07,0s-.08-.07,0-.11.09,0,.18,0-.12-.06,0,0c-.08,0,0,0-.08,0s0-.07-.06-.11.06,0,.11,0-.07-.05,0-.06,0-.05,0-.07a.15.15,0,0,1-.15,0,.05.05,0,0,1,0-.08l0,0c-.11-.06.09,0,.07-.1l.09.08a1.71,1.71,0,0,1-.11-.14l.13,0c-.06,0,0,0-.06-.06s.08.06.13.08-.11-.08,0-.12l.07,0s0-.07,0-.06,0,0,0,0-.08-.13-.24-.16l0,0c0-.05-.12-.11-.06-.13s.11,0,.14.07-.16-.08-.14-.12-.08,0-.12,0-.06.08,0,.09h0l.07.05s-.08,0-.11,0,.16,0,.14.1h0s0,.09.13.12c-.11,0,0,.08,0,.09s0-.1-.07-.16-.1-.05-.15-.07l.07.12s-.15,0-.07,0h0s.12,0,.08.08l-.07,0s0,0,.06.06-.09,0-.12,0,0,.06,0,.09.15.17.27.12l.07.1c-.07,0-.16-.09-.28-.1l0-.06c-.16,0,.08.15-.11.15,0,0,0,0-.09.07l.15,0a.39.39,0,0,1-.15,0s0,0,0,0l0,0c-.09,0-.06,0,0,0s0,0,0,.06l-.05,0s0,0,.05,0,0,0,0,0a.45.45,0,0,0,.16,0c-.07.06-.06.12-.19.16a.31.31,0,0,1-.09,0s0,.08.1.09v0h-.09l0,0c.11,0,0,.08.09.11a.09.09,0,0,0,0-.05c.07,0,.15.08.09.09s-.13,0-.14-.06.09,0,0,.09l-.07,0c-.08,0,0-.07-.06-.07v0c-.06,0,0-.12-.08-.2l-.07.1c.07.16-.09.31.07.47h0l.05,0c-.08,0-.11.06-.18.09a.17.17,0,0,1,.12,0c.08,0,.12,0,.08.07s-.06,0-.11,0,.07,0,.07,0-.06.05-.11,0,0,0,0,0-.06,0-.1,0v0c-.06,0-.07,0-.11,0s.15.14.18.21l-.13,0s.12.13.12.19,0,0,0-.05a1.08,1.08,0,0,1-.28.4l.12.07-.1,0c-.12.14-.06.28-.06.45s-.1,0-.14,0,.1.17.11.27-.15-.07-.16,0,.09,0,.06.06l0,0c-.07,0,0,.05-.06.1s.06.2.19.31c0,.07-.14-.05-.18,0s0,0-.05-.07,0,.08-.06.08a.11.11,0,0,0,0,.11s0,0,.07,0,0,.12-.14.09a5.06,5.06,0,0,1-.15.62c.06.05,0,0,.07,0s-.05,0,0,.09l-.07,0c0,.06.09.15.13.22s-.07,0-.1,0-.34,0-.28,0l.32,0s0,0,0,0l-.15,0c-.08,0,0-.05,0-.07s-.1.06-.22,0,.07,0,.11.05l0,0,.06,0c0,.05.12.09,0,.12l.11.08c-.1,0,0,0-.05.06l-.07,0s0,0-.07.06,0,0,0-.05l0,0c.06,0,.1.05.14,0s.19.1.16.19-.08-.06-.18-.07.23.18.2.23,0,.08,0,.15-.09,0-.15,0l-.07,0s0,0-.06,0,.06.11.09.17h.08c0,.05.06.11,0,.15s.08.07.16.14a.59.59,0,0,1-.25,0s0,0,.06-.06-.2-.19-.14-.26c-.19-.07,0,.06-.07.08h0a.22.22,0,0,0-.13-.12c0,.05.18.08.08.12s-.11.05-.13.08.21.08.17.14l-.1,0c0,.07.15.07.13.14s.09.05.11,0a.08.08,0,0,1,0,.13l.07,0c.08,0-.06-.09.06-.1l-.11-.06a.19.19,0,0,1,.19,0s0,0,0,0c.18,0-.07,0,.07.08v0c.11,0,.08.09.06.12s-.09.07-.17.05l0-.06c-.07,0,0,.08,0,.11h0s0,0,0,0h0s0,.08,0,.1h0s.06-.05.11,0-.11,0-.18,0,0-.06,0-.1,0,.06-.12.11,0-.08-.08-.12.05.08,0,.13,0-.07-.12-.09l0,0c0-.09-.15,0-.17-.1s.09.07,0,.09c.06,0,.16,0,.2,0l-.05,0c-.06,0-.11-.07-.17-.06l0,.06S38,21,38,21s.12.08.17.12,0,.05-.07.05c.1.09.07.17.16.25-.06-.05-.13,0-.19,0s-.11-.08-.19-.09a.22.22,0,0,0,.16.07c-.06,0,.07.05,0,.08s-.11,0-.16,0,.14,0,.1.09h0s0,.07.07.09c-.16,0,0,.1-.15.06,0,.08.08,0,.13,0s0,.09,0,.1,0,0,0,0h-.1c-.09.07.21.11.1.18s-.07,0-.13-.07,0,.08.06.06l-.06.07a.38.38,0,0,0,.11.11s-.1.06-.15.07-.1.18-.05.3h0c0,.08.14,0,.12.08s-.09,0-.17,0,.05.2,0,.28-.06,0-.06,0,0,.12-.06.19h0c-.12.08,0,.21,0,.32l-.07,0a.11.11,0,0,0,0,.19c-.14,0,0,.06-.11.11s0,0,0,0,0,.07-.07.1.21.18.13.27,0-.07-.15-.11,0,.06,0,.08,0,0-.09,0,.15.13.13.12,0,0,0,0,0,.1,0,.17,0-.07.12,0,.1.12.16.19c-.09.05-.13-.08-.25-.1s-.14,0-.18,0,0,.12.06.17h0c0,.08.12.19,0,.23l0,0a.12.12,0,0,0,.06.09c-.06,0-.12,0-.16,0,.17.07.07.19.23.26a.29.29,0,0,1-.16,0s.07-.05,0-.09,0,.06-.09,0,.12.17.22.21a.22.22,0,0,1-.18,0c0,.13.29,0,.26.14s-.11-.08-.15,0l0,0c-.24,0,.16.08.14.15s-.08-.07-.18,0,.2.14.14.19l0,0s0,.11,0,.15,0,0,0,0,.06.05,0,.08l0,0c.05,0,.13-.07.07-.12s.17,0,.28,0l0,0a.65.65,0,0,0,.37-.28c-.11-.11.08-.12,0-.23s0,0,0-.1.11,0,.14,0,0,0,0-.06.19-.07.1-.12c.06,0,0,0,.07,0s0-.05,0-.06h0c0-.06.06-.1.09-.16-.14,0,0-.08-.08-.13s.06,0,.09,0l-.1-.06c-.08-.06.08,0,0-.1h0c0-.05.08-.12.16-.13-.2-.4.28-.47.29-.83,0,0-.08,0-.14,0a.21.21,0,0,1,0-.08s0,0,0,0l0,.06h0s0,0,0,.07-.13-.07-.08-.11l0,0s0-.05,0-.06,0,0,0,0l.09-.09c-.12-.07,0-.1,0-.12s0,.07.1.12l.08,0-.07,0,0,0h0s-.05,0,0,0,0,0,0,0l0-.05c.07,0,0,0,.12,0s-.09-.17.06-.24c0,0-.14-.07-.11-.1a.08.08,0,0,1,.08,0l0-.05c.16,0,.08-.09.14-.16l0,0s-.07-.08,0-.12l.08,0c.07,0-.16-.08-.09-.13a1.77,1.77,0,0,0-.23,0c.1,0,.12-.05.06-.06s0,0,0,0l-.05-.05s.12,0,.17,0S39,22,39,22l0,0L39,22a.08.08,0,0,1,0-.14l.11.06c.07,0,0,0,0,0s0-.06.1-.07C39.09,21.66,39.42,21.65,39.27,21.54Zm.9-5.79h0S40.12,15.72,40.17,15.75ZM40,16.2c0-.07,0,0,0,0s0,.09-.07.13h.08s0,0-.1,0S40.1,16.19,40,16.2ZM39.7,15h0Zm0,.3h0Zm-.27.5s0,0,0,.06A.15.15,0,0,0,39.47,15.84Zm-.75,3.4s-.06-.06-.1,0,0,0,0,.06h0S38.72,19.25,38.72,19.24Zm0,1.69a.33.33,0,0,0-.13,0h0s0,0,0,0S38.72,21,38.73,20.93Z"/><path class="cls-1" d="M38.22,20.25s0,0,0,0S38.23,20.25,38.22,20.25Z"/><path class="cls-1" d="M38.55,20.91s0,0,.05,0S38.56,20.89,38.55,20.91Z"/><path class="cls-1" d="M40.43,14.29v0l.05,0a.29.29,0,0,0-.18-.12c.07.07,0,.09,0,.15Z"/><path class="cls-1" d="M39.91,14.19h-.09l0,0Z"/><path class="cls-1" d="M39.54,14.76l.05,0S39.46,14.74,39.54,14.76Z"/><path class="cls-1" d="M40.4,14.73l0,0s0,.05,0,.07S40.39,14.76,40.4,14.73Z"/><path class="cls-1" d="M39.49,14.89c.09,0-.05,0,0,.08S39.59,14.92,39.49,14.89Z"/><path class="cls-1" d="M40.38,15.07c.09,0,0,0,0-.07S40.32,15,40.38,15.07Z"/><path class="cls-1" d="M39.69,15.23c-.06,0,0,0,0-.06s.05,0,.05,0a.45.45,0,0,1-.05-.1.19.19,0,0,1-.18,0A.34.34,0,0,0,39.69,15.23Z"/><path class="cls-1" d="M40.37,15.15s.1,0,.1-.06-.11,0-.11,0l-.08,0C40.22,15.11,40.39,15.1,40.37,15.15Z"/><path class="cls-1" d="M39.48,15.33h0c-.05-.05,0-.09-.1-.13A.16.16,0,0,0,39.48,15.33Z"/><path class="cls-1" d="M40.2,15.24l.11,0s0,0-.06,0,0,0,0,0S40.17,15.2,40.2,15.24Z"/><path class="cls-1" d="M40.29,15.39l0,.06h.12C40.42,15.38,40.39,15.42,40.29,15.39Z"/><path class="cls-1" d="M40.2,15.43h0l.15.11A.47.47,0,0,0,40.2,15.43Z"/><path class="cls-1" d="M39.3,16.12s.11,0,.06,0S39.25,16.15,39.3,16.12Z"/><path class="cls-1" d="M40.2,16.16s0,.09,0,.13S40.27,16.17,40.2,16.16Z"/><path class="cls-1" d="M40.25,16.3h0S40.24,16.3,40.25,16.3Z"/><path class="cls-1" d="M40.2,17.58a0,0,0,0,0,0,0Z"/><path class="cls-1" d="M40.18,17.54s0-.06,0-.08a.52.52,0,0,0,.07.12S40.24,17.55,40.18,17.54Z"/><path class="cls-1" d="M40.09,17.82s0,0-.05-.05S40.06,17.82,40.09,17.82Z"/><path class="cls-1" d="M38.3,19.38s0,0,.05.05S38.31,19.41,38.3,19.38Z"/><polygon class="cls-1" points="38.35 19.47 38.32 19.46 38.27 19.47 38.35 19.47"/><path class="cls-1" d="M38.21,19.63a0,0,0,0,1,0,0S38.2,19.64,38.21,19.63Z"/><path class="cls-1" d="M38.18,19.61h0Z"/><path class="cls-1" d="M38.21,19.6h0s0,0,0,0Z"/><path class="cls-1" d="M38.19,19.68h.11c0-.05-.06,0-.16,0Z"/><path class="cls-1" d="M38.19,19.81s.11.12,0,.11c0,.11.21,0,.23.14.08-.09-.22-.11-.13-.18C38.18,19.91,38.21,19.84,38.19,19.81Z"/><path class="cls-1" d="M38.39,19.85s-.07,0,0,0S38.46,19.88,38.39,19.85Z"/><polygon class="cls-1" points="38.2 20.01 38.14 20.03 38.18 20.05 38.2 20.01"/><path class="cls-1" d="M38.15,20.12l-.07-.05S38.09,20.13,38.15,20.12Z"/><path class="cls-1" d="M38,20.25s.13.09.11,0h0S38,20.29,38,20.25Z"/><path class="cls-1" d="M38.19,20.67s0,0,0-.05l0,.06Z"/><path class="cls-1" d="M38.59,20.76c.1,0,0-.05,0-.08S38.59,20.71,38.59,20.76Z"/><path class="cls-1" d="M38,20.69s0,0,0-.05S38,20.68,38,20.69Z"/><path class="cls-1" d="M38.05,20.78s0,0-.08,0-.06.07,0,.1a.49.49,0,0,1,.21,0c0-.07-.2-.14-.05-.13L38,20.69S38.07,20.75,38.05,20.78Z"/><path class="cls-1" d="M38.41,20.75h-.07c.06,0,.07,0,.08.06S38.41,20.76,38.41,20.75Z"/><polygon class="cls-1" points="38.06 21.11 38.07 21.18 38.08 21.17 38.06 21.11"/><polygon class="cls-1" points="38.01 21.15 37.97 21.14 38.02 21.2 38.01 21.15"/><polygon class="cls-1" points="37.95 21.2 37.95 21.2 37.93 21.15 37.95 21.2"/><path class="cls-1" d="M37.89,21.33H38s0,0,0,0S37.94,21.33,37.89,21.33Z"/><path class="cls-1" d="M39.14,22.09a.2.2,0,0,0-.1,0l.09,0S39.12,22.09,39.14,22.09Z"/><path class="cls-1" d="M39,22.14l.09.07c0-.05-.05-.08-.05-.13s0,.06,0,.08Z"/><path class="cls-1" d="M38.67,23.07c-.07,0-.06,0-.1-.05s0,.1,0,.16.1.05.09,0l0-.07,0,0C38.75,23.13,38.62,23.11,38.67,23.07Z"/><path class="cls-1" d="M37.37,25.4h-.09S37.37,25.39,37.37,25.4Z"/><path class="cls-2" d="M30,59.71c-.05.07,0,0,.05,0Z"/><path class="cls-2" d="M30.07,59.74l0,0S30.08,59.74,30.07,59.74Z"/><path class="cls-2" d="M30.37,59.9c-.09,0-.15-.07-.23,0A.13.13,0,0,0,30.37,59.9Z"/><polygon class="cls-2" points="30.29 59.8 30.26 59.85 30.35 59.79 30.29 59.8"/><polygon class="cls-2" points="30.25 59.74 30.26 59.76 30.38 59.74 30.25 59.74"/><path class="cls-2" d="M30.59,60h-.07c0-.1.08-.08.06-.15s-.09.14-.19.07.17.07.11.17S30.53,60.06,30.59,60Z"/><path class="cls-2" d="M33.11,64h0Z"/><path class="cls-2" d="M32.62,65.41l-.06,0s0,0,0,0Z"/><path class="cls-2" d="M33,63.07,33,63A.06.06,0,0,0,33,63.07Z"/><path class="cls-2" d="M26.82,65.69l0,0h0Z"/><path class="cls-2" d="M31.53,66.76a.12.12,0,0,0-.05,0S31.53,66.77,31.53,66.76Z"/><path class="cls-2" d="M32.93,62.56v0Z"/><path class="cls-2" d="M33,65s0,0,0,0S33,65.06,33,65Z"/><path class="cls-2" d="M31.46,60.8s0,0,0,0S31.49,60.8,31.46,60.8Z"/><path class="cls-2" d="M31.75,61.12Z"/><path class="cls-2" d="M31.9,61.35Z"/><path class="cls-2" d="M31.5,60.83c0,.06-.11.17,0,.09v0c0,.05.07,0,.1.05l0,0,0-.07C31.63,60.8,31.55,60.84,31.5,60.83Z"/><path class="cls-2" d="M33.08,64s0,0,0,0Z"/><path class="cls-2" d="M33,63.52v0A.06.06,0,0,0,33,63.52Z"/><path class="cls-2" d="M32.87,61.86h0S32.88,61.86,32.87,61.86Z"/><path class="cls-2" d="M33,63.6v0S33,63.58,33,63.6Z"/><path class="cls-2" d="M32.92,62.37Z"/><path class="cls-2" d="M27.36,60.84s0,0-.07,0,.09-.07.09.06a.14.14,0,0,0,0-.06l-.08-.06C27.3,60.85,27.36,60.79,27.36,60.84Z"/><path class="cls-2" d="M26.72,65.29v0s0,0,0-.09-.12.13-.23.12a.05.05,0,0,1,0,0A.25.25,0,0,1,26.72,65.29Z"/><path class="cls-2" d="M26.56,65.39h0v0s0,0,0,0A.06.06,0,0,0,26.56,65.39Z"/><path class="cls-2" d="M26.75,61.4l0,0S26.75,61.41,26.75,61.4Z"/><path class="cls-2" d="M30.89,65.64v0A0,0,0,0,0,30.89,65.64Z"/><path class="cls-2" d="M27.14,65.81l0,0h0Z"/><path class="cls-2" d="M25,64.23c.12,0,0,0,0-.1l-.07,0A.21.21,0,0,0,25,64.23Z"/><polygon class="cls-2" points="27.41 60.85 27.4 60.84 27.4 60.85 27.41 60.85"/><path class="cls-2" d="M24.86,62.54l0,0Z"/><path class="cls-2" d="M26.71,65.62a.74.74,0,0,0,.13.12l0,0C26.76,65.72,26.78,65.59,26.71,65.62Z"/><path class="cls-2" d="M25.25,65.13l-.06.05c.23.13.19.45.46.48,0,.36.28,0,.26.33l0,0a3.19,3.19,0,0,0,2,1.31l0,0a4.19,4.19,0,0,0,3.5-.41c.07-.1,0-.16,0-.25s.11-.08.14,0,0,.09,0,.13.29-.13.34-.27h-.13c0-.06.09-.09.12-.11s.12.07.1.11c.07-.31.21-.08.31-.28-.08-.15,0-.44,0-.63l.08,0c-.06.1.1.08,0,.19.11-.07.11-.21.2-.29s-.09,0-.08-.08.14,0,.18-.07v.09c.08,0,0-.1,0-.14s.14-.09.19,0c0-.14.05-.15,0-.29-.12.08-.07-.07-.13-.08l0,.14c.12-.15,0,.06.09.1-.09,0-.11-.2-.17-.06,0-.18.09-.2.07-.4,0,.11-.06-.05-.12,0,.05-.12.05,0,.14,0s.09-.08,0-.17.08,0,.15,0-.21.29,0,.35c0,.07,0,.18,0,.27.07-.06.2-.14.19-.27l-.14,0c0-.08-.06-.13,0-.18s.11,0,.12-.05,0,0-.06,0-.06-.16,0-.3c-.07.1-.12.11-.21.19s0-.08,0-.14,0,0,0,0l0-.07c.08-.12.14.05.22,0s0-.12,0-.17h0a0,0,0,0,1,0,0h0c0-.08,0-.15,0-.18s0-.07,0-.09-.11-.15,0-.2h0c0-.09.07-.16.11-.14l0-.14.1,0c0-.14-.08-.13-.19-.22.07-.09,0-.26,0-.32s0,0,0,0l0,.06c0-.1-.05-.08-.06-.15s0,0,0,0v0s0,0,0,0l0,0c.08-.1-.09-.11-.07-.2l0,0c0-.06.14-.16,0-.16s0,0,0,0v0s0,0,0,0-.07,0,0,0l0-.12a.12.12,0,0,0,0-.08l0,0s0,0,0,0c.08-.2-.16-.2-.11-.41-.08,0-.07.08-.11.1s-.14-.07-.2-.09,0-.36.15-.39c-.07-.13-.05.08-.13,0h0a.23.23,0,0,1,0,.15c-.06,0-.14,0-.14-.08l.1,0c-.1-.09-.22,0-.35,0s.09-.11.16-.18l-.08-.07.06,0c-.06,0-.13,0-.16-.1s0-.16.1-.15-.14,0-.08-.06,0,.06,0,.1-.12,0-.19-.07.08,0,.06-.1-.1,0-.09-.06-.07,0-.1-.08,0,.14,0,.16a.16.16,0,0,1-.13-.07l0,.06c-.13.05,0-.13-.13-.17s.08,0,.14,0l-.24,0v-.14s-.07-.06-.12,0c0-.1.13,0,.17-.07s-.16,0-.2-.12l.08,0s-.13,0-.12-.07,0,0,0,0-.23,0-.3.15l.05,0c-.09,0-.2.06-.22,0s.08-.09.12-.11-.13.12-.21.08,0,.09-.05.11.12.12.14,0v0s.06,0,.08-.05,0,.09,0,.12.09-.14.18-.08v0c.07,0,.14,0,.21,0,0,.11.13,0,.14.12s-.15-.12-.27-.06-.09.08-.14.11l.2,0s0,.16,0,.11v0c.07,0,.12-.07.15,0s-.05,0-.06.05.07,0,.11,0-.08,0-.06.1.07.09.11.12c.07-.12.29,0,.28-.14l.17,0c0,.08-.2,0-.25.16l-.08-.08c-.1.13.24.09.16.27s0,0,0,.16l.1-.11a.19.19,0,0,1-.06.15.13.13,0,0,1,.06.07.06.06,0,0,1-.06,0c0,.08,0,.07,0,.06s.06,0,.08.06h-.07s.05,0,.08,0,0,0,0,0A.35.35,0,0,0,32,61.2c0,.14.11.21.05.37s-.1,0-.1,0,.1.07.15,0l0,0a.15.15,0,0,0-.05.08.06.06,0,0,0,0,0c.12,0,.1.09.16.09a.13.13,0,0,0,0-.08c.09,0,.19,0,.14.07s-.07.13-.15,0c-.1.13.11,0,.1.1l0,.08c-.08,0-.08-.07-.1-.05l0,0c-.07,0-.09-.17-.21-.21L32,62c.19.18.14.48.36.64h0l.06,0c-.07.06-.08.14-.13.22s0,0,.11-.06.12,0,.09.08-.06,0-.1,0a0,0,0,0,1,.08,0s0,.11-.1.11,0,0,0,0-.05.07-.1,0v.07s-.08,0-.11,0,.19.17.22.27h-.13c-.05.07.13.18.13.28s0-.06,0-.09a1.46,1.46,0,0,1-.35.69l.1.11-.11,0a2.29,2.29,0,0,0-.31.65c0,.07-.11,0-.16,0s0,.26-.12.4c0,0-.07-.16-.13-.12s.06.09,0,.11v-.05c-.07,0-.06.05-.14.09a.72.72,0,0,0-.18.45c-.12.06-.06-.13-.1-.14s0-.06,0-.11-.06.11-.13,0-.08,0-.11.14.07,0,.06,0-.17.1-.22,0a2.47,2.47,0,0,1-.94.3c-.05.07,0,0,0,.07s-.07,0-.13,0l0-.07c-.1,0-.2.13-.3.19s-.08-.06,0-.11-.1-.33-.13-.26l0,.32s-.07,0-.06,0-.09-.14-.12-.14.06-.06.1,0-.12-.1-.06-.22,0,.07,0,.12l-.07,0,.05,0c-.06,0-.09.13-.16,0l-.11.12c0-.11-.05,0-.09-.07l0-.06a.11.11,0,0,1-.1-.07c.05-.09,0,0,.07-.06l-.05,0c0,.06-.06.1,0,.14s-.14.18-.28.13.1-.07.1-.17-.27.2-.35.14-.13,0-.25,0c.07,0,0-.11,0-.18l.08,0c-.05,0-.06,0,0-.08s-.18,0-.27,0l0,.08c-.07,0-.18,0-.22-.09s-.13,0-.25,0a.33.33,0,0,1,.14-.21s0,.06.06.11.33-.06.42,0c.14-.14-.09,0-.1-.12h0a0,0,0,0,1,0,0,.18.18,0,0,0,.18-.06c-.06,0-.14.13-.17,0s0-.15-.07-.18-.17.15-.24.06l.11-.06c-.1-.08-.15.09-.24,0s-.11,0,0,.1a.15.15,0,0,1-.17-.11s0,0-.06.05.13,0,.11.16l.12-.06a.12.12,0,0,1-.1.16s0,0,0,0,0-.11-.14,0l.05,0c-.06.1-.17,0-.21-.07s-.06-.16,0-.22l.1,0c0-.09-.12-.07-.16-.11a0,0,0,0,0,0,0l0,0a.09.09,0,0,1,0,0s-.12-.07-.13-.13l-.05,0,0,0s0,.12,0,.13,0-.16,0-.22.06.08.12.1-.05-.09-.06-.22.07.1.18,0-.12,0-.15-.13.11,0,.17,0V65c.09.1.11-.11.2,0s-.13,0-.1-.09-.08.15-.16.12v-.08c0-.06.15,0,.17-.08l-.08,0s0,.06-.08.07-.16,0-.24,0a.09.09,0,0,1,0-.11c-.15,0-.22-.18-.35-.24.1,0,.11,0,.15-.11s.15,0,.22,0a.15.15,0,0,0-.18,0c0-.09-.1,0-.05-.12s.12,0,.15,0-.14,0-.14-.08,0,0,0,0-.06-.09-.12-.09c.13-.09,0-.14.09-.17-.06-.11-.07,0-.13,0s0-.15,0-.18.06.05,0,.08l.09,0c.05-.16-.25-.06-.17-.22.06.07.08,0,.15.05s0-.14-.08-.06a.49.49,0,0,1,0-.14.42.42,0,0,0-.14-.12.29.29,0,0,1,.13-.17c-.06-.17.07-.31,0-.48h0c.05-.13-.15,0-.11-.11.11,0,.1-.06.17-.09s0-.31.13-.42,0,0,0,.06.09-.19.15-.28h0c.16-.09.13-.28.21-.44l.05.07c.07,0,.18-.14.13-.26.15,0,0-.08.2-.09,0,0,0,0,0,0s.09-.06.15-.09,0-.31.16-.36c.1.13-.07.09,0,.2,0,0,0-.09.08-.08a.29.29,0,0,0,0,.1c.06,0,0-.22,0-.21s0,0-.06,0,.13-.11.19-.18-.12,0-.13-.06.08-.19.12-.29,0,.17.07.27.11.09.09.15.11-.13.18-.19v0c.09-.06.17-.24.28-.2l-.06,0s.07,0,.09-.11.1.08.08.13c0-.18.23-.16.27-.33,0,0,0,.11,0,.16s-.11,0-.13,0,.11,0,.11.07c0-.12.19-.18.21-.3.05.06.1.08.09.18.19-.06-.12-.29.11-.29s-.1.12.05.15l0,0c.1.24.07-.17.2-.17s-.09.1,0,.19.17-.21.28-.16l0,.06a1.28,1.28,0,0,1,.27.05s0,0,0,0,.07,0,.15.06l0-.06s-.13-.14-.21-.08c.08-.06-.08-.18,0-.28l0,0a1.06,1.06,0,0,0-.67-.34c-.16.13-.28,0-.45.07,0,.16,0,0-.17.1.08,0,0-.12-.06-.13a.26.26,0,0,1-.09.09c0-.05-.26-.12-.3,0s0-.05,0-.09-.05.08-.1,0v0c-.13.05-.23.05-.37.09,0,.14-.12.1-.16.19s-.09,0-.15,0v.13c0,.12-.14,0-.19.1h0c0,.08-.25.1-.36.08-.34.65-.93.61-1.26,1.34,0,.06.09,0,.13.07a.61.61,0,0,1-.07.14c.06,0,0,0,.05,0v-.11h0a.18.18,0,0,1,0-.12c0,.08.09.14,0,.2a.07.07,0,0,1,0-.05c0,.06,0,.08-.05.12s0,0-.06,0l-.13.17c.08.14-.08.21-.1.24s0-.14-.06-.22l-.09,0,.07,0-.05.09h0s.05.05,0,.07h0l0,.09c-.06-.07,0,0-.13,0-.12.24.05.34-.12.54,0,0,.14.1.11.16s0,0-.08,0l0,.09c-.16.11-.07.23-.12.39h0a.27.27,0,0,1,.07.22h-.08c-.05.12.18.07.14.2s.13-.09.21-.11c-.09,0-.09.17,0,.13,0,.12,0,.09,0,.1l.06.06c0,.09-.11.05-.16,0,.11.07.06.16.06.26L25,64v.12a.36.36,0,0,1,.12.28l-.14,0c0,.09.05,0,.08,0s0,.14,0,.22C25.23,64.76,25,65.06,25.25,65.13Zm7.58-3.21v0S32.77,61.9,32.83,61.92Zm.15.91c0-.11,0-.08,0-.09s0,.17,0,.27.05,0,.07,0a.11.11,0,0,1-.09.1C32.88,63,33.05,62.78,33,62.83ZM31.8,61.24h0Zm.34.35a.09.09,0,0,0,0,.06S32.15,61.6,32.14,61.59Zm.17.93s0,.08,0,.11A.38.38,0,0,0,32.31,62.52Zm-3.24,3.93s.08-.07,0-.1-.07,0-.09,0h0S29.06,66.45,29.07,66.45Zm-2.74-.87s.1,0,.12-.08h0s0,0,0,0,0,0,0,0S26.26,65.49,26.33,65.58Z"/><path class="cls-2" d="M27.47,65.71h0Z"/><path class="cls-2" d="M26.44,65.42s0,0,0,.08S26.46,65.46,26.44,65.42Z"/><path class="cls-2" d="M30.92,59.78h0l0-.07c-.12,0-.16.06-.21.12.11,0,.14,0,.26.07Z"/><path class="cls-2" d="M30.71,60.27s0,.08,0,.09l0,0Z"/><path class="cls-2" d="M31.39,61.09l0-.09C31.31,61,31.32,61.13,31.39,61.09Z"/><path class="cls-2" d="M31.68,60.21H31.6c0,.06.06.1.11.06S31.72,60.24,31.68,60.21Z"/><path class="cls-2" d="M31.52,61.26c.09,0,0,.09.1.05S31.6,61.21,31.52,61.26Z"/><path class="cls-2" d="M32.18,60.64c0-.08,0-.07-.07-.14S32.12,60.67,32.18,60.64Z"/><path class="cls-2" d="M32,61.48c-.06,0-.08,0-.09,0H32a.5.5,0,0,1-.13-.07c0,.07,0,.15-.07.19S32,61.56,32,61.48Z"/><path class="cls-2" d="M32.29,60.76c0-.06,0-.12,0-.17s-.07.1,0,.15l-.08,0C32.16,60.86,32.23,60.68,32.29,60.76Z"/><path class="cls-2" d="M32,61.78l0,0c-.08,0-.09-.11-.2-.09A.32.32,0,0,0,32,61.78Z"/><path class="cls-2" d="M32.32,61.06l.1-.05c0-.07,0,0-.07,0s0-.06,0-.06S32.25,61,32.32,61.06Z"/><path class="cls-2" d="M32.56,61.21l.08.06.07-.13C32.62,61.06,32.65,61.17,32.56,61.21Z"/><path class="cls-2" d="M32.55,61.35l0,0,.22.05A1,1,0,0,0,32.55,61.35Z"/><path class="cls-2" d="M32.28,63.05s.1-.06,0,0S32.23,63.1,32.28,63.05Z"/><path class="cls-2" d="M33.13,62.66c0,.05,0,.18.09.24S33.2,62.64,33.13,62.66Z"/><path class="cls-2" d="M33.24,62.92l0,0S33.23,62.92,33.24,62.92Z"/><path class="cls-2" d="M32.76,65.56v0Z"/><path class="cls-2" d="M32.78,65.49a.12.12,0,0,0,0-.16c0,.07,0,.13,0,.23S32.83,65.52,32.78,65.49Z"/><path class="cls-2" d="M32.38,66s0-.07,0-.09S32.34,66,32.38,66Z"/><path class="cls-2" d="M28.73,66.05s-.06,0-.06,0S28.7,66.06,28.73,66.05Z"/><polygon class="cls-2" points="28.61 66.11 28.61 66.07 28.6 66.01 28.61 66.11"/><path class="cls-2" d="M28.35,65.94l0,0S28.35,65.93,28.35,65.94Z"/><path class="cls-2" d="M28.39,65.92h0Z"/><path class="cls-2" d="M28.4,66v0h0S28.4,65.93,28.4,66Z"/><path class="cls-2" d="M28.28,65.91l0,.11c.07,0-.05-.07,0-.16Z"/><path class="cls-2" d="M28.09,65.88c0-.06-.17.07-.15-.06-.16,0-.05.21-.23.17.13.14.18-.18.28-.06C28,65.83,28.06,65.89,28.09,65.88Z"/><path class="cls-2" d="M28,66.08A0,0,0,0,0,28,66S28,66.13,28,66.08Z"/><polygon class="cls-2" points="27.8 65.81 27.78 65.75 27.75 65.78 27.8 65.81"/><path class="cls-2" d="M27.66,65.71l.08,0S27.66,65.64,27.66,65.71Z"/><path class="cls-2" d="M27.51,65.5s-.14.08-.05.1v0S27.46,65.49,27.51,65.5Z"/><path class="cls-2" d="M26.92,65.34a0,0,0,0,0,.07,0l-.08,0Z"/><path class="cls-2" d="M26.64,65.64c-.05.09.06.06.08.12A.28.28,0,0,0,26.64,65.64Z"/><path class="cls-2" d="M27,65.18s0,0,.05,0S27,65.15,27,65.18Z"/><path class="cls-2" d="M26.85,65.11s0,0,0-.07,0-.11-.1-.1-.11.13-.16.14.26,0,.18.09l.18-.06C27,65,26.87,65.15,26.85,65.11Z"/><path class="cls-2" d="M26.72,65.47v-.08s-.07,0-.1,0S26.7,65.46,26.72,65.47Z"/><path class="cls-2" d="M26.49,64.74l-.08-.07v0Z"/><polygon class="cls-2" points="26.49 64.67 26.52 64.64 26.43 64.61 26.49 64.67"/><polygon class="cls-2" points="26.48 64.55 26.48 64.56 26.54 64.6 26.48 64.55"/><path class="cls-2" d="M26.41,64.35l0,0s0,.09.05,0S26.38,64.38,26.41,64.35Z"/><path class="cls-2" d="M24.84,63.94s.07,0,.1,0l-.1,0A0,0,0,0,1,24.84,63.94Z"/><path class="cls-2" d="M25,63.74l-.12-.09c0,.12.08.13.12.23,0-.05-.06-.1,0-.16Z"/><path class="cls-2" d="M25.27,61.69c.06,0,.06,0,.08.09a.84.84,0,0,1,.08-.3c-.05,0-.08-.11-.08-.06l0,.14,0,0C25.21,61.59,25.35,61.61,25.27,61.69Z"/><path class="cls-2" d="M29.5,59.77a.12.12,0,0,0,0,.1C29.57,59.84,29.48,59.78,29.5,59.77Z"/><path class="cls-2" d="M50.92,60.38c-.08,0,0,0,0,0Z"/><path class="cls-2" d="M51,60.43l0,0Z"/><path class="cls-2" d="M51.16,60.7c-.1,0-.11-.13-.22-.08A.14.14,0,0,0,51.16,60.7Z"/><polygon class="cls-2" points="51.12 60.57 51.07 60.61 51.19 60.59 51.12 60.57"/><polygon class="cls-2" points="51.12 60.5 51.11 60.52 51.23 60.55 51.12 60.5"/><path class="cls-2" d="M51.3,60.92l-.06,0c0-.11.11,0,.12-.11s-.15.09-.21,0c0,.06.13.14,0,.2S51.23,60.91,51.3,60.92Z"/><path class="cls-2" d="M52,65.55h0S52,65.56,52,65.55Z"/><path class="cls-2" d="M50.94,66.64h-.07l0,0Z"/><path class="cls-2" d="M52.23,64.66l.05,0A.05.05,0,0,0,52.23,64.66Z"/><path class="cls-2" d="M45.54,64.51h0Z"/><path class="cls-2" d="M49.39,67.43l-.07,0A.1.1,0,0,0,49.39,67.43Z"/><path class="cls-2" d="M52.39,64.18v0l0,0Z"/><path class="cls-2" d="M51.44,66.47l0,0Z"/><path class="cls-2" d="M51.77,62s0,0,0,0S51.81,62,51.77,62Z"/><path class="cls-2" d="M51.91,62.38Z"/><path class="cls-2" d="M52,62.65h0Z"/><path class="cls-2" d="M51.8,62c0,.05-.17.11,0,.1h0s0,0,.06.08l0,0s0,0,0-.07S51.85,62,51.8,62Z"/><path class="cls-2" d="M52,65.53s0,0,0,0Z"/><path class="cls-2" d="M52.09,65.09l0,0A0,0,0,0,0,52.09,65.09Z"/><path class="cls-2" d="M52.63,63.51h0S52.64,63.52,52.63,63.51Z"/><path class="cls-2" d="M52,65.16l0,0A.05.05,0,0,0,52,65.16Z"/><path class="cls-2" d="M52.46,64h0Z"/><path class="cls-2" d="M48,60.32s-.05,0-.07,0,.1,0,0,.08a.07.07,0,0,0,.05,0L48,60.25S48.05,60.27,48,60.32Z"/><path class="cls-2" d="M45.61,64.11h0s.06,0,.07-.06-.16.07-.25,0a.07.07,0,0,1,0,0A.22.22,0,0,1,45.61,64.11Z"/><path class="cls-2" d="M45.43,64.13h0v0Z"/><path class="cls-2" d="M47.24,60.58h0S47.24,60.59,47.24,60.58Z"/><path class="cls-2" d="M49.26,66.15l0,0S49.26,66.13,49.26,66.15Z"/><path class="cls-2" d="M45.78,64.76v0l0,0Z"/><path class="cls-2" d="M44.46,62.43c.11,0,0,0,.07-.08l-.05-.07A.26.26,0,0,0,44.46,62.43Z"/><polygon class="cls-2" points="48.07 60.35 48.06 60.34 48.06 60.34 48.07 60.35"/><path class="cls-2" d="M45.05,60.84l0,0Z"/><path class="cls-2" d="M45.47,64.41l.06.16v-.06C45.47,64.51,45.54,64.4,45.47,64.41Z"/><path class="cls-2" d="M44.33,63.36l-.06,0c.15.21,0,.49.22.63-.18.31.25.11.1.4l0,0a3.2,3.2,0,0,0,1.24,2l0,0a4.16,4.16,0,0,0,3.35,1.07c.11-.06,0-.16.11-.23s.13,0,.14,0,0,.09,0,.12.32,0,.42-.1l-.12,0s.11,0,.16,0,.07.11,0,.14c.19-.26.22,0,.4-.13,0-.16.17-.4.25-.58h.1c-.1.06.06.11-.07.16.13,0,.19-.13.3-.17a.07.07,0,0,1,0-.11c.07,0,.12,0,.19,0l0,.09c.08,0,.08-.08.11-.11s.16,0,.19,0c0-.14.1-.12.15-.24-.14,0,0-.09-.09-.13a.44.44,0,0,1-.08.11c.18-.09,0,.05,0,.13-.1,0,0-.22-.13-.12.11-.15.16-.15.23-.34-.06.09,0-.07-.11,0,.1-.1.06,0,.14,0s.12,0,.1-.14.05.08.13.06-.31.18-.11.34c-.05,0,0,.18-.12.24.09,0,.24,0,.28-.17l-.1-.11c.05-.06,0-.14,0-.17s.09,0,.13,0,0,0-.06,0,0-.18.08-.29a1.2,1.2,0,0,1-.27.08c0-.09,0-.07.07-.12s0,0,0,0v-.08c.12-.07.1.11.21,0s0-.11.1-.13h0l0,0h0c0-.07.09-.13,0-.19s0-.06,0-.09,0-.18.1-.17h0c.06-.07.13-.11.15-.08a.94.94,0,0,0,.09-.12l.09.06c0-.14,0-.15-.09-.27.1-.06.1-.24.09-.31s0,0,0-.05l-.06,0c0-.1,0-.1,0-.16s0,0,0,0v0s0,0,0,0h0c.12,0,0-.13,0-.21s0,0,0,0,.19-.08.11-.11,0,0,0-.05l0,0s0,0,0,0,0,0,0,0l0-.12s0,0,0-.08l0,0a0,0,0,0,1,0,0c.15-.15-.06-.24.07-.42-.07,0-.1,0-.14,0a.83.83,0,0,1-.15-.17c.1-.07.16-.31.3-.29,0-.15-.08,0-.14,0v0a.24.24,0,0,1-.1.13c-.07,0-.11-.1-.1-.14h.11c-.06-.12-.21-.07-.32-.12s.13-.07.21-.11l0-.09.07,0c0-.06-.11-.06-.1-.16.09.05,0-.16.15-.09s-.14,0,0-.09c-.1,0,0,.06-.05.09s-.09-.09-.14-.14.08,0,.1-.07-.1,0-.06-.09,0-.07-.06-.11,0,.13-.1.13a.17.17,0,0,1-.09-.12v.06c-.14,0,0-.14,0-.21a.58.58,0,0,0,.14.05,1.2,1.2,0,0,1-.21-.13l.06-.12c-.06,0,0-.09-.11-.05s.12,0,.18,0-.17,0-.13-.2H52s-.1-.09-.07-.12,0,0,0,0-.2-.09-.32,0l0,0c-.08,0-.2,0-.19-.11s.11-.05.16-.05-.18.06-.23,0,0,.08-.09.09.06.15.11.09v0a.15.15,0,0,1,.09,0c0,.06,0,.07-.05.1s.13-.09.2,0l0,0c.07,0,.11.09.21,0-.07.1.1.09.07.17-.19.13-.08-.17-.22-.16s-.11,0-.17,0l.18.1s-.1.13,0,.12v0c.06.05.14,0,.14.06a.12.12,0,0,1-.08,0c0,.06.07,0,.11.05s-.1,0-.1.07,0,.1.05.15.25.15.32,0l.13.11c0,.07-.21,0-.3.05l0-.11c-.15.08.18.18,0,.31,0,.06,0,0,0,.16l.14,0a.21.21,0,0,1-.12.11.16.16,0,0,1,0,.09.06.06,0,0,1-.06,0c-.07.06,0,.06,0,.07s0,.05,0,.08l-.06,0s0,0,.06,0,0,0,0,0a.27.27,0,0,0,.14-.11c0,.14,0,.24-.1.36s-.1,0-.11,0,.06.11.13.1v0s-.07,0-.08.05,0,0,0,0,.05.13.11.15a.25.25,0,0,0,0-.09c.07.05.16.09.1.13s-.13.08-.16-.05c-.15.09.11.05.05.15l-.06,0c-.08,0,0-.1-.07-.09v0c-.06,0,0-.2-.11-.29l0,.18c.1.24-.07.49.06.73h0l.05,0h0l.05,0c-.09,0-.13.1-.21.15s.06,0,.12,0,.11.06.06.11,0-.06-.11,0a.06.06,0,0,1,.07.06c-.05,0-.09.07-.14,0s0,0,0,0-.08,0-.1,0l0,.06c-.06,0-.06,0-.09,0s.1.23.08.34l-.11-.07c-.07,0,0,.22,0,.31s0-.06,0-.09a1.32,1.32,0,0,1-.6.47l0,.15-.11,0a2.81,2.81,0,0,0-.56.46c-.06,0-.08-.06-.13-.07s-.12.22-.27.3,0-.17-.07-.15,0,.1,0,.1v0c-.06-.05-.07,0-.16,0s-.24.17-.35.33c-.14,0,0-.15,0-.17s.06,0,.07-.08-.09.07-.13,0a.18.18,0,0,0-.15.09s.06,0,0,.06-.2,0-.19-.11a2.58,2.58,0,0,1-1-.11c-.07,0,0,0,0,.07s0-.06-.13,0l.05-.06c-.09,0-.24,0-.35.06s0-.09,0-.1,0-.34,0-.29l-.09.31s-.07,0-.08,0,0-.17,0-.18.08,0,.11,0-.07-.14,0-.22c-.08,0,0,.07-.09.09l-.05-.06,0,.07c-.07,0-.14.08-.17,0l-.15.07c.06-.1,0-.06-.06-.1l.06,0a.15.15,0,0,1-.06-.11c.09-.06,0,0,.1,0l0-.06s-.1.07-.09.12-.2.11-.31,0,.12,0,.16-.12-.32.07-.38,0-.12,0-.21-.14c.08,0,0-.12,0-.17h.08a0,0,0,0,1,0-.08c-.07.06-.16-.07-.24-.12L46,65c-.06,0-.15-.1-.17-.17s-.12,0-.24-.06a.28.28,0,0,1,.21-.13s0,.07,0,.13c.14.08.33.08.36.2.2-.07-.06-.05,0-.15h0s.11.07.2,0-.19.06-.17-.06,0-.16,0-.19-.23.06-.25-.05H46c-.05-.11-.17,0-.22-.09,0,0-.12,0-.08.08a.15.15,0,0,1-.11-.17s0,0-.07,0,.1.08,0,.18h.13a.12.12,0,0,1-.15.11s0,0,0,0,0-.11-.13-.07l0,0c-.09.07-.15-.08-.17-.15s0-.17.1-.2l.07.09c0-.08-.08-.11-.1-.17l0,0h0a.06.06,0,0,1,0,0c0-.05-.08-.11-.06-.16l-.07,0h0s0,.12-.08.1.05-.15.11-.19,0,.1.08.14,0-.1,0-.22,0,.12.14.11-.09-.09-.08-.18.09.08.16.06l0-.06c0,.13.14-.05.2,0,0-.06-.12,0,0-.13s-.14.11-.2,0l0-.08s.14.05.18,0l-.05-.07s0,.05-.1,0-.16,0-.22-.1,0-.08.05-.1c-.12-.11-.13-.25-.22-.36.07.07.13,0,.18,0s.13.08.21.08-.13-.08-.17-.06-.08-.06,0-.13.11,0,.16,0-.14,0-.1-.12h0c0-.05,0-.11-.07-.13.15,0,0-.15.15-.12,0-.12-.08,0-.13,0s0-.14.05-.17,0,.07,0,.1h.11c.1-.12-.21-.15-.07-.27,0,.09.06,0,.12.11s.05-.13,0-.09a.31.31,0,0,1,.08-.11.36.36,0,0,0-.07-.17.26.26,0,0,1,.18-.1c0-.18.19-.25.23-.43h0c.1-.1-.14,0-.06-.15.09.09.12,0,.2,0s.12-.29.3-.33c0,0,0,.05,0,.07s.16-.13.25-.19v0c.19,0,.24-.2.38-.32s0,.07,0,.09.22-.06.22-.19c.14.07,0-.06.22,0a0,0,0,0,1,0,0c.07,0,.11,0,.17,0s.11-.29.29-.27-.09.06-.07.2c0,0,0-.08.1-.05s0,0,0,.11.1-.2.11-.18,0,0-.05,0,.16,0,.24-.08-.11,0-.09-.11.15-.14.23-.21-.08.15-.05.26.06.14,0,.19.16-.08.24-.1v0c.11,0,.25-.14.34-.06l0-.05s.08,0,.12-.06.06.12,0,.16c.08-.17.28,0,.39-.2,0,.06,0,.12-.05.15s-.08-.07-.14,0,.09.07.07.1.25-.08.32-.17a.16.16,0,0,1,0,.19c.2,0,0-.31.22-.21.06.12-.14.07,0,.15h0c0,.26.14-.13.24-.07s-.11,0-.08.16.24-.12.32,0l-.05,0c.07,0,.17.13.23.16s0,0,0,0,.08,0,.11.12l.06,0c0-.06-.06-.18-.16-.16.1,0,0-.2.1-.27l0,0a1,1,0,0,0-.48-.58c-.19,0-.24-.15-.43-.12s0,0-.19,0c.08,0,0-.11,0-.14a.31.31,0,0,1-.12,0c0-.07-.18-.22-.27-.12-.08-.06,0-.05,0-.08s-.08,0-.1,0a0,0,0,0,1,0,0,2.87,2.87,0,0,1-.38-.08c0,.16-.15,0-.21.11s-.09-.05-.14-.07l-.07.11c-.07.1-.11-.06-.21,0l0,0c-.07.06-.27,0-.36-.07-.58.45-1.1.18-1.7.7,0,.06.07,0,.08.11a.38.38,0,0,1-.11.11c.07,0,0,0,0,0l.06-.1s0,0,0,0,0-.08.08-.1,0,.17-.07.19,0,0,0,0,0,.08-.09.09,0,0-.07,0l-.19.09c0,.16-.16.16-.19.18s.07-.12,0-.22h-.11l.06.06-.09.06h0s0,.06,0,.06l0,0,0,.09c0-.09-.06,0-.13,0-.21.17-.09.34-.34.45.06,0,.09.14,0,.19s-.06,0-.08,0v.11c-.19,0-.16.17-.27.3l0,0a.27.27,0,0,1,0,.23l-.07,0c-.09.09.13.14,0,.24.09,0,.16,0,.24,0-.09,0-.15.12-.08.11s0,.08,0,.08l0,.08c0,.08-.12,0-.16,0,.07.11,0,.17,0,.26l0,0,0,.11a.32.32,0,0,1,0,.3l-.1-.09c-.08.07,0,0,0,.07s0,.13-.11.19C44.47,63,44.14,63.2,44.33,63.36Zm8.24.19h0S52.52,63.5,52.57,63.55Zm-.24.89c0-.12,0-.06.07-.06s0,.16-.12.24a.11.11,0,0,1,.08,0,.1.1,0,0,1-.12,0C52.15,64.59,52.41,64.42,52.33,64.44Zm-.42-1.93h0Zm.16.46,0,0S52.08,63,52.07,63Zm-.23.92c-.05,0,0,.06,0,.09A.14.14,0,0,0,51.84,63.89Zm-4.56,2.25s.1,0,.07-.09-.05,0-.09,0h0A.19.19,0,0,0,47.28,66.14Zm-2.14-1.93a.59.59,0,0,0,.14,0h0s0,0,0,0,0-.06,0-.07S45.11,64.1,45.14,64.21Z"/><path class="cls-2" d="M46.12,64.8l0,0Z"/><path class="cls-2" d="M45.3,64.11a.13.13,0,0,0,0,.08A.15.15,0,0,0,45.3,64.11Z"/><path class="cls-2" d="M51.7,60.81l0,0v-.08c-.1,0-.16,0-.24,0,.12,0,.12.09.21.18Z"/><path class="cls-2" d="M51.31,61.18s0,.07,0,.08l0,0Z"/><path class="cls-2" d="M51.59,62.2l0-.09S51.52,62.21,51.59,62.2Z"/><path class="cls-2" d="M52.22,61.52l-.07,0c0,.06,0,.12.07.1S52.24,61.57,52.22,61.52Z"/><path class="cls-2" d="M51.64,62.41c.1,0,0,.09.07.09S51.74,62.39,51.64,62.41Z"/><path class="cls-2" d="M52.5,62.12c.08,0,0-.09,0-.16S52.43,62.12,52.5,62.12Z"/><path class="cls-2" d="M52,62.81c-.07,0-.07,0-.06-.08l.07,0a.73.73,0,0,1-.09-.11c0,.06-.06.14-.15.14C51.84,62.82,51.93,62.86,52,62.81Z"/><path class="cls-2" d="M52.55,62.27c0-.06.07-.1,0-.17s-.1.06-.07.13h-.08C52.4,62.31,52.53,62.18,52.55,62.27Z"/><path class="cls-2" d="M51.82,63.07l0,0c-.07-.06,0-.14-.15-.16A.33.33,0,0,0,51.82,63.07Z"/><path class="cls-2" d="M52.46,62.56h.11c0-.07,0,0-.07,0s0-.06,0-.07S52.41,62.49,52.46,62.56Z"/><path class="cls-2" d="M52.61,62.79l0,.09.12-.08C52.73,62.68,52.71,62.8,52.61,62.79Z"/><path class="cls-2" d="M52.54,62.91l0,0,.17.14C52.62,63,52.63,63,52.54,62.91Z"/><path class="cls-2" d="M51.6,64.35s.12,0,.06,0S51.53,64.38,51.6,64.35Z"/><path class="cls-2" d="M52.54,64.35s0,.18,0,.26C52.52,64.53,52.6,64.36,52.54,64.35Z"/><path class="cls-2" d="M52.52,64.63v0Z"/><path class="cls-2" d="M51,66.84s0,0,0,0Z"/><path class="cls-2" d="M51.05,66.78a.13.13,0,0,0,.09-.13,1,1,0,0,0-.13.19S51.08,66.83,51.05,66.78Z"/><path class="cls-2" d="M50.48,67.07s.07,0,0-.09S50.45,67.05,50.48,67.07Z"/><path class="cls-2" d="M47.13,65.63s-.05,0-.08,0S47.09,65.63,47.13,65.63Z"/><polygon class="cls-2" points="47 65.63 47.02 65.6 47.02 65.54 47 65.63"/><path class="cls-2" d="M46.83,65.38h0S46.83,65.36,46.83,65.38Z"/><path class="cls-2" d="M46.87,65.37h0Z"/><path class="cls-2" d="M46.87,65.4l0,0h0S46.88,65.38,46.87,65.4Z"/><path class="cls-2" d="M46.78,65.31l0,.12c.07,0,0-.09.1-.13Z"/><path class="cls-2" d="M46.62,65.21c0-.07-.18,0-.11-.11-.15-.07-.14.16-.29.06.06.17.24-.1.29.06C46.52,65.11,46.58,65.21,46.62,65.21Z"/><path class="cls-2" d="M46.49,65.37s0-.09,0-.08S46.42,65.4,46.49,65.37Z"/><polygon class="cls-2" points="46.38 65.03 46.39 64.96 46.35 64.98 46.38 65.03"/><path class="cls-2" d="M46.3,64.87h.08S46.32,64.82,46.3,64.87Z"/><path class="cls-2" d="M46.25,64.63s-.17,0-.09.06v0S46.21,64.59,46.25,64.63Z"/><path class="cls-2" d="M45.77,64.24s0,.05.07,0l-.06-.07Z"/><path class="cls-2" d="M45.39,64.39c-.08.07,0,.08,0,.15S45.43,64.47,45.39,64.39Z"/><path class="cls-2" d="M45.87,64.1c.05,0,0,.05,0,.07S45.92,64.1,45.87,64.1Z"/><path class="cls-2" d="M45.8,64s.06,0,.08,0,0-.12-.05-.14a.37.37,0,0,1-.21.06c.06.09.25.08.13.16l.19,0C45.94,64,45.8,64,45.8,64Z"/><path class="cls-2" d="M45.54,64.28l0-.07s-.08,0-.1,0S45.52,64.25,45.54,64.28Z"/><path class="cls-2" d="M45.62,63.52l0-.11v0A.43.43,0,0,1,45.62,63.52Z"/><polygon class="cls-2" points="45.66 63.45 45.7 63.44 45.62 63.37 45.66 63.45"/><polygon class="cls-2" points="45.7 63.34 45.69 63.35 45.73 63.4 45.7 63.34"/><path class="cls-2" d="M45.72,63.12l-.06,0s0,.08,0,.07S45.67,63.14,45.72,63.12Z"/><path class="cls-2" d="M44.46,62.1s.06,0,.1,0l-.09-.06S44.48,62.1,44.46,62.1Z"/><path class="cls-2" d="M44.65,62l-.07-.13c-.06.11,0,.15,0,.26s0-.12,0-.16Z"/><path class="cls-2" d="M45.77,60.23c0,.05,0,0,0,.12a.69.69,0,0,1,.21-.24S46,60,46,60l-.08.12v0C45.76,60.12,45.87,60.19,45.77,60.23Z"/><path class="cls-2" d="M50.41,60.22a.11.11,0,0,0,0,.09C50.45,60.31,50.4,60.22,50.41,60.22Z"/><path class="cls-2" d="M49.76,56.08H26.49a2.85,2.85,0,0,1-2.72-2l-6.37-21c-.28-.9-.57-1.82,0-2.57a1.74,1.74,0,0,1,1.48-.65h33A2.87,2.87,0,0,1,54,30.8a2.65,2.65,0,0,1,.68,2.06L52.57,53.61A2.78,2.78,0,0,1,49.76,56.08ZM19.08,31.83c.05.21.13.46.19.66l.1.31,6.29,20.74a.84.84,0,0,0,.83.57H49.76a.84.84,0,0,0,.86-.7L52.7,32.66a.73.73,0,0,0-.19-.54.88.88,0,0,0-.67-.29Z"/><path class="cls-2" d="M18.34,33.76a1,1,0,0,1-.94-.71l-2-6.87-5.68.49a1,1,0,0,1-1.07-.89,1,1,0,0,1,.9-1.07L16,24.15a1,1,0,0,1,1,.7l2.28,7.64a1,1,0,0,1-.66,1.22A.92.92,0,0,1,18.34,33.76Z"/><path class="cls-2" d="M31.44,31.22c0-.08-.12.06-.06,0S31.49,31.19,31.44,31.22Z"/><path class="cls-2" d="M32.91,54.46c-.39-.26,0-.65-.3-.94,0,0,.21,0,.15-.08-.31-.28-.16-.76,0-1.13l.06,0c0-.07-.16-.14-.14-.22s.05,0,.11,0c-.12,0-.07-.13-.16-.15a1.54,1.54,0,0,0,.19-.08l-.14,0c-.32-.1,0-.28-.17-.43,0,0,.06,0,.09,0-.21-.24-.19-.56-.28-.84a.37.37,0,0,0,.18,0,.22.22,0,0,1-.21-.17c.14,0-.14-.12-.07-.21h0c-.15-.05.08-.1-.1-.14L32.3,50c-.2,0,.1-.1,0-.15h0s0-.08,0-.12h0c-.06-.11,0-.18-.11-.17.13,0,.07.11.25,0a2.7,2.7,0,0,1-.21-1.11.37.37,0,0,1,.14-.09s0-.13-.12-.16.08,0,.08-.05-.18-.06-.11-.14a.19.19,0,0,0,.15,0c-.12-.06-.11-.14-.15-.21a.17.17,0,0,0,.09,0c-.15-.08,0-.15-.07-.22l.09,0c.1-.12-.19,0-.14-.12s.07,0,.11,0c-.17-.08-.13-.23-.19-.32h0c0-.1,0-.21-.07-.32s.23,0,.19-.1-.09-.18-.29-.1c0-.09.08-.24,0-.3s.22-.06.24,0l.11-.07c.07,0,0,.06.07,0s-.09-.14-.06-.18S32,46.13,32,46s.2-.05.23,0l-.36-.14s.15,0,.09-.07-.07,0-.12,0,0-.15.13-.18,0,.06.1,0-.07-.07-.08-.14h0c0-.05-.09-.13-.18-.07s.1,0,.06,0a.18.18,0,0,1-.15-.18s.08,0,.13,0a.73.73,0,0,1-.27-.29c-.08,0,.16,0,.12.05.11-.14-.19-.26,0-.39,0,0-.12,0-.1,0s.13-.07.08-.11,0,0-.05-.1,0,0,0,0-.19-.29-.09-.44c0,0-.18-.07-.18-.11h.11c.07,0,0-.11.08-.12-.14-.06.13.26,0,.17.1,0-.18-.12,0-.11,0-.06-.14-.11,0-.18s.16,0,.15,0-.06,0-.1-.1l-.05,0c-.11,0,0-.08-.11,0,.09,0-.06-.13.12-.13h.14s-.15-.05-.22-.08l.07,0c-.22,0,0-.09-.16-.13.07-.09,0-.21.12-.26-.07-.06-.15-.11-.11-.19a.12.12,0,0,0,.08,0c.06,0,0,0,0-.09s.13-.1.2-.16-.19,0-.26,0c.21-.07-.15-.17,0-.25,0,0,.11.08.16,0,.21-.07-.16-.1-.07-.2l-.17,0c.1,0-.12-.13.07-.13-.07,0,.05-.11-.12-.09.13-.17-.12-.37.19-.49,0,0,0-.07-.1-.06s.08,0,0,.07-.05,0-.08,0,0-.09.2-.06-.31-.08-.25-.22.1,0,.09,0l-.13-.07c0-.09.16-.06.28-.07s0-.11-.11-.12l.15-.07c-.11,0-.08,0-.11-.05l0,0c.05,0,0-.06,0-.09s-.1.07-.12.1,0-.06-.11-.09c.12,0,.08-.08.09-.12s-.11,0-.11,0,0-.07.09,0-.05,0,0,.06.16,0,.07-.09-.23,0-.16-.06a.42.42,0,0,0,.12,0l.06-.08H31.3c-.12,0,0-.12-.17-.12s.07-.09.08-.13h0c.06-.05,0-.11-.07-.15h0s0-.08-.08-.11.41-.05.27-.11-.21-.08-.28-.05-.12-.24,0-.36c0,0-.07,0-.1,0s-.15-.35.06-.5c0,0,.1,0,.17,0-.1,0,.1-.06-.07-.06s-.15,0-.19.06a.25.25,0,0,1,0-.32s-.07,0-.11,0c.16,0,.18-.08.12-.14h-.09l.09,0s-.2,0-.11-.07a.38.38,0,0,0,.1,0c-.08,0-.22-.12-.15-.19l.14-.06s-.1-.07-.14,0c.08-.11.08-.18.2-.23a.62.62,0,0,1-.33-.65h.07c.07-.06-.12,0-.08-.06s.15-.06.24,0-.14-.1-.17-.15.06,0-.06,0,.07-.12-.08-.12a.41.41,0,0,1,.22,0l-.07,0c.16-.07.31.12.51,0l0-.05c.15,0,.18.12.22,0a.45.45,0,0,0-.34,0c-.05-.1-.34,0-.34-.14s0,.09.14.06-.07-.1,0-.15-.2,0-.23,0,.14,0,.15-.06-.15-.08-.2,0,0-.09-.11-.12c.13,0,.31.06.37,0-.12,0-.18-.1-.36,0a.23.23,0,0,1,.21,0c.08-.06-.24-.11,0-.14h-.13l.14-.07s-.18-.13,0-.15c0,0,0-.11-.15-.06s.1.06-.08.11c.15-.05,0-.09-.07-.12h.07s0-.07-.1-.08.1,0,.11,0h-.11c-.07-.09.2,0,.16-.12l.09.06s.09,0,.05-.09l-.32,0c-.05,0,.12,0,0-.07l.13,0s.17,0,.16-.12-.19-.09-.25,0,.06-.08.14-.06-.11,0-.18,0,.16-.12.26-.18l.18.06v0c.14,0,.1,0,.25,0s0-.07-.07-.1c-.23.11-.33-.07-.55,0-.06-.11.53-.11.18-.21-.06,0-.23,0-.16,0s-.22,0-.13-.13.21-.09.35,0c-.08,0-.06.06,0,.07s.21,0,.21-.08,0-.11-.15-.09,0,.07-.1.05.13-.12-.09-.15c0,.06-.1.09-.19.09l-.06-.06h.09c.05-.11-.15,0-.14-.13l.16-.06c.14,0,0,.16.18.13,0-.07-.12-.09-.06-.16l.05.05s.3-.08.12-.16-.08,0-.17,0-.12-.14-.14-.21c.17,0,0-.13.18-.06-.09,0-.07.2.09.23s0,.09.18.1c0-.09.19-.1.32-.13s0,0-.07-.06-.12,0-.24,0c0-.11-.05-.2-.17-.24.06,0,.18,0,.2,0a.56.56,0,0,1,0-.36c-.19.09-.06-.12-.22-.06a.27.27,0,0,1-.26.1s.08,0,.13,0c-.11,0,.16-.09,0-.13.07.11.24,0,.39,0-.09-.07.11,0,.11-.08a.63.63,0,0,1-.2-.24c.13-.12,0-.28,0-.38s.25,0,.27-.09-.18.06-.11,0h0s.1-.19-.15-.2l.19,0s0,0,0,0,.12,0,.16,0,0-.13,0-.19l-.11.05c-.09-.1,0-.18,0-.29h.11l-.07-.06c.11,0,.17-.06.08-.08l.28.14c-.06.05-.14,0-.24,0s-.06.12,0,.13,0,0-.06-.06c.15,0,.15,0,.25.05s0-.05,0-.05a.13.13,0,0,1,.1.13c-.06,0-.09,0-.14,0,.14,0,.18.06.15.14s.11.14.07.24a.77.77,0,0,1-.31-.12c-.06.06,0,.06-.05.13.1,0,.26,0,.32.1h-.1c.06.06.21.05.18.14a3.44,3.44,0,0,0,0,.42l-.1,0c.22,0,.09.2.19.28-.08.15.12.31-.05.4a1.61,1.61,0,0,1,.17.74l-.15,0c.11,0-.08,0-.06.09s.16,0,.25.08c-.1.12,0,.27.14.36l-.1,0c.19.09,0,.23,0,.36s-.13.05-.11.09.15.1.26.2a.52.52,0,0,1-.08.28c.24.28.12.58.27.87l-.11,0c.27.28.06.65.21.89h-.2c-.06.09.06.18.2.15,0,.08.11.19,0,.25s.1.09.13.15a.5.5,0,0,0,0,.38l0,0s-.14,0-.15,0,0,.21.2.14c-.13.17.14.36,0,.53.07,0,.08,0,.13,0s-.11.3,0,.4-.11,0-.11,0,.08,0,.12,0c.14.22-.09.47,0,.68a3.85,3.85,0,0,1,.16,1.1h0c.19.11-.17.3.12.37,0,0,0,.11-.11.1.13.08-.11.27.07.39l0,0c-.1.15.05.26,0,.41a.15.15,0,0,0-.09,0c-.09.06.21.12,0,.17,0,0,.12,0,.11,0a2.48,2.48,0,0,0,.18,1c-.12.25-.39,0-.2.22,0,0,.09,0,0,0s-.25.13-.13.17.08,0,.17,0c-.08.15-.21.18-.09.29h-.08c.22.12.12.28.37.38.09.74.28,1.45.35,2.17a19.14,19.14,0,0,1,.08,2.15c-.19.18-.18.19-.09.38,0,0,0,0-.07,0,.17,0,0,.14.18.14a7.2,7.2,0,0,0,.07.8s-.15-.06-.14,0l.11,0h0a.12.12,0,0,0,.16,0,13,13,0,0,1,0,2.07,1.15,1.15,0,0,0,.07.57,2.27,2.27,0,0,0-.14,1.53S33,54.67,32.91,54.46Z"/><path class="cls-2" d="M31.47,31.33c-.08,0-.12.08-.23,0A.85.85,0,0,1,31.47,31.33Z"/><path class="cls-2" d="M30.75,33s0,0-.05,0-.07,0,0,0S30.71,33,30.75,33Z"/><path class="cls-2" d="M30.73,33.42a.18.18,0,0,1-.15-.13Z"/><path class="cls-2" d="M30.46,33.83c-.06,0-.09,0-.1,0A.17.17,0,0,1,30.46,33.83Z"/><path class="cls-2" d="M30.62,33.85s0,0-.07.07S30.5,33.84,30.62,33.85Z"/><path class="cls-2" d="M30.47,34.7s.07,0,0,.08S30.36,34.69,30.47,34.7Z"/><path class="cls-2" d="M30.6,35.08s0,0,0,0-.09,0-.09,0Z"/><polygon class="cls-2" points="31.36 42.12 31.32 42.08 31.4 42.08 31.36 42.12"/><path class="cls-2" d="M31.57,45.21c.05,0-.06,0-.07,0S31.59,45.26,31.57,45.21Z"/><polygon class="cls-2" points="32.04 46.86 32.04 46.85 32.19 46.84 32.04 46.86"/><path class="cls-2" d="M41.44,54.41c0,.08.13,0,.06.05S41.4,54.44,41.44,54.41Z"/><path class="cls-2" d="M42.45,32.16c.35.29-.05.61.17.92,0,0-.21,0-.16.06.26.3.06.74-.19,1.06l-.06,0c0,.06.14.16.11.22s0,0-.1,0c.11,0,0,.13.12.17s-.13,0-.19,0l.13,0c.31.13,0,.27.11.43,0,0,0,0-.08,0a2,2,0,0,1,.17.84.37.37,0,0,0-.18,0c.13,0,.16.11.19.18-.15,0,.12.14,0,.22h0c.15.07-.09.08.09.15l-.12,0c.2,0-.11.08,0,.14h0c0,.06-.05.07,0,.12h0c.05.11-.07.17.09.18-.13,0-.05-.11-.24-.06a2.44,2.44,0,0,1,.07,1.07.31.31,0,0,1-.14.07s0,.13.1.17-.09,0-.09,0,.16.08.09.15a.24.24,0,0,0-.15,0c.12.07.1.15.13.22a.16.16,0,0,0-.09,0c.14.09,0,.14,0,.22l-.09,0c-.12.1.19,0,.12.13a.18.18,0,0,0-.1,0c.16.09.09.23.14.33h0c0,.1,0,.19,0,.3s-.22,0-.19.08.06.18.27.13c0,.09-.11.22,0,.28s-.22,0-.23,0l-.12,0c-.07,0,0-.06-.06,0S42,40,42,40s.31.15.33.26c-.07-.06-.2,0-.23,0l.34.17s-.15,0-.1,0a.19.19,0,0,1,.11.05s0,.15-.14.16,0-.07-.1,0,.06.07.06.14h0s.07.14.17.09-.11,0-.06,0a.17.17,0,0,1,.13.18s-.08,0-.13,0a.67.67,0,0,1,.23.3c.09,0-.15,0-.1-.06-.13.12.15.27,0,.37h.1c0,.06-.14,0-.09.09s0,.06,0,.1,0,0,0,0,.16.3,0,.43.17.09.16.12l-.11,0c-.07,0,0,.1-.09.1.13.08-.11-.25,0-.16-.1,0,.17.13,0,.11,0,.06.12.12,0,.18s-.15-.06-.14,0,0,0,.08.1l0,.05c.11,0,0,.08.1,0-.09,0,.05.13-.13.11l-.14,0s.15.07.21.1a.08.08,0,0,1-.07,0c.22,0,0,.09.15.15-.08.07,0,.2-.16.23.07.06.15.12.1.19a.19.19,0,0,0-.08,0c-.06,0,0,0,0,.1s-.13.08-.21.12.18,0,.25.06c-.22.05.13.18-.07.24,0,0-.1-.09-.15,0-.22,0,.15.12,0,.21l.18,0c-.11,0,.1.14-.08.12.06,0-.06.11.11.1-.15.14.08.36-.24.44,0,0,0,.08.09.07s-.07-.05,0-.06l.07,0c0,.05,0,.08-.2,0-.11.1.3.12.22.25s-.1,0-.09,0l.13.07c0,.08-.17,0-.29,0s0,.1.1.13l-.16,0c.12,0,.08,0,.11.07l0,0c-.06,0,0,.06,0,.09a.18.18,0,0,0,.13-.08s0,.06.1.09c-.12,0-.09.07-.1.1s.11,0,.1.06,0,.07-.1,0,.06,0,0-.06-.16,0-.08.08.24,0,.16.07l-.12,0-.06.07h.11s0,0-.06,0,0,.12.16.14-.07.08-.09.11h0c-.06,0,0,.11.05.15h0s0,.08.07.12c-.09.05-.42,0-.28.07s.2.11.27.09.09.23-.08.33c0,0,.07,0,.1,0s.12.35-.1.47c-.05,0-.11,0-.17,0,.09,0-.11,0,.06.06s.15,0,.19,0a.22.22,0,0,1,0,.29.1.1,0,0,1,.11,0c-.16,0-.19.06-.13.12h.09l-.1,0s.2,0,.11.08h-.1c.08.06.21.14.12.2l-.14.05s.1.07.14,0-.1.16-.22.19a.6.6,0,0,1,.27.65h-.07c-.07,0,.12,0,.07.07s-.15,0-.23,0,.12.1.15.16-.06,0,.06,0-.07.11.07.12a.55.55,0,0,1-.22,0l.07.05c-.17.06-.3-.14-.5-.08l0,0c-.15,0-.17-.12-.22,0s.27.1.34.05c0,.11.34.06.32.17s0-.09-.13-.07.06.1,0,.15.2,0,.22,0-.13,0-.15,0,.14.09.2,0,0,.08.09.12c-.13,0-.3-.09-.37,0,.13,0,.17.11.36.07a.28.28,0,0,1-.21,0c-.08,0,.23.12,0,.13l.13,0-.14.06s.17.14,0,.13c0,0,0,.11.14.08s-.1-.07.09-.1c-.15,0,0,.08.06.12h-.07s0,.07.09.09a.14.14,0,0,0-.11,0l.11,0c.06.08-.2,0-.17.1l-.09-.07s-.08,0,0,.08l.31.07s-.12,0,0,.06l-.12-.06s-.18,0-.18.1.19.1.25,0-.07.08-.14,0,.11,0,.18.06-.18.1-.28.14L42.27,51v0c-.14-.06-.1,0-.25,0s0,.06.06.09c.24-.08.33.1.54.08s-.53.06-.19.19c.06,0,.22,0,.16,0s.22.05.13.13-.22.07-.35,0c.07,0,0,0,0-.06s-.21,0-.22.06,0,.11.14.1,0-.06.11,0-.14.1.08.14c0-.06.11-.07.19-.07l.05.07-.08,0c-.06.11.15,0,.13.14l-.17,0c-.14,0,.07-.14-.16-.13,0,.07.11.09,0,.15l0,0s-.31,0-.14.14.09,0,.17,0,.11.14.13.21c-.17,0,0,.12-.19,0,.1,0,.09-.19-.07-.23s0-.09-.17-.11c0,.08-.2.08-.33.09s0,.05.06.06a2.29,2.29,0,0,0,.25,0c0,.1,0,.19.15.24-.06,0-.18,0-.2,0a.52.52,0,0,1,0,.35c.2-.07,0,.12.21.07a.32.32,0,0,1,.27-.07s-.08,0-.12,0-.18.07,0,.12c-.06-.1-.24,0-.39,0,.08.07-.11,0-.11.07a.61.61,0,0,1,.18.25c-.15.1,0,.26,0,.35s-.25,0-.28.07.19,0,.11,0h0s-.12.16.13.19l-.19,0s0,0,0,.05-.12,0-.16,0,0,.12,0,.18l.11,0c.09.11,0,.18,0,.28h-.11l.07.06c-.11,0-.18,0-.09.07l-.26-.16c.06,0,.13.05.24,0s.06-.12,0-.14,0,0,0,.07c-.16,0-.15,0-.25-.07s0,0,0,.05a.13.13,0,0,1-.09-.14c.06,0,.09,0,.14,0-.14,0-.18-.06-.14-.14s-.1-.14,0-.23a.56.56,0,0,1,.29.14c.07-.06,0-.07.07-.12-.1,0-.26-.05-.32-.12h.1c-.05-.06-.2-.06-.17-.15a2.25,2.25,0,0,0,.07-.4h.1c-.21-.06-.08-.21-.17-.29.1-.14-.09-.3.08-.37a1.65,1.65,0,0,1-.11-.72l.15,0c-.11,0,.08,0,.06-.07s-.15-.07-.24-.1c.12-.11,0-.26-.1-.36h.1c-.19-.1,0-.22,0-.35s.14,0,.13-.07-.15-.11-.25-.21a.47.47,0,0,1,.11-.27c-.22-.28-.07-.56-.2-.85l.12,0c-.25-.29,0-.63-.13-.87l.2,0c.06-.07-.05-.17-.19-.16.06-.07-.1-.19.07-.23s-.09-.1-.12-.16a.39.39,0,0,0,0-.36v0s.13,0,.14,0,.06-.19-.18-.15c.14-.15-.1-.36.09-.51-.06,0-.08,0-.12,0s.14-.28,0-.39.11,0,.12,0-.08,0-.12,0c-.12-.22.14-.44.11-.64a3.87,3.87,0,0,1,0-1.07h0c-.18-.12.2-.26-.08-.36,0,0,0-.1.12-.08-.13-.09.13-.25,0-.39,0,0,0,0,0,0,.11-.13,0-.25.07-.39a.12.12,0,0,0,.08,0c.1,0-.2-.14,0-.16,0,0-.12,0-.11,0a2.21,2.21,0,0,0-.07-.95c.15-.23.39,0,.22-.19.05,0-.08,0,0,0s.27-.1.15-.15-.08,0-.17,0c.1-.13.23-.15.13-.27h.07c-.2-.14-.08-.28-.32-.4,0-.72-.11-1.41-.1-2.1a15.91,15.91,0,0,1,.18-2.06c.21-.15.21-.16.14-.35,0,0,0,0,.07,0-.16,0,0-.12-.16-.15,0-.26,0-.5,0-.76,0,0,.14.07.14,0l-.1-.06h0a.12.12,0,0,0-.15-.05,13,13,0,0,1,.28-2,1,1,0,0,0,0-.54A2.1,2.1,0,0,0,42,31.84S42.37,31.94,42.45,32.16Z"/><path class="cls-2" d="M41.43,54.31c.08,0,.12-.07.23,0A.91.91,0,0,1,41.43,54.31Z"/><path class="cls-2" d="M42.27,52.77s0,0,0,0,.07,0,0,.06S42.31,52.78,42.27,52.77Z"/><path class="cls-2" d="M42.32,52.37a.19.19,0,0,1,.14.15Z"/><path class="cls-2" d="M42.63,52c.06,0,.09,0,.09,0Z"/><path class="cls-2" d="M42.46,52s0,0,.08-.06S42.58,52,42.46,52Z"/><path class="cls-2" d="M42.68,51.19s-.06-.07,0-.08S42.79,51.2,42.68,51.19Z"/><path class="cls-2" d="M42.58,50.81s0,0,0,0a.07.07,0,0,1,.09,0Z"/><polygon class="cls-2" points="42.48 44.05 42.52 44.09 42.45 44.08 42.48 44.05"/><path class="cls-2" d="M42.61,41.08s.07,0,.08,0S42.6,41,42.61,41.08Z"/><polygon class="cls-2" points="42.33 39.47 42.34 39.48 42.19 39.47 42.33 39.47"/><path class="cls-2" d="M21.67,38.19c-.11,0,.06.12-.07.05S21.64,38.14,21.67,38.19Z"/><path class="cls-2" d="M51.17,38.78c-.36.37-.82,0-1.21.22,0,0,0-.21-.09-.16a1.44,1.44,0,0,1-1.42-.13l0-.06c-.09,0-.2.15-.29.12s0-.06,0-.11c0,.12-.17.05-.21.14s0-.14-.07-.19l-.06.13c-.15.31-.36,0-.56.13,0,0,0,0,0-.08a3.34,3.34,0,0,1-1.09.2.36.36,0,0,0,0-.18c0,.14-.13.17-.23.2,0-.15-.17.12-.28,0v0c-.09.15-.12-.09-.19.09L45.49,39c0,.2-.11-.11-.19,0v0c-.07,0-.1-.05-.16,0v0c-.14,0-.22-.06-.22.09-.05-.12.14,0,.06-.24a4,4,0,0,1-1.41.11c-.06-.06-.09-.08-.1-.14s-.18,0-.22.1,0-.08,0-.08-.1.17-.19.09a.16.16,0,0,0,0-.15c-.08.13-.19.1-.29.14a.11.11,0,0,0,0-.09c-.11.14-.19,0-.28.06l0-.1c-.15-.11-.05.19-.18.13,0,0,0-.07,0-.1-.12.16-.31.1-.43.15a0,0,0,0,0,0,0c-.13,0-.26,0-.4,0s0-.22-.12-.19-.23.07-.15.28c-.12,0-.3-.1-.38,0s0-.23.05-.24l-.07-.11c0-.08.07,0,0-.07s-.19.08-.23,0-.18.31-.32.33c.06-.07,0-.2,0-.23l-.21.35s0-.15-.08-.1a.26.26,0,0,1,0,.12s-.2,0-.22-.14.08,0,0-.1-.09.06-.18.06v0a.11.11,0,0,0-.11.17s0-.11,0,0a.24.24,0,0,1-.23.13s0-.08,0-.13a1,1,0,0,1-.39.24c0,.08.06-.16.08-.11-.17-.12-.36.16-.5,0,0,0,0,.12,0,.09s-.08-.13-.13-.09-.07,0-.12,0,0,0,0,0a.62.62,0,0,1-.56.06.28.28,0,0,1-.15.17v-.11c0-.07-.13,0-.14-.09-.09.13.34-.11.22,0,0-.09-.17.18-.14,0-.08,0-.16.13-.24,0s.07-.15,0-.14,0,0-.13.09l-.06,0c0,.11-.1,0-.06.11,0-.09-.17,0-.15-.13l0-.14c-.05,0-.09.15-.13.21a.14.14,0,0,1,0-.07c0,.22-.12,0-.18.15-.1-.08-.27,0-.31-.15-.09.07-.16.14-.25.1s0,0,0-.08-.08,0-.13,0S36,39.1,35.91,39s0,.18-.06.25c-.07-.21-.23.14-.32-.06,0,0,.12-.1,0-.16s-.15.16-.27.05l0,.18c-.05-.11-.18.1-.16-.08,0,.07-.14-.06-.13.12-.19-.16-.48.08-.59-.24,0,0-.1,0-.09.09s.07-.07.09,0,0,0,0,.07-.11-.05-.05-.2c-.13-.11-.14.3-.31.23q0-.1-.06-.09l-.09.12c-.11,0-.06-.16-.06-.29-.06,0-.14,0-.16.11L33.62,39c.05.11,0,.07-.08.1l0,0c0-.05-.08,0-.12,0s.08.11.12.13-.08,0-.12.1c0-.12-.1-.09-.15-.1s-.06.11-.08.1-.08,0,0-.1,0,.07.07,0,0-.15-.1-.08,0,.24-.1.16a.34.34,0,0,0,.06-.12l-.1-.06v.11a.05.05,0,0,1,0,0c0,.11-.15,0-.18.16s-.1-.08-.15-.09h0c-.06-.07-.14,0-.19.05v0a.15.15,0,0,0-.15.07c-.08-.08,0-.41-.11-.27s-.14.19-.1.27c-.15-.08-.32.09-.45-.08,0,0,0,.07-.06.1-.21,0-.45.12-.62-.1.06,0,0-.11,0-.17-.06.1-.07-.1-.09.07s0,.14.06.18c-.13,0-.32,0-.39,0s0,.07,0,.1c0-.15-.08-.18-.15-.13v.1l-.05-.1s0,.2-.1.11a.25.25,0,0,0,0-.1c-.08.07-.18.2-.26.12l-.07-.14s-.09.1,0,.14c-.14-.09-.22-.1-.27-.22a.91.91,0,0,1-.86.27v-.07c-.07-.07,0,.12-.09.07s-.05-.15,0-.23c-.11-.08-.14.12-.21.15s.06-.06,0,.06-.14-.07-.16.07a.33.33,0,0,1,0-.22l-.07.07c-.07-.17.19-.3.11-.5l-.06,0c-.06-.15.16-.17,0-.22a.36.36,0,0,0-.07.34c-.13,0-.07.34-.21.32s.11,0,.09-.13-.14.06-.2,0,0,.2,0,.22,0-.13-.05-.15-.12.14,0,.2-.11,0-.17.09c0-.13.11-.3,0-.37,0,.13-.15.17-.09.36a.2.2,0,0,1,0-.21c-.07-.08-.16.23-.18,0l0,.13a1.37,1.37,0,0,1-.08-.14c-.06,0-.19.17-.18,0,0,0-.15,0-.1.15s.09-.1.13.09c-.05-.15-.11,0-.16.06v-.07s-.09,0-.11.09,0-.1,0-.11l0,.11c-.11.06,0-.2-.13-.17l.08-.09s-.05-.09-.1-.05a2.37,2.37,0,0,0-.08.31c-.07,0,0-.12-.09,0l.08-.13s0-.17-.13-.17-.14.18-.06.24a.09.09,0,0,1-.06-.14c-.1,0,0,.12-.08.18s-.13-.17-.19-.28l.09-.17h-.06c.08-.14,0-.11,0-.26s-.08,0-.12.06c.11.24-.13.33-.1.55-.16.05-.09-.53-.26-.2,0,.06-.05.22.05.16-.1,0-.07.22-.18.13.08-.09-.09-.22,0-.35,0,.07.07,0,.09,0s0-.21-.09-.22-.14,0-.13.14.09,0,.05.11-.13-.14-.19.08c.08,0,.1.11.09.19l-.09.05,0-.08c-.14-.06,0,.15-.18.13L25,39.4c0-.14.2.07.18-.16-.09,0-.12.1-.2,0l.06,0s-.06-.31-.19-.14,0,.08,0,.17-.18.11-.28.12c0-.17-.16,0,0-.19,0,.1.25.09.3-.06s.11,0,.14-.17c-.11,0-.1-.21-.12-.33s-.06,0-.08.06,0,.12,0,.24a.29.29,0,0,0-.32.15c0-.06,0-.18,0-.19a1,1,0,0,1-.45,0c.09.2-.16.05-.1.21s.14.19.09.27,0-.08,0-.12-.1-.18-.16,0c.14-.06,0-.24.06-.39-.1.08,0-.11-.09-.11a1,1,0,0,1-.34.18c-.13-.15-.35,0-.47,0s0-.25-.09-.28.06.19-.06.11v0s-.22-.12-.26.13l0-.19s0,0-.06.05,0-.12,0-.16-.16,0-.24,0l.05.11c-.14.09-.23,0-.37,0v-.11l-.08.07c0-.11,0-.18-.1-.09l.22-.26c.05.06-.07.13,0,.23s.15.07.17,0-.05,0-.09,0c0-.16.06-.15.1-.25s-.06,0-.06,0a.19.19,0,0,1,.18-.09c-.06.06,0,.1,0,.14,0-.13.08-.17.18-.13s.2-.1.31-.06a.64.64,0,0,1-.18.3c.07.07.08,0,.15.07,0-.1.07-.26.17-.32v.1c.09-.05.09-.19.2-.16a4.09,4.09,0,0,0,.53.07v.1c.09-.22.28-.08.39-.17.18.1.4-.09.49.08a2.56,2.56,0,0,1,.95-.09l0,.14c.06-.11,0,.08.09.06s.09-.15.13-.23c.15.11.35,0,.48-.11v.1c.14-.18.3,0,.47,0s.05.13.1.12c.09-.16.14-.14.27-.24a.72.72,0,0,1,.36.11c.37-.22.74-.07,1.13-.2l0,.12c.38-.25.83,0,1.15-.14l0,.2c.1.07.23,0,.21-.19.1.07.25-.09.31.08s.12-.09.21-.12a.7.7,0,0,0,.47,0h-.05s0,.13,0,.14.27.06.2-.18c.2.14.48-.11.67.08,0-.06,0-.08.06-.12.18,0,.37.14.51,0s0,.11,0,.12,0-.09.05-.12c.3-.12.59.13.86.11a6.11,6.11,0,0,1,1.41-.06v0c.16-.18.36.2.48-.08,0,0,.14,0,.11.12.12-.13.33.13.51,0,0,0,0,0,0,0,.17.11.33,0,.51.07,0,0-.05,0-.06.08s.17-.2.21,0c0,0,0-.11,0-.11a3.92,3.92,0,0,0,1.27-.08c.3.14,0,.39.25.22,0,0,0-.09,0,0s.14.26.2.14,0-.08,0-.17c.18.1.22.23.37.12v.08c.17-.21.37-.1.51-.34.95,0,1.86-.14,2.78-.16s1.8,0,2.72.12c.21.2.23.19.47.12,0,0,0,0,0,.07,0-.17.16,0,.19-.17a8.51,8.51,0,0,0,1,0c-.06,0-.09.15,0,.14l.07-.1v0s.09-.1,0-.15A22.58,22.58,0,0,1,48.9,38a1.75,1.75,0,0,0,.72,0,3.5,3.5,0,0,0,1.93.28S51.45,38.69,51.17,38.78Z"/><path class="cls-2" d="M21.81,38.17c0,.09.1.13,0,.24A2,2,0,0,1,21.81,38.17Z"/><path class="cls-2" d="M23.85,39s0,0,0,.05-.05.07-.07,0S23.83,39.07,23.85,39Z"/><path class="cls-2" d="M24.37,39.1c0,.07-.12.12-.19.13Z"/><path class="cls-2" d="M24.85,39.4c0,.06,0,.1,0,.09S24.84,39.44,24.85,39.4Z"/><path class="cls-2" d="M24.89,39.24s.06,0,.08.08S24.87,39.36,24.89,39.24Z"/><path class="cls-2" d="M26,39.47s.08-.07.1,0S25.93,39.57,26,39.47Z"/><path class="cls-2" d="M26.44,39.37s0,0,0,0a.07.07,0,0,1,0,.1Z"/><polygon class="cls-2" points="35.43 39.23 35.37 39.27 35.38 39.2 35.43 39.23"/><path class="cls-2" d="M39.36,39.3c.06,0,0,.07,0,.08S39.43,39.29,39.36,39.3Z"/><polygon class="cls-2" points="41.49 38.98 41.47 38.98 41.48 38.83 41.49 38.98"/><path class="cls-2" d="M51.46,47.06c.11,0-.06-.13.07-.05C51.51,47.06,51.49,47.11,51.46,47.06Z"/><path class="cls-2" d="M22,46.47c.36-.37.82,0,1.21-.22,0,0,0,.21.09.16a1.44,1.44,0,0,1,1.42.13l0,.06c.09,0,.2-.15.29-.12s0,.06,0,.11c0-.12.17-.05.21-.14s0,.14.08.19l.05-.13c.15-.31.36,0,.56-.13,0,0,0,0,0,.08a3.23,3.23,0,0,1,1.08-.2.36.36,0,0,0,0,.18c0-.14.14-.17.23-.2,0,.15.17-.12.28,0v0c.09-.15.13.09.2-.09l.05.11c0-.2.12.11.19,0v0c.06,0,.09.05.16,0v0c.14,0,.22.06.22-.09.05.12-.14,0-.06.24a4,4,0,0,1,1.42-.11c.05.06.08.08.09.14s.18,0,.22-.11,0,.09.06.09.09-.17.18-.1a.23.23,0,0,0,0,.16c.09-.13.19-.1.29-.14a.11.11,0,0,0,0,.09c.11-.14.19,0,.28-.06l0,.09c.14.12,0-.18.17-.12,0,0,0,.07,0,.1.12-.16.31-.1.43-.16a.1.1,0,0,0,0,0c.13,0,.26,0,.41,0s0,.22.11.19.23-.07.16-.28c.11,0,.29.1.37,0s.05.23,0,.24l.07.11c0,.08-.08,0-.06.07s.19-.08.24,0,.17-.31.32-.33c-.07.07,0,.2,0,.23l.2-.35c.05,0,0,.15.08.1a.26.26,0,0,1,0-.12s.2,0,.22.14-.08,0,0,.1.1-.06.18-.06v0s.17-.07.11-.17,0,.11-.05,0a.24.24,0,0,1,.24-.13s0,.08,0,.13a.87.87,0,0,1,.38-.24c0-.08-.05.16-.07.11.17.12.35-.16.49,0,0,0,0-.12,0-.09s.08.13.13.09.07,0,.13,0,0,0,0,0a.62.62,0,0,1,.56-.06.3.3,0,0,1,.16-.17l0,.11c0,.07.13,0,.14.09.09-.13-.34.11-.22,0,0,.09.17-.18.14,0,.08,0,.16-.13.24,0s-.07.15,0,.14,0,0,.13-.09l.06,0c0-.11.1,0,.06-.11,0,.09.17,0,.16.13l0,.14c.05,0,.08-.15.12-.21a.14.14,0,0,1,0,.07c0-.22.12,0,.18-.15.11.08.27,0,.32.15.08-.07.15-.14.25-.1s0,0,0,.08.07,0,.12,0,.12.13.18.21.06-.18.06-.25c.07.21.23-.14.32.06,0,0-.12.1-.05.16s.15-.16.27-.05l0-.18c.05.11.18-.1.16.08,0-.07.14.06.13-.12.2.16.48-.08.59.24,0,0,.1,0,.09-.09s-.07.07-.08,0,0,0,0-.07.11.05,0,.19c.13.12.14-.29.31-.22q0,.1.06.09l.1-.12c.11,0,.06.16.06.29.06,0,.13,0,.16-.11l.07.16c-.05-.11,0-.07.08-.1l0,0c0,.05.08,0,.11,0s-.08-.11-.11-.13.07,0,.12-.1c0,.12.09.09.14.1s.06-.11.08-.1.09,0,0,.1,0-.07-.07,0,0,.15.1.08,0-.24.1-.16a.34.34,0,0,0-.06.12l.1.06v-.11a.08.08,0,0,1,0,0c0-.11.16,0,.18-.16s.11.08.15.09h0c.06.07.14,0,.19-.05v0a.15.15,0,0,0,.14-.07c.08.08,0,.41.12.27s.13-.19.1-.27c.14.08.31-.09.44.08,0,0,0-.07.06-.1.21,0,.46-.12.62.1-.06,0,0,.11,0,.17.05-.1.06.1.08-.07s0-.14-.06-.18a.37.37,0,0,1,.4,0s0-.07,0-.1c0,.15.08.18.15.13l0-.1,0,.1s0-.2.1-.11a.87.87,0,0,0,0,.1c.08-.07.19-.2.26-.12l.07.14s.09-.1,0-.14c.14.09.23.1.27.22a.91.91,0,0,1,.86-.27v.07c.07.07,0-.12.09-.07s0,.15,0,.23.13-.12.2-.15,0,.06,0-.06.15.07.17-.07a.42.42,0,0,1,0,.22l.07-.07c.08.17-.19.3-.11.5l.06,0c.06.15-.16.17,0,.22s.13-.27.07-.34c.14,0,.07-.34.21-.32s-.11,0-.09.13.14-.06.2,0,0-.2,0-.22-.05.13,0,.15.12-.14,0-.2.1,0,.16-.09c0,.13-.11.3,0,.37,0-.13.14-.17.08-.36a.19.19,0,0,1,0,.21c.06.08.16-.23.17,0l0-.13.08.14s.18-.17.17,0c0,0,.15,0,.1-.15S46,46,46,45.8c0,.15.11,0,.16-.06v.07s.09,0,.11-.09,0,.1,0,.11l0-.11c.11-.06,0,.2.13.17l-.08.09s0,.09.11.05.06-.23.08-.31,0,.12.08,0l-.08.13s.05.17.14.17.13-.18.05-.24a.1.1,0,0,1,.07.14c.09,0,0-.12.07-.18s.13.17.19.28L47,46.2H47c-.08.14,0,.11,0,.26s.09,0,.12-.07c-.1-.24.14-.32.11-.54.15-.05.08.53.25.2,0-.06.05-.22,0-.16.09,0,.06-.22.17-.13-.08.09.09.22,0,.35,0-.07-.07-.06-.09,0s0,.21.09.21.14,0,.13-.13-.09,0-.05-.11.14.14.19-.08c-.08,0-.09-.11-.09-.19l.09-.05,0,.08c.14.06,0-.15.18-.13l.06.17c0,.14-.2-.07-.18.16.09,0,.12-.1.2,0s0,0-.06,0,.06.31.19.14,0-.08,0-.17.19-.11.28-.12c0,.17.16,0,.05.19,0-.1-.24-.09-.3.06s-.11,0-.14.17c.11,0,.1.21.12.33s.06,0,.08-.06,0-.12,0-.24a.31.31,0,0,0,.33-.15c0,.06,0,.18,0,.19a1,1,0,0,1,.46,0c-.09-.2.16-.05.1-.21a.25.25,0,0,1-.1-.27s0,.08,0,.12.09.18.15,0c-.14.06,0,.24-.06.39.1-.08,0,.11.09.11a1.12,1.12,0,0,1,.34-.18c.13.15.35,0,.47,0s0,.25.09.28-.06-.19.06-.11v0s.22.12.26-.13l0,.19s0,0,.06-.05,0,.12,0,.16.16,0,.24,0l0-.11c.14-.09.23,0,.37,0v.11l.08-.07c0,.11,0,.18.1.09L51,47c-.06-.06.06-.13,0-.24s-.16-.06-.18,0,0,0,.09,0c0,.15-.06.15-.1.25s.06,0,.07,0a.2.2,0,0,1-.19.09c.06-.06,0-.1,0-.14,0,.13-.09.17-.19.13s-.19.1-.31.06a.64.64,0,0,1,.18-.3c-.07-.07-.08,0-.15-.07,0,.1-.07.26-.16.32V47c-.09.05-.09.19-.2.16a3.88,3.88,0,0,0-.53-.07V47c-.09.22-.27.08-.38.17-.19-.1-.41.09-.5-.08a2.54,2.54,0,0,1-1,.09l.06-.14c-.07.11,0-.08-.1-.06s-.09.15-.13.23c-.15-.11-.34,0-.48.11v-.1c-.14.18-.3,0-.47,0s0-.13-.09-.12c-.1.16-.15.14-.28.24a.72.72,0,0,1-.36-.11c-.37.22-.74.07-1.12.2l0-.12c-.38.25-.83,0-1.15.14l0-.2c-.1-.07-.23,0-.21.19-.09-.07-.25.09-.31-.08s-.12.09-.21.12a.69.69,0,0,0-.47,0h0s0-.13,0-.14-.26-.06-.2.18c-.2-.14-.48.11-.67-.08,0,.06,0,.07-.06.12-.18,0-.37-.14-.51,0s.05-.11,0-.12,0,.09,0,.12c-.3.12-.59-.13-.85-.11a6.22,6.22,0,0,1-1.42.06v0c-.16.19-.35-.19-.48.08,0,0-.13,0-.11-.11-.12.13-.33-.13-.51,0,0,0,0,0,0,0-.18-.11-.33,0-.52-.07,0,0,.06,0,.06-.08s-.17.2-.21,0c0,0,0,.11,0,.11a3.85,3.85,0,0,0-1.26.08c-.3-.14,0-.39-.26-.22,0,0,0,.09,0,0s-.14-.26-.2-.14-.05.08-.05.17c-.18-.1-.22-.23-.37-.12l0-.08c-.18.21-.37.1-.52.34-1,0-1.85.14-2.77.16s-1.8,0-2.73-.12c-.21-.2-.23-.19-.46-.12,0,0,0,0,0-.07,0,.16-.17,0-.2.17a8.34,8.34,0,0,0-1,0c.05,0,.08-.15,0-.14l-.08.1v0s-.09.1-.05.15a22.74,22.74,0,0,1-2.61-.19,1.76,1.76,0,0,0-.72,0A3.48,3.48,0,0,0,21.59,47S21.68,46.56,22,46.47Z"/><path class="cls-2" d="M51.32,47.08c0-.09-.09-.13,0-.24A1,1,0,0,1,51.32,47.08Z"/><path class="cls-2" d="M49.29,46.21s0,0,0-.05,0-.07.07,0S49.3,46.18,49.29,46.21Z"/><path class="cls-2" d="M48.76,46.15c0-.07.13-.12.19-.13Z"/><path class="cls-2" d="M48.28,45.85c0-.06,0-.1,0-.09S48.29,45.81,48.28,45.85Z"/><path class="cls-2" d="M48.24,46s-.06,0-.08-.08S48.26,45.89,48.24,46Z"/><path class="cls-2" d="M47.18,45.78s-.08.07-.1,0S47.21,45.68,47.18,45.78Z"/><path class="cls-2" d="M46.69,45.88s0,0,0,0a.07.07,0,0,1,0-.1Z"/><polygon class="cls-2" points="37.7 46.02 37.76 45.98 37.75 46.05 37.7 46.02"/><path class="cls-2" d="M33.77,46c-.05,0,0-.07-.05-.08S33.71,46,33.77,46Z"/><polygon class="cls-2" points="31.64 46.27 31.66 46.27 31.65 46.42 31.64 46.27"/></svg>