<svg id="Calque_1" data-name="Calque 1" xmlns="http://www.w3.org/2000/svg" viewBox="0 0 79.37 70.87"><defs><style>.cls-1{fill:#1d1d1b;}.cls-2{fill:#fff;}.cls-3{fill:#e6332a;}</style></defs><path class="cls-1" d="M4.1,32.43c-.06,0,0,.07-.06,0S4.1,32.4,4.1,32.43Z"/><path class="cls-1" d="M13,35c-.17.27-.55.16-.8.31,0,0,0-.1-.07-.07a1,1,0,0,1-1-.07l0,0c-.06,0-.15.06-.21,0s0,0,0,0-.12,0-.16,0,0-.08,0-.11l0,.06c-.14.12-.24-.08-.39-.05,0,0,0,0,0,0a1.71,1.71,0,0,1-.74-.22.11.11,0,0,0,.05-.08c-.05.06-.13,0-.19,0s-.14,0-.18-.09h0c-.09,0,0-.09-.14,0v-.07c-.09.06,0-.1-.11-.09H9s0-.06-.08-.08H9c-.1,0-.1-.14-.15-.08s.09,0,.11-.05a2,2,0,0,1-.66-.76s0-.08,0-.1-.07-.11-.12-.11a.2.2,0,0,0,0-.06c0-.07-.11,0-.1-.1a.05.05,0,0,0,.08,0c-.08,0-.1-.1-.15-.15s0,0,.06,0,0-.13-.1-.17H8c0-.12-.1,0-.1-.1s0,0,.06,0-.12-.19-.17-.27a0,0,0,0,0,0,0c0-.08,0-.18-.08-.28s.12,0,.08-.1-.06-.15-.15-.08a.84.84,0,0,0,0-.28s.11,0,.12,0l.06,0s0,0,0,0,0-.13,0-.16-.16-.12-.17-.22c0,.05.1,0,.12,0l-.17-.16s.07,0,0-.05,0,0-.06,0,0-.15.09-.16,0,.06,0,0,0-.07,0-.13h0s0-.13-.08-.1.06,0,0,0a.19.19,0,0,1,0-.18s0,0,.06,0a.65.65,0,0,1,0-.31s.06.06,0,.07,0-.28.12-.35-.06,0-.05,0,.09,0,.08-.08,0-.05,0-.1,0,0,0,0a.57.57,0,0,1,.2-.4s0-.13,0-.15l0,0c.05,0,.07-.09.11-.06s-.13.24-.11.14,0-.16.06-.1,0-.14.13-.14,0,.09.05.05,0,0,.05-.1l0-.05c0-.05.08,0,0-.07s.11-.11.15,0l0,.07s0-.1,0-.15,0,0,0,0,.11,0,.13-.13.27-.05.32,0a.27.27,0,0,1,.25,0s0,0-.06,0,.07,0,.12,0,.08.1.11.17.09-.05.12-.08c0,.13.22.09.2.23s-.11,0-.09,0,.14,0,.16.16l.06-.07c0,.07.12.11,0,.14s0,.12.1.07c0,.18.17.35.05.48s0,.08.06.05,0,0,0-.06,0,0,.05,0,0,.09-.09.06.17.07.16.21-.05,0,0,.05l.07.07c0,.09-.08.06-.14.07s0,.09.06.11l-.07.06c.06,0,0,0,.05.06v0s0,.06,0,.08.06-.06.07-.09,0,.06.05.09,0,.08-.05.12.06.05.05.06,0,.07-.05,0,0,0,0-.06-.08,0-.05.08.12,0,.08.08L10.35,31l0,.07h0c.05,0,0,.12.07.14s-.06.08-.07.11h0s0,.1,0,.14h0a.17.17,0,0,0,0,.12c-.06.05-.21,0-.16,0s.07.13.11.11,0,.25-.15.32,0,0,0,.06-.09.35-.26.41c0,0,0,0-.07,0s-.07,0,0,.07.07,0,.11,0-.11.23-.19.25,0,0,0,0-.12,0-.13.06l0,0H9.63s.06.08,0,.09l0,0c0,.07,0,.18-.09.2H9.4s0,.08,0,.06c-.11,0-.16.09-.23.07a.79.79,0,0,1-.46.52v0c-.07,0,0,.07,0,.07s-.08,0-.06-.1-.06.1-.11.14,0,0,.05,0-.12,0-.11.09,0-.07,0-.1l0,.06c-.09-.06.06-.2,0-.27l0,0c-.07,0,.06-.13-.05-.1s0,.16,0,.17c-.09.06,0,.18-.09.22s.08,0,0-.09-.09.07-.14.06,0,.1,0,.12,0-.08-.06-.06-.07.1,0,.11-.1,0-.12.08,0-.17-.06-.18-.08.12,0,.2a.08.08,0,0,1,0-.11c-.06,0-.1.15-.14,0v.07l-.08-.06s-.13.11-.14,0-.11,0-.07.09.07-.06.12,0c-.06-.07-.09,0-.13.06v0s-.07,0-.08.06,0,0,0-.06v.06c-.09,0,0-.1-.12-.08l.06-.05s0,0-.08,0l-.06.17s0-.06-.07,0l.06-.06s0-.09-.11-.09-.1.1,0,.13-.08,0-.06-.07,0,0,0,.09-.11-.09-.16-.15l.07-.08h0c.06-.06,0,0,0-.13s-.06,0-.09,0-.11.16-.1.27,0-.27-.18-.12c0,0-.06.1,0,.09-.07,0-.07.1-.15,0,.07,0,0-.12.06-.17s0,0,.06,0,0-.11,0-.12-.11,0-.11.06.07,0,0,.06-.09-.09-.15,0,.06.07,0,.11H6l0,0c-.11-.05,0,.07-.16,0l0-.09c0-.06.15.07.16,0s-.1,0-.16,0h0s0-.17-.12-.11,0,0,0,.08a1.59,1.59,0,0,0-.22,0c0-.08-.12,0,0-.11a.18.18,0,0,0,.24,0c0-.11.07,0,.12,0s0-.13,0-.19,0,0-.07,0,0,.07,0,.13a.28.28,0,0,0-.25,0s0-.09,0-.08a1.09,1.09,0,0,1-.31-.14c0,.12-.11,0-.11.06s.06.14,0,.16,0,0,0-.06,0-.12-.11-.06c.11,0,.07-.1.13-.16s0,0,0-.08a.57.57,0,0,1-.26,0c0-.11-.22-.13-.3-.19s.07-.11,0-.15,0,.1-.07,0h0s-.09-.15-.19-.06l.08-.06s0,0,0,0,0-.06,0-.06-.09-.06-.14-.1V33c-.1,0-.11-.13-.19-.19l0,0-.07,0s0-.09,0-.08h.2s-.08,0-.1.07.06.11.1.08,0,0-.06,0,.08,0,.14,0,0,0,0,0a.16.16,0,0,1,.12.06s0,0,0,0,.1,0,.14,0,.13,0,.18.12a.34.34,0,0,1-.19,0c0,.06,0,0,.06.09s.12-.08.19-.06l0,0c.07,0,.11-.05.16,0a2.06,2.06,0,0,0,.29.21l0,0c.1-.07.19,0,.27,0s.27.06.3.16c.23,0,.42.05.64.1l0,.07s0,0,.06,0,.07-.07.1-.11a.31.31,0,0,0,.32,0v.05c.09-.1.2,0,.31,0s0,.07.07.06.09-.08.17-.15a.6.6,0,0,1,.23,0c.21-.17.46-.17.64-.35l0,0c.15-.22.44-.29.54-.49l.06.09a.09.09,0,0,0,0-.16c.07,0,.07-.15.16-.12s0-.09,0-.14a.5.5,0,0,0,.18-.23l0,0s.05.05.07,0,.11-.13,0-.15c.13-.08.09-.29.22-.36,0,0,0,0,0-.06s.14-.19.11-.29.05,0,.06,0,0,0-.05-.05c0-.19.14-.35.13-.51A4.44,4.44,0,0,0,9.59,30h0c-.12-.05,0-.24-.14-.24,0,0,0-.07,0-.08s0-.18-.15-.17,0,0,0,0-.09,0-.13-.1l0,0c0-.05-.07.08-.07,0s0,.06,0,.06-.32.11-.45.29-.15-.12-.17,0c0,0,0,0,0,0s-.16,0-.13.06,0,0,.05.07-.16.06-.15.16l0,0c0,.13,0,.24,0,.36a3.53,3.53,0,0,0,0,1.71,3.93,3.93,0,0,0,.68,1.52c0,.17,0,.18.15.26s0,0,0,0,.08.07.15,0a2.21,2.21,0,0,0,.49.36s-.08,0,0,.06l.06,0v0s.07,0,.06-.05a4.53,4.53,0,0,0,1.52.54,1.14,1.14,0,0,0,.45,0,1.6,1.6,0,0,0,1.21-.17A.37.37,0,0,1,13,35Z"/><path class="cls-1" d="M4.16,32.49s0,.1-.07.1S4.13,32.51,4.16,32.49Z"/><path class="cls-1" d="M5.06,33.73s0,0,0,0,0,0-.06,0S5.05,33.74,5.06,33.73Z"/><path class="cls-1" d="M5.42,33.92s-.11,0-.16,0Z"/><path class="cls-1" d="M5.73,34.18s0,.06,0,0Z"/><path class="cls-1" d="M5.78,34.11s0,0,0,.06S5.75,34.17,5.78,34.11Z"/><path class="cls-1" d="M6.58,34.37s.07,0,.08,0S6.56,34.42,6.58,34.37Z"/><path class="cls-1" d="M7,34.33s0,0,0,0,0,0,0,0Z"/><polygon class="cls-1" points="9.98 29.21 10.03 29.24 9.99 29.26 9.98 29.21"/><path class="cls-1" d="M7.63,30.45c0,.05,0,0,0,0S7.62,30.5,7.63,30.45Z"/><polygon class="cls-1" points="7.75 32.03 7.75 32.01 7.82 32.01 7.75 32.03"/><path class="cls-1" d="M55.11,29.08c0-.06-.06,0,0,0S55.13,29.05,55.11,29.08Z"/><path class="cls-1" d="M45.59,30.5c.22.15.08.42.26.58,0,0-.1,0-.07.06a.85.85,0,0,1,.21.71h0s.11.06.12.1,0,0,0,0,.06.07.11.07,0,.05-.06.08h.07c.17,0,.07.17.2.21l0,0c.17.09.26.27.41.39l-.08.05a.14.14,0,0,1,.15,0c0,.06.1,0,.11.09h0c.09,0,0,.07.1,0L47,33c.09-.06,0,.08.06.07l0,0s0,.06,0,.07h0c.06,0,.05.1.11,0s-.07,0-.11.07a3.54,3.54,0,0,1,.58.41.14.14,0,0,1,0,.09s.08,0,.12,0,0,0,0,0,.09,0,.11,0a.06.06,0,0,0-.06,0c.06,0,.11,0,.16,0s0,0,0,0,.07.06.14,0l0,0c0,.09.06-.07.1,0s0,0,0,0,.15,0,.22,0h0c.06,0,.11.07.19.07s-.05.1,0,.11.12,0,.12-.1c.05,0,.12.1.17.09s0,.11-.06.1v.07s0,0,0,0,.11,0,.13,0,.13-.13.2-.12,0,.11,0,.12l.15-.14s0,.07,0,0l0,0s.1,0,.09.09,0,0,0,.05,0,0,.09,0h0s.09,0,.07-.08,0,.06,0,0a.12.12,0,0,1,.13,0s0,0,0,.06a.47.47,0,0,1,.2-.1s0,.08,0,.05.18-.06.24,0,0-.07,0-.05,0,.07.05.05,0,0,.07,0,0,0,0,0a.26.26,0,0,1,.27,0s0-.09.07-.09v.06s.07,0,.07.05-.16,0-.1,0,.08-.09.06,0,.08-.06.12,0,0,.09,0,.08,0,0,.06,0l0,0s0,0,0-.06.08,0,.08.06v.08s0-.08,0-.12,0,0,0,0,.06,0,.08-.09.13,0,.16.06.06-.09.11-.08,0,0,0,0,0,0,.06,0,.06.05.1.09,0-.1,0-.14.09-.08.15,0,0,.07,0,.09,0-.1.11-.07l0-.08s.06-.08.08,0,.07,0,0-.07c.12,0,.2-.11.31,0s0,0,0,0,0,0,0,0,0,0,0,0,.06,0,.06.08,0-.16.1-.16,0,0,0,0v-.07c.06,0,.07.06.09.12s.06,0,0-.09l.07.06s0-.05,0-.07v0s0,0,.05,0-.06,0-.08,0,0,0,0-.08.07,0,.09,0,0-.06,0-.06,0,0,.05,0,0,0,0,0,0,.06.06,0-.07-.11,0-.1,0,0,0,.07h0l0,0v0s.06,0,0-.11.06,0,.09,0h0s.06,0,.05-.08h0a.08.08,0,0,0,0-.07c.05,0,.13.17.12.09s0-.12,0-.14.09-.13.19-.1,0,0,0-.06.12-.18.26-.16c0,0,0,0,.06.07s.05,0,0-.06,0-.05-.08,0,.08-.13.14-.12,0,0,0,0,.09,0,.1,0l0,0h.06s-.07-.08,0-.07l0,0c0-.05,0-.13,0-.14l.08,0s0-.07,0-.06.11,0,.17,0a.46.46,0,0,1,.11-.41l0,0s0,0,0-.06.08,0,.1.07,0-.09,0-.13,0,0,0,0,.07,0,0-.08l.1.06,0,0c.1,0,.09.15.2.17v0c.09,0,0,.11.1.06s-.09-.12-.13-.11-.14-.12-.1-.18,0,.06,0,.08,0-.08,0-.09-.09,0-.09-.07,0,.05.08,0,0-.08-.09-.06.05,0,0-.09.11.11.17.08,0-.1-.15-.11a.11.11,0,0,1,.1,0s-.07-.12,0-.07l-.06,0h.09s0-.12,0-.08,0-.06,0-.07,0,.06-.07,0c.08,0,0-.05,0-.08h0s0,0,0-.06,0,0,0,0l0,0c0-.06.1,0,.1,0l0,.05s0,0,0,0l-.13-.09s.06,0,0,0l0,.06s.09,0,.11,0-.07-.09-.11-.06,0,0,.07,0,0,0-.07-.06a.71.71,0,0,0,.16,0l.07.07v0c.06.06,0,0,.12.05s0-.05,0-.07-.14-.11-.25-.12.27,0,.12-.09-.1-.05-.08,0-.1-.06,0-.1.12,0,.17.06,0,0,0,0,.1,0,.12,0,0-.07-.06-.08,0,.05-.06,0,.09-.05,0-.1-.06,0-.1,0l0-.05,0,0c0-.06-.07,0,0-.09h.09c.07,0,0,.08.07.09s0-.06,0-.09l0,0s.16,0,.08-.08,0,0-.08,0,0-.09,0-.14,0-.07.1,0-.07.11,0,.15,0,.05.07.08.11,0,.18,0,0,0,0-.05-.06,0-.12,0a.13.13,0,0,0,0-.17s.09,0,.1,0a.41.41,0,0,1,0-.22c-.11,0,0-.08-.1-.06a.12.12,0,0,1-.15,0s.05,0,.07,0,.09,0,0-.07.12,0,.2,0,.05,0,.06,0a.38.38,0,0,1-.08-.17c.07-.06,0-.17,0-.23s.12,0,.14,0-.1,0-.05,0h0s.06-.11-.06-.12h.09s0,0,0,0,.06,0,.08,0,0-.07,0-.12l-.06,0c-.05-.06,0-.11,0-.18H55l0,0s.08,0,0-.05l.14.09s-.07,0-.12,0,0,.08,0,.09,0,0,0-.05.07,0,.13,0,0,0,0,0a.09.09,0,0,1,0,.09s0,0-.07,0,.1,0,.08.09.05.1,0,.16a.27.27,0,0,1-.15-.09s0,0,0,.08.13,0,.16.08h-.05c0,.05.1.05.08.11s0,.2,0,.27h0c.1.05,0,.15.07.21s0,.22-.07.25a1.42,1.42,0,0,1,0,.5l-.06,0s0,0,0,0,.06.06.1.09,0,.18,0,.26H55c.07.1,0,.15-.09.23s-.07,0-.07,0a.42.42,0,0,1,.06.19.35.35,0,0,1-.12.15c0,.22-.14.38-.2.58l-.06,0c0,.24-.23.38-.29.55l-.07-.07a.07.07,0,0,0,0,.14c-.06,0,0,.14-.14.11s0,.08,0,.12a.42.42,0,0,0-.19.18h0s0-.06-.06,0-.12.08,0,.14c-.14,0-.17.21-.31.21,0,0,0,0,0,.07s-.2.07-.23.16,0-.06,0,0,0,0,0,.07-.3.13-.42.21a2.3,2.3,0,0,1-.69.37v0c0,.12-.21,0-.23.12,0,0-.08,0-.08,0s-.19,0-.26.09h0c-.11,0-.18.05-.29,0a.06.06,0,0,0,0,0s-.08.12-.12,0,0,.06,0,0a4.34,4.34,0,0,0-.69.12c-.17-.07,0-.2-.14-.11s0,0,0,0-.07-.13-.11-.07,0,0,0,.08-.11-.11-.19-.07v0c-.11.09-.21,0-.3.13a4.56,4.56,0,0,1-1.51-.35,4,4,0,0,1-1.24-.89c0-.15,0-.15-.15-.22s0,0,0,0-.07-.06-.14,0c-.11-.15-.25-.26-.37-.42,0,0,.09,0,.06,0H46.3v0s-.07,0-.08,0a3.83,3.83,0,0,1-.65-1.29,1.1,1.1,0,0,0-.16-.37,3.09,3.09,0,0,0-.12-1.06S45.52,30.37,45.59,30.5Z"/><path class="cls-1" d="M55.13,29.14s-.06.06-.12,0A.56.56,0,0,1,55.13,29.14Z"/><path class="cls-1" d="M54.72,30.17s0,0,0,0,0,0,0,0Z"/><path class="cls-1" d="M54.67,30.42a.12.12,0,0,1-.06-.1Z"/><path class="cls-1" d="M54.48,30.62s0,0,0,0Z"/><path class="cls-1" d="M54.56,30.66s0,0-.05,0S54.5,30.64,54.56,30.66Z"/><path class="cls-1" d="M54.34,31.11s0,0,0,0S54.29,31.08,54.34,31.11Z"/><path class="cls-1" d="M54.33,31.34v0a0,0,0,0,1,0,0Z"/><polygon class="cls-1" points="51.46 34.22 51.48 34.2 51.49 34.23 51.46 34.22"/><path class="cls-1" d="M49.61,34.3s0,0,0,0S49.58,34.3,49.61,34.3Z"/><polygon class="cls-1" points="48.57 34.16 48.58 34.16 48.54 34.23 48.57 34.16"/><path class="cls-1" d="M46.94,33.06s0,0,0,0S47,33.07,46.94,33.06Z"/><path class="cls-1" d="M45.15,35.43c-.13-.15.05-.07,0-.17s.08.06.07,0,0-.12.13-.09l0,0s-.05-.06,0-.06l0,0s0,0,0-.06l.08.05,0-.05c-.12-.1,0,0,0-.08l0,0c-.06-.08,0-.1,0-.15l.08.05a.14.14,0,0,1-.07-.08c.06,0,0,0,0,0v0c-.06-.06,0,0,0,0l0,0c-.08-.06,0,0,0,0v0s0,0,0,0h0s0,0,0,0,0,0,.09.07,0-.11,0-.15l.06,0s0,0,0,0l0,0s-.06-.06,0,0l.06,0a.17.17,0,0,1,0-.07.07.07,0,0,0,0,0c-.06,0,0,0,0,0l0,0c.06,0-.07-.06,0,0l0,0c-.06-.06,0,0,0-.08h0s0,0,0,0,.09.06.09,0,0,0-.11-.09.06,0,0,0l.09.07.05,0,0,0s0,0,0,0-.12-.11-.12-.13a.44.44,0,0,0,.09.07l-.13-.12s.06,0,0,0a.1.1,0,0,1,0,0s0,0,.07,0l0,0,0,0h0s0,0-.06-.06,0,0,0,0,0,0,0-.06l.05,0c-.06-.05-.07-.07-.08-.1s.06,0,0,0-.05-.08,0,0l0,0,0,0s0,0,0,0l0,0s-.05-.09,0-.07a.33.33,0,0,1-.06-.06l0,0,0,0c-.05,0,0,.06,0,0s-.06-.07,0,0,0,0,0,0l.07,0,0,0,0,0,0,0s0,0,.06,0l.06,0-.08-.07,0,0c-.09-.07,0,0-.06-.06s0,0,.08,0,0-.05,0-.05,0,0,0,0,0,0,0,0l.1,0L45.75,34c.1.06,0-.06,0,0a.16.16,0,0,0,.06,0c.09.06-.06-.06,0,0l-.07-.05s0,0,0,0,0,0,0,0,0-.07.13,0l0,0s0,0,0,0l0,0,.09.06s-.12-.1-.08-.09l0,0,0,0a.76.76,0,0,1,.13.08l0,0,.07,0s0,0,0,0h0s0,0,0,0a.1.1,0,0,0-.06,0s0,0,0,0,0,0,0,0,0,0,0,0l0,0s0,0,0,0,.07.05,0,0-.1-.07-.06-.06l.05,0h0l-.05,0,0,0s0,0-.05-.07l0,0h0s0,0,0,0h0s0,0,0,0,.17.13.12.08-.07-.07-.1-.09,0-.06,0,0l0,0s0-.08.07,0a.13.13,0,0,0,.07,0l0,0c-.05,0-.07-.05-.09-.05s0,0,0,0l0,0c.07.05.08.05.06,0l0,0,0,0s-.08-.06,0,0l0,0s-.07-.08,0-.06l.07,0-.06,0a.48.48,0,0,1,.11,0c-.11-.11-.1-.14-.07-.16l0,0,0,0,.1.07s0,0,0-.06,0,0,0,0,0,0,0,0l.09.07,0,0c.08.05.12.11.21.16h0c.06,0,.06.06.09.07a.67.67,0,0,0-.14-.11s-.13-.11-.12-.12,0,0,0,.05,0,0,0,0l-.09-.07s.06,0,.07,0a.21.21,0,0,0-.08-.06c-.08-.06,0,0,0,0l.15.12a.94.94,0,0,0-.14-.12l.09.06s-.09-.08,0,0l-.06-.05.07,0s-.06-.07,0,0l-.06,0s0,0,0,0,0,0,0,0l0,0,0,0,.05,0-.05,0s.09.06.08,0l0,0s0,0,0,0l-.12-.1s0,0,0,0l0,0s.08.05.08,0a.43.43,0,0,0-.1-.07s0,0,.06,0,0,0-.06-.06l.12.07.07.06h0s0,0,.1.07,0,0,0,0-.12-.11-.21-.17.22.15.09,0l-.07-.05s-.08-.07,0,0a1.1,1.1,0,0,1,.14.11s0,0,0,0,.09.06.1,0,0,0,0,0l-.05,0s.07,0,0,0-.05,0-.09,0v0l0,0s-.06,0,0-.06l.07.05s0,0,.06.06,0,0,0,0v0s.14.09.07,0L46.33,33s0,0,0-.06,0,0,.08,0-.05,0,0,0,0,0,.06.06l.14.09,0,0-.1-.07s0,0,0-.08l.07.06s0,0,0,0,0,0-.08-.07a.52.52,0,0,1-.12-.07l0,0s.08,0,0,0a.82.82,0,0,0,.16.12s0,0,0,0a.15.15,0,0,1,0-.08c.06,0,0,0,0,0l.12.08s-.08-.06,0,0h0s.06,0,0-.06l.07.06s0,0,0,0,0,0,.06,0,0,0,0,0l-.05,0s0,0,0,0l.05,0,0,0s.07,0,0,0l.09.1L46.8,33s0,0,0,0,0,0,0,0,.05.05.09.08,0,0,0,0l0,0-.06,0c.06,0,.07.06,0,.06s0,0,0,0l-.11-.1s0,0,0,0a.75.75,0,0,1,.13.11l-.05,0s.08.07.06.07a.06.06,0,0,0,0,0l-.05,0c.09.07,0,0,.05.09s0,.06-.06,0,0,.1,0,.11l-.05,0,0,0c.06,0,.06.06.1.09s0,0,0,.07l0,0c.07.07,0,0,0,0s-.06,0-.06,0a.37.37,0,0,1,.09.09h-.06c.07.1,0,.09,0,.16l-.05,0c.08.11,0,.08,0,.14l-.08-.06s0,0,.07.08,0,0,0,0,0,0,0,.05,0,0,0,0h0l-.06,0s0,0,.07.08c-.07,0,0,.07-.07,0s0,0,0,0-.07,0,0,0,0,0,0,0l0,0c0,.06-.08,0-.09,0s0,.1-.05.14h0c.07.06-.09,0,0,.06s0,0,0,0-.07,0,0,0,0,0,0,0,0,0-.06,0l0,0s.07.08,0,0l0,0c-.06,0,0,.08,0,.13s-.16-.11-.1,0h0s-.11-.07-.06,0l.06.05c-.05,0-.1-.05-.07,0l0,0c.08.08,0,.06.11.15s0,.2-.08.28-.08.17-.19.2-.09,0-.07,0l0,0c.07,0,0,0,.06.06s0,.06,0,.09l-.06,0,0,0h0l.06,0c0,.11-.18.09-.22.17s0,0,0,.06-.23,0-.21.09A1,1,0,0,1,45.15,35.43Z"/><path class="cls-1" d="M46.94,33.08l-.1-.07Z"/><path class="cls-1" d="M46.48,33h0s0,0,0,0Z"/><path class="cls-1" d="M46.43,33a.2.2,0,0,1,0-.05Z"/><path class="cls-1" d="M46.28,33s0,0,0,0Z"/><path class="cls-1" d="M46.34,33h0S46.3,33,46.34,33Z"/><path class="cls-1" d="M46.2,33.05s0,0,0,0S46.15,33,46.2,33.05Z"/><path class="cls-1" d="M46.21,33.12h0a0,0,0,0,1,0,0Z"/><polygon class="cls-1" points="45.79 33.93 45.78 33.92 45.81 33.94 45.79 33.93"/><path class="cls-1" d="M45.56,34.25s0,0,0,0Z"/><polygon class="cls-1" points="45.58 34.53 45.58 34.53 45.64 34.58 45.58 34.53"/><path class="cls-1" d="M49.25,34.5s-.07,0,0,0Z"/><path class="cls-1" d="M48.49,37.25c-.17-.08,0-.08-.08-.14h.07c-.13-.08,0-.11.09-.12h0s-.07,0-.05,0h.05c-.06,0,0,0-.07,0l.1,0-.07,0c-.15-.06,0,0-.05-.07h0c-.09-.05-.06-.09-.08-.13l.09,0-.1,0c.07,0-.06,0,0,0h0c-.07,0,0,0,0,0h0c-.09,0,.06,0,0,0h0s0,0,0,0h0s0,0,0,0,0,0,.12,0c-.07-.06,0-.11,0-.15h.07s0,0-.05,0h.05s-.09,0-.05,0l.07,0c-.06,0,0,0-.06,0h0c-.06,0,0,0,0,0h.05s-.1,0-.06,0l0,0c-.08,0,0,0-.07-.06h0s0,0,0,0,.11,0,.1,0,0,0-.14,0,.06,0,0,0l.12,0h.05s0,0,0,0,0,0,0,0l-.16-.07.11,0-.17-.07h.05l-.05,0s0,0,.07,0h.05l0,0h0s0,0-.08,0,0,0,0,0-.06,0-.06,0l.06,0L48.44,36l.05,0c.07,0-.07,0,0,0l0,0h0s0,0,0,0-.08-.06,0-.07l-.08,0h.1c-.07,0,.05.05,0,0s-.08,0,0,0-.06,0,0,0l.08,0,0,0h0s0,0,0,0,0,0,.07,0l.07,0-.1,0h0c-.11,0,0,0-.07,0s0,0,.08,0-.07,0-.05,0l0,0s0,0,0,0h.1l-.12,0c.11,0-.06,0,0,0l.08,0c.11,0-.07,0,0,0l-.09,0c.06,0,0,0,0,0s0,0-.06,0c.08,0,0-.06.13,0l0,0s0,0,0,0h0l.1,0s-.15,0-.11-.06h0l-.05,0,.14,0,0,0h.08c-.06,0,0,0,0,0h0s0,0,0,0h-.07l0,0c.06,0,0,0,0,0s0,0,0,0h0s0,0,0,0h0s-.12,0-.08,0l.06,0h0l-.05,0h0c-.06,0,0,0-.08,0h0s0,0,0,0h0l0,0s.2,0,.14,0l-.13,0s0,0,0,0h-.05s0-.06.06,0l.08,0s.06,0,0,0h-.09s0,0,0,0h-.05c.07,0,.09,0,.06,0h0s-.1,0-.06,0h.06s-.1,0-.06,0h.07l-.07,0a.22.22,0,0,1,.11,0c-.14-.06-.13-.1-.12-.12h0s-.06,0,0,0l.12,0s-.06,0-.07,0,0,0,0,0,0,0,0,0l.11,0h0c.08,0,.14,0,.25.07h0c.07,0,.08,0,.1,0L48.78,35s-.17,0-.16-.06l.07,0c.06,0,0,0,0,0a.28.28,0,0,1-.11,0s.07,0,.08,0l-.1,0c-.09,0,0,0,0,0a1.08,1.08,0,0,0,.19.05,1.25,1.25,0,0,0-.18-.06l.11,0s-.11,0,0,0l-.06,0h.07s-.08,0,0,0l-.07,0c-.05,0,0,0-.05,0,.08,0,0,0,0,0h0l0,0h0s.1,0,.09,0l0,0s0,0,0,0l-.15,0s.06,0,0,0l.06,0s.08,0,.08,0l-.12,0a.14.14,0,0,1,.07,0s0,0-.08,0h.14l.08,0h0l.13,0,0,0a2.13,2.13,0,0,1-.27-.08s.27.06.1,0-.1,0-.08,0-.1,0-.05,0a.68.68,0,0,1,.17,0s0,0,0,0l.11,0s0,0-.07,0h-.05s.07,0,0,0l-.09,0h0s-.07,0-.06,0h.09c.06,0,0,0,.07,0s-.05,0,0,0h0s.15,0,.07,0l-.09,0,0,0c.08,0,0,0,.09,0s-.05,0,0,0,0,0,.08,0a1,1,0,0,1,.17,0h0l-.12,0s0,0-.07-.05l.09,0a0,0,0,0,1,0,0c-.1,0,0,0-.1,0l-.14,0,.07,0c-.05,0,.08,0,0,0a.6.6,0,0,0,.2.06s.05,0,.05,0l-.08,0c.07,0,0,0,0,0s.12,0,.14,0-.1,0-.05,0h0s.07,0-.06,0l.1,0,0,0,.07,0c.07,0,0,0,0,0H49s0,0,0,0l.05,0,0,0c.06,0,.09,0,0,0l.13.06-.12,0c-.05,0,0,0,0,0s0,0,0,0l.12,0s0,0,0,0l0,0h-.07c.07,0,.08,0,.06,0s.05,0,0,0l-.14-.06h0l.16.05h0s.09,0,.08,0a.11.11,0,0,0,0,0h-.05c.11,0,0,0,.08.06s0,0-.05,0,.06.08,0,.11l-.08,0c.06,0,0,0,0,0s.07,0,.12,0,0,0,0,.06l-.05,0c.09,0,0,0,0,0s-.07,0-.07,0l.12.06s0,0-.06,0,0,.08.08.13h-.06c.12.07,0,.08.05.12l-.1,0s0,0,.09,0,0,0,0,0,0,0,.06,0,0,0,0,0h0s-.06,0-.07,0,0,0,.09,0c-.08,0,0,.06-.06,0l.06,0s-.07,0,0,0-.05,0-.06,0l.06,0s-.08,0-.07.06,0,.1,0,.15h0c.08,0-.1,0,0,.06s0,0-.06,0-.07,0,0,.05h0c-.06,0,0,0,0,0l0,0s.09,0,0,0h0s0,.09,0,.13-.2,0-.12,0,0,0,0,0-.13,0-.07,0l.08,0s-.11,0-.06,0h0c.1,0,0,0,.15.1a2.7,2.7,0,0,1,0,.28c0,.08,0,.18-.1.25s-.1,0-.06,0h0c.08,0,0,0,.08,0s0,.06,0,.09-.07,0-.06,0l0,0h0l.08,0c0,.1-.14.14-.14.23s0,0,0,.07-.22.07-.16.15A1.07,1.07,0,0,1,48.49,37.25Z"/><path class="cls-1" d="M49.25,34.52l-.12,0Z"/><path class="cls-1" d="M48.79,34.6h0Z"/><path class="cls-1" d="M48.76,34.65a.14.14,0,0,1-.07,0Z"/><path class="cls-1" d="M48.6,34.66l-.05,0Z"/><path class="cls-1" d="M48.68,34.68h0S48.62,34.66,48.68,34.68Z"/><path class="cls-1" d="M48.55,34.75s0,0,0,0S48.5,34.74,48.55,34.75Z"/><path class="cls-1" d="M48.59,34.81s0,0,0,0l0,0Z"/><polygon class="cls-1" points="48.52 35.69 48.5 35.68 48.53 35.69 48.52 35.69"/><path class="cls-1" d="M48.42,36.06h0Z"/><polygon class="cls-1" points="48.55 36.3 48.55 36.3 48.62 36.32 48.55 36.3"/><path class="cls-1" d="M51.92,34.48s-.06,0,0,0Z"/><path class="cls-1" d="M52.37,37c-.19,0,0-.07-.14-.08l.08,0c-.15,0-.08-.07,0-.13h0s-.08,0-.07,0h.06c-.06,0,0,0-.08,0l.1,0h-.07c-.16,0,0,0-.08,0h0c-.1,0-.09-.05-.13-.07l.09,0h-.1c.07,0-.07,0,0,0h0c-.07,0,0,0,0,0h.06c-.1,0,.05,0,0,0h0s0,0,0,0h0s0,0,0,0,0,0,.12,0c-.09,0-.08-.07-.09-.11l.07,0s0,0-.06,0h0s-.09,0-.06,0h0c-.07,0,0,0,0,0h0c.05,0-.09,0-.06,0h0c-.09,0-.06,0-.09,0h0s0,0,0,0,.11,0,.09,0,0,0-.14,0,0,0,0,0l.12,0h.09s0,0,0,0-.16,0-.18,0l.12,0-.18,0,.05,0h-.06s0,0,.06,0h0s0,0-.09,0h-.11s.08,0,.06,0-.09,0,0,0h0l0,0h0s0,0,0,0-.09,0,0-.05h0s0,0,0,0,.06,0,0,0-.09,0,0,0-.06,0,0,0,.08,0,.07,0h-.12s0,0,.06,0h.07a.22.22,0,0,0-.11,0h0c-.11,0,0,0-.08,0s0,0,.07,0-.08,0,0,0h0s0,0,0,0l.1,0-.13,0c.1,0-.08,0,0,0a.12.12,0,0,0,.08,0c.11,0-.08,0,0,0l-.09,0c.06,0,0,0,0,0s0,0-.06,0-.05,0,.1-.08h0s0,0,0,0h0a.18.18,0,0,1,.1,0s-.16,0-.12,0,0,0,0,0h-.06l.14,0h-.06l.08,0c-.06,0,0,0-.06,0h0s0,0,0,0l-.06,0h-.06c.06,0,0,0,0,0h0s0,0,0,0,0,0,0,0,.08,0,0,0-.12,0-.08,0h.06c-.06,0,0,0-.09,0l.05,0h0s0,0,0,0h0s0,0,0,0l.14,0a.45.45,0,0,0-.14,0s0,0,0,0h-.05s-.07,0,0-.07h.09c-.05,0,0,0,0,0l-.09,0s0,0,0,0h0c.08,0,.09,0,.06,0h0s-.1,0-.05,0h.05s-.11,0-.07,0l.07,0h-.08a.28.28,0,0,1,.11,0c-.15,0-.16,0-.16-.05h0s-.07,0,0,0l.11,0h-.08c-.05,0,0,0,0,0s0,0,0,0l.11,0h0c.08,0,.15,0,.25,0h0c.08,0,.09,0,.11,0l-.17,0s-.17,0-.17,0,0,0,.07,0,0,0,0,0l-.12,0,.08,0s-.08,0-.1,0,0,0,0,0a.69.69,0,0,0,.18,0c-.06,0-.09,0-.18,0l.11,0s-.12,0,0,0h-.07l.07,0s-.09,0,0,0,0,0-.08,0,.05,0,0,0c.08,0,0,0,0,0h0l.06,0h-.06s.1,0,.08,0h.08l-.16,0s.06,0,0,0h.07s.08,0,.08,0l-.12,0s0,0,.06,0h-.09l.14,0h.08a.51.51,0,0,0,.13,0s0,0,0,0a1.57,1.57,0,0,1-.27.05s.26-.06.09,0l-.08,0h-.07l.17,0s0,0,0,0l.11,0s0,0-.07,0h-.06s.07,0,0,0,0,0-.1,0h0s-.08,0-.07,0l.08,0c.07,0,0,0,.09,0s-.06,0,0,0h0s.16,0,.07,0H51.4c.08,0,0,0,.09,0s0,0,0,0,0,0,.09,0l.16,0h0l-.13,0s0,0-.08,0l.1,0s0,0,0,0,0,0-.11,0a.35.35,0,0,1-.13,0h.06c-.05,0,.09,0,0,0a1,1,0,0,0,.2,0s.05,0,.05,0h-.1c.08,0,0,0,0,0l.13,0s-.09,0-.05,0h0s0,0-.07,0l.09,0h.06c.06,0,0,0,0,0l-.06,0s0,0,0,0h0c.05,0,.09,0,0,0h.14l-.12,0c-.05,0,0,0,0,0h0l.12,0H52c-.08,0,0,0,0,0l-.15,0s0,0,0,0l.16,0h0a.06.06,0,0,0,0,0h0c.1,0,0,0,.09,0s0,0,0,0,.08,0,.07.07h0s0,0,.06,0h0c.1,0,0,0,0,0l-.06,0h.13s0,0-.05,0c.12,0,.06.06.13.08h-.06c.13,0,0,.07.1.08l-.1,0s0,0,.1,0,.05,0,0,0,.05,0,.06,0,0,0,0,0h-.07s0,0,.1,0c-.07,0,.06,0,0,.07h.07s-.06,0,0,.05h0c.06,0-.06.07,0,.08s0,.08.07.12h0c.09,0-.09.05.05,0,0,0,0,0-.06,0s0,0,0,0h0s0,0,0,0h0c-.05,0,.1,0,0,0h.06s0,.06.08.1-.2,0-.11,0,0,0,0,0-.12,0-.06,0l.08,0s-.11,0,0,0h0c.11,0,.06,0,.18,0s.12.14.15.21.06.15,0,.24-.09,0,0,.06h0s0,.06,0,.09-.07,0-.07,0h.11c.09.06-.06.17,0,.24s0,0,0,.06-.17.14-.09.19A1,1,0,0,1,52.37,37Z"/><path class="cls-1" d="M51.93,34.49l-.11,0Z"/><path class="cls-1" d="M51.55,34.74h0Z"/><path class="cls-1" d="M51.54,34.79h0Z"/><path class="cls-1" d="M51.4,34.86h0Z"/><path class="cls-1" d="M51.48,34.85l0,0S51.42,34.86,51.48,34.85Z"/><path class="cls-1" d="M51.39,35s0,0,0,0S51.34,35,51.39,35Z"/><path class="cls-1" d="M51.46,35s0,0,0,0h0Z"/><polygon class="cls-1" points="51.75 35.74 51.73 35.74 51.77 35.73 51.75 35.74"/><path class="cls-1" d="M51.81,36.08s0,0,0,0Z"/><polygon class="cls-1" points="52.03 36.23 52.03 36.23 52.1 36.21 52.03 36.23"/><path class="cls-1" d="M53.84,33.06s-.05,0,0,0Z"/><path class="cls-1" d="M55.56,35.23c-.16.1,0-.06-.16,0s.08-.06.06-.06-.11,0-.05-.13l0,0s-.07,0-.07,0a.08.08,0,0,0,0,0s0,0-.06,0l.07-.06-.06,0c-.13.09,0,0-.09,0l0,0c-.1,0-.11,0-.16,0l.08-.06c-.06,0-.08.05-.1.05s-.06,0,0,0h0c-.06,0,0,0,0,0l0,0c-.08.06,0,0,0,0h0s0,0,0,0h0s0,0,0,0,0,0,.1-.07c-.09,0-.11,0-.14-.06l0-.06,0,0,0,0s-.08,0-.05,0l.06,0c-.05,0-.05,0-.07,0l0,0c-.06,0,0,0,0,0l0,0s-.08.05-.06,0,0,0,0,0-.06,0-.09,0l0,0s0,0,0,0,.09-.07.06-.07,0,0-.11.08,0,0,0,0,.08-.08.09-.07l0,0s0,0,0,0h0s-.14.09-.15.08.07-.06.09-.07l-.15.1s.05-.05,0,0l0,0s0,0,0-.05l0,0s0,0,0,0h0l-.08,0s0,0,0,0l-.06,0,0,0-.12,0s.07,0,0,0-.09,0,0,0l0,0s.05,0,0,0h0s-.09,0-.06,0-.07.05-.07,0l0,0s0,0,0,0,.06,0,0,0-.08,0,0,0-.06,0,0,0,.07,0,.06-.05,0,0,0,0l0,0s0,0,0,0,0,0,0-.06l.06,0-.09.06,0,0c-.09.07,0,0-.07,0s0,0,0-.07-.07,0,0,0l0,0s0,0,0,0l.07-.08-.11.07c.09-.07-.06,0,0,0a.09.09,0,0,0,.06,0c.08-.07-.07,0,0,0l-.07.06s0,0,0,0,0,0-.05,0-.07,0,.05-.11,0,0,0,0,0,0,0,0l0,0s0,0,.08-.07-.13.09-.11.05l0,0-.05,0s.06-.05.1-.09,0,0,0,0l.06-.06s0,0,0,0h0s0,0,0,0,0,0,0,.05l0,0s0,0,0,0l0,0,0,0s0,0,0,0l0,0s-.1.07-.07,0l0,0,0,0,0,0h0s0,0-.07,0,0,0,0,0h0s0,0,0,0h0s.16-.13.1-.09-.09.05-.11.08-.06,0,0-.06l0,0s-.08,0,0-.07l.07-.06s0,0,0,0S54,34,54,34s0,0,0,0l0,0C54,34,54,34,54,34l0,0,0,0s-.09.06-.05,0l0,0s-.1.05-.07,0l.05-.05-.06.05A.55.55,0,0,1,54,33.9c-.13.07-.15.05-.16,0l0,0s0,0,0,0l.09-.07s-.05,0-.07,0,0,0,0,0,0,0,0,0a.31.31,0,0,1,.09-.07h0c.06-.06.13-.08.2-.15h0c.05-.05.07,0,.09-.07a.53.53,0,0,0-.14.11s-.14.1-.14.09l.06,0s0,0,0,0a.2.2,0,0,1-.09.07l.06,0-.08.06c-.08.06,0,0-.05,0a1.11,1.11,0,0,0,.15-.12l-.15.11.08-.07s-.1.06,0,0l0,0,0,0s-.08,0,0,0,0,0-.07,0,.05,0,0,0,0,0,0,0l0,0,0,0,0,0,0,0s.07-.06.05-.06l0,0s0,0,0,0l-.13.1s0,0,0,0l0,0s.07-.06.06-.06l-.1.07.05,0s0,0-.07,0a.45.45,0,0,0,.09-.1l.08,0h0c.06,0,0,0,.1-.09l0,0c-.08.08-.13.09-.22.17s.21-.18.06-.08-.09.06-.06.05-.09.07-.06,0,.08-.08.14-.11,0,0,0,0,.09-.07.08-.08l-.06,0s0,0,0,0,.05,0,0,0,0,.05-.07.07l0,0,0,0s-.06,0-.06,0l.06-.06s0,0,.07,0,0,0,0,0h0s.12-.1,0-.06l-.06.06s-.06,0-.07,0,0,0,.07-.07,0,.05,0,0,0,0,.07,0l.13-.12,0,0-.09.08s0,0-.08,0l.08-.06s0,0,0,0,0,0-.09.06a.46.46,0,0,1-.1.1l.05,0c-.05,0,.06-.07,0,0a.92.92,0,0,0,.16-.12s0,0,0,0l-.1,0c0-.06,0,0,0,0a1.2,1.2,0,0,0,.11-.1s-.07.07,0,0h0s0,0-.07,0l.08-.06s0,0,0,0l.07-.05s0,0,0,0l0,0s0,0,0,0l0,0,0,0s.06-.06,0,0l.12-.08s-.05,0-.09.08,0,0,0,0h0l.1-.07s0,0,0,0,0,0,0,0a.11.11,0,0,0,0,0s.07,0,.06,0,.05,0,0,0l-.13.08s0,0,0,0a.77.77,0,0,1,.13-.09l0,0,.08,0a.06.06,0,0,0,0,.06l0,0c.09-.06.05,0,.09,0s.06,0,0,.06.1,0,.1,0l-.06,0s0,0,0,0,.07,0,.1-.07,0,0,.08,0l0,0c.08,0,0,0,0,0s-.05,0,0,0l.11-.06s0,0,0,.06.07,0,.15,0l-.05,0c.12-.05.06.06.13,0l-.08.06s0,0,.09-.05.05,0,0,.05,0,0,.06,0,0,0,0,0h0l0,0s0,0,.08,0,.07,0,0,.07l.05,0s0,.07,0,0l-.05,0,.05,0c.07,0,0,.09,0,.1s.08,0,.11.07v0c.08-.05-.06.08.06,0s0,0,0,0,0,.06,0,0h0s0,0,0,0l0,0s.09-.06,0,0l0,0c0,.06.07.05.12.06s-.15.13-.07.09,0,0,0,0-.1.09-.05.06l.07,0s-.07.08,0,.06l0,0c.09-.05.06,0,.17-.07s.18.08.24.13.13.11.14.22-.06.08,0,.07l0,0c.07-.06,0,0,.08-.05s.05.05.07.07-.07,0-.06,0l0,0h0a.11.11,0,0,0,.06,0c.11,0,0,.18.1.23s0,0,.06.05-.08.21,0,.21A1,1,0,0,1,55.56,35.23Z"/><path class="cls-1" d="M53.85,33.07a.36.36,0,0,1-.09.08Z"/><path class="cls-1" d="M53.65,33.48s0,0,0,0h0Z"/><path class="cls-1" d="M53.66,33.54l-.06,0Z"/><path class="cls-1" d="M53.58,33.67l0,0S53.56,33.68,53.58,33.67Z"/><path class="cls-1" d="M53.64,33.62a.07.07,0,0,1,0,0S53.59,33.66,53.64,33.62Z"/><path class="cls-1" d="M53.62,33.76s0,0,0,0S53.58,33.8,53.62,33.76Z"/><path class="cls-1" d="M53.69,33.76s0,0,0,0l0,0Z"/><polygon class="cls-1" points="54.34 34.32 54.33 34.33 54.35 34.31 54.34 34.32"/><path class="cls-1" d="M54.58,34.61s0,0,0,0S54.59,34.61,54.58,34.61Z"/><polygon class="cls-1" points="54.85 34.65 54.84 34.65 54.9 34.6 54.85 34.65"/><path class="cls-1" d="M54.74,31.48s0,.06,0,0Z"/><path class="cls-1" d="M57.06,32.6c-.11.16-.07,0-.15.07s.05-.1,0-.08-.1,0-.09-.1v0s0,.06,0,0l0,0s0,0-.05.06a.47.47,0,0,0,0-.09l0,.06c-.08.14,0,0-.07,0l0,0c-.07.08-.09,0-.14.07l0-.09a.2.2,0,0,1-.06.09c0-.07,0,0,0,0h0c0,.06,0-.05,0,0l0-.05c0,.09,0,0,0,0v0s0,0,0,0v0s0,0,0,0,0,0,.06-.11-.1,0-.14,0l0-.07s0,0,0,0l0,0s0,.08,0,0l0-.07c0,.06,0,0-.06.06s0,0,0,0,0,0,0,0l0,0c0-.06,0,.08,0,0l0,0c0,.07,0,0-.07.06h0s0,0,0,0a.49.49,0,0,0,0-.09c0,.08,0,0-.08.12s0,0,0,0,0-.1.06-.11v0l0,0s0,0,0,0-.08.15-.1.15,0-.09.06-.11l-.1.16,0,0,0,0s0,0,0-.07,0,0,0,0l0,0h0s0,0,0,.08,0,0,0,0,0,.06,0,.06l0-.06-.08.1,0,0c0-.06-.06.07,0,0s0,.06,0,.05,0-.07,0-.05l0,0v0s-.06.06-.06,0l0,.07,0-.05s0,0,0,0,0,0,0,0,0,.07,0,0,0,.06,0,0,0-.07,0-.07,0,0,0,0l0,0c0,.05,0,0,0,0s0,0,0-.06l0-.07,0,.1v0c0,.1,0,0,0,.06s0,0,0-.08,0,.06,0,0l0,0s0,0,0,0a.81.81,0,0,0,0-.11s0,.09-.06.12,0,.06,0,0a.21.21,0,0,0,0-.07c0-.1-.05.07,0,0l0,.08c0-.05,0,0,0,0s0,0,0,0c0-.08-.06,0,0-.13,0,0,0,0,0,0s0,0,0,0l0,0s0,0,0-.09-.08.13-.07.1,0-.05,0-.05l0,.06s0-.08,0-.14,0,0,0,0l0-.07s0,0,0,0v0s0,0,0,0a.1.1,0,0,0,0,.06l0,0c0-.05,0,0,0-.05l0,.05s0,0,0-.05,0,0,0,0,0-.07,0,0,0,.11,0,.07l0,0v0l0,0v0s0,0,0,.07,0,0,0-.05h0s0,0,0,0h0s0,0,0,0,.09-.19,0-.13a.44.44,0,0,0-.06.12s-.05,0,0,0,0,0,0,0-.07,0,0-.06l0-.08s0,0,0,0a.2.2,0,0,0,0,.08s0,0,0,0l0,.05c0-.07,0-.09,0-.06l0,0,0,0s0,.09,0,0l0,0s-.06.09,0,0l0-.06s0,0,0,.06a.61.61,0,0,1,0-.11c-.08.13-.11.12-.13.1l0,0s0,0,0,0a1.17,1.17,0,0,0,0-.11s0,0,0,.07,0,0,0,0,0,0,0,0l0-.1,0,0c0-.08.08-.13.12-.23h0c0-.07.05-.07.05-.1a1.09,1.09,0,0,0-.08.15s-.08.16-.09.15,0,0,0-.06,0,0,0,0a.46.46,0,0,1-.05.1l0-.07a.9.9,0,0,0,0,.09c0,.09,0,0,0,0s.07-.14.08-.17,0,.07-.09.16l0-.1s-.07.1,0,0l0,.06a.25.25,0,0,1,0-.07s0,.07,0,0,0,0,0,.07,0,0,0,0c0-.07,0,0,0,0v0s0,0,0,0a.09.09,0,0,0,0,0l0,0s0-.09,0-.08l0,0s0,0,0,0l-.07.14s0-.05,0,0l0,0,0-.09a.45.45,0,0,0-.06.12l0-.07s0,0,0,.08a1,1,0,0,0,0-.13l0-.08h0a1.34,1.34,0,0,1,.06-.12s0,0,0,0a1.45,1.45,0,0,1-.12.25s.11-.25,0-.1-.05.1,0,.08,0,.1,0,0,0-.1.08-.16,0,0,0,0a.64.64,0,0,1,0-.1s0,0,0,.06,0,0,0,.05,0-.07,0,0,0,0,0,.09l0,0,0,0s0,.07,0,.06l0-.08c0-.06,0,0,.05-.07s0,0,0,0l0,0s.06-.14,0-.06l0,.07s0,0,0,0,0,0,0-.09,0,0,0,0,0,0,.05-.07,0-.1.06-.16,0,0,0,0a.37.37,0,0,0,0,.11s0,0-.06.06l0-.09s0,0,0,0,0,0,0,.09a.55.55,0,0,1-.05.13s0,0,0-.06,0-.08,0,0a.59.59,0,0,0,.09-.18s0-.05,0-.05l-.07.07c0-.07,0,0,0,0a1,1,0,0,1,.06-.14s0,.09,0,.05v0s0-.06-.05.06l0-.09s0,0,0,0a.24.24,0,0,1,0-.07c0-.07,0,0,0,0l0,.05s0,0,0,0l0-.05,0,0s0-.08,0,0l.07-.11s0,0,0,.11,0,0,0,0l0,0c0-.07,0-.06.06-.11h0s0,0,0,0,0,0,0,.06,0-.07,0,0,0,0,0,0a.6.6,0,0,1-.08.13s0,0,0,0a1.37,1.37,0,0,1,.08-.14l0,0,.05-.07a.11.11,0,0,0,0,.05l0,.05c0-.1,0,0,.07-.07s0,0,0,.05.08,0,.1,0l0,.06c0-.05,0,0,0,0a.88.88,0,0,1,.06-.1c0,.05,0,0,.06,0l0,0c0-.08,0,0,0,0s0,.06,0,.06a.53.53,0,0,1,.07-.1s0,0,0,.06.08,0,.14-.06l0,.05c.09-.1.07,0,.13,0l0,.09s0,0,.06-.08,0,0,0,0,0,0,0,0,0,0,0,0h0l0,.06s0,0,.06-.08c0,.08.06,0,0,.06a.09.09,0,0,1,0-.05s0,.07,0,0,0,.05,0,.05l0-.05c0-.05,0,.08,0,.07s.09,0,.13,0v0c0-.08,0,.1,0,0,0,0,0,0,0,.06s0,.07,0,0h0c0,.06,0,0,0,0s0,0,0,0,.06-.08,0,0l0-.05c0,.06.08,0,.12,0s-.08.18,0,.11,0,0,0,0,0,.12,0,.07,0,0,0-.07,0,.11,0,.06l0,0c.06-.1.05,0,.11-.14a2.43,2.43,0,0,1,.27,0c.06.06.15,0,.2.13s0,.1,0,.07,0,0,0,0,0,0,0-.07,0,0,.08,0l0,.06,0,0v0a.11.11,0,0,0,0-.07c.1,0,.1.15.18.16s0,0,.06,0,0,.22.1.18A1.12,1.12,0,0,1,57.06,32.6Z"/><path class="cls-1" d="M54.75,31.48a.76.76,0,0,1,0,.11S54.74,31.51,54.75,31.48Z"/><path class="cls-1" d="M54.74,31.94s0,0,0,0,0,0,0,0Z"/><path class="cls-1" d="M54.77,32l0,.06Z"/><path class="cls-1" d="M54.75,32.13s0,0,0,0Z"/><path class="cls-1" d="M54.78,32.06s0,0,0,0S54.76,32.11,54.78,32.06Z"/><path class="cls-1" d="M54.82,32.19s0,0,0,0S54.8,32.24,54.82,32.19Z"/><path class="cls-1" d="M54.88,32.16s0,0,0,0l0,0Z"/><polygon class="cls-1" points="55.66 32.36 55.65 32.37 55.66 32.34 55.66 32.36"/><path class="cls-1" d="M56,32.5s0,0,0,0S56,32.5,56,32.5Z"/><polygon class="cls-1" points="56.21 32.41 56.21 32.41 56.24 32.35 56.21 32.41"/><path class="cls-2" d="M59.29,24.05c-.19.06-.34-10.64,10.19-12C69.48,12.08,69.6,21.06,59.29,24.05Z"/><path class="cls-1" d="M59.29,25.05a1,1,0,0,1-.74-.32c-.71-.76,0-4.07.53-5.63a11.81,11.81,0,0,1,10.28-8,1,1,0,0,1,.78.24,1,1,0,0,1,.34.74,12.77,12.77,0,0,1-1.33,5.31c-1.24,2.57-3.9,6-9.58,7.63h0A.9.9,0,0,1,59.29,25.05Zm0-1h0Zm9.09-10.77a9.78,9.78,0,0,0-5.83,3.56,11.87,11.87,0,0,0-2.25,5.82C66.55,20.32,68,15.53,68.38,13.28Z"/><path class="cls-1" d="M23.27,65.72a1,1,0,0,1-1-1V56.29a1,1,0,0,1,2,0v8.43A1,1,0,0,1,23.27,65.72Z"/><path class="cls-1" d="M28,65.72a1,1,0,0,1-1-1V58.1a1,1,0,0,1,2,0v6.62A1,1,0,0,1,28,65.72Z"/><path class="cls-1" d="M49.67,65.72a1,1,0,0,1-1-1v-5.4a1,1,0,0,1,2,0v5.4A1,1,0,0,1,49.67,65.72Z"/><path class="cls-1" d="M54.41,65.72a1,1,0,0,1-1-1V58.53a1,1,0,0,1,2,0v6.19A1,1,0,0,1,54.41,65.72Z"/><path class="cls-1" d="M39.56,60.32A41.41,41.41,0,0,1,35,60.08a45.06,45.06,0,0,1-15.33-5,18.4,18.4,0,0,1-6.23-4.49,12.84,12.84,0,0,1-2.49-6,22.28,22.28,0,0,1,2.14-13.86,17.37,17.37,0,0,1,5.64-6.63c3.52-2.4,8-3.24,12-3.76,11.69-1.51,21.59-.55,29.43,2.85a1,1,0,0,1,.53,1.28c2.58,4,5.1,8.26,6.41,12.85,1.67,5.85.17,16.25-10.84,20.87a18,18,0,0,1-7.31,1.59c-.58,0-1.23.07-2,.13C44.64,60.13,42.13,60.32,39.56,60.32ZM41,21.69a76.85,76.85,0,0,0-10,.68c-3.73.48-8,1.26-11.13,3.42a15.43,15.43,0,0,0-5,5.89,20.24,20.24,0,0,0-1.95,12.6A11,11,0,0,0,15,49.34a16.81,16.81,0,0,0,5.57,3.95,42.87,42.87,0,0,0,14.66,4.8A62,62,0,0,0,46.81,58l2-.14a15.91,15.91,0,0,0,6.65-1.44C68.7,50.84,65.2,38,65.16,37.91c-1.22-4.29-3.48-8.24-6.5-12.85a1.14,1.14,0,0,1-.15-.34A46.7,46.7,0,0,0,41,21.69Z"/><ellipse class="cls-2" cx="64.73" cy="40" rx="7.32" ry="6.65"/><path class="cls-1" d="M64.73,47.65c-4.58,0-8.31-3.43-8.31-7.65s3.73-7.65,8.31-7.65,8.32,3.43,8.32,7.65S69.32,47.65,64.73,47.65Zm0-13.3c-3.48,0-6.31,2.53-6.31,5.65s2.83,5.65,6.31,5.65,6.32-2.53,6.32-5.65S68.22,34.35,64.73,34.35Z"/><path class="cls-1" d="M41,25.25c0-.09,0,0,0,0Z"/><path class="cls-1" d="M41,25.23h0S40.94,25.23,41,25.23Z"/><path class="cls-1" d="M40.76,25.17c0-.07.09,0,.12-.08S40.77,25.05,40.76,25.17Z"/><polygon class="cls-1" points="40.82 25.24 40.83 25.18 40.79 25.27 40.82 25.24"/><polygon class="cls-1" points="40.85 25.29 40.84 25.27 40.78 25.33 40.85 25.29"/><path class="cls-1" d="M40.61,25.13l0,0c0,.08,0,.11,0,.16s0-.16.08-.14-.11,0-.1-.12S40.64,25.08,40.61,25.13Z"/><path class="cls-1" d="M38,25.77v0S38,25.78,38,25.77Z"/><path class="cls-1" d="M37.28,25.85l0,0a.08.08,0,0,1,0,0Z"/><path class="cls-1" d="M38.45,25.54l0,0S38.46,25.54,38.45,25.54Z"/><path class="cls-1" d="M33.89,25.12v0h0v0Z"/><path class="cls-1" d="M36.48,26h0S36.48,26,36.48,26Z"/><path class="cls-1" d="M38.7,25.53h0l0,0v0Z"/><path class="cls-1" d="M37.52,26l0,0Z"/><path class="cls-1" d="M40,25s0,0,0,0S39.93,25,40,25Z"/><path class="cls-1" d="M39.69,25Z"/><path class="cls-1" d="M39.53,25h0Z"/><path class="cls-1" d="M39.92,25c0-.05,0-.2-.06,0v0s0,0-.06,0v0a.06.06,0,0,1,0,0S39.89,25,39.92,25Z"/><path class="cls-1" d="M38,25.74s0,0,0,0Z"/><path class="cls-1" d="M38.22,25.61h0S38.21,25.62,38.22,25.61Z"/><path class="cls-1" d="M39.05,25.65Z"/><path class="cls-1" d="M38.18,25.61h0Z"/><path class="cls-1" d="M38.8,25.57h0Z"/><path class="cls-1" d="M30.47,24.59s0,0,0,0-.07,0,0-.1,0,0,0,0l0,.11S30.45,24.63,30.47,24.59Z"/><path class="cls-1" d="M33.68,24.9h0s0-.06,0-.08,0,.17,0,.25h0A.4.4,0,0,1,33.68,24.9Z"/><path class="cls-1" d="M33.66,25.09h0v0h0Z"/><path class="cls-1" d="M31,24.64h0S31,24.63,31,24.64Z"/><path class="cls-1" d="M36.53,24.72l0,0Z"/><path class="cls-1" d="M34.07,25l0,0h0Z"/><path class="cls-1" d="M32.76,26c0-.11,0,0,0-.06l0,.07S32.74,26,32.76,26Z"/><polygon class="cls-1" points="30.45 24.56 30.45 24.57 30.45 24.56 30.45 24.56"/><path class="cls-1" d="M32,26v0S32,26,32,26Z"/><path class="cls-1" d="M33.82,25.14h.1l0,0C33.87,25.17,33.83,25.07,33.82,25.14Z"/><path class="cls-1" d="M33.18,26.06v.07c.1-.15.21.07.29-.14.12.24.08-.23.19,0v0a2.53,2.53,0,0,0,1.09.05v.05c.55.09,1.08,0,1.62,0,0,0,0-.15.07-.21s.06,0,.06.06,0,.09,0,.11.14.07.2,0l0-.08s0,0,.07,0a.76.76,0,0,1,0,.14c.11-.19.09.09.18,0a1,1,0,0,1,.22-.43l0,.05c-.06,0,0,.12-.07.11s.11,0,.16,0a.13.13,0,0,1,0-.11s0,.11.07.11l0,.06c0,.06.05,0,.08,0s.06.08,0,.16c0-.1.07,0,.13-.1s0-.1,0-.16l-.06,0c.09,0,0,0,0,.13,0-.05.05-.19,0-.17.09-.07.11,0,.2-.11s0-.08,0-.12,0,0,0,.12,0,.07.09,0,0,.09,0,.14-.17-.1-.15.16c0,0-.07.1-.11.1s.09.12.14.06v-.15s.05-.1.07-.09,0,.1,0,.09,0,0,0,0,.06-.11.12-.14-.06-.08-.11-.15,0,0,.06,0,0,0,0,0l0-.05c.07.05,0,.15,0,.2s.05-.05.08,0v0h0s.07,0,.08-.09,0,0,.05,0,.06-.12.09,0h0c.05,0,.08.06.07.1l.07,0v.1c.07,0,.06-.09.11-.19,0,.06.13,0,.16,0h0l0,0c.05,0,0,0,.07,0s0,0,0,0h0a0,0,0,0,1,0,0v0c0,.11.07-.06.11,0h0s.06.17.07.08,0,0,0,0v0s0,0,0,0,0-.07,0,0H39s0,0,0,0v0s0,0,0,0,.13-.07.21.06c0-.07,0-.11,0-.14a.28.28,0,0,1,.09-.14c0,.09.15.18.13.32s0-.09,0-.14h0a.23.23,0,0,1,0-.12c0-.07,0-.1.07-.07v.1c.06,0,0-.2.09-.3s0,.14,0,.23l.06,0v.08s0-.1.09-.07.07.08,0,.18,0-.13,0,0c0-.09,0-.05,0-.07s.06-.06.1-.09,0,.07,0,.11,0-.08.06,0,0,0,.06,0a.16.16,0,0,1,0-.15s0-.05.08,0l0,0c0-.12.06.08.11,0a1.17,1.17,0,0,0,0,.11,1.13,1.13,0,0,1,.1-.13l.05.12c0-.06,0,0,0-.08s0,.1,0,.16,0-.14.12,0l0,.08s.06,0,.06,0,0,0,0,0c0-.16.1-.11.09-.28h0c.05,0,.08-.14.12-.08s0,.11,0,.15,0-.18.09-.16a.12.12,0,0,1,0-.13s-.09,0-.08,0v0a.15.15,0,0,1,0,.08s0-.07,0-.11,0,.17-.07.17v0c0,.05-.08.05-.08.15,0-.1-.07,0-.1,0,0-.23.1,0,.14-.11s0-.11,0-.17l-.1.11s0-.15-.06-.07h0s0,.12-.07.09,0-.06,0-.08,0,.06,0,.08,0-.1,0-.13-.06,0-.09,0-.13.18-.06.3l-.08.09c0-.07.06-.19,0-.3H40c0-.17-.13.1-.18-.08,0,0,0,0-.08-.07v.15a.22.22,0,0,1-.05-.14h0a.08.08,0,0,1,0-.05c0-.09,0-.05,0,0s0,0,0,0v-.05a.06.06,0,0,0,0,.05h0a.58.58,0,0,0,0,.16c-.08-.06-.14,0-.2-.15s0-.1,0-.11-.07.06-.06.12h0s0-.08,0-.08,0,0,0,0-.08.05-.09.11h0c0,.07,0,.16-.07.1s0-.12,0-.16,0,.11-.08.06l0-.06c0-.09,0,0,0-.08l0,0c0-.07.12,0,.17-.12l-.11-.05c-.14.1-.32,0-.44.17h0v0l0,.06c0-.08-.08-.1-.12-.16a.35.35,0,0,1,0,.12c0,.08,0,.12-.05.09s0-.06,0-.11a.06.06,0,0,1,0,.08s-.06-.05-.06-.11,0,0,0,0,0-.06,0-.11l0,0c0-.05,0-.08,0-.12s-.1.19-.16.23v-.13c-.05,0-.1.15-.16.16s0,0,0,0a1,1,0,0,1-.46-.18l0,.14,0-.09c-.16-.09-.29,0-.44,0s0-.1-.06-.14-.13.14-.23.18,0-.17,0-.17,0,.1,0,.08l0-.05c0-.06-.05,0-.11,0s-.18.1-.25.26c-.09,0,0-.15,0-.18s0,0,.05-.08-.07.07-.08,0-.06,0-.1.07,0,0,0,.06-.12,0-.11-.12c-.21,0-.43,0-.65,0,0,.06,0,0,0,.07s0-.05-.08,0v-.07c-.06,0-.13.12-.19.18s-.05-.06,0-.11-.06-.34-.09-.26l0,.32s0,0,0,0-.06-.14-.08-.14,0-.06.06-.06-.08-.09-.05-.21,0,.07,0,.12l-.05,0,0,.05s0,.14-.1.07l-.06.13c0-.11,0,0-.06-.05V24.7s-.05,0-.07-.05,0,0,0-.07l0,0c0,.06,0,.11,0,.15s-.05.21-.15.2.05-.1,0-.2-.12.27-.18.26-.06.05-.14.06,0-.08-.06-.14l0-.08s0,0,0-.06c0,.1-.1.09-.15.14V25s-.09.08-.14.06,0,.1-.09.19A.51.51,0,0,1,34,25s.05,0,.08,0,.14-.24.22-.2c0-.2-.06,0-.1-.05a0,0,0,0,1,0,0h0a.19.19,0,0,0,.08-.16s0,.2-.09.11-.08-.1-.11-.11,0,.23-.1.2l0-.11c-.08,0,0,.16-.11.16s0,.11,0,.11-.08.07-.12,0a.15.15,0,0,0,0,.07c0,.08.07-.07.11,0l0-.12a.19.19,0,0,1,0,.19s0,0,0,0c0,.18,0-.07-.06.09l0,0c0,.12-.07.11-.11.1s-.08-.08-.09-.16l.06,0c0-.07-.07,0-.11,0v0s0,0,0,0-.07.05-.1,0v0a.09.09,0,0,1,0,.11c-.06,0-.07-.09-.09-.16s.06,0,.09,0-.06,0-.12-.09.07,0,.08-.11-.06.07-.11,0,.05-.06.05-.13l0,0c.08,0,0-.16,0-.19s0,.1-.09,0,0,.16,0,.21l-.05,0c0-.06.05-.13,0-.18l0,0s0,.06,0,.11,0,.14-.08.2-.05,0-.06-.06c-.07.11-.16.11-.22.22,0-.08,0-.13,0-.19s0-.13,0-.21,0,.14,0,.18,0,.08-.07,0,0-.12,0-.16,0,.14-.07.11,0,0,0,0-.07,0-.07.09c0-.16-.1,0-.09-.13-.08,0,0,.08,0,.13s-.09,0-.11,0,0-.05,0,0v-.11c-.1-.07-.06.24-.16.15.05-.06,0-.08,0-.15s-.08,0,0,.07a.15.15,0,0,1-.08,0s-.07.06-.09.13-.08-.08-.1-.13-.2,0-.31,0h0c-.08,0,0,.13-.05.13s-.05-.09-.08-.15-.18.09-.28,0,0-.05,0-.06-.13,0-.2,0h0c-.1-.11-.2,0-.31,0s0-.07,0-.08a.11.11,0,0,0-.18.07c-.07-.13-.05,0-.13-.09s0,0,0,0-.07,0-.11-.05-.12.25-.23.2.07-.05.07-.18c0,0,0,.06-.07,0s0,0,0-.1-.09.18-.09.16,0,.05,0,.05-.11,0-.16.05a.1.1,0,0,1,0,.12c-.07,0-.1.13-.15.2-.06-.08.05-.15,0-.27s0-.14,0-.19-.1.08-.15.11v0c-.08,0-.16.17-.22.1l0,0s-.05,0-.07.08-.05-.11,0-.16c0,.18-.17.11-.2.28a.29.29,0,0,1,0-.16s.06.05.08,0-.06,0-.06-.08-.13.15-.15.27a.26.26,0,0,1,0-.18c-.12,0,.06.29-.08.29s.06-.13,0-.16h0c-.06-.25,0,.17-.11.16s0-.09,0-.19-.09.23-.15.19v-.06s-.12,0-.16,0,0,0,0,0,0,.07-.09,0l0,.07s.09.11.13,0c0,.08.06.17,0,.28v0a.65.65,0,0,0,.36.29c.08-.13.13.06.22,0s0,0,.09-.06,0,.12,0,.14,0-.06.05-.07.11.18.15.07c0,.05,0,.05,0,.08s0-.06.05,0v0c.07,0,.11,0,.18,0,0-.15.08,0,.11-.11s0,.06.06.09l0-.11c0-.1.05.06.1,0v0s.13.05.17.13c.33-.3.51.17.86.09,0,0,0-.08,0-.15h.07s0,0,0,0l-.05,0v0s0,.05-.06,0,0-.15.08-.11,0,0,0,0,0-.05.07,0,0,0,0,0l.1.06c.05-.13.11,0,.13,0s-.07,0-.09.13l0,.07v-.08l.05,0h0s0-.06,0,0,0,0,0,0l0,0c0,.08,0,0,0,.12s.15-.13.25,0c0,0,0-.15.07-.13s0,0,0,.08l0-.05c0,.15.1.05.18.11v0c0-.05.06-.09.1-.08v.09c.06.06,0-.18.1-.13s0-.13,0-.22c0,.09.07.11.06,0s0,0,.05,0l0-.05s0,.12,0,.17c0-.1.08,0,.12,0l0,0h.06c0-.07.09-.07.14,0l0,.12c0,.06,0-.05,0-.07s.06,0,.09.09C33,25.92,33.11,26.24,33.18,26.06ZM39,25.6v0S39.05,25.54,39,25.6Zm-.46,0s0,0,0,.05-.09,0-.14,0,0,.06,0,.08,0,0-.05-.09S38.59,25.63,38.57,25.56Zm1-.59v0h0Zm-.28.11s0,0,0,0S39.33,25.09,39.34,25.08Zm-.55-.15c0-.05,0,0-.07,0A.09.09,0,0,0,38.79,24.93ZM35.3,25s.05-.07,0-.1,0,0,0,0h0C35.28,25,35.29,25,35.3,25Zm-1.64.41c0-.05,0-.1,0-.14h0s0,0,0,0,0,0,0,0S33.6,25.39,33.66,25.39Z"/><path class="cls-1" d="M34.21,24.73h0Z"/><path class="cls-1" d="M33.63,25.21l0,0S33.65,25.21,33.63,25.21Z"/><path class="cls-1" d="M40.52,25.51l0,0,0,0a.48.48,0,0,0,.07-.21c0,.08-.08,0-.14.06Z"/><path class="cls-1" d="M40.49,25a.45.45,0,0,0,0-.08V25Z"/><path class="cls-1" d="M39.85,24.74l0,0S39.86,24.67,39.85,24.74Z"/><path class="cls-1" d="M40.08,25.59l0-.05c0-.05-.06,0-.07,0S40.05,25.59,40.08,25.59Z"/><path class="cls-1" d="M39.71,24.73c0,.1-.05,0-.06.05S39.71,24.83,39.71,24.73Z"/><path class="cls-1" d="M39.75,25.65c0,.09,0,0,.07,0S39.76,25.59,39.75,25.65Z"/><path class="cls-1" d="M39.44,25c0-.07,0-.07,0-.05a.11.11,0,0,1,0,.06.25.25,0,0,1,.08-.07c0-.05-.09-.08-.08-.17A.37.37,0,0,0,39.44,25Z"/><path class="cls-1" d="M39.67,25.66s0,.09.08.09,0-.12-.06-.11v-.08C39.67,25.5,39.72,25.67,39.67,25.66Z"/><path class="cls-1" d="M39.29,24.82v0c0-.07.09,0,.11-.14A.19.19,0,0,0,39.29,24.82Z"/><path class="cls-1" d="M39.54,25.51v.11s0,0,0-.06,0,0,0,0S39.57,25.47,39.54,25.51Z"/><path class="cls-1" d="M39.41,25.64l0,0,0,.13C39.46,25.76,39.4,25.74,39.41,25.64Z"/><path class="cls-1" d="M39.35,25.56v0l-.08.17A.36.36,0,0,0,39.35,25.56Z"/><path class="cls-1" d="M38.47,24.83c0,.05,0,.11,0,.05S38.44,24.78,38.47,24.83Z"/><path class="cls-1" d="M38.64,25.73s-.09,0-.12.07S38.65,25.8,38.64,25.73Z"/><path class="cls-1" d="M38.51,25.81h0Z"/><path class="cls-1" d="M37.26,26.06a0,0,0,0,0,0,0Z"/><path class="cls-1" d="M37.29,26s.06,0,.07-.07a.46.46,0,0,0-.1.1S37.29,26.09,37.29,26Z"/><path class="cls-1" d="M37,26s0,0,0-.07S37,26,37,26Z"/><path class="cls-1" d="M35.07,24.6s0,0,0,.06S35,24.62,35.07,24.6Z"/><polygon class="cls-1" points="34.99 24.68 34.99 24.64 34.97 24.59 34.99 24.68"/><path class="cls-1" d="M34.8,24.57s0,0,0,0S34.79,24.56,34.8,24.57Z"/><path class="cls-1" d="M34.82,24.54h0Z"/><path class="cls-1" d="M34.83,24.56v0s0,0,0,0S34.83,24.54,34.83,24.56Z"/><path class="cls-1" d="M34.75,24.56l0,.11c0-.06,0-.06,0-.17Z"/><path class="cls-1" d="M34.62,24.59s-.09.13-.11,0c-.09.06,0,.21-.09.26.11.06.06-.25.15-.18S34.6,24.62,34.62,24.59Z"/><path class="cls-1" d="M34.64,24.8c0-.06,0-.07-.06,0S34.62,24.87,34.64,24.8Z"/><polygon class="cls-1" points="34.43 24.65 34.4 24.6 34.39 24.64 34.43 24.65"/><path class="cls-1" d="M34.31,24.62l0-.07S34.29,24.57,34.31,24.62Z"/><path class="cls-1" d="M34.15,24.53s0,.14,0,.11h0S34.12,24.54,34.15,24.53Z"/><path class="cls-1" d="M33.79,24.8a0,0,0,0,0,0-.06l0,0Z"/><path class="cls-1" d="M33.79,25.21c0,.1.05,0,.09,0S33.84,25.2,33.79,25.21Z"/><path class="cls-1" d="M33.73,24.65s0,0,.05,0S33.73,24.6,33.73,24.65Z"/><path class="cls-1" d="M33.64,24.69c0-.05,0-.06,0-.09s-.07,0-.09,0a.72.72,0,0,1,0,.21c.05,0,.08-.23.11-.08l.05-.18S33.68,24.7,33.64,24.69Z"/><path class="cls-1" d="M33.76,25l0-.06c0,.06,0,.07,0,.09S33.74,25,33.76,25Z"/><polygon class="cls-1" points="33.32 24.77 33.26 24.8 33.28 24.8 33.32 24.77"/><polygon class="cls-1" points="33.28 24.72 33.28 24.68 33.23 24.75 33.28 24.72"/><polygon class="cls-1" points="33.21 24.68 33.22 24.68 33.26 24.65 33.21 24.68"/><path class="cls-1" d="M33.07,24.65v.06s.05.05.05,0S33.08,24.7,33.07,24.65Z"/><path class="cls-1" d="M32.61,26.06a.12.12,0,0,0,0-.1l0,.1S32.61,26,32.61,26.06Z"/><path class="cls-1" d="M32.54,25.91l0,.11s.06-.07.11-.09-.05.05-.08,0Z"/><path class="cls-1" d="M31.55,25.83c0-.07,0-.06,0-.11s-.09,0-.15,0,0,.12,0,.1l.07,0v.05C31.52,25.92,31.5,25.79,31.55,25.83Z"/><path class="cls-1" d="M29,25.09S29,25,29,25,29,25.08,29,25.09Z"/><circle class="cls-2" cx="35.14" cy="15.36" r="6.84"/><path class="cls-3" d="M42.24,15.46c0-.16-.13.09-.05-.1C42.25,15.38,42.29,15.41,42.24,15.46Z"/><path class="cls-3" d="M42.13,14.82c-.4-.47-.16-1.19-.58-1.66,0-.05.21-.05.11-.17a5,5,0,0,1-.91-1.88h.08c0-.12-.29-.14-.36-.25s.07,0,.09-.06-.21-.15-.31-.13.07-.13.06-.22l-.15,0c-.37.08-.36-.37-.69-.44,0,0,.07,0,.07,0-.49-.14-.94-.49-1.44-.65a.25.25,0,0,0,.1-.16c-.09.11-.25.08-.38.05s-.27,0-.38-.1l0,0c-.16.1-.13-.15-.28,0l0-.14c-.1.18-.13-.14-.25-.07v0c-.1,0-.12-.08-.21-.07v0c-.2,0-.29-.12-.32,0,0-.14.2,0,.13-.23-.68,0-1.34,0-2,0-.08-.06-.13-.07-.15-.13s-.25.07-.3.16,0-.07-.09-.08-.1.19-.24.16a.15.15,0,0,0,0-.17c-.09.15-.24.17-.36.25s0-.06,0-.11c-.11.18-.27,0-.37.17l0-.1c-.23,0,0,.2-.19.2,0,0,0-.07,0-.11-.1.22-.37.25-.49.39a.1.1,0,0,0,0,0c-.15.1-.35.12-.48.29-.08,0-.09-.21-.24-.08.1.16-.24.24,0,.36a.9.9,0,0,0-.45.26c0-.1-.2-.13-.1-.22l-.15,0c0-.07.1,0,0-.1s-.18.23-.24.25c0,.17,0,.41-.1.56,0-.12-.18-.11-.15-.18a3.42,3.42,0,0,0,0,.45c0,.06-.11-.09-.14,0s0,.08,0,.13-.14.23-.3.13,0-.1-.06-.09,0,.14-.11.24h0c-.07.05-.08.24.06.23s-.11-.05,0-.09a.36.36,0,0,1-.08.34c0-.05,0-.07-.08-.12a1.75,1.75,0,0,1-.06.57c.07.05-.1-.14-.05-.14-.23.14-.08.49-.32.59,0,0,.12,0,.1,0s-.17,0-.16.12,0,.09,0,.17,0,0,0-.06a1.15,1.15,0,0,1-.18.73.31.31,0,0,1,.12.24l-.1,0c-.08,0,0,.17-.14.16.11.15,0-.46.07-.28-.11,0,.12.25,0,.18,0,.11.08.24,0,.32s-.14-.12-.15,0,0,.06.07.19l0,.08c.11,0,0,.14.1.1-.09,0,0,.22-.16.19l-.14,0c0,.07.15.13.21.19s-.05,0-.07,0c.22,0,0,.16.14.25-.09.14,0,.35-.15.42.08.1.16.2.12.32s0-.06-.08-.06,0,.1,0,.16-.11.17-.18.27c.09.1.2,0,.27,0-.19.14.18.28,0,.43,0,0-.14-.13-.18,0-.19.14.21.16.15.33l.16-.08c-.09.1.16.19,0,.23.07,0,0,.19.16.12-.05.3.29.55.09.82,0,0,.05.12.13.06s-.11-.05,0-.1.06,0,.09,0,0,.15-.16.15c0,.21.34,0,.4.25-.07,0-.08.06,0,.11l.18,0c.05.14-.1.16-.21.23.06.06.11.15.21.12l-.07.17c.05-.12.1,0,.15,0h0s0,.1.09.13,0-.15,0-.21.1.06.18.06c-.11.06,0,.16,0,.22s.13,0,.14,0,.07.09,0,.11,0-.09-.06-.08-.09.13,0,.15.17-.17.21,0c-.05,0-.09,0-.14,0l0,.14.09-.07s0,0,0,.05.16.12.27,0,0,.15.09.2h0c0,.1.12.14.21.13h0a.19.19,0,0,0,.19.07c0,.13-.24.35,0,.31s.26-.06.26-.14c.11.18.39.15.45.39.05,0,.05-.06.11-.05.21.19.57.15.68.45-.09,0-.05.1-.07.16s0,.12.13,0,.05-.14,0-.21a.59.59,0,0,1,.47.22c0-.06,0-.08.06-.1-.06.15,0,.22.16.18l0-.09,0,.12s.09-.19.15-.08a.4.4,0,0,0,0,.11c.12-.06.27-.15.36-.06l0,.16c.05,0,.14-.08.07-.14.16.11.27.14.32.27a1.74,1.74,0,0,1,1.11-.26v.07c.1.06,0-.13.11-.08s.08.14,0,.23c.14.08.16-.14.24-.18s-.06.07-.06-.06.2.05.2-.1a.35.35,0,0,1,0,.23l.07-.09c.13.15-.19.34-.05.53l.08,0c.1.14-.2.21,0,.23s.12-.31,0-.36c.18-.07,0-.35.21-.37s-.14.05-.08.16.16-.11.24-.09c-.09,0,0-.19,0-.23s0,.15.11.13.1-.18,0-.21c0-.19.15,0,.18-.14.08.12-.05.33.12.36-.06-.11.12-.23,0-.38.06,0,.1.11.08.2s.11-.29.22-.06l0-.13a.77.77,0,0,1,.15.1c.08,0,.15-.25.22-.07,0,0,.17-.09,0-.19s-.06.14-.18,0c.12.1.12-.09.15-.16l0,.07s.09-.06.08-.15a.08.08,0,0,0,.06.1l0-.12c.1-.11.13.17.23.08l0,.13s.11,0,.15,0L38,20.41c0-.08.09.09.1,0l0,.16a.19.19,0,0,0,.24.06c0-.07,0-.25-.08-.25a.1.1,0,0,1,.15.08c.08-.09-.07-.09,0-.2.08,0,.24,0,.36.08l0,.21.06,0c0,.17.1.06.15.21.06,0,.08-.09.09-.15-.26-.11-.07-.36-.24-.51.12-.16.44.34.37-.06-.06,0-.1-.21-.15-.08.11-.07-.09-.22.08-.25,0,.14.23.09.21.29,0-.06-.1,0-.11,0s.14.17.24.08.12-.14,0-.22-.08.09-.13,0,.24,0,.12-.22c-.05.08-.16,0-.22-.06l0-.12.05.08c.16-.09-.08-.14,0-.25l.18.05c.08.13-.21.14,0,.28.08-.08,0-.19.13-.22s0,.05,0,.09.3.14.27-.1,0-.07-.12-.12c.09-.17,0-.26.11-.36.12.12.14-.15.2,0-.12,0-.26.2-.18.36s-.11.09,0,.25c.1-.11.25,0,.37.08s0-.1,0-.13-.11,0-.21-.12a.45.45,0,0,0,.13-.43c.08,0,.17.07.14.13a2.16,2.16,0,0,1,.34-.51c-.24,0,.07-.2-.12-.21s-.26.07-.31,0,.08,0,.13,0,.21,0,.09-.17c0,.19.2.14.33.25,0-.17.09,0,.15-.07a1.27,1.27,0,0,1,0-.48c.2-.12.16-.45.21-.6s.26,0,.31,0-.2,0-.08-.11l0,0c0-.06.2-.27,0-.38l.18.1s0-.07,0-.1.13,0,.16,0,0-.23,0-.34l-.12.05c-.06-.2.07-.32.06-.51l.11,0-.06-.12c.1,0,.18-.07.09-.13l.25.32c-.07.08-.12-.1-.23-.06a.14.14,0,0,0,0,.25c0-.06,0-.07,0-.13.15,0,.13.1.23.17s0-.08,0-.1a.3.3,0,0,1,0,.28c0-.09-.1,0-.14,0,.13,0,.16.16.1.3s0,.3-.06.46a.74.74,0,0,1-.23-.33c-.09.09,0,.11-.12.2.09.08.23.15.25.31l-.1,0c0,.14.15.18.07.33s-.25.53-.37.72l-.09,0c.14.21-.1.4-.11.58-.22.19-.24.57-.48.58A3,3,0,0,1,40,20.73l0-.16c0,.14-.1,0-.15.05.15,0,0,.2,0,.31-.25.06-.41.32-.52.54l-.06-.08c-.07.27-.38.26-.61.36,0,0-.13-.08-.2,0,0,.21-.12.23-.26.41a1.13,1.13,0,0,1-.55.11c-.46.43-1.08.4-1.65.62l-.06-.11c-.56.3-1.29.07-1.79.12l.07-.19c-.14-.09-.35,0-.34.15-.14-.08-.41,0-.47-.17s-.21,0-.35,0a2.16,2.16,0,0,0-.7-.27l.06,0c.05,0,.08-.11,0-.15s-.36-.2-.36.06c-.23-.26-.75-.23-.92-.57,0,.07-.08,0-.14.06-.26-.14-.4-.45-.66-.49,0-.06.13-.05,0-.12s-.06.06-.15,0c-.44-.22-.61-.74-.9-1a5.56,5.56,0,0,1-1.26-1.87l.05,0c-.27-.15,0-.59-.35-.68,0-.07,0-.22.06-.21-.17-.15,0-.54-.23-.78,0,0,0,0,0,.06.07-.29-.14-.51,0-.82,0,0,0,.08.09.09s-.22-.26,0-.33c0-.07-.12,0-.11,0,.05-.64,0-1.33.06-2,.26-.44.39.06.32-.34.05,0-.08,0,0,0,0-.16.31-.14.23-.27s-.05-.09-.13-.12c.19-.24.32-.25.31-.5l.06.05c-.08-.33.15-.56.05-.88a7.68,7.68,0,0,1,3.07-3.24,7.24,7.24,0,0,1,4.36-.78.79.79,0,0,0,.74.22s0,0,0,.07c.06-.17.27,0,.34-.1a9.89,9.89,0,0,1,1.56.53c-.09,0-.18.08-.08.12l.14-.05v.05c.08,0,.19,0,.14-.11a6.85,6.85,0,0,1,3,3,9.72,9.72,0,0,0,.58,1c.22,1.09.22,2,.38,3.07A.91.91,0,0,1,42.13,14.82Z"/><path class="cls-3" d="M42.25,15.66c-.09,0-.14.14-.24.05A.93.93,0,0,1,42.25,15.66Z"/><path class="cls-3" d="M40.72,18.22s0,0-.06,0,0-.09,0-.1S40.7,18.19,40.72,18.22Z"/><path class="cls-3" d="M40.34,18.79c-.06-.05,0-.21,0-.28Z"/><path class="cls-3" d="M39.73,19.11c-.09,0-.1,0-.06-.08S39.71,19.08,39.73,19.11Z"/><path class="cls-3" d="M39.83,19.25s-.09,0-.14,0S39.74,19.16,39.83,19.25Z"/><path class="cls-3" d="M38.72,20s0,.11-.12.07S38.67,19.92,38.72,20Z"/><path class="cls-3" d="M38.27,20.46s0,0,0,0,0-.08,0-.1Z"/><polygon class="cls-3" points="29.04 16.83 29.09 16.89 29.02 16.9 29.04 16.83"/><path class="cls-3" d="M29.91,11.87c0-.09.08,0,.1,0S30,11.79,29.91,11.87Z"/><polygon class="cls-3" points="31.74 9.64 31.72 9.66 31.65 9.53 31.74 9.64"/><path class="cls-2" d="M38.12,11.9s-5.48-2.1-5.26,3.31c.16,4,4.43,4.23,5.26,2.74"/><path class="cls-3" d="M38,12c.06,0,0-.07.05,0S38.05,12.05,38,12Z"/><path class="cls-3" d="M37.94,18c0,.13,0,.21-.15.27a.91.91,0,0,0-.24.2s0-.09-.08-.05c-.09.23-.45.26-.69.17v0s-.08.09-.13.09,0,0,0-.06-.08,0-.09.09,0-.07,0-.09l0,.06c-.07.16-.18,0-.28.08s0,0,0,0a1.16,1.16,0,0,1-.56.06.24.24,0,0,0,0-.09c0,.07-.08.07-.14.08s-.09,0-.14,0v0c-.06.07,0-.05-.11,0v-.06c-.05.1-.05-.06-.09,0v0s0,0-.07,0v0c-.08,0-.1-.07-.13,0,0-.07.08,0,.07-.11a1.29,1.29,0,0,1-.68-.26s0-.06,0-.09-.07,0-.12,0,0,0,0-.05-.09,0-.11,0a.06.06,0,0,0,.06-.05c-.07,0-.11,0-.16,0s0,0,.05,0-.07-.07-.13-.07l0,0c0-.1-.08.05-.1,0s0,0,0,0-.15-.08-.21-.1h0c-.06-.05-.09-.12-.16-.15s.09-.06,0-.1-.09-.08-.15,0c0-.06,0-.16-.1-.17s.08-.09.12-.05l0-.06s0,0,.05,0-.09-.06-.09-.08-.19,0-.24-.06.09-.06.11-.05h-.2s.06,0,0-.06,0,0-.07,0-.06-.09,0-.14,0,0,.05,0-.05,0-.07-.07h0s-.07-.07-.1,0,0,0,0,0-.09,0-.11-.09,0,0,.07,0a.31.31,0,0,1-.18-.15s.08,0,.06,0-.13-.16-.07-.26-.05,0,0,0,0-.06,0-.08,0,0,0-.06,0,0,0,0-.14-.19-.09-.29-.1,0-.1-.07h.06s0-.07,0-.08.08.17,0,.11-.1-.07,0-.07-.07-.08,0-.12.09,0,.08,0,0,0,0-.07l0,0c-.06,0,0,0-.06,0s0-.09.06-.09h.07s-.08,0-.12-.06h0c-.12,0,0-.06-.09-.09s0-.15.07-.18-.07-.08,0-.13,0,0,0,0,0,0,0-.07.07-.06.11-.09-.1,0-.13,0-.07-.12,0-.17,0,.07.08,0-.08-.08,0-.14h-.09c.05,0,0-.1,0-.09s0-.07-.06-.07c.07-.1,0-.26.16-.31,0,0,0,0,0,0s0,0,0,0,0,0,0,0,0-.05.11,0-.14-.1-.09-.19.05,0,.05,0l-.05-.06c0-.06.09,0,.15,0s0-.08,0-.1l.08,0c-.06,0,0,0,0-.05h0s0,0,0-.05-.06,0-.08,0,0,0,0-.08.05,0,.07-.06,0-.05,0-.05,0,0,.05,0,0,0,0,0,.08,0,.05,0-.11,0-.06-.07,0,0,.05,0l0,0,0,0h0s0-.09,0-.12.06,0,.08-.07h0s0-.07,0-.11h0a.1.1,0,0,0,0-.09c.06,0,.2.07.15,0s-.06-.12-.1-.11.05-.18.17-.21,0,0,0-.05.1-.26.24-.27,0,0,.06,0,.07,0,0,0-.06-.05-.1,0a.26.26,0,0,1,.18-.15s0,0,0,0,.11,0,.12,0l0,0,0,0s0-.09,0-.08l0,0c0-.06,0-.16.07-.16l.08,0s0-.07,0-.07.14,0,.2,0a.47.47,0,0,1,.37-.36v0s0-.06,0-.05.06.06,0,.11.05-.09.08-.11,0,0,0,0,.09,0,.08-.06,0,.08,0,.11l0-.05c.07.07,0,.18,0,.26l0,0c0,.06,0,.11,0,.11s0-.16,0-.18,0-.17.06-.2-.06,0,0,.09.06-.06.1-.05,0-.1,0-.12,0,.08,0,.07,0-.08,0-.1.06,0,.08-.06,0,.16,0,.18.06-.1,0-.19,0,.06,0,.11.07-.14.1,0v-.07l.06.06s.09-.1.1,0,.08,0,0-.09,0,.06-.09,0c0,.07.07,0,.09-.05v0s0,0,.06-.05,0,.05,0,.05V11c.06,0,0,.1.09.08l0,0s0,0,.07,0l0-.16s0,.06,0,0l0,.07s0,.08.08.08.07-.1,0-.13a0,0,0,0,1,0,.07s0-.06,0-.09.08.08.11.13l0,.09h0c0,.08,0,.06,0,.13s0,0,.06,0,.07-.17.05-.28,0,.27.14.1,0-.11,0-.08,0-.11.1-.06,0,.11,0,.18,0,0,0,0,0,.11,0,.11.08,0,.08-.07,0,0,0-.05.07.07.11,0-.05-.06-.05-.1l.05,0v0c.08,0,0-.08.1-.06l0,.08c0,.07-.11,0-.1.08s.07-.05.11,0l0,0s0,.16.09.08,0,0,0-.08.11-.05.16-.05.08,0,0,.1-.13-.06-.17,0-.06,0-.08.08,0,.1,0,.17,0,0,0,0,0-.06,0-.12a.16.16,0,0,0,.18-.06s0,.1,0,.1a.47.47,0,0,1,.24,0c0-.11.09,0,.07-.1a.11.11,0,0,1,0-.14s0,0,0,.06,0,.1.08,0,0,.12-.06.19,0,.06,0,.07a.35.35,0,0,1,.19-.06c.05.08.18,0,.24.05s0,.13,0,.15,0-.1.05-.05v0s.1.09.15,0l0,.09s0,0,0,0,0,.06,0,.08.08,0,.12,0v-.06c.08,0,.11,0,.18,0v.06l.05,0c0,.05,0,.09,0,.05l-.14.1s0-.05,0-.11-.07-.06-.1,0,0,0,.05,0-.05.06-.08.11,0,0,0,0a.09.09,0,0,1-.1,0s0-.05,0-.07-.07.08-.11,0-.11,0-.16,0a.36.36,0,0,1,.13-.12s0,0-.07,0-.06.11-.12.13v-.05s-.07.09-.12.06a1.44,1.44,0,0,0-.25-.08v0c-.06.1-.14,0-.2,0s-.2,0-.24-.07a1.93,1.93,0,0,1-.48,0l0-.07s0,0,0,0,0,.07-.06.11-.17,0-.23.06v0c-.06.1-.14,0-.22,0s0-.07-.06-.06-.06.08-.12.14a.35.35,0,0,1-.17,0c-.16.13-.34.11-.48.24l0-.05c-.12.16-.33.18-.42.3l0-.09c-.06,0-.07.07,0,.12s0,.11-.12.06,0,.08,0,.11a.26.26,0,0,0-.16.13h0s0,0-.06,0-.1.07,0,.12c-.11,0-.07.21-.2.23,0,0,0,0,0,.05s-.15.1-.12.19,0-.05,0,0,0,0,0,0-.15.22-.18.34-.06.45-.09.66h0c.08.08-.12.16,0,.23,0,0,0,.06-.06.05s-.06.16,0,.25a0,0,0,0,0,0,0c-.06.09,0,.16,0,.25a.05.05,0,0,0,0,0s.1.08,0,.1.06,0,.06,0c-.07.2.05.4.09.6s-.19,0-.09.13,0,0,0,0-.12.09-.06.11.05,0,.09,0-.08.12,0,.18h0c.13.05.09.16.23.19a2.94,2.94,0,0,0,.66,1A3.65,3.65,0,0,0,35,18c0,.13.06.13.17.13s0,0,0,0,.07,0,.1-.05a1.7,1.7,0,0,0,.43.11s0,.07,0,.07l0,0v0s0-.05,0-.07a4.76,4.76,0,0,0,1.13,0,.54.54,0,0,0,.27-.11.62.62,0,0,0,.63-.37S38,17.9,37.94,18Z"/><path class="cls-3" d="M38,12s0-.07,0-.11S38,12,38,12Z"/><path class="cls-3" d="M37.05,11.33s0,0,0,0,0,0,0,0S37.06,11.32,37.05,11.33Z"/><path class="cls-3" d="M36.78,11.27s.07-.06.11-.06Z"/><path class="cls-3" d="M36.53,11.08s0-.05,0,0A.05.05,0,0,1,36.53,11.08Z"/><path class="cls-3" d="M36.5,11.16s0,0,0,0S36.52,11.1,36.5,11.16Z"/><path class="cls-3" d="M35.92,11s0,0-.06,0S35.93,11,35.92,11Z"/><path class="cls-3" d="M35.64,11.09h0a0,0,0,0,1,0,0Z"/><polygon class="cls-3" points="32.6 14.54 32.58 14.51 32.62 14.51 32.6 14.54"/><path class="cls-3" d="M32.85,16.64s0,0,0,0S32.87,16.67,32.85,16.64Z"/><polygon class="cls-3" points="33.55 17.57 33.54 17.56 33.6 17.52 33.55 17.57"/><line class="cls-2" x1="31.06" y1="14.21" x2="36.8" y2="14.21"/><path class="cls-3" d="M31.08,14.08s0,.06,0,0S31.07,14.05,31.08,14.08Z"/><path class="cls-3" d="M36.73,14.12c-.07.19-.16,0-.23.12s0-.11,0-.08-.19.06-.27-.06v0s0,.07-.05.06v-.06c0,.06,0,0,0,.07s0-.07,0-.09v.07c0,.16-.06,0-.1.07v0c-.06.1-.14.08-.21.12a.14.14,0,0,0,0-.09.1.1,0,0,1,0,.1c0-.07,0,.06-.05,0h0c0,.07,0,0,0,.05v-.06c0,.1,0,0,0,0v0s0,0,0,0h0s0,0,0,.05c0-.07,0,0,0-.13a.31.31,0,0,1-.27.07l0-.07s0,0,0,.06,0,0,0,0,0,.09,0,0v-.07c0,.06,0,.05-.05.07a.2.2,0,0,0,0,0c0,.07,0,0-.06,0v0c0-.06,0,.09,0,.06v0c0,.08-.06,0-.08.08v0s0,0-.08,0,0-.11,0-.09,0,0,0,.14-.06-.05-.07,0,0-.11,0-.12l0,0s0,0,0,0,0,0,0,0,0,.16-.06.17,0-.1,0-.12l0,.18s0-.07,0,0,0,0,0,.06,0,0,0-.07,0,0,0-.05,0,0,0,0v0s0,0,0,.09,0,0,0,0,0,.07,0,.07a.15.15,0,0,1,0-.06.31.31,0,0,1-.08.12s0-.08,0-.05-.07.08-.1,0,0,.07,0,.05,0-.07,0,0,0,0,0,0,0,0,0,0-.07.09-.11,0a.41.41,0,0,1,0,.09v-.06s0,0,0,0,.06-.06,0,0,0,.09,0,0,0,.06,0,0,0-.08,0-.08,0,0,0,0l0,0c0,.06,0,0,0,.06s0,0,0-.06v-.08a.81.81,0,0,0,0,.11v0c0,.11,0,0,0,.07s-.05,0-.06-.07,0,.08,0,.05v0s0,0,0,0a1,1,0,0,0,0-.11s0,.1,0,.13,0,.07-.06,0,0-.06,0-.09,0,.09-.05,0v.09s0,.06,0,0,0,0,0,.06c0-.07-.09.05-.11-.11,0,0,0,0,0,0s0,0,0,0,0,0,0,0,0,0,0-.1,0,.15-.06.12,0,0,0,0l0,.07s0-.09,0-.15a.07.07,0,0,0,0,0v-.08c0,.06,0,0,0,.06v0s0,0,0,0a.24.24,0,0,0,0,.07s0,0,0,0,0,0,0,0,0,0,0,0,0,0,0,0,0,0,0,0,0-.08,0,0,0,.12,0,.08a.13.13,0,0,0,0-.06l0,0v0c0,.06,0,0,0,.09s0,0,0,0h0s0,0,0,0h0a.07.07,0,0,0,0,0s0-.21,0-.14a.41.41,0,0,0,0,.14s-.06.05-.08,0,0,0,0,.05-.09.07-.12,0,0-.06,0-.09,0-.05,0,0a.2.2,0,0,0,0,.09s-.06,0-.07,0a.06.06,0,0,1,0,.06c0-.08,0-.1,0-.07v0s0,.1,0,.06v-.06s0,.11,0,.07v-.07a.08.08,0,0,0,0,.07.28.28,0,0,1,0-.11c-.05.15-.11.16-.16.15v0s0,.06,0,0,0-.08,0-.12,0,.06,0,.08,0,0,0,0,0,0,0,0a.4.4,0,0,1,0-.11v0c0-.09,0-.15,0-.26h0c0-.07,0-.08,0-.11a.35.35,0,0,0,0,.17s0,.18,0,.17,0,0,0-.07,0,0,0,0a.16.16,0,0,1,0,.12s0-.07,0-.08,0,.08,0,.1,0,0,0,0,0-.15,0-.19,0,.09,0,.19a.2.2,0,0,1,0-.11s0,.12,0,0v.06a.41.41,0,0,0,0-.07s0,.09,0,0,0,0,0,.08,0-.06,0,0c0-.08,0,0,0,0v0s0,0,0,.05,0-.05,0-.05v.05s0-.1,0-.08l0-.05s0,0,0,0a.88.88,0,0,0,0,.16s0-.07,0,0l0-.06s0-.09,0-.09a.24.24,0,0,0,0,.12.09.09,0,0,1,0-.07s0,.06,0,.09a1,1,0,0,1,0-.13l0-.09h0c0-.08,0-.06,0-.14s0,0,0,0,0,.16,0,.27,0-.26,0-.09,0,.11,0,.08,0,.11,0,.06,0-.11,0-.17,0,0,0,0,0-.11,0-.11,0,0,0,.07,0,0,0,.06,0-.07,0,0,0,.05,0,.1v0s0,.08,0,.07l0-.09c0-.07,0,0,0-.08s0,.05,0,0v0s0-.16,0-.07,0,0,0,.09,0,.06-.05.06,0,0,0-.09,0,0,.05,0,0,0,0-.09,0-.1,0-.16,0,0,0,0,0,.06,0,.12-.05,0-.06.08a.17.17,0,0,1,0-.1.08.08,0,0,1-.09,0c0,.1,0,0,0,.11a.2.2,0,0,1,0,.14s0,0,0-.07,0-.08,0,0,0-.12,0-.2,0-.05,0-.05l-.06.09c0-.07-.07,0-.09,0s0-.12,0-.14,0,.1,0,.05h0s0-.06,0,.06v-.09s0,0,0,0,0-.06,0-.08,0,0-.05,0v.05s0,0-.07,0v0c0-.06,0-.09,0,0l0-.13s0,.07,0,.12,0,0,0,0,0,0,0,0a.39.39,0,0,1,0-.13s0,0,0,0,0,0,0,0,0,0,0,.07,0-.09,0-.07,0-.05.06,0a.39.39,0,0,1,0,.15s0,0,0,0a.65.65,0,0,1,0-.16v0s0-.1,0-.08l.1,0v0c0-.11.05,0,.07-.09s.07,0,.09,0,.12-.08.18-.06v.07c0-.05,0,0,0,0s0-.08,0-.13.06,0,.09-.05V14c0-.1.06,0,.09,0s0,.07,0,.07a.2.2,0,0,1,0-.13.1.1,0,0,1,.07.05c.07-.12.14,0,.21-.11v.06c.07-.13.16,0,.22-.08v.1s0,0,0-.1.05,0,.06,0,0-.05,0-.06,0,0,.09,0h0s0,.07,0,.07,0,0,0-.09c0,.07.09-.06.13,0s0,0,0-.06.07.06.1,0,0,.05,0,.06a.17.17,0,0,1,0-.07c0-.06.11.07.16.05s.18,0,.27,0v0c0-.09.07.1.09,0,0,0,0,0,0,.06s.07.06.1,0h0s.06,0,.1,0,0,0,0,0,0-.1,0,0,0-.05,0-.05.16,0,.24-.06,0,.2,0,.11v0s0,.13,0,.07,0,0,0-.08,0,.11.07.06v0c0-.1.07-.05.1-.17s.35-.09.53-.11a2.32,2.32,0,0,1,.52,0c0,.1,0,.09.09,0v0c0-.08,0,0,0-.09a.6.6,0,0,0,.19,0s0,.07,0,.07v0a.11.11,0,0,0,0-.08c.17-.07.34.09.5.07s.1,0,.14,0,.24.19.37.12A.67.67,0,0,1,36.73,14.12Z"/><path class="cls-3" d="M31.1,14.07a.23.23,0,0,1,0,.12S31.1,14.11,31.1,14.07Z"/><path class="cls-3" d="M31.49,14.49s0,0,0,0,0,0,0,0Z"/><path class="cls-3" d="M31.6,14.52a.21.21,0,0,1,0,.07Z"/><path class="cls-3" d="M31.69,14.67s0,0,0,0S31.69,14.68,31.69,14.67Z"/><path class="cls-3" d="M31.7,14.58a.1.1,0,0,1,0,0S31.69,14.64,31.7,14.58Z"/><path class="cls-3" d="M31.9,14.69s0,0,0,0S31.9,14.74,31.9,14.69Z"/><path class="cls-3" d="M32,14.63h0a.08.08,0,0,1,0,0Z"/><polygon class="cls-3" points="33.71 14.49 33.7 14.51 33.71 14.47 33.71 14.49"/><path class="cls-3" d="M34.47,14.49s0,0,0,0S34.48,14.48,34.47,14.49Z"/><polygon class="cls-3" points="34.88 14.3 34.87 14.3 34.87 14.23 34.88 14.3"/><line class="cls-2" x1="31.06" y1="16.13" x2="36.8" y2="16.13"/><path class="cls-3" d="M36.8,16.3s0-.07,0-.06v.06Z"/><path class="cls-3" d="M36.74,16.15a.5.5,0,0,0,0,.18c0-.08,0,0,0-.14s0,0,0,.06,0,0,0,0,0-.07,0,0Z"/><path class="cls-3" d="M35.93,16h0Z"/><path class="cls-3" d="M35.43,16h0S35.42,16,35.43,16Z"/><path class="cls-3" d="M35.34,15.88h0Z"/><path class="cls-3" d="M35.93,16v0S35.92,16,35.93,16Z"/><path class="cls-3" d="M36.63,16.35s0,0,0,0h0Z"/><path class="cls-3" d="M36.15,16h0v0Z"/><path class="cls-3" d="M36.32,15.94v0Z"/><path class="cls-3" d="M36.59,16.06h0Z"/><path class="cls-3" d="M36,15.94v0Z"/><path class="cls-3" d="M31.26,16.46h0Z"/><path class="cls-3" d="M31.06,16.12h0v0Z"/><path class="cls-3" d="M35.18,15.79Z"/><path class="cls-3" d="M33.74,15.84c0,.07,0,.08,0,.15S33.76,15.88,33.74,15.84Z"/><path class="cls-3" d="M36.63,16.34h0Z"/><polygon class="cls-3" points="33.73 15.99 33.73 15.99 33.74 16 33.73 15.99"/><path class="cls-3" d="M34.82,15.83v0Z"/><path class="cls-3" d="M35.09,15.93h0Z"/><path class="cls-3" d="M34.68,15.93h0S34.67,15.92,34.68,15.93Z"/><path class="cls-3" d="M34.53,15.93v0h0Z"/><path class="cls-3" d="M31.7,16.43v-.06C31.7,16.42,31.68,16.44,31.7,16.43Z"/><path class="cls-3" d="M36.63,16.31v0h0Z"/><path class="cls-3" d="M34.67,16.49h0Z"/><path class="cls-3" d="M32.75,16.42h0Z"/><path class="cls-3" d="M34.58,16.49a.2.2,0,0,0,0,0v0Z"/><path class="cls-3" d="M31.7,16.37Z"/><path class="cls-3" d="M31.54,16.53s0-.09,0-.14,0,.07,0,.12,0-.11,0-.11,0,0,0,0,.05,0,.07-.1v0a.66.66,0,0,1,0-.13s0-.06,0,0,0,0,0,0v0c0,.08,0,0,0,.09s.05-.1.06-.07,0,0,0,.1l0,0c0,.13,0,0,0,.13s0,0,.06,0,0-.07,0-.11,0,.21.07.1,0-.17,0-.11v.1s0-.14.05-.08,0,0,0,0,0,0,0,0v.09s.06-.08.1-.09,0,0,0,.07.1,0,.14.06l0-.07a.08.08,0,0,1,0,.05s0-.05,0-.08,0,0,0,.07.08-.14.12-.06v0s0-.15,0-.08h0c.05,0,.11,0,.15.08,0-.11.05,0,.06-.1,0,.07,0,.1.06.15s0-.09,0-.11v.08l0-.08v.09l0,0s0,0,0-.06,0,.06,0,.1l.05-.07a.11.11,0,0,1,0,.06c0-.08,0,.08,0,0v-.06c0,.05,0,.05.06,0v0s.08,0,.12,0a.19.19,0,0,1,0-.13v.08c0-.05,0,0,0-.09a.24.24,0,0,1,0,.12l0,0s0,0,0,.07,0,.08.05,0v0s.06,0,.09,0,0,0,0-.11.06.08.09.07,0-.06,0-.1,0,.06,0,.11,0,0,.09-.07a.13.13,0,0,1,0-.06s0,0,0,.06h0c.06-.1.12.18.16.05h0l0-.07s0,.05,0,.09.08,0,.11-.06c0,.19.1,0,.14.11v-.05s0,0,0,0,0,0,0-.07.17.07.26.11,0-.23.06-.13l0,.09c.07-.1.14,0,.2-.08s0,0,0,0,0,0,0-.05,0,.05,0,.07,0-.07,0,0a0,0,0,0,1,0,0s0,0,0-.06,0,0,.07,0,0,0,0-.07c0,.11,0,.09.06,0s0,0,0,.09,0,0,0-.08c0,.13.07-.11.09.06a.55.55,0,0,1,.14-.13c0,.12,0,0,0,.13,0,0,.07-.14.11-.11s0,.05,0,.06.08,0,.12-.05,0,0,0,0,0,0,0,0h0a.49.49,0,0,1,0-.19c0,.15,0,0,0,.22,0,0,0,0,0-.07s0,0,0,.07,0-.08,0-.08,0,0,0,.06,0-.09,0-.07,0,0,0,0,.06-.13.1-.08,0,0,0,.13l0,0v0s0-.07.05,0l0,0,0,0,0,0c0-.05,0-.12,0-.1s0,0,0,.06h0s0-.06,0,0a.56.56,0,0,1,0,.13c0-.08,0,0,.06-.11a.25.25,0,0,0,0,.08v-.06a.11.11,0,0,1,0,.06s0-.11,0-.06v0s0,0,.08,0,0,0,0,.1.08-.11.12-.09h0c0-.13,0,.07,0,0v.06s0,0,.09-.08v0s0,0,.06,0,0,0,0-.08c.05.19.1-.1.14.06v0l0,0a.17.17,0,0,0,0-.08s0-.06,0-.06,0,.09,0,.12a.43.43,0,0,1,0-.05c0,.1,0-.12,0,0v0s0-.06,0-.05,0,0,0,.09,0-.13,0-.06,0,0,0,0,0,.05,0,.07h0l0,0v0c0-.17,0,0,.07-.15,0,.11,0,.07,0,.14a.09.09,0,0,1,0,.07c0-.06,0,.05,0,0s0,0,0,.06,0,0,0-.07.06.1.1,0,0-.13.07-.17a.17.17,0,0,1,0,.09s0,0,0,0a.2.2,0,0,0,0,.07s0-.09,0-.05,0,.07,0,.1l0-.09s0,.06,0,.09a.22.22,0,0,0,0-.11l0,0s0,.06,0,.07,0,0,0-.05v0c0-.14,0,0-.06,0v-.1l0,.08a.17.17,0,0,1,0-.1c0-.05,0,0,0,0v0s0-.07,0-.06,0,.08,0,0h0s0,.07,0,.16l0-.18v.07a.06.06,0,0,1,0,0c0,.05,0,0,0,.09s-.05,0-.05-.09c0,.05,0,0,0,.08,0-.13,0,0,0,0s0,0,0-.09c0,.12,0,0,0,0s0,0,0,.07-.05,0-.07-.09h0c0,.09,0,.07,0,.09a.28.28,0,0,1,0-.1h0s0,.05,0,.06v-.07s0,.08-.07,0,0,.18,0,.22a.28.28,0,0,1,0-.1h0V16s0,.05,0,.05,0,0,0-.08,0,0,0,0a.11.11,0,0,1,0-.07S36,16,36,16s0-.06,0-.09,0,0,0,.08a.18.18,0,0,0,0-.06s0,0,0,.09h0c0,.07-.08,0-.11,0v0s0,0-.06.07,0,0,0-.07,0,.05,0,0,0,0,0,0,0-.06,0,0,0-.08,0-.06v0h0v-.08c0-.1-.08.17-.11,0,0,.06,0,0,0,.11s0-.13,0-.13,0,.12,0,.09a.33.33,0,0,1,0,.14s0-.13,0-.15,0,0,0,0a.06.06,0,0,0,0-.06v0s0,0,0-.08a.08.08,0,0,0,0,.07c0-.05,0,0-.07,0s0,0,0,0,0,.05,0,.07,0-.11,0-.07a.21.21,0,0,1,0-.11c0,.06,0,0-.06,0v0s0,0,0,0v.06s0,0,0,0,0,.1,0,.15,0,0,0,0,0-.08,0-.1h0v0c0-.07,0,.09,0,.09a.2.2,0,0,0,0-.08.22.22,0,0,1,0,.11s0,0,0,0v0s0,0,0,.05,0,0,0,0,0-.08,0,0,0-.09,0-.11,0-.06-.05,0a.34.34,0,0,1,0,.1l0,0L35,16s0,0,0,0,0,0,0,.08,0,.05,0,0v-.14c0-.07-.05.07-.09,0v0c0,.06,0,0,0,0a.16.16,0,0,0,0-.1s0,0,0,.1l0-.06s0,.14-.06.12a.51.51,0,0,1,0-.13s0,0,0,0,0,.06,0,0,0,.07,0,.07v0a.26.26,0,0,0,0,.09c0-.16-.09,0-.11-.12l-.07,0v0s0,.15,0,.09,0,0,0-.07,0,0-.06-.07h0c0-.06,0,.06-.06,0v0a.28.28,0,0,1-.08.14.38.38,0,0,0,0-.1s0,.1,0,.12a.31.31,0,0,1,0-.13h0c0-.09,0,0,0,0v0s0,.11-.07.11v0c0,.09,0-.06,0,0v-.1a.45.45,0,0,1-.06.12,1.56,1.56,0,0,1,0-.16s0,0,0,.06l0,0c0,.08,0,.12-.06.12,0-.2-.06,0-.08-.2,0,.07-.09,0-.14,0s0,0,0,.16,0,0,0,0l0-.09s0,0,0-.06,0-.07,0-.11,0,.08,0,.06l0,.07c0,.08,0-.13-.07,0v-.05s-.07,0-.08.12a.09.09,0,0,1,0-.07s-.1.13-.14.06v0s0,.07,0,0v0s0,.07,0,0v0c0-.05-.07.1-.11.12s0-.14,0-.16v0c-.05,0-.08.1-.13.14,0-.12-.1-.05-.14-.12a.31.31,0,0,1,0,.1s0,.08,0,0h0c0-.1,0-.08,0-.08v.13c0-.19-.12.07-.14-.1,0,0,0,0,0,.07v-.07s0,0-.08,0v-.05s0,.2,0,.2v-.1s-.07-.09-.11,0,0,0,0,0-.07-.07-.06.08c0-.1,0,0-.06,0v-.07a.39.39,0,0,1,0,.14s0-.06,0,0,0,.06,0,0v-.05s0,0,0,.07,0,0,0-.08,0,.09,0,.07v0s0,.08-.07,0v0h.05c0-.06,0-.07,0-.16s0,.15-.06.12v0h0s0,0,0,0v0s0,0,0,0a.48.48,0,0,0,0,.12h0s0,.07,0,0,0,.09,0,.11,0-.15,0-.21-.07,0-.09.16,0,0,0-.06,0,0,0,0-.05,0-.06.1,0-.08,0-.07v0c-.06-.15-.1.23-.17,0v0c-.08-.08-.16.08-.24-.05s0,0,0,.08V16l0,.09c0,.06-.06-.19-.1-.07v0s-.05,0-.05,0,0,.05,0,0v0l0,.07s0-.16,0-.16a.47.47,0,0,0,0,.14s0,0,0,.06v0a.66.66,0,0,0,0,.32l0-.07v.05h0s0,0,0,0a.18.18,0,0,1,0,.06l0-.11a.47.47,0,0,0,0,.12c0-.05,0-.1,0-.14s0,.1,0,.05a.15.15,0,0,1,0,.07s0,0,0-.08,0,0,0,.09a.24.24,0,0,1,0-.09c0,.13,0,0,0,.15,0-.12.05-.05.08-.12s0,0,0,0a.49.49,0,0,1,0,.07.66.66,0,0,1,0-.18c0,.1,0,.12,0,.21,0-.08,0-.08,0-.15a.18.18,0,0,1,0,.11c0-.12,0,0,0-.09s0,.11,0,.07A.13.13,0,0,1,31.54,16.53Zm.52-.21Zm0,0h0a.07.07,0,0,1,0-.05S32.1,16.3,32.1,16.32ZM32,15.83s0,0,0,0h0Z"/><path class="cls-3" d="M32,15.93h0v0Z"/><path class="cls-3" d="M35.94,16h0Z"/><polygon class="cls-3" points="32.7 16.45 32.7 16.44 32.7 16.45 32.7 16.45"/><path class="cls-3" d="M36.17,16.27v0Z"/><path class="cls-3" d="M36.28,16.29v0Z"/><path class="cls-3" d="M36.36,16.32v0h0Z"/><path class="cls-3" d="M35.09,16.4h0S35.09,16.42,35.09,16.4Z"/><path class="cls-3" d="M35.47,16.24a.1.1,0,0,1,0,0S35.47,16.28,35.47,16.24Z"/><polygon class="cls-3" points="34.67 16.49 34.67 16.49 34.67 16.49 34.67 16.49"/><path class="cls-3" d="M35.44,16.27s0,0,0,0Z"/><path class="cls-3" d="M36.7,16.35h0Z"/><path class="cls-3" d="M36.71,16.35h0Z"/><path class="cls-3" d="M36.72,16.32v0S36.72,16.34,36.72,16.32Z"/><path class="cls-3" d="M36.6,16.32v0Z"/><path class="cls-3" d="M36.56,16.33s0,.05,0,0v0S36.57,16.29,36.56,16.33Z"/><path class="cls-3" d="M36.43,16l0,0a.08.08,0,0,1,0-.07C36.43,15.88,36.47,16,36.43,16Z"/><path class="cls-3" d="M36.35,16s0,0,0-.05A0,0,0,0,0,36.35,16Z"/><path class="cls-3" d="M35.75,16v-.06S35.75,15.93,35.75,16Z"/><polygon class="cls-3" points="35.63 16.3 35.64 16.34 35.65 16.29 35.63 16.3"/><polygon class="cls-3" points="35.57 15.85 35.57 15.84 35.55 15.86 35.57 15.85"/><path class="cls-3" d="M34.56,15.87V16S34.57,15.85,34.56,15.87Z"/><path class="cls-3" d="M34.12,16s0-.06,0,0S34.12,16,34.12,16Z"/><polygon class="cls-3" points="32.82 15.82 32.83 15.8 32.81 15.82 32.82 15.82"/><path class="cls-2" d="M55,22.24c-.08.18-8.39-6.56-2.66-15.5C52.35,6.74,59.31,12.4,55,22.24Z"/><path class="cls-1" d="M55,23.24c-1.05,0-3.12-2.61-4-4-1.72-2.94-3-7.58.44-13a1,1,0,0,1,.68-.45A1,1,0,0,1,53,6a13,13,0,0,1,3.22,4.43c1.18,2.59,2.1,6.83-.28,12.25h0a1,1,0,0,1-.86.6Zm0-1h0ZM52.56,8.36a9.75,9.75,0,0,0-1,6.75,11.93,11.93,0,0,0,3,5.46C56.79,14.27,54.06,10.07,52.56,8.36Z"/><circle class="cls-1" cx="62.98" cy="40" r="0.95"/><circle class="cls-1" cx="67.39" cy="40" r="0.95"/></svg>