<svg id="Calque_1" data-name="Calque 1" xmlns="http://www.w3.org/2000/svg" viewBox="0 0 66.52 70.87"><defs><style>.cls-1{fill:#ffffff;}.cls-2{fill:#ffffff;}</style></defs><path class="cls-1" d="M51.67,40.58H14.85a1,1,0,0,1-1-1V31a1,1,0,0,1,1-1H51.67a1,1,0,0,1,1,1v8.58A1,1,0,0,1,51.67,40.58Zm-35.82-2H50.67V32H15.85Z"/><path class="cls-1" d="M49.73,64.29H16.79a1,1,0,0,1-1-1V39.58a1,1,0,0,1,1-1H49.73a1,1,0,0,1,1,1V63.29A1,1,0,0,1,49.73,64.29Zm-31.94-2H48.73V40.58H17.79Z"/><path class="cls-2" d="M33,65.15c0,.13.13-.08.06.08C33,65.21,32.94,65.19,33,65.15Z"/><path class="cls-2" d="M33.07,29.68c.39.43,0,1,.24,1.46,0,.05-.21,0-.16.1a2,2,0,0,1-.1,1.72l-.06,0c-.05.11.15.24.12.35s0,0-.11,0c.12,0,.06.2.15.25s-.14,0-.2.09l.14.07c.32.17,0,.42.14.67,0,0,0,0-.08,0a4.66,4.66,0,0,1,.22,1.3.36.36,0,0,0-.18,0c.14,0,.17.16.2.28-.14,0,.14.19,0,.33h0c.15.1-.09.15.1.23l-.12.06c.21,0-.1.15,0,.23h0c0,.08,0,.12,0,.19h0c0,.17-.06.27.1.26-.13.06-.06-.16-.24-.07a6.1,6.1,0,0,1,.13,1.7c-.06.07-.08.11-.14.12s0,.21.11.26-.08,0-.09.07.17.11.1.22a.14.14,0,0,0-.15,0c.12.09.1.22.14.34s0,0-.09,0c.14.12,0,.22.06.33l-.09,0c-.11.18.19.05.12.2,0,0-.06,0-.1,0,.17.14.11.37.17.51h0a1.36,1.36,0,0,0,0,.48c0,.06-.23,0-.2.14.19,0,.08.28.29.18,0,.14-.1.36,0,.45s-.22.07-.24,0l-.11.08c-.08,0,0-.09-.07-.06s.08.23,0,.28.32.2.35.38c-.07-.08-.21,0-.24,0l.36.24c0,.06-.15,0-.1.1s.08,0,.12.05,0,.24-.14.27,0-.1-.1,0,.06.11.07.22h0c0,.07.08.21.18.13s-.11,0-.06,0a.28.28,0,0,1,.14.28s-.08,0-.13-.05a1,1,0,0,1,.25.45c.09,0-.16-.06-.11-.08-.12.21.17.42,0,.59,0,0,.13,0,.1,0s-.13.1-.09.16,0,.08,0,.15,0,0,0,0a.82.82,0,0,1,.07.67.32.32,0,0,1,.18.18l-.12,0c-.07,0,0,.17-.09.17.14.11-.11-.4,0-.26-.09,0,.19.2,0,.17,0,.1.13.19,0,.29s-.16-.08-.16,0,.06,0,.1.15l0,.07c.12,0,0,.13.11.07-.09,0,.06.21-.12.19l-.15,0c0,.06.15.1.22.15l-.07,0c.22,0,0,.15.16.22-.08.12,0,.32-.15.38.07.1.15.19.1.3s0-.05-.08-.06,0,.09,0,.15-.13.14-.21.22.19.06.26.07c-.22.09.15.27-.05.39,0,0-.11-.15-.17-.07-.22.09.17.18.06.33l.18,0c-.11.06.11.21-.08.2.07,0-.06.17.12.15-.15.23.09.57-.23.71,0,0,0,.12.09.1s-.07-.07,0-.09.05,0,.08,0-.06.13-.2.06c-.11.16.3.16.23.37-.07,0-.1,0-.09.07l.13.11c0,.14-.17.08-.3.08,0,.07,0,.16.11.19l-.15.09c.11-.06.07.06.1.09l0,0s0,.09,0,.14.1-.1.13-.14,0,.09.1.14c-.12,0-.08.11-.1.17s.11.07.11.09,0,.11-.1.06.06,0,0-.09-.16,0-.08.13.24,0,.16.11c0,0-.08,0-.12-.07l-.06.12h.05c.12,0,0,.18.17.21s-.07.12-.09.18h0c-.06.07,0,.16.06.22h0a.2.2,0,0,0,.08.18c-.09.09-.42,0-.28.14s.2.15.27.11c-.07.18.11.38-.07.54,0,0,.08,0,.1.06,0,.26.14.55-.08.76,0-.08-.11,0-.18,0,.1.07-.1.08.07.1s.15,0,.19-.07a.53.53,0,0,1,0,.47c.05,0,.08,0,.11,0-.16,0-.19.1-.13.19H34l-.1,0s.2,0,.11.13l-.11,0c.08.09.22.22.14.31l-.15.08s.1.11.15,0c-.09.17-.1.27-.22.33a1.23,1.23,0,0,1,.29,1H34c-.06.09.13,0,.08.11s-.15.07-.24,0c-.07.13.13.16.16.25s-.06-.07.06-.05-.07.17.08.19a.36.36,0,0,1-.23,0l.07.08c-.17.09-.3-.22-.51-.12l0,.07c-.15.07-.17-.18-.22,0s.28.14.35.07c0,.16.34.08.33.25s0-.14-.14-.11.07.17,0,.24.21,0,.23,0-.14-.06-.15.07.15.14.21,0-.06.13.09.2c-.13,0-.31-.13-.38,0,.13,0,.18.18.37.1,0,.06-.14.06-.22,0s.24.19,0,.22l.13,0a1,1,0,0,1-.14.1c0,.07.18.22,0,.21,0,0,0,.18.15.12s-.1-.11.08-.16c-.15.07,0,.14.07.19h-.07s0,.11.09.13a.09.09,0,0,0-.11,0l.11,0c.06.14-.2,0-.17.17L34,59s-.09.07,0,.13l.32.1c0,.07-.12,0,0,.1l-.13-.09s-.18.06-.18.16.19.16.25.06a.1.1,0,0,1-.14.08c0,.12.12,0,.18.08s-.17.17-.27.24l-.18-.1v.07c-.15-.09-.11,0-.26,0s0,.11.06.15c.24-.13.33.15.55.11.06.19-.53.12-.19.31.06,0,.23.06.16-.06,0,.12.23.08.13.22-.09-.1-.22.1-.35,0,.07,0,0-.08,0-.1s-.22,0-.22.1,0,.17.14.16,0-.11.12-.06-.15.16.07.22c0-.09.12-.11.2-.11l.05.11-.08,0c-.06.16.15.05.13.21l-.17.08c-.14,0,.07-.24-.16-.21,0,.1.1.14,0,.24s0,0,0-.08-.32.08-.14.23.08,0,.17,0c0,.17.12.22.13.33-.17,0,0,.2-.19.08a.23.23,0,0,0-.07-.37c-.2.07,0-.13-.18-.17,0,.14-.2.13-.33.16s0,.07.07.09.12,0,.24,0a.37.37,0,0,0,.16.38c-.06.05-.19,0-.2,0a1.27,1.27,0,0,1,0,.55c.2-.11,0,.19.22.12a.22.22,0,0,1,.27-.12s-.08,0-.13,0c.11.07-.17.11,0,.19-.06-.17-.24,0-.4-.07.09.12-.11,0-.11.12a1,1,0,0,1,.19.39c-.15.17,0,.42,0,.57s-.25,0-.28.11.19-.07.11.07h0s-.12.27.13.31l-.19,0s0,.05.05.07-.12,0-.16,0,0,.19,0,.29l.11-.07c.09.17,0,.29,0,.45h-.12l.07.1c-.11,0-.18.07-.09.12l-.27-.26c.07-.07.14.08.25,0s.06-.19,0-.21,0,.06.06.1c-.16,0-.15-.07-.26-.11s0,.07,0,.08A.28.28,0,0,1,33,64.3c.06.07.1,0,.14,0a.15.15,0,0,1-.14-.22c.16-.09-.1-.23-.06-.38a.77.77,0,0,1,.31.22c.07-.09,0-.1.06-.19-.1,0-.26-.07-.32-.19h.1c-.05-.11-.2-.11-.17-.24a3.91,3.91,0,0,0,.06-.64h.1c-.21-.09-.08-.32-.17-.45.09-.22-.1-.48.07-.6a4,4,0,0,1-.11-1.14l.14.07c-.1-.08.09-.05.07-.12s-.15-.1-.25-.15c.12-.18,0-.41-.11-.58h.1c-.19-.16,0-.36,0-.56,0,0,.14-.06.13-.12-.17-.11-.16-.17-.26-.33a1,1,0,0,1,.11-.43c-.23-.44-.09-.89-.23-1.35l.12,0c-.25-.45,0-1-.15-1.37l.2,0a.17.17,0,0,0-.19-.24c.06-.12-.1-.3.06-.37s-.09-.15-.12-.25a.93.93,0,0,0,0-.57v.06c.05,0,.13,0,.15,0s0-.32-.19-.23c.14-.25-.12-.58.07-.82-.06,0-.08,0-.12-.06,0-.22.13-.45,0-.62s.11.06.12,0-.09,0-.13-.07c-.12-.35.13-.71.1-1a9.85,9.85,0,0,1-.09-1.7h.05c-.18-.19.19-.43-.09-.58.05,0,0-.16.12-.13-.13-.14.12-.4,0-.61,0,0,0,0,0,0,.11-.21,0-.4.06-.62,0,0,0,.07.09.07s-.21-.2,0-.25c0,0-.12,0-.12,0A5.25,5.25,0,0,0,32.42,46c.14-.36.4,0,.22-.31,0,0-.09,0,0,0s.26-.17.14-.25-.08,0-.17,0c.1-.22.23-.27.12-.44h.07c-.21-.21-.1-.45-.35-.62,0-1.13-.18-2.22-.21-3.33s-.06-2.16.07-3.27c.2-.26.2-.28.11-.57,0,0,0,0,.07,0-.16,0,0-.21-.17-.23,0-.41,0-.79,0-1.21,0,.06.15.1.14,0l-.11-.09h.05c0-.05-.11-.11-.16-.06-.14-1.06.19-2.1.15-3.14a2.56,2.56,0,0,0,0-.87,4.81,4.81,0,0,0,.24-2.31S33,29.35,33.07,29.68Z"/><path class="cls-2" d="M33,65c.09,0,.13-.12.24,0C33.13,65,33.05,65,33,65Z"/><path class="cls-2" d="M33.82,62.52s0,0,0,0,.08.06,0,.08S33.85,62.53,33.82,62.52Z"/><path class="cls-2" d="M33.87,61.89c.07,0,.13.14.14.22Z"/><path class="cls-2" d="M34.17,61.3q.09-.07.09,0S34.2,61.32,34.17,61.3Z"/><path class="cls-2" d="M34,61.26s0-.07.08-.1S34.12,61.28,34,61.26Z"/><path class="cls-2" d="M34.21,60s-.06-.09,0-.12S34.32,60,34.21,60Z"/><path class="cls-2" d="M34.1,59.39s0,0,0,0a.06.06,0,0,1,.09,0Z"/><polygon class="cls-2" points="33.81 48.6 33.85 48.66 33.77 48.65 33.81 48.6"/><path class="cls-2" d="M33.81,43.87c-.05-.07.06,0,.08-.06S33.8,43.79,33.81,43.87Z"/><polygon class="cls-2" points="33.44 41.32 33.44 41.34 33.29 41.33 33.44 41.32"/><path class="cls-2" d="M32.25,30c.35.12-.14-.19.24,0A.18.18,0,0,1,32.25,30Z"/><path class="cls-2" d="M33.46,29.43c1-.8,2.61-.94,3.76-1.61.14-.07,0,.21.34,0a21.28,21.28,0,0,1,4.54-1.72l-.06.09c.29-.09.53-.42.82-.55,0,0-.06.1,0,.11s.48-.32.55-.46.17.06.33,0l.09-.21c.25-.52,1-.7,1.4-1.3,0,0,0,.1,0,.09a24.58,24.58,0,0,0,2.12-3c0,.06.07.15.15.12-.09-.13.08-.46.2-.77.2-.06.15-.55.36-.86l0,0c0-.31.25-.34.16-.63l.17-.12c-.15-.18.24-.35.2-.61h0c0-.22.15-.3.16-.51h0c0-.48.22-.72,0-.74.16-.14,0,.46.21.24a11.06,11.06,0,0,0-.44-4.69c0-.19,0-.31,0-.37s-.29-.53-.44-.6c0,0,0-.13,0-.2-.12-.28-.32-.16-.46-.44.11.07.18.07.19,0-.26-.13-.51-.39-.79-.53.06,0,.13,0,.15,0-.36-.09-.53-.37-.85-.39l.14,0c-.44-.27-.2.13-.58,0,.1,0,.07,0,.1-.09-.42.06-1,0-1.42.08a0,0,0,0,0,0,0,4.47,4.47,0,0,0-1.3.28c-.18,0,0-.23-.44-.07.07.17-.7.34-.38.44a4.61,4.61,0,0,0-1.17.45c.13-.13-.27-.13,0-.27h-.27c0-.09.24-.09.13-.14a6.13,6.13,0,0,1-.69.4c-.22.24-.34.58-.74.84.16-.17-.22-.1-.11-.21-.13.22-.24.46-.36.68s-.11-.1-.27.07c0,0,0,.12-.06.19s-.49.44-.66.35.18-.19,0-.13-.19.25-.42.45l0,0c-.17.11-.37.45-.15.38s-.11-.05.07-.14a1.62,1.62,0,0,1-.45.63c.05-.09,0-.11,0-.18a10.2,10.2,0,0,1-.66,1.09c.06.06,0-.23.06-.24-.46.35-.59,1-1,1.29,0-.07.13,0,.11,0-.17.22-.26.14-.32.32-.07,0-.09.2-.17.36s-.06,0,0-.11a11.29,11.29,0,0,1-.8,1.66s0,.4,0,.52l-.09-.09c-.11.08-.15.42-.25.4,0,.32.29-1.07.25-.67-.13.06,0,.57-.14.44-.11.25-.06.53-.24.75,0-.07-.08-.26-.14-.05-.1.37,0,.12,0,.43V20c.11,0-.1.32.06.22-.11,0-.07.55-.24.47l-.13-.08c0,.16.09.29.13.43s-.06.06-.08.05c.22.06-.09.38,0,.61-.13.33-.12.87-.27,1a2.23,2.23,0,0,1,0,.82c0-.06,0-.14-.07-.16-.08.19,0,.24,0,.42,0,0-.15.38-.23.59s.18.18.25.21c-.22.24.14.76,0,1.07,0-.1-.11-.39-.17-.17s.18.5.08.9l.18-.11c-.1.18.13.58-.05.55.07.13,0,.48.14.42-.12.67.19,1.59-.09,2,0,.09,0,.33.11.27s-.09-.21,0-.27.06.1.08.1c0,.21,0,.37-.18.19a.71.71,0,0,0,0,.14l-.68.18c-.13-.31-.45-.24-.61-.73.08,0,.08-.06,0-.21L32,28.74c-.13-.35.06-.26.17-.32-.1-.18-.2-.4-.32-.44l0-.29c0,.21-.14-.12-.21-.19l.07.07c0-.05-.1-.25-.16-.35-.06.06,0,.29.05.42-.09-.07-.15-.22-.27-.32.13,0-.06-.33-.12-.47s-.19-.14-.21-.19-.13-.27,0-.18,0,.15.11.22c0-.13.09-.17-.09-.35s-.2.15-.29-.2c.07.07.12.06.19.11l-.09-.33-.11,0s0,0,0-.06-.27-.43-.42-.43a4.16,4.16,0,0,1-.16-.5l0,0a1,1,0,0,0-.35-.52h0a1.08,1.08,0,0,0-.3-.39c-.07-.27.31-.29,0-.48s-.4-.26-.4-.13c-.19-.46-.65-.82-.76-1.29-.08,0-.07,0-.18-.09a10.87,10.87,0,0,1-1.17-1.71c.17.13.09-.06.14-.1-.19-.07-.05-.23-.23-.16s-.11.09,0,.27a4.56,4.56,0,0,1-.83-1c0,.12,0,.08-.12,0,.13-.08-.06-.34-.27-.46l-.09,0,0-.18c-.09,0-.21.08-.31-.15a.22.22,0,0,0,0-.12c-.23-.12-.58-.24-.72-.47l-.07-.25c-.1-.06-.29-.12-.17,0-.29-.35-.52-.52-.56-.71a7,7,0,0,1-1.26-.54,10,10,0,0,0-1.18-.54l0-.06c-.18-.14-.14.09-.26,0,.08-.05-.12-.19.06-.23-.28-.15-.41,0-.58.07s.15-.06.1.07-.36-.09-.38.06c-.06,0,0-.16,0-.22l-.14.09c-.1-.07,0-.16.09-.26s.24-.18.11-.28l-.18,0c-.21-.14.5-.21,0-.22-.22.09-.31.35-.13.37-.35.14-.07.36-.34.5-.13,0,.2-.15.1-.22s-.25.21-.37.28c.15-.07.15.14.12.21s0-.17-.19,0c0,.09,0,.27.13.17.13.14-.14.16,0,.33-.16,0-.21-.34-.37-.1.13,0,.1.38.31.27,0,.1-.15.1-.22,0-.11.15.21.41-.05.46l.14.06c0,.06-.07.13-.13.24s.26.48.07.51c0,.05.12.42.21.24s-.16-.24,0-.4c-.11.19.1.32.19.43l-.07,0c0,.07.1.24.19.26s-.1,0-.09.08l.14,0c.19.3-.16.16,0,.46l-.19-.21s0,.2.09.34.29.07.39.08-.07.13.11.25L20,19.68c-.06,0-.09.23,0,.46s.37.28.29,0c.07.11.1.3,0,.25.19.24.08-.09.27.1,0,.13.08.45.1.68l-.29-.13.09.15c-.24-.12,0,.16-.22.13a.76.76,0,0,0,.29.3c0-.44.5.14.62-.08.34.34-.24.58.36.76,0-.1.28,0,0-.22.18.25.29,0,.47.34-.25-.14,0,.36-.34.16.08,0-.1-.2-.15-.23,0,.15-.19.13,0,.37s.33.33.39.22-.21-.21,0-.21c.29.25.21.43.48.39-.19-.16-.14-.3-.07-.35l.23.16-.09,0c.27.36.2,0,.49.3l0,.26c-.18,0-.42-.48-.53-.26.21.2.35.19.51.41l-.18-.1c.07.07-.06.37.37.51.21.08.1,0,.16-.09.36.28.53.29.77.47-.16.1.41.32,0,.27a1.38,1.38,0,0,0-.82-.56c0,.26-.26-.26-.46-.18.27.26.14.39.1.53a.67.67,0,0,0,.25.13c.11-.07,0-.16.08-.26a1.84,1.84,0,0,0,.92.53c.07.13,0,.2-.17.11.42.28.85.59,1.23.88-.15-.33.48.25.39,0s-.3-.41-.13-.41,0,.07,0,.14c.23,0,.17.32.43.28-.42-.19-.2.16-.36.25.33.1-.07.09.21.26a9.68,9.68,0,0,1,1.06.38,4.75,4.75,0,0,0,1.41.73c.16.17-.05.26.15.39s-.1-.26.24,0l-.06,0c.13,0,.64.42.86.24l-.2.12c.06.05.15,0,.21.05s0,.15-.09.13c.17.23.49.2.75.31L30,28.61a12,12,0,0,1,1.15.48l-.05.1.28,0c-.11.07.1.23.26.2l-.76,0c-.15-.14.25,0,.18-.19a.62.62,0,0,0-.56-.2.46.46,0,0,0,.29.07c0,.16-.24.06-.39.11.08,0,.17.12.21.08a1.68,1.68,0,0,1-.6-.16c.2,0-.06-.13,0-.14-.08.11-.34,0-.64-.13s-.64-.18-1-.39a1.41,1.41,0,0,1,.68,0c-.2-.17-.25-.11-.45-.28a.88.88,0,0,1-.62.06l0-.1c-.29-.09-.36.05-.69-.15l-1.57-.92,0-.1c-.35.05-.83-.41-1.19-.54-.48-.42-1.2-.71-1.35-1.06a11.05,11.05,0,0,1-2.48-2.17l.24,0c-.22-.08,0-.15-.17-.3.06.26-.3-.12-.47-.17a6,6,0,0,0-1.07-1.31l.08-.07a3,3,0,0,1-.76-1.45.62.62,0,0,0,0-.37,2.16,2.16,0,0,1-.56-.85A3.33,3.33,0,0,1,18,17.38a2.46,2.46,0,0,1,.67-2.18A3,3,0,0,1,21,14.43l.1.14a4,4,0,0,1,2.13.68c.61.39,1.15.79,1.63,1.09l-.21.09c.24.26.66.45.68.29.22.28.74.49.78.77.23.28.38.24.61.43a12.18,12.18,0,0,0,1.11,1.23l-.1-.13c-.08,0-.15,0,0,.16s.54.74.57.39c.35.64,1.11,1.26,1.35,1.95,0-.09.13.05.21.09a14.46,14.46,0,0,0,.93,1.52c0,.1-.18-.08-.05.14s.07,0,.2.1A18.57,18.57,0,0,1,32.2,26a31,31,0,0,1,1.71,3.41l-1.61.42-.08-1h.05c-.23-.5.11-1.22-.2-1.62,0-.12,0-.47.1-.38-.15-.41.08-1.17-.09-1.77a.4.4,0,0,0,0,.15c.11-.61,0-1.15.1-1.8,0,.07,0,.19.08.21.1-.24-.17-.6.08-.72,0-.15-.11-.11-.11,0a27.24,27.24,0,0,1,.8-4.4c.53-1,.39.08.55-.77.07,0-.06-.08,0-.07.08-.33.45-.35.44-.61-.18,0,0-.17-.08-.21.39-.54.57-.58.75-1.08l0,.08c.14-.64.64-1.14.78-1.69a14.9,14.9,0,0,1,8.22-5.48,6,6,0,0,1,2.78.07,4.56,4.56,0,0,1,2.38,1.7,7.91,7.91,0,0,1,1.32,5.06,5.35,5.35,0,0,0-.3,1.72s0-.09-.06,0c.15.07-.12.6,0,.72a14.42,14.42,0,0,1-1.4,3.41c.09-.18,0-.34-.09-.13l0,.27H48.3c-.06.15-.09.35,0,.23a12.11,12.11,0,0,1-3.17,3.59A22.23,22.23,0,0,1,41,27.4c-.69.22-1.6.64-2.3.94-1.11.29-2.15.55-3.18.86-.51.15-1,.32-1.51.51a4.92,4.92,0,0,0-.69.31.26.26,0,0,0-.11.07s0,.05-.08-.1a1.3,1.3,0,0,0-.19-.22c-.09-.12-.22-.11-.16-.12l.09-.13c0-.05.06-.16.08-.26.06-.3,0-.17.06-.2h.15a.92.92,0,0,1-.2.21,0,0,0,0,0,0,0h0l0,.1c0,.13-.1.24-.14.25s.1,0,.19.14l0,0h0v0A1.4,1.4,0,0,1,33.46,29.43Z"/><path class="cls-2" d="M31.83,29.89c0-.11-.27-.25,0-.27C31.79,29.7,31.88,29.83,31.83,29.89Z"/><path class="cls-2" d="M26,26.12s-.07-.08-.08-.1.18,0,.21.09S26,26.11,26,26.12Z"/><path class="cls-2" d="M24.53,25.13c.07-.05.4.12.58.23Z"/><path class="cls-2" d="M23.46,23.91c-.06-.13,0-.13.13,0C23.57,23.93,23.51,23.91,23.46,23.91Z"/><path class="cls-2" d="M23.27,24a.44.44,0,0,1-.14-.24C23.09,23.78,23.38,23.9,23.27,24Z"/><path class="cls-2" d="M21.12,21.33c-.05-.06-.21-.17-.18-.28C20.94,21.15,21.24,21.32,21.12,21.33Z"/><path class="cls-2" d="M20.2,20.07a.34.34,0,0,0-.06-.12c0-.09.08,0,.12,0Z"/><polygon class="cls-2" points="33.46 26.03 33.5 26.21 33.43 26.19 33.46 26.03"/><path class="cls-2" d="M37.38,14.11c.1-.15.14,0,.17,0S37.52,14,37.38,14.11Z"/><polygon class="cls-2" points="43.07 10.1 43.02 10.12 42.99 9.97 43.07 10.1"/></svg>