<svg id="Calque_1" data-name="Calque 1" xmlns="http://www.w3.org/2000/svg" viewBox="0 0 184.25 70.87"><defs><style>.cls-1{fill:#1d1d1b;}.cls-2{fill:#e6332a;}.cls-3{fill:#070706;}.cls-4{fill:#fff;}</style></defs><g id="Tracé_251" data-name="Tracé 251"><path d="M170.78,55.93a.86.86,0,0,1-.32,0L131.65,43a1,1,0,0,1-.14-1.84l46-23.39a1,1,0,0,1,1.05.09,1,1,0,0,1,.38,1l-7.15,36.25a1,1,0,0,1-.48.67A1,1,0,0,1,170.78,55.93ZM134.55,41.87,170,53.63l6.54-33.12Z"/></g><g id="Tracé_252" data-name="Tracé 252"><path class="cls-1" d="M177.22,19.39c0-.1,0,0-.08.06Z"/><path class="cls-1" d="M177.14,19.45l0,0A.05.05,0,0,0,177.14,19.45Z"/><path class="cls-1" d="M176.69,19.85c0-.15.22-.21.2-.34C176.75,19.57,176.62,19.74,176.69,19.85Z"/><polygon class="cls-1" points="176.88 19.74 176.85 19.69 176.83 19.84 176.88 19.74"/><polygon class="cls-1" points="176.98 19.71 176.95 19.71 176.87 19.89 176.98 19.71"/><path class="cls-1" d="M176.34,20.17l.08-.12c.15,0,0,.14.12.11s-.08-.16.08-.3c-.06,0-.23.26-.29.15C176.17,20.12,176.37,20.07,176.34,20.17Z"/><path class="cls-1" d="M171.12,26.76h0S171.13,26.77,171.12,26.76Z"/><path class="cls-1" d="M169.63,28.51l-.09,0h.05Z"/><path class="cls-1" d="M171.93,25.55l.09,0A.14.14,0,0,0,171.93,25.55Z"/><path class="cls-1" d="M161.7,36s0,0,0,0h0v0Z"/><path class="cls-1" d="M168,30.52a.24.24,0,0,0-.06.09Z"/><path class="cls-1" d="M172.49,24.94l0,0,0,0Z"/><path class="cls-1" d="M170.25,28.06l-.07.06Z"/><path class="cls-1" d="M174.8,21.64a.12.12,0,0,0-.06.08S174.79,21.7,174.8,21.64Z"/><path class="cls-1" d="M174.25,22.25h0S174.24,22.25,174.25,22.25Z"/><path class="cls-1" d="M173.89,22.63h0S173.87,22.62,173.89,22.63Z"/><path class="cls-1" d="M174.74,21.72c-.08,0-.21-.07-.15.11h0c-.06,0-.07.12-.1.17h0l.1-.09C174.74,21.89,174.71,21.8,174.74,21.72Z"/><path class="cls-1" d="M171.11,26.74s0,0,0,0Z"/><path class="cls-1" d="M171.49,26.13l-.05.05A.12.12,0,0,0,171.49,26.13Z"/><path class="cls-1" d="M173.34,24.2h0S173.34,24.21,173.34,24.2Z"/><path class="cls-1" d="M171.4,26.23l0-.05A.11.11,0,0,0,171.4,26.23Z"/><path class="cls-1" d="M172.73,24.73h0Z"/><path class="cls-1" d="M153.88,43.73s.08,0,.12-.08-.16.18-.12,0a.41.41,0,0,0-.06.11l.12,0C154,43.67,153.87,43.79,153.88,43.73Z"/><path class="cls-1" d="M161.09,36.36h0c-.05,0-.05,0-.13,0s.16.09.13.24a.23.23,0,0,1,.07-.07C161.11,36.53,161.09,36.44,161.09,36.36Z"/><path class="cls-1" d="M161.19,36.53h0a.05.05,0,0,1,0,0A.09.09,0,0,0,161.19,36.53Z"/><path class="cls-1" d="M155.12,42.45l0,0S155.12,42.43,155.12,42.45Z"/><path class="cls-1" d="M167.17,29.51a.19.19,0,0,0,0-.07A.11.11,0,0,0,167.17,29.51Z"/><path class="cls-1" d="M162,35.5l.05,0,0,0Z"/><path class="cls-1" d="M159.89,39.28c-.06-.12,0,0-.13,0v.1C159.82,39.39,159.85,39.32,159.89,39.28Z"/><polygon class="cls-1" points="153.81 43.75 153.81 43.76 153.82 43.75 153.81 43.75"/><path class="cls-1" d="M158.22,41.12l0,0Z"/><path class="cls-1" d="M161.56,36.2l.23-.23-.09.05C161.71,36.09,161.54,36.12,161.56,36.2Z"/><path class="cls-1" d="M160.86,38.32l.07,0c.11-.34.52-.46.53-.79.45-.11,0-.34.41-.45h0a24.85,24.85,0,0,0,2.41-2.54l0,0c1.26-1.24,2.34-2.57,3.55-3.82.08-.15-.07-.15,0-.3s.13-.14.18-.1,0,.1,0,.14c.13-.15.35-.28.41-.46l-.15.05c0-.07.11-.14.15-.18s.14,0,.11.09c.11-.4.26-.15.42-.43-.09-.16.08-.54.16-.81l.13-.07c-.13.13.09.08-.07.24.16-.1.23-.28.36-.39,0,0-.08,0,0-.11s.16,0,.25-.1l-.05.12c.11,0,.09-.12.14-.18s.2-.1.23,0c.05-.19.12-.2.2-.37-.18.09,0-.1-.09-.12l-.12.17c.23-.18-.06.08,0,.15-.13.06,0-.28-.16-.09a3.74,3.74,0,0,0,.35-.53c-.1.14,0-.08-.13,0,.14-.16.07,0,.17,0s.16-.08.17-.22,0,.08.14.05-.43.32-.2.46c-.07.07-.08.23-.18.33.11-.07.3-.14.36-.29l-.11-.11c.08-.09,0-.17.09-.23s.1.05.16,0-.06,0-.07,0,0-.22.18-.4a3,3,0,0,1-.36.18c-.05-.11.06-.1.12-.18s0,0,0,0l0-.1c.18-.13.1.12.25,0s.08-.16.18-.19h0l0,0h0c.07-.09.15-.18.12-.25s.06-.08.07-.13.05-.24.21-.22h0c.11-.09.22-.15.23-.1l.17-.14L172,26c.12-.17.07-.19.09-.37a1,1,0,0,0,.32-.39s0,0,.06-.07l-.09,0c.11-.12.06-.14.13-.22l0,0,0,0s0,0,0,0h0c.17,0,.09-.19.21-.27a.08.08,0,0,1,0,.05c.07,0,.25,0,.21-.11a.08.08,0,0,0,0-.07l.05,0-.05,0c0-.05,0-.1,0-.09l.15-.13a.31.31,0,0,0,.08-.11h.05c0-.06.06-.05.07,0,.27-.09.21-.34.48-.46,0-.08-.11,0-.15,0a1,1,0,0,1,.09-.3c.15,0,.47-.24.53-.1.16-.16-.11,0-.07-.12l0,0a.32.32,0,0,1-.21.06c-.06,0,.06-.2.11-.23l.05.1c.12-.18,0-.25,0-.42s.15,0,.24.08l.1-.15.06.06c.06-.1,0-.17.15-.26,0,.13.22-.12.18.06.08-.05,0-.17.1-.13s-.09,0-.14,0,.09-.18.13-.28,0,.11.13,0a.1.1,0,0,1,.09-.14c-.05-.06.09-.11.14-.16s-.19.09-.2,0,0-.11.14-.21l-.09.05c0-.17.2-.09.28-.24a1.42,1.42,0,0,0,0,.2,3.61,3.61,0,0,1,.14-.35l.18,0c0-.05.11-.11.05-.16.16-.1,0,.16,0,.22.19-.13,0-.22.25-.29v.1c0-.05.11-.18.15-.16s0,0-.07.05c-.09-.14.14-.32,0-.41l-.08.06c.08-.13.07-.28.19-.32s0,.12,0,.18c.11-.09-.05-.2.07-.31-.08,0-.11,0-.11-.08s-.23.19-.15.21h0s0,.08,0,.12-.09,0-.14,0,.11.12,0,.27h0c0,.1-.12.22-.07.3-.14,0-.12.2-.23.23-.19-.15.24-.24.22-.41-.1,0,0-.12,0-.19l-.15.31s-.19,0-.17.09h0c-.07.11,0,.15-.07.21s0,0,0-.07,0,.1,0,.17,0-.11-.11-.06-.15.13-.22.21c.13.05-.14.43.1.34l-.11.25c-.1,0,0-.26-.15-.28l.14-.15c-.14-.09-.2.39-.43.36a.52.52,0,0,1-.24.16l.13.07a.18.18,0,0,1-.2,0,.77.77,0,0,1-.12.13.1.1,0,0,1,0-.09c-.11,0-.1,0-.09.09s-.05.1-.09.15v-.08s0,.09,0,.11a.21.21,0,0,0,0,.06.28.28,0,0,0,.22,0c-.21.14-.32.3-.55.37,0,0,0-.13,0-.12s-.11.2-.05.24l0,0a.11.11,0,0,0-.12,0,.11.11,0,0,0-.07,0c.06.11-.11.22-.1.29a.43.43,0,0,0,.11-.12c0,.12,0,.23-.07.24.05-.17-.21,0-.07-.16-.22,0,0,.14-.14.23l-.12,0c-.05-.07.1-.16,0-.16l0,.06c0-.1.24-.29.29-.49l-.28.24c-.24.41-.72.75-.84,1.16h0s0,0,0,.05h0v.1a1.81,1.81,0,0,0-.38.18c.1,0,.1,0,.15,0s.07.1,0,.18,0-.1-.09-.06.06,0,0,.09-.16.11-.21.07,0,0,.07-.05-.14.06-.11-.05l-.07.11c-.09,0,0-.09-.07-.09-.12.19-.1.37-.2.54l-.09-.09c-.13.08-.11.34-.22.48,0,0,0-.08.06-.14a9.13,9.13,0,0,1-1.13,1V27l-.16,0a5.07,5.07,0,0,0-.94,1.08c-.1.12-.14,0-.21,0-.25.24-.19.41-.39.67,0-.06,0-.2-.14-.1s0,.11,0,.15v-.06c-.1,0-.11.12-.24.22a1.57,1.57,0,0,0-.37.78c-.19.19-.1-.12-.15-.1.16-.1.07-.11.06-.18,0,.1-.1.21-.21.18a.56.56,0,0,0-.17.29c0-.07.1-.08.09,0s-.27.29-.35.19c-.42.5-.93,1-1.4,1.52,0,.13.08,0,.07,0s-.12.07-.17.22v-.09a1.89,1.89,0,0,0-.28.57c0-.07-.16.08-.08-.07-.06.08-.39-.07-.39,0l.31.14s-.09.11-.06.12a.54.54,0,0,0-.27.08c-.08,0,0-.13.09-.19-.09-.1-.25.14-.26,0-.1.14.07,0,0,.14l-.12.09.11,0c0,.12,0,.22-.17.29l0,.22c-.09-.06-.1.08-.18.12v-.08a.33.33,0,0,1-.2.13c0-.11.09-.06,0-.14l-.11.07s0,.14.11.09a.54.54,0,0,1-.18.5c-.17,0,0-.17-.08-.2-.25.2-.06.46-.2.59s-.11.2-.26.38c0-.11-.17.07-.25.05v-.12c0,.07-.1.1-.12.05s-.15.29-.22.44l.08,0a1.37,1.37,0,0,1-.26.37c-.12.16,0,.18-.07.35a.22.22,0,0,1-.22-.13c.07,0,.11-.1.19-.15.12-.23.13-.49.33-.65-.07-.22-.1.14-.23.18a0,0,0,0,1,0,0l0,0c0-.08.12-.21.07-.3-.09.13.07.22-.12.3s-.25.12-.32.17.11.23-.07.38v-.15c-.18.19,0,.2-.13.37.06,0,0,.14.13,0a.55.55,0,0,1-.23.31s0,0,0,.06.1-.22.26-.23l0-.16c.12-.07.2,0,.18.08s0-.07.07-.07-.16.07-.08.21l.06-.08c.11.05-.08.24-.17.32s-.23.14-.3.09l.1-.16c-.12,0-.13.2-.21.28h0a.09.09,0,0,1-.07,0c-.07.06-.12.2-.2.25l.06,0,0,0c.06-.06.17-.11.17,0s-.23.11-.31.1.13-.14.17-.24c-.13,0-.15.14-.34.24,0-.15.16-.17.11-.29-.13.11-.09.2-.23.31,0-.06.08-.19,0-.23l-.1.06c.18-.21-.14-.07,0-.25-.11,0,0,.17-.18.22.07,0,.22,0,.16.13l-.13.08c-.08,0,0-.2-.09-.17l-.08.15s.1,0,.1.05,0,.21,0,.33-.11.11-.16.1c-.07.23-.26.44-.32.66,0-.16-.1-.09-.2-.06.1-.13,0-.21,0-.26s0,.21,0,.2c-.14.09,0,.14-.17.19s-.05-.11-.1-.12.07.13-.08.25c0,0,0,0,0,0a.22.22,0,0,0-.1.23c-.18,0-.19.23-.29.12-.13.21.09,0,.09.1s-.18.22-.24.24.05-.11.1-.14l-.11,0c-.26.17,0,.3-.22.46.06-.15,0-.09,0-.2,0,0-.19.2,0,.15a2.25,2.25,0,0,1-.21.17.67.67,0,0,0-.08.28.69.69,0,0,1-.33.17c-.17.29-.47.43-.64.74l0,0c-.2.19.18,0,0,.21-.07-.11-.18.07-.29.09-.28.2-.33.49-.61.67a.1.1,0,0,1,0-.11,3.38,3.38,0,0,0-.46.47v0c-.31.18-.43.5-.65.79,0,0,0-.07,0-.1s-.35.31-.36.48c-.23.08-.06.13-.34.26,0,0,0,0,0-.06a2.26,2.26,0,0,0-.28.25c-.15.27-.08.44-.35.67-.14-.11.11-.19,0-.29a.28.28,0,0,1-.14.18c0-.08,0,0,0-.11s-.07.35-.08.33.05,0,.09,0c0,.13-.23.26-.31.41,0,0,.18-.14.2,0-.18.15-.11.32-.17.48s0-.21-.12-.27-.19,0-.16-.1c-.15.12-.16.29-.26.44l0,0c-.15.18-.21.47-.4.57l.1-.05s-.1.12-.09.22-.18,0-.17,0c.06.2-.28.47-.24.68-.07,0-.09-.07-.11-.12s.17-.11.17-.22c-.08.1-.18.13-.19.09,0,.17-.17.42-.13.54s-.19.07-.23,0c-.22.32.34.06,0,.38-.2.08,0-.23-.17,0l0-.05c-.31,0,0,.22-.12.38-.12-.07,0-.18-.14-.13s0,.37-.2.49l0-.06c-.08.1-.27.27-.35.37s0,0,0-.05c-.2.14,0,.12-.22.2v.09c.1,0,.28-.14.3-.28,0,.14.26,0,.3.09l0,0a3.07,3.07,0,0,0,1-.65c.08-.28.34-.28.46-.55-.08-.14,0-.06.15-.26-.07.11.08.09.15,0a.35.35,0,0,1,.06-.17c.07,0,.36-.13.36-.29s0,.06,0,.11,0-.13.1-.13a0,0,0,0,1,0,0,5.66,5.66,0,0,1,.44-.4c-.1-.11.11-.2.14-.31,0,0,.13-.06.2-.09v-.17c0-.15.16-.08.23-.23h0a.78.78,0,0,1,.45-.31c.51-1,1.25-1.1,2-2,0-.08-.1,0-.11-.1l.16-.19c-.09,0-.05.07-.07,0l-.08.14s0,0,0,0a.39.39,0,0,1-.1.16c0-.09,0-.19.1-.26a.12.12,0,0,1,0,.07c.08-.08.05-.12.12-.16s.05-.07.09,0l.26-.2c0-.2.24-.26.29-.29s-.13.18-.11.3l.14,0-.06-.06.13-.11v0s0-.07,0-.09,0,0,0,0l0-.12c0,.11.09-.06.15,0,.29-.25.23-.44.56-.6-.07,0,0-.18,0-.25s.08,0,.08,0l.06-.13c.22,0,.27-.21.47-.36l0,0a.59.59,0,0,1,.17-.29l.05.07c.16-.08-.05-.21.12-.31-.07-.06-.18,0-.26,0,.1,0,.25-.11.17-.12.1-.16.09-.1.11-.09l0-.12c.09-.09.11,0,.12.12,0-.16.15-.21.25-.3v.07l.13-.12A.61.61,0,0,1,160,39l0,.16c.12,0,0-.07,0-.1s.15-.14.27-.16C160.42,38.6,160.84,38.62,160.86,38.32Zm12.39-14.11h0C173.24,24.16,173.25,24.12,173.25,24.21Zm-1,1.07c.09-.16.09-.08.12-.07-.14.11-.18.21-.31.3l.08,0a.18.18,0,0,1-.17,0C171.89,25.44,172.31,25.27,172.21,25.28Zm1.85-2.87v0h0Zm-.53.72a.12.12,0,0,0-.08,0S173.52,23.16,173.53,23.13Zm-1.31,1.21c-.07,0-.12.07-.16.13A.87.87,0,0,0,172.22,24.34Zm-7.55,8.26c0-.05.05-.16,0-.12s-.12.08-.09.15h0Zm-3.27,4.15s0-.11-.08-.12h0a.18.18,0,0,0-.09.08C161.31,36.81,161.27,36.89,161.4,36.75Z"/><path class="cls-1" d="M162.11,35l0,0Z"/><path class="cls-1" d="M161.21,36.68s0,0,.11,0A.17.17,0,0,0,161.21,36.68Z"/><path class="cls-1" d="M176.42,20.64l0,.05.11,0a.33.33,0,0,0,0-.31c0,.17-.14.22-.26.38Z"/><path class="cls-1" d="M176,20.34h-.12l0,.06Z"/><path class="cls-1" d="M174.4,21.7l.14-.09C174.55,21.54,174.36,21.63,174.4,21.7Z"/><path class="cls-1" d="M175.52,21.74l0-.1c-.09,0-.15.11-.12.16C175.47,21.7,175.46,21.8,175.52,21.74Z"/><path class="cls-1" d="M174.09,22c0,.1-.14.09-.1.18S174.16,22.09,174.09,22Z"/><path class="cls-1" d="M174.84,22.56c.11,0,.11-.1.19-.16S174.82,22.49,174.84,22.56Z"/><path class="cls-1" d="M173.69,22.86c0-.06,0-.1.07-.15a.34.34,0,0,1,0,.1,1,1,0,0,1,.11-.23c-.11,0-.24.14-.29.07C173.57,22.75,173.58,22.88,173.69,22.86Z"/><path class="cls-1" d="M174.68,22.75c.08-.05.16,0,.23-.12a.16.16,0,0,0-.2.05l0-.08C174.56,22.64,174.79,22.64,174.68,22.75Z"/><path class="cls-1" d="M173.23,23.08h.06c0-.13.17-.23.14-.35A.88.88,0,0,0,173.23,23.08Z"/><path class="cls-1" d="M174.28,23l.07.09c.1-.08,0,0,0-.07s.08,0,.08-.08C174.33,23,174.34,22.85,174.28,23Z"/><path class="cls-1" d="M174.1,23.34l-.07.15h.18C174.3,23.32,174.16,23.43,174.1,23.34Z"/><path class="cls-1" d="M173.92,23.43h0l0,.28A.82.82,0,0,0,173.92,23.43Z"/><path class="cls-1" d="M171.46,25c0,.05.15,0,.07,0S171.35,25.06,171.46,25Z"/><path class="cls-1" d="M172.5,25.22c-.07,0-.17.23-.21.32C172.35,25.44,172.56,25.25,172.5,25.22Z"/><path class="cls-1" d="M172.27,25.58l0,0Z"/><path class="cls-1" d="M169.73,28.7s0,0,0,0Z"/><path class="cls-1" d="M169.78,28.61c.05,0,.12-.15.09-.2a1.57,1.57,0,0,0-.14.29S169.82,28.65,169.78,28.61Z"/><path class="cls-1" d="M169.13,29.27c0-.05.07-.09,0-.11S169.09,29.28,169.13,29.27Z"/><path class="cls-1" d="M163.88,32.89c-.08,0-.1.1,0,.13S163.85,33,163.88,32.89Z"/><polygon class="cls-1" points="163.78 33.11 163.75 33.1 163.67 33.1 163.78 33.11"/><path class="cls-1" d="M163.29,33.49v-.05S163.27,33.5,163.29,33.49Z"/><path class="cls-1" d="M163.3,33.43h0Z"/><path class="cls-1" d="M163.35,33.41l0,0,0,0A0,0,0,0,1,163.35,33.41Z"/><path class="cls-1" d="M163.16,33.62h.16c0-.13-.14.06-.14-.11Z"/><path class="cls-1" d="M162.9,33.94c-.1.06-.08.29-.22.25-.16.28.21.09,0,.39.28-.21-.06-.3.19-.47C162.72,34.16,162.89,34,162.9,33.94Z"/><path class="cls-1" d="M163.1,34s-.14.05-.14.11S163.11,34.13,163.1,34Z"/><polygon class="cls-1" points="162.53 34.43 162.43 34.47 162.44 34.51 162.53 34.43"/><path class="cls-1" d="M162.26,34.68v-.12S162.17,34.7,162.26,34.68Z"/><path class="cls-1" d="M161.85,35c-.08,0,0,.23.09.06l0,0S161.78,35.09,161.85,35Z"/><path class="cls-1" d="M161.25,36s.07-.11,0-.12l-.09.14Z"/><path class="cls-1" d="M161.57,36.3c.11,0,.1-.12.2-.18A.81.81,0,0,0,161.57,36.3Z"/><path class="cls-1" d="M161,36.08c0-.06.07-.09.1-.12S161,36,161,36.08Z"/><path class="cls-1" d="M160.85,36.3c-.06,0,0,0-.08,0a.31.31,0,0,0-.19.24s.17.06.17.13c.1-.16,0-.36.19-.33l0-.24C160.8,36.15,160.93,36.23,160.85,36.3Z"/><path class="cls-1" d="M161.36,36.26l-.11,0c.06,0,0,.09,0,.14S161.33,36.3,161.36,36.26Z"/><polygon class="cls-1" points="160.21 37.12 160.09 37.29 160.14 37.25 160.21 37.12"/><polygon class="cls-1" points="160.09 37.19 160.06 37.17 160 37.33 160.09 37.19"/><polygon class="cls-1" points="159.9 37.32 159.93 37.31 159.99 37.19 159.9 37.32"/><path class="cls-1" d="M159.59,37.63h.06s.15-.09.08-.13A.19.19,0,0,1,159.59,37.63Z"/><path class="cls-1" d="M159.63,39.66s0-.06-.08-.06l0,.11S159.6,39.66,159.63,39.66Z"/><path class="cls-1" d="M159.34,39.75l0,.19c.13-.13.09-.2.18-.33-.07,0-.08.15-.16.19Z"/><path class="cls-1" d="M157.15,42c-.05-.06-.06,0,0-.14a2.36,2.36,0,0,1-.3.38c.06,0,0,.16.06.09l.1-.18,0,.06C157.14,42.15,157,42.09,157.15,42Z"/><path class="cls-1" d="M151,47.56s-.05,0-.09,0S151,47.54,151,47.56Z"/></g><g id="Tracé_253" data-name="Tracé 253"><path d="M149.85,61.59a.86.86,0,0,1-.32-.05,1,1,0,0,1-.68-.95V48.22h2V57.6l5.69-7.55,1.6,1.2-7.49,10A1,1,0,0,1,149.85,61.59Z"/></g><path class="cls-2" d="M111.65,44.3c-.1.12.14,0,0,.11C111.59,44.35,111.58,44.29,111.65,44.3Z"/><path class="cls-2" d="M88.13,38.52c.32-.53,1.06-.39,1.49-.78,0,0,0,.2.17.11a2.49,2.49,0,0,1,1.91-.46l0,.07c.12,0,.21-.22.34-.22s0,.06,0,.11c0-.13.21-.11.24-.21s.08.12.15.16l0-.15c.12-.36.48-.1.71-.33,0,0,0,.06,0,.09a5.5,5.5,0,0,1,1.42-.54.26.26,0,0,0,0,.19c0-.15.14-.22.26-.27.09.13.2-.18.37-.12v0c.09-.17.19.06.25-.14l.09.1c0-.21.19.08.26,0v0c.08-.06.15,0,.22,0l0,0c.18-.08.31,0,.28-.14.09.11-.18.08,0,.25a6.34,6.34,0,0,1,1.92-.41c.08.06.13.07.15.13s.24-.06.29-.15,0,.08.08.09.11-.19.25-.14a.14.14,0,0,0,0,.16c.1-.14.25-.13.37-.19s0,0,0,.1c.12-.16.26,0,.37-.1l0,.1c.21.1,0-.2.22-.14,0,0,0,.07,0,.1.15-.18.42-.14.58-.2a0,0,0,0,0,0,0,1.79,1.79,0,0,0,.55-.08c.08,0,0,.23.18.19,0-.19.31-.1.19-.3.16,0,.42.07.52,0-.07.07.09.22,0,.24l.1.11c0,.08-.1,0-.07.07s.26-.08.32,0,.22-.33.42-.36c-.09.08.06.21,0,.24l.27-.36c.07,0,0,.15.11.1s0-.08.07-.12.28,0,.31.13-.11,0,0,.11.13-.07.25-.07v0c.09,0,.24-.08.16-.18s0,.11-.07.06a.36.36,0,0,1,.33-.14s0,.08-.06.13a1.54,1.54,0,0,1,.53-.26c0-.08-.07.16-.09.12.23.11.49-.15.68,0,0,0,0-.13,0-.1s.11.14.18.1.1,0,.17,0,0,0,0,0a1.19,1.19,0,0,1,.78,0s.17-.17.22-.17l0,.12c0,.07.19,0,.2.09.13-.13-.48.1-.31,0,0,.1.24-.17.2,0,.11,0,.23-.12.33,0s-.1.15,0,.15.05-.06.19-.09l.08,0c0-.11.15,0,.1-.1,0,.09.24,0,.21.14l0,.14c.07,0,.13-.14.19-.2a.19.19,0,0,1,0,.07c0-.22.16,0,.26-.12.14.09.37.05.43.2.12-.06.23-.12.35-.06s-.06,0-.07.07.1,0,.18,0,.14.15.22.24c.12-.06.1-.18.12-.25.07.23.33-.1.44.11,0,0-.18.09-.1.15.08.23.23-.13.38,0v-.18c0,.12.26-.08.21.1.07-.06.19.09.2-.09.24.19.67,0,.78.38,0,0,.13,0,.13-.07s-.1.05-.12,0a.07.07,0,0,0,.06-.07c.08.06.14.09,0,.22.16.14.24-.26.47-.15,0,.07,0,.1.06.1l.15-.1c.15.06.06.19,0,.31s.18,0,.24-.07l.06.18c0-.13.08-.06.13-.09l0,0s.11,0,.16,0-.08-.13-.13-.16.11,0,.18-.07c0,.12.12.11.18.14s.11-.1.13-.09.12,0,0,.11-.05-.07-.1,0,0,.16.13.1,0-.24.16-.13c0,0-.06.06-.1.1l.12.09,0-.11s0,0,0,.06.22,0,.28-.11.12.11.19.14h0a.19.19,0,0,0,.26,0v0a.25.25,0,0,0,.22,0c.09.11-.07.42.09.31s.22-.15.2-.23c.18.13.45,0,.59.24,0,0,0-.07.09-.08.28.12.66,0,.83.32-.1,0,0,.1-.06.16s.06.12.13,0,0-.14,0-.21c.18,0,.45.07.52.2,0-.06,0-.08.06-.1-.07.15.05.22.16.2l0-.09,0,.12s.1-.18.17-.05a.2.2,0,0,0,0,.11c.13,0,.31-.12.39,0l0,.16s.15-.05.09-.12l.19.18c.06,0,.13.11.14.18a4.6,4.6,0,0,1,2.09.46l-.13,0c.06.09.28,0,.32,0-.16,0-.12.12-.37.12.08.11.48,0,.7.08s-.23,0,0-.06.19.15.51.12a1.93,1.93,0,0,1-.45.07c.11,0,0,0,.07.06a.44.44,0,0,1-.38,0,1.49,1.49,0,0,0-.6.06s.12,0,.1,0c-.2.06-.18,0-.32,0s-.13,0-.11,0a1,1,0,0,0,.59,0c-.12.15.54,0,.27.21-.21.07.17-.17-.09-.1s-.11.17-.28.26c.2-.09.34,0,.3,0-.24.11-.13-.07-.33.08.1,0,0,.18.25.06.19.08-.28.17-.19.28-.23,0-.23-.22-.51-.06.21,0,0,.25.32.21-.14.06-.26,0-.3,0-.19.07,0,.33-.33.26l.09.09-.29.06c-.09.07-.18.38-.32.24,0,0-.25.23-.07.26s.1-.22.32-.17c-.22,0-.21.21-.26.32l0,0s-.09.09-.06.17,0-.09-.08-.08l0,.12c-.08.14-.16-.14-.25,0l0-.15s-.12,0-.15.06l.12.31c0,.09-.1-.07-.1.07v-.17a.19.19,0,0,0-.25,0c0,.07,0,.27.1.24a.1.1,0,0,1-.16,0c-.07.11.09.07,0,.2-.08,0-.26,0-.39,0l0-.21-.06.05c0-.17-.11-.05-.16-.2-.06,0-.07.09-.09.16.28.08.09.36.26.5-.12.18-.45-.32-.39.08.06,0,.09.22.15.09-.11.06.08.22-.1.25,0-.14-.24-.09-.2-.3,0,.07.11,0,.12-.05s-.14-.17-.24-.09-.13.15-.05.23.09-.09.13,0-.24,0-.15.22c.07-.08.17,0,.23.07l-.06.12,0-.08c-.18.08.06.16-.1.26l-.17-.07c-.06-.14.25-.13.07-.28-.1.07-.05.18-.18.21l0-.09s-.28-.18-.29.07,0,.07.09.14c-.13.15-.12.25-.21.35-.09-.15-.18.13-.18-.1.11,0,.32-.15.27-.32s.13-.08,0-.26c-.12.1-.24-.06-.35-.14s0,.09,0,.12.11.07.19.16a.45.45,0,0,0-.23.4c-.09,0-.15-.11-.11-.16a1.69,1.69,0,0,1-.49.39c.23.07-.14.18,0,.25s.27,0,.28.12-.05-.07-.1-.08-.21-.05-.17.13c.11-.17-.13-.21-.2-.35-.05.16-.07-.09-.17,0a1.32,1.32,0,0,1-.23.44c-.24,0-.37.31-.49.43s-.19-.18-.29-.14.19.09,0,.14v0c0,.06-.31.11-.19.33l-.08-.18s0,.06,0,.09-.1-.06-.09-.13c-.16,0-.15.16-.23.24l.12,0c-.09.19-.26.19-.37.34l-.07-.09,0,.12c-.05-.1-.17-.08-.16,0l0-.39c.11,0,0,.16.13.21s.21-.09.16-.19,0,.05-.06.12c-.11-.11,0-.17-.06-.28s-.09,0-.07.07a.3.3,0,0,1,.14-.23c0,.09.09,0,.1.1-.08-.11,0-.22.1-.28s.14-.24.29-.32a.69.69,0,0,1,0,.4c.12,0,.08-.08.2-.09s-.1-.26,0-.39l.07.07c.06-.11,0-.23.1-.31a5.58,5.58,0,0,0,.6-.42l.07.07c0-.24.23-.3.29-.47.25-.09.36-.44.57-.39a5.51,5.51,0,0,1,.93-.94l0,.17c0-.14.1,0,.15,0-.15,0,0-.19,0-.3.24-.05.36-.31.43-.51l.07.07c0-.27.3-.28.5-.41s.14.06.18,0c0-.2.09-.27.1-.41a.59.59,0,0,1,.28-.1.27.27,0,0,1,.09-.27c0-.07.22-.16-.07-.15l.19-.06c-.32,0-.39,0-.47,0a.34.34,0,0,0-.26-.06,1.51,1.51,0,0,0,.09-.18.18.18,0,0,0-.31.09c-.1-.1-.34,0-.37-.21s-.19,0-.31,0a1,1,0,0,0-.59-.22l0,0s.07-.12,0-.15-.33-.14-.31.12c-.23-.21-.66-.07-.86-.32,0,.07-.07.06-.11.1-.23-.06-.44-.26-.66-.2,0-.05.09-.1,0-.13s0,.08-.11.1c-.4,0-.73-.34-1.1-.37A10.5,10.5,0,0,1,110.4,37l0,0c-.23.14-.44-.29-.65,0,0-.05-.18-.05-.13-.13-.18.11-.43-.18-.69,0a.08.08,0,0,0,.06,0c-.22-.14-.45,0-.69-.14,0,0,.08,0,.09-.08s-.25.18-.28-.06c0,0,0,.11,0,.11a5.15,5.15,0,0,0-1.71-.05c-.4-.16,0-.39-.34-.23,0-.05,0,.08,0,0s-.19-.28-.28-.16-.06.08-.07.17c-.25-.11-.29-.24-.49-.14v-.08c-.24.2-.5.07-.7.31-1.28.07-2.5.17-3.74.31s-2.41.29-3.66.32a.56.56,0,0,0-.65,0s0,0,0-.07c0,.16-.22.05-.22.21a10.55,10.55,0,0,0-1.34.26c.07,0,.08-.18,0-.15l-.08.13,0-.05s-.1.13,0,.17c-1.14.38-2.35.33-3.47.7a3,3,0,0,0-.92.3,5.13,5.13,0,0,0-2.51.65A.74.74,0,0,1,88.13,38.52Z"/><path class="cls-2" d="M111.78,44.17c.07,0,.18,0,.19.14C111.91,44.26,111.81,44.23,111.78,44.17Z"/><path class="cls-2" d="M114.48,43s.06,0,.07,0,0,.1,0,.09S114.49,43,114.48,43Z"/><path class="cls-2" d="M115.07,42.55c0,.06,0,.21-.11.27Z"/><path class="cls-2" d="M115.78,42.34c.08,0,.09,0,0,.1S115.79,42.38,115.78,42.34Z"/><path class="cls-2" d="M115.71,42.18a.14.14,0,0,1,.14,0S115.77,42.29,115.71,42.18Z"/><path class="cls-2" d="M117,41.4s0-.12.11-.08S117,41.5,117,41.4Z"/><path class="cls-2" d="M117.41,40.87s0,0,0,0,.05.06,0,.09Z"/><polygon class="cls-2" points="109.53 35.44 109.61 35.42 109.59 35.49 109.53 35.44"/><path class="cls-2" d="M104,35c-.07,0-.05-.07-.06-.08S104,35,104,35Z"/><polygon class="cls-2" points="101.09 35.47 101.12 35.47 101.12 35.62 101.09 35.47"/><path class="cls-2" d="M108.44,29.07c-.08.05,0,0,0,0Z"/><path class="cls-2" d="M108.45,29.1l0,0S108.46,29.11,108.45,29.1Z"/><path class="cls-2" d="M108.61,29.3c-.09,0-.08-.1-.18,0S108.52,29.38,108.61,29.3Z"/><polygon class="cls-2" points="108.58 29.19 108.54 29.23 108.64 29.19 108.58 29.19"/><polygon class="cls-2" points="108.59 29.13 108.58 29.15 108.68 29.15 108.59 29.13"/><path class="cls-2" d="M108.73,29.45l-.06,0c0-.1.1-.07.1-.13s-.12.11-.17,0,.11.09,0,.17S108.67,29.46,108.73,29.45Z"/><path class="cls-2" d="M111.76,31h0S111.77,31,111.76,31Z"/><path class="cls-2" d="M112.53,31.48s0,0,0,.05,0,0,0,0Z"/><path class="cls-2" d="M111.17,30.81s0,0,0,0S111.16,30.8,111.17,30.81Z"/><path class="cls-2" d="M115.52,34.72l0,0h0l0,0Z"/><path class="cls-2" d="M113.46,32h0S113.47,32,113.46,32Z"/><path class="cls-2" d="M110.9,30.62h0v0Z"/><path class="cls-2" d="M112.4,31.18s0,0,0,0A0,0,0,0,0,112.4,31.18Z"/><path class="cls-2" d="M109.32,30.07s0,0,0,0S109.35,30.06,109.32,30.07Z"/><path class="cls-2" d="M109.58,30.26Z"/><path class="cls-2" d="M109.74,30.4Z"/><path class="cls-2" d="M109.36,30.09c0,.05-.1.17,0,.07v0c0,.05.06,0,.08,0s0,0,0,0a.11.11,0,0,1,0-.05S109.4,30.08,109.36,30.09Z"/><path class="cls-2" d="M111.74,31s0,0,0,0Z"/><path class="cls-2" d="M111.44,30.94s0,0,0,0A0,0,0,0,0,111.44,30.94Z"/><path class="cls-2" d="M110.63,30.25h0S110.63,30.25,110.63,30.25Z"/><path class="cls-2" d="M111.48,31h0S111.47,31,111.48,31Z"/><path class="cls-2" d="M110.82,30.52Z"/><path class="cls-2" d="M118.65,37.82s0,0,0-.07.07.06,0,.1h.06l0-.1C118.63,37.76,118.69,37.8,118.65,37.82Z"/><path class="cls-2" d="M115.59,35.05h0s0,.05,0,.09.09-.15.18-.18,0,0,0,0A.22.22,0,0,1,115.59,35.05Z"/><path class="cls-2" d="M115.73,34.92h0v0s0,0,0,0A0,0,0,0,0,115.73,34.92Z"/><path class="cls-2" d="M118.11,37.35v0S118.1,37.35,118.11,37.35Z"/><path class="cls-2" d="M112.6,33h0Z"/><path class="cls-2" d="M115.26,34.67s0,0,0,0h0Z"/><path class="cls-2" d="M117.19,34.92c-.08.08,0,0,0,.07l.06,0S117.21,34.93,117.19,34.92Z"/><polygon class="cls-2" points="118.65 37.86 118.65 37.85 118.65 37.85 118.65 37.86"/><path class="cls-2" d="M118,35.5v0Z"/><path class="cls-2" d="M115.6,34.76l-.1-.08,0,0S115.54,34.81,115.6,34.76Z"/><path class="cls-2" d="M116.81,34.53l0-.06c-.19,0-.17-.22-.38-.12,0-.29-.22.12-.2-.15v0a4.27,4.27,0,0,0-1.07-.9l0,0c-.5-.5-1.11-.83-1.63-1.29-.08,0-.12.11-.2.12s-.06-.05,0-.1.07-.05.1-.06-.11-.16-.21-.15v.1s-.06,0-.08-.05.06-.12.09-.12c-.24.07,0-.14-.19-.15a.92.92,0,0,1-.48.16V31.7s.07-.1.13,0-.12-.07-.16-.13,0,.08-.09.08,0-.12,0-.15h.07c0-.07-.06,0-.09,0s0-.11,0-.17c-.11,0-.09,0-.19,0s-.07.06-.1.11l.08,0c-.06-.11,0,0,.11-.09,0,.08-.18.11-.1.15-.12,0-.11-.07-.26-.06.07,0-.06.05,0,.1s0,0,0-.12,0-.09-.1-.05.06-.06.06-.13.11.21.25,0c0,0,.13,0,.18,0s0-.17-.11-.16l-.1.11s-.1.05-.12,0,.05-.09,0-.11,0,0,0,.05-.13,0-.21,0,0,.12,0,.21,0,0-.09,0l0,0h-.06c0-.08.1-.11.07-.19s-.08,0-.08-.07v0h0s-.07-.05-.13,0,0,0-.07,0-.14,0-.09-.07h0c0-.05,0-.11,0-.13l-.05-.08.07-.08c-.09,0-.12,0-.23.07s-.12-.11-.17-.1,0,0,0,0v0s-.07,0-.11,0,0,0,0,0,0,0,0,0,0,0,0,0v0c0-.12-.1,0-.12-.07h0s.05-.18,0-.12,0,0,0,0v0s-.06,0-.05,0l0-.07s0,0,0,0l0,0s0,0,0,0c0-.18-.17,0-.18-.2-.06,0,0,.09-.07.12s-.12,0-.17,0,0-.27.06-.36c-.06-.07,0,.08-.09.09h0a.18.18,0,0,1,0,.14.08.08,0,0,1-.13,0l.08-.07c-.09,0-.17.11-.28.17s.07-.13.11-.22l-.07,0,0-.06s-.1,0-.13,0,0-.12.08-.16-.11.07-.06,0,0,.05,0,.08-.1,0-.15,0,.07,0,0-.1-.08,0-.07,0,0,0-.07-.05a.14.14,0,0,1,0,.15.09.09,0,0,1-.1,0v.05c-.11.07,0-.11-.09-.12s.07,0,.12-.05l-.19,0,0-.12s0,0-.09,0c0-.09.1,0,.14-.09s-.14.07-.13-.08l.07,0s-.09,0-.07-.06,0,0,0,0-.17,0-.27.14l0,0c-.07,0-.17.05-.17,0s.09-.08.13-.1-.15.12-.19.06a.11.11,0,0,1-.07.11s.06.11.1,0v0a.2.2,0,0,1,.08,0s0,.07,0,.1.11-.12.17-.07v0c.05,0,.1,0,.18-.05,0,.1.09,0,.08.09s-.09-.09-.21,0-.09.08-.13.11h.16s0,.15,0,.09h0s.1-.07.12,0,0,0-.06.06.06,0,.1,0-.08.07-.06.11,0,.06.08.08.24,0,.24-.19h.14c0,.08-.17.11-.22.22l-.06-.06c-.09.14.2,0,.13.2,0,0,0,0,0,.12l.08-.13a.21.21,0,0,1,0,.15s0,0,.06,0l0,0c0,.08,0,.06,0,0s.06,0,.08,0l-.06,0a.1.1,0,0,0,.07,0h0a.38.38,0,0,0,0-.16c0,.11.12.13.11.28s-.09.05-.08.06.1,0,.14,0h0a.11.11,0,0,0,0,.09,0,0,0,0,0,0,0c.08-.08.11,0,.16,0a.1.1,0,0,0,0,0c.07,0,.15-.1.13,0s0,.14-.11.11c0,.15.09-.07.11,0v.07c-.06.06-.08,0-.09,0h0c-.07,0-.13-.07-.25,0l.09.13c.2,0,.31.26.55.21h0l0,0v0l.06,0c0,.09,0,.14,0,.23a.13.13,0,0,1,0-.12c.06-.06.08-.09.1,0s-.06,0-.06.09,0-.06.07,0,0,.08,0,.13,0,0,0,0,0,.08-.06.09l.06,0c0,.06-.07.05-.08.09s.22-.07.3,0l-.08.1c0,.07.2,0,.26,0s0,0-.07,0a1.8,1.8,0,0,1,.35.5l.13-.08,0,.11c.11.2.29.23.48.31s0,.11,0,.15.22,0,.34.05c0,0-.14.1-.1.14s.08-.07.09,0l0,0c0,.07,0,0,.09.11a.45.45,0,0,0,.41,0c.08.07-.1.11-.1.14s-.06,0-.1,0,.11,0,.06.09a.15.15,0,0,0,.15,0s0,0,0-.07.13.1,0,.19c.22.14.43.34.65.5.08,0,0,0,0-.06s0,.07.1,0l-.06,0c0,.06.2,0,.3,0-.06,0,0,.09-.07.09s-.14.31-.07.27l.16-.28s0,0,.06,0,0,.15,0,.17-.08,0-.1,0,0,.13-.09.2c.07,0,0-.06.1-.07l0,.06v-.07c.07,0,.14-.07.15,0l.14-.06c-.06.08,0,0,0,.08l-.06,0a.1.1,0,0,1,0,.1c-.08.06,0,0-.09,0l0,.06s.1-.06.09-.12.19-.12.28,0-.11,0-.15.13.28-.12.33-.07.11,0,.19.06c-.07,0,0,.11,0,.17l-.07,0s0,0,0,.07.15,0,.23,0l0-.07c.06,0,.15,0,.18.06s.11,0,.21-.08a.49.49,0,0,1-.14.21s0-.05,0-.09-.29.09-.34,0c-.16.13.06,0,.06.11h0a.21.21,0,0,0-.18.06c.06,0,.16-.13.16,0s0,.14,0,.17.17-.16.23-.08l-.1.06c.08.07.13-.1.21,0s.09-.06,0-.1a.11.11,0,0,1,.15.06s0,0,0-.06-.12,0-.09-.11l-.11.07a.15.15,0,0,1,.1-.16s0,0,0,0,0,.09.12,0h0c.06-.1.13,0,.17,0s0,.12,0,.19h-.08c0,.07.1,0,.13.05v0s.1,0,.11.06l0-.06,0,0a.08.08,0,0,1,0-.12c.09,0,0,.14,0,.2s-.06,0-.12,0,.06.06.07.17-.07-.06-.15,0,.1,0,.14.06-.1,0-.14.07v.06c-.09-.06-.08.13-.17.1s.11,0,.1.05,0-.16.12-.16l0,.07c0,.06-.13.06-.13.13h.07s0-.06.06-.09.14-.08.2-.1,0,0,0,.09c.14,0,.22,0,.35,0-.09,0-.08.11-.09.17s-.13.07-.17.13.13-.07.14-.11.09,0,.08.06-.09.08-.1.13.1-.11.14,0l0,0c0,.05.09,0,.13,0-.06.15.11.06,0,.17.1,0,0-.07.09-.1s.09.06.1.09-.07,0-.07,0l0,.09c0,.14.21-.14.25,0s-.07,0-.14.09.09.07.09,0a.27.27,0,0,1,.06.1.34.34,0,0,0,.16,0,.21.21,0,0,1,0,.19c.15,0,.17.19.33.21h0c.08.08,0-.14.14-.07-.09.1,0,.11,0,.19s.25.07.29.21,0,0-.06,0,.13.12.19.18h0c0,.16.22.14.35.21,0,0-.05,0-.07.05s.12.15.23.09c0,.15.07,0,.08.17s0,0,0,0,.06.07.09.12.27-.1.35,0c-.1.15-.09,0-.18.09s.08,0,.09,0,0,0-.08.07.2-.07.19-.06,0,0,0-.06.12.08.2.09a.09.09,0,0,1,0-.14c.05.09.17,0,.27,0s-.14.08-.2.18,0,.14-.11.16.15,0,.22,0l0,0c.08,0,.25,0,.27.09v-.06s.06,0,.12,0,0,.12-.07.15c.15-.12.24,0,.39-.07a.28.28,0,0,1-.11.13s0-.09-.1,0a.07.07,0,0,1,0,.11c.11-.06.23,0,.32-.1a.21.21,0,0,1-.06.18c.15,0,.12-.27.25-.17s-.14,0-.07.15h0c-.08.24.15-.11.22,0s-.11,0-.12.15.24-.11.27,0l0,0s.11.11.16.13,0,0,0,0,.07,0,.07.09l.06,0c0-.06,0-.16-.11-.13.09,0,0-.18.13-.26l0,0a.86.86,0,0,0-.19-.51c-.16,0-.1-.15-.25-.14s0,0-.13,0,.08-.09.07-.13a.1.1,0,0,1-.09,0c0-.05,0-.22-.1-.17s0,0,.07,0-.08,0-.06,0h0c-.08,0-.09-.12-.15-.19-.1.12-.11,0-.18,0s0-.08,0-.12l-.11.06c-.1,0,0-.09-.1-.09v0c-.07,0-.11-.14-.09-.23-.52,0-.42-.54-.83-.75,0,0,0,.07-.09.11a.14.14,0,0,1-.08-.05c0,.06,0,0,0,.05h.08s0,0,0,0,.07,0,.08,0-.13.09-.14,0h0s-.06,0-.07,0,0,0,0-.06l-.07-.12c-.13.06-.11-.08-.12-.11s.08,0,.17,0v-.09l-.05.07,0-.06h0s-.05,0-.05,0l0,0h-.07c.08-.05,0,0,0-.11-.09-.14-.23,0-.26-.21,0,0-.12.1-.15.06a.08.08,0,0,1,0-.07h-.07c0-.16-.07-.12-.12-.22l0,0c-.06,0-.11,0-.15,0l.06-.06c0-.08-.15.11-.17,0-.06.08,0,.14-.1.22,0-.09,0-.15,0-.08s0,0,0-.06l-.06,0s.06-.11.1-.14-.1,0-.13-.08l0,0,0-.06a.13.13,0,0,1-.17-.07l.11-.07c0-.08,0,0-.06,0s0-.07,0-.15C116.88,34.76,117,34.44,116.81,34.53Zm-6.2-4.22v0S110.56,30.34,110.61,30.31Zm.45.39c-.08,0,0,0,0-.06s.09.06.12.13,0-.05,0-.07,0,.06,0,.11S111.08,30.63,111.06,30.7Zm-1.42-.35h0Zm.34.13a.15.15,0,0,0,0,.06S110,30.48,110,30.48Zm.47.55s0,.07,0,.07S110.49,31.06,110.45,31ZM114,33.72s-.09,0-.09.07,0,.06.08,0h0A.78.78,0,0,1,114,33.72Zm1.9,1-.09.1h0s0,0,0,0,0,0,0,0S116,34.73,115.91,34.69Z"/><path class="cls-2" d="M115,34.78h0Z"/><path class="cls-2" d="M115.83,34.85s0,0,0-.06A0,0,0,0,0,115.83,34.85Z"/><path class="cls-2" d="M109.06,29.21h0v-.06c-.09,0-.13.05-.19.11.09,0,.1,0,.17.06Z"/><path class="cls-2" d="M108.76,29.66s0,.07,0,.08l0,0Z"/><path class="cls-2" d="M109.26,30.35l0-.08S109.21,30.4,109.26,30.35Z"/><path class="cls-2" d="M109.55,29.5l-.06,0c0,.05,0,.07.08,0S109.58,29.52,109.55,29.5Z"/><path class="cls-2" d="M109.4,30.46c.07-.06,0,.08.09,0S109.46,30.39,109.4,30.46Z"/><path class="cls-2" d="M109.92,29.71c0-.09,0,0-.06-.09S109.87,29.75,109.92,29.71Z"/><path class="cls-2" d="M109.84,30.46c0,.06-.06,0-.08,0l.07,0a.56.56,0,0,1-.13,0c0,.07,0,.13,0,.19S109.83,30.54,109.84,30.46Z"/><path class="cls-2" d="M110,29.76s0-.1,0-.12,0,.1,0,.12l-.06.06C109.91,29.89,110,29.72,110,29.76Z"/><path class="cls-2" d="M109.88,30.73v0c-.07,0-.1-.05-.19,0A.25.25,0,0,0,109.88,30.73Z"/><path class="cls-2" d="M110.05,30l.07-.08s0,0-.05,0,0,0,0,0S110,30,110.05,30Z"/><path class="cls-2" d="M110.25,30h.08l0-.12C110.28,29.85,110.32,29.91,110.25,30Z"/><path class="cls-2" d="M110.27,30.09v0l.17-.07A.49.49,0,0,0,110.27,30.09Z"/><path class="cls-2" d="M110.71,31.36s0-.11,0-.05S110.71,31.42,110.71,31.36Z"/><path class="cls-2" d="M111.09,30.51s.11,0,.16,0S111.12,30.46,111.09,30.51Z"/><path class="cls-2" d="M111.27,30.55h0Z"/><path class="cls-2" d="M112.68,31.34h0Z"/><path class="cls-2" d="M112.64,31.34s-.07,0-.11,0a.35.35,0,0,0,.15,0S112.67,31.29,112.64,31.34Z"/><path class="cls-2" d="M112.91,31.58s0,0-.07,0S112.9,31.61,112.91,31.58Z"/><path class="cls-2" d="M114,34.21s0,0,.07,0S114,34.21,114,34.21Z"/><polygon class="cls-2" points="114.13 34.21 114.11 34.24 114.09 34.29 114.13 34.21"/><path class="cls-2" d="M114.26,34.44h0S114.26,34.45,114.26,34.44Z"/><path class="cls-2" d="M114.22,34.45h0Z"/><path class="cls-2" d="M114.22,34.42l0,0h0S114.21,34.44,114.22,34.42Z"/><path class="cls-2" d="M114.31,34.49l0-.11c-.07,0,0,.08-.1.14Z"/><path class="cls-2" d="M114.45,34.57s.17,0,.11.07c.14,0,.11-.18.25-.13-.06-.14-.2.15-.25,0C114.55,34.63,114.49,34.55,114.45,34.57Z"/><path class="cls-2" d="M114.57,34.39s0,.08,0,.06S114.63,34.34,114.57,34.39Z"/><polygon class="cls-2" points="114.68 34.67 114.68 34.73 114.72 34.71 114.68 34.67"/><path class="cls-2" d="M114.78,34.78l-.07,0S114.78,34.84,114.78,34.78Z"/><path class="cls-2" d="M114.89,35s.14-.07.06-.09h0S114.93,35,114.89,35Z"/><path class="cls-2" d="M115.42,35.06a0,0,0,0,0-.07,0h.07Z"/><path class="cls-2" d="M115.67,34.72c0-.09-.06,0-.07-.08S115.61,34.69,115.67,34.72Z"/><path class="cls-2" d="M115.39,35.22s0,0,0,0S115.35,35.25,115.39,35.22Z"/><path class="cls-2" d="M115.5,35.26s0,0,0,.07,0,.09.11.06a.66.66,0,0,1,.12-.17c-.08,0-.22.11-.16,0l-.16.1C115.39,35.35,115.47,35.22,115.5,35.26Z"/><path class="cls-2" d="M115.59,34.89V35c0-.05.06,0,.09,0S115.61,34.9,115.59,34.89Z"/><polygon class="cls-2" points="115.87 35.45 115.96 35.47 115.94 35.45 115.87 35.45"/><polygon class="cls-2" points="115.89 35.51 115.87 35.54 115.96 35.53 115.89 35.51"/><polygon class="cls-2" points="115.93 35.6 115.93 35.59 115.87 35.59 115.93 35.6"/><path class="cls-2" d="M116.05,35.73l0,0s0-.08-.07,0S116.07,35.69,116.05,35.73Z"/><path class="cls-2" d="M117.38,35a.16.16,0,0,0-.06.08l.08-.06S117.37,35,117.38,35Z"/><path class="cls-2" d="M117.37,35.16l.11,0c0-.06-.1,0-.16,0s.07,0,.08,0Z"/><path class="cls-2" d="M118.31,36s0,0-.1.06a.38.38,0,0,1,.18.09s.11-.07.07-.07l-.09,0,0,0C118.4,35.94,118.33,36.06,118.31,36Z"/><path class="cls-2" d="M120.45,38.58a.16.16,0,0,0,0,.09C120.46,38.67,120.44,38.58,120.45,38.58Z"/><line class="cls-3" x1="65.34" y1="12.65" x2="73.29" y2="9.02"/><path class="cls-3" d="M65.34,13.65a1,1,0,0,1-.91-.59,1,1,0,0,1,.5-1.32l7.94-3.63a1,1,0,0,1,.84,1.82l-7.95,3.63A1.06,1.06,0,0,1,65.34,13.65Z"/><path class="cls-1" d="M75.83,51a1,1,0,0,1-1-.85L68.67,11a1,1,0,0,1,2-.32l6.17,39.16A1,1,0,0,1,76,51Z"/><path class="cls-2" d="M32.71,52.5c.29-.14-.21-.07.18-.13A.16.16,0,0,1,32.71,52.5Z"/><path class="cls-2" d="M33.58,50.72C32.65,50.16,32,48.9,31,48.3c-.11-.08.17-.13-.08-.3a18.36,18.36,0,0,1-3.17-2.68h.1c-.19-.18-.56-.18-.77-.35,0,0,.1,0,.08-.08s-.44-.22-.59-.2,0-.17-.1-.28l-.2,0c-.53.06-.89-.54-1.49-.65,0,0,.1,0,.07-.06-.92-.26-2-.74-3-1,.06,0,.13-.11.09-.18-.09.11-.37.06-.62,0l.14-.19.05,0c-.06.19.37.33.48.64h0c.26.11.13.34.39.4v.19c.23,0,.12.34.32.43l0,0c.16.12.14.26.27.37v0c.31.28.37.53.5.42,0,.2-.32-.26-.31,0,.52.47,1.14,1,1.79,1.62a14.75,14.75,0,0,0,1.28,1.23l.08.09s.1.07,0,0a3.18,3.18,0,0,1,.35.26,1.29,1.29,0,0,1-.21,0L26.27,48c-.28-.1-.13,0-.42-.1,0,0,.13,0-.15-.12.12.11-.06,0-.15,0l-.34-.06s.05,0,0-.07-.56-.19-.66-.14l-.08-.12-.19-.08c-.16,0,.33.32-.08.14,0,0,0-.08-.08-.13-.08.16-.79-.12-1.1-.13,0,0,0,0,0,0a8,8,0,0,0-1.22-.27c-.13-.08.1-.21-.29-.27,0,.19-.66-.08-.48.18a3.73,3.73,0,0,0-1-.26c.16,0-.11-.26.16-.22l-.18-.16c0-.07.21.07.16,0s-.55,0-.67-.09a2.25,2.25,0,0,1-1,.18c.21,0-.07-.22.06-.23l-.63.26c-.14,0,0-.15-.21-.13,0,.05-.09.07-.16.1s-.57,0-.6-.23.23,0,.08-.1-.27,0-.53,0v0c-.16,0-.5,0-.33.15s0-.12.13,0a1.16,1.16,0,0,1-.67.07c.09,0,.08-.07.12-.12a5,5,0,0,1-1.1.16c0,.09.15-.14.21-.09-.49-.17-1,.12-1.41-.07.06,0,0,.12,0,.1-.24,0-.22-.15-.38-.1,0-.07-.19,0-.34,0s-.05,0,.09,0a4.94,4.94,0,0,1-.69.11,1.69,1.69,0,0,1-.59,0s0,.18-.06.18l-.11-.11c-.13-.06-.18,0-.33,0,0,.07.12,0,.21,0s.22-.09.15,0-.07.19-.21.05c-.14,0,0,.15-.34.07.06,0-.16-.14-.28-.12s0,.05,0,.11a.13.13,0,0,0,0,.06c.25.08-.2,0,.17.1-.26-.06-.06.08-.57,0l-.39-.09c-.07,0,.3.12.45.17l-.24,0c.72.11-.25,0,.29.14a2.06,2.06,0,0,0-.36.05s.06,0,0,0H9.71c.38,0,.72.08.68.12a1.9,1.9,0,0,0-.3,0c-.12,0,.1,0,.27.06a.32.32,0,0,0-.25.14,2.74,2.74,0,0,0,.7,0c-.19.06,0,.07.13.08s.28,0,.2.09-.35,0-.33.07.06.09.2.08.3,0,.37,0L11.5,47c0,.12.36,0,.21.15.1,0,.22.13.27,0a.89.89,0,0,0,.34.16l.47.13a1.16,1.16,0,0,1,.69.39c.09,0,.27.08.26,0s-.2,0-.23-.06a.1.1,0,0,0,.11,0c.16.08.29.13.09.23.35.22.47-.18.93,0,0,.07,0,.1.13.13l.3,0c.3.12.13.21.1.34.17,0,.37.08.47,0l.16.21c-.11-.15.16,0,.25-.05H16c0,.06.22.08.32.09s-.19-.16-.29-.21c.1,0,.22,0,.35,0-.07.11.25.16.38.2s.2-.06.24,0,.24.07.1.13-.1-.09-.2-.06c.09.07.05.18.28.15s0-.25.29-.1c-.08,0-.11.06-.18.09l.26.13,0-.11s0,0,0,.06.43.07.53,0,.27.15.4.19h0A.71.71,0,0,0,19,49v0a.86.86,0,0,0,.43,0c.21.13,0,.43.26.35s.41-.12.33-.21c.4.17.91.1,1.25.35.07,0,0-.06.17-.06l.46.1.74.12a4.19,4.19,0,0,1,1.26.36c-.34,0-.16.08-.25.13.36,0,.08.13.43,0,.14-.07.24-.11,0-.19a7.46,7.46,0,0,1,1.8.36c-.06,0,.15,0,.37,0-.45.08-.1.17.4.2l.35,0-.1.09c.22,0,.83-.07.86,0a1.41,1.41,0,0,0-.27.06h.3c.1,0,.18.07.18.12s-.21.13-.42.2l-.61.12c-.07,0-.06.14.26,0a7.37,7.37,0,0,1-1.47.4c0,.19-.44.46-1,.73a21.78,21.78,0,0,1-2.06.74V53c-.38.05-.12.17-.39.21.06-.1-.26-.08-.08-.23-.34,0-.34.25-.53.35,0,.1.14-.11.14,0s-.43.06-.43.21c-.09,0-.07-.15-.05-.22l-.16.12c-.27-.09.41-.45.11-.58l-.15.08c-.21-.1.38-.31-.05-.23-.16.13-.25.38-.07.4-.36.15-.06.38-.47.5-.13,0,.32-.12.2-.21s-.36.18-.54.2c.21,0,.09.18,0,.25s.09-.18-.2-.1c0,.1-.27.24,0,.22-.05.22-.32.05-.44.24-.13-.1.21-.39-.13-.36.09.11-.34.3-.12.43-.13,0-.18-.09-.11-.2-.2,0-.36.36-.5.14l0,.14a2.75,2.75,0,0,1-.27-.07c-.16.05-.47.33-.51.13a1.61,1.61,0,0,0-.28.13l0-1.44s.07,0,0-.1h0l0,1.64c.27,0,.25-.18.43,0-.16-.08-.29,0-.41.15l0-1.86.09,0V53c.08,0,.25,0,.32,0s-.05.09,0,.12l.1-.11c.31,0,0,.22.34.24l-.24.05s.13.12.29.1.19-.21.25-.29.06.13.24,0l-.23.1s.12.2.35.23.39-.15.17-.24c.11,0,.27.1.17.17.26,0,0-.12.21-.17.08.08.36.2.53.32l-.25.17h.15c-.21.13.1.12,0,.26a.56.56,0,0,0,.36,0c-.31-.26.37-.32.29-.55.43,0,.25.56.71.22-.07-.06.14-.23-.13-.17.27,0,.18-.22.5-.13-.24.09.25.23-.09.36,0-.07-.19-.05-.24,0,.11.08,0,.22.25.22s.4,0,.37-.14-.26,0-.15-.12c.33,0,.39.15.52-.08-.21,0-.26-.11-.26-.19l.24-.07,0,.09c.39,0,.11-.16.49-.15l.18.16c-.08.15-.55,0-.48.19.25,0,.33-.12.56-.07a1.15,1.15,0,0,0-.17.06c.09,0,.2.31.54.1.18-.08.05-.08,0-.17.4-.06.51-.15.76-.19,0,.17.46,0,.19.17a1,1,0,0,0-.84.15c.16.19-.32,0-.39.2.32,0,.32.18.38.31s.18-.06.23-.08-.09-.12-.11-.24a1.48,1.48,0,0,0,.89-.24c.13.05.11.17,0,.2a12,12,0,0,1,1.3-.14c-.29-.16.44-.11.24-.25s-.43-.14-.33-.24,0,.09.08.12c.15-.13.29.14.43-.06-.38.13,0,.25-.08.42.26-.13,0,.12.28.07a6.5,6.5,0,0,1,.9-.36A3.36,3.36,0,0,0,28.72,53c.2,0,.12.24.33.22s-.22-.14.14-.15l0,0c.1-.07.66,0,.69-.32L29.8,53c.06,0,.11-.06.16-.09s.11.1,0,.16c.25.07.44-.14.66-.21l-.17-.07a9.9,9.9,0,0,1,1-.33l0,.11.2-.13c0,.12.21.12.29,0l-.49.45c-.18,0,.14-.18,0-.26s-.45.08-.47.2c.13,0,.13-.06.22-.13.09.14-.11.2-.18.33.07,0,.18,0,.18-.07a1,1,0,0,1-.48.24c.14-.1-.11-.07-.06-.13,0,.14-.19.24-.49.29s-.51.24-.85.29a1.11,1.11,0,0,1,.43-.43c-.23,0-.23.06-.46,0a.72.72,0,0,1-.36.42l0-.09c-.24.1-.2.25-.53.3l-1.53.24,0-.1c-.19.26-.76.21-1.06.35-.55,0-1.16.24-1.46.09a12.14,12.14,0,0,1-2.78.24l.17-.15c-.18.11-.12-.09-.29-.07.2.12-.24.16-.37.24a3.39,3.39,0,0,0-1.42,0v-.11c-.41.17-.87-.07-1.36-.16a.44.44,0,0,0-.27-.18,1.84,1.84,0,0,1-.73.11l-1.95.1,1.93-1.21.09-.05a6.11,6.11,0,0,1,1-.19c.94-.53,2-.72,3-1.2l.12.09a2.56,2.56,0,0,0,.3-.18l.13-.08a1,1,0,0,1,.28-.1c.19-.06.47-.13.43-.19l.55,0c.34,0,.14-.12-.39-.09.15,0,.13,0,.13-.06s-.11,0,.17,0h0a4.37,4.37,0,0,0-.59,0c.06-.07-.11-.08-.33-.09v0c.1,0,.28-.08.24-.1s-.23-.1-.47.1c0-.07-.13-.07-.22-.07h-.1L21.35,51a2.2,2.2,0,0,1-.45-.17c0,.07-.11.05-.18.08a7.57,7.57,0,0,0-1.45-.35c-.07-.05.16-.08-.05-.14s0,.09-.18.09a18.23,18.23,0,0,1-2.4-.69,40.82,40.82,0,0,1-4-1l0-.05a1.31,1.31,0,0,1-.7-.2,1.38,1.38,0,0,0-.34-.12,1,1,0,0,0-.49,0c-.14-.1-.59-.21-.41-.25-.64-.06-1.3-.55-2.37-.72a.74.74,0,0,0,.26.05,8.22,8.22,0,0,0-1.1-.4,7.26,7.26,0,0,1-1.1-.39,4,4,0,0,0,.5.07c0-.1-1.38-.24-.8-.3-.18-.06-.52,0-.38,0l-.43-.16a1.57,1.57,0,0,1,.29-.16L6.17,46l1-.37,1-.34c.35-.12.76-.21,1.15-.31.73-.1.84,0,.89.06s0,.08.44-.05c.12,0,0-.09.05,0,.4-.1.73.2.95,0-.14-.13.16-.1.17-.19.6.08.68.22,1.12.09L13,45c.51-.22,1.09-.07,1.53-.31,1.41.06,2.78.19,4.12.37.68.1,1.35.2,2,.33l1,.2.72.16.2.07h.08s0,0,0,0l0,0c.13,0,.15-.05.14-.09l-.06,0-.06,0-.11-.09c.05,0,.08,0,.07,0s-.34-.37-.5-.33c-.56-.73-1.07-1.4-1.56-2.17L19,40.51l2.75,1,.36.13c-.16,0-.28.06-.09.12l.23,0,0,0c.13,0,.3,0,.18-.1a23.24,23.24,0,0,1,6.83,3.87c.45.42,1.17.92,1.69,1.34,1.35,1.48,2.39,2.91,3.7,4.42A1.49,1.49,0,0,1,33.58,50.72Z"/><path class="cls-2" d="M32.35,52.64c-.09-.06-.32,0-.19-.19C32.21,52.52,32.35,52.56,32.35,52.64Z"/><path class="cls-2" d="M26.41,53.28s-.09,0-.11,0,.13-.1.19-.07S26.44,53.24,26.41,53.28Z"/><path class="cls-2" d="M24.93,53.44c0-.08.32-.17.5-.21Z"/><path class="cls-2" d="M23.52,53.26c-.12-.06-.09-.09.07-.1S23.55,53.22,23.52,53.26Z"/><path class="cls-2" d="M23.44,53.43a.33.33,0,0,1-.23-.06C23.21,53.43,23.47,53.31,23.44,53.43Z"/><path class="cls-2" d="M20.46,53.24c-.07,0-.22.06-.28,0C20.25,53.28,20.52,53.14,20.46,53.24Z"/><path class="cls-2" d="M19.09,53.24s-.06,0-.11,0,0-.08.08-.08Z"/><path class="cls-2" d="M11.31,47h.12l-.09,0A.13.13,0,0,1,11.31,47Z"/><path class="cls-2" d="M15.43,46.13c.16,0,.1.08.12.09C15.42,46.22,15.61,46.14,15.43,46.13Z"/><polygon class="cls-2" points="21.49 46.8 21.44 46.79 21.49 46.65 21.49 46.8"/><circle class="cls-4" cx="73.79" cy="58.44" r="3.68"/><path class="cls-1" d="M76.43,55.8c.08,0,0,0,0,0Z"/><path class="cls-1" d="M76.4,55.75l0,0A.05.05,0,0,0,76.4,55.75Z"/><path class="cls-1" d="M76.17,55.46c.11,0,.12.14.23.1S76.26,55.37,76.17,55.46Z"/><polygon class="cls-1" points="76.22 55.59 76.27 55.56 76.15 55.58 76.22 55.59"/><polygon class="cls-1" points="76.22 55.67 76.23 55.65 76.11 55.62 76.22 55.67"/><path class="cls-1" d="M76,55.25l.08,0c0,.11-.11.06-.09.13s.12-.11.22,0c0-.07-.18-.13-.09-.21C76,55.1,76,55.25,76,55.25Z"/><path class="cls-1" d="M71.62,56.06h0Z"/><path class="cls-1" d="M71,57l0,0h0Z"/><path class="cls-1" d="M72.11,55.43h0Z"/><path class="cls-1" d="M72.65,62.13l0,0h0l0,0Z"/><path class="cls-1" d="M70.84,58.27a.11.11,0,0,1,0,0A0,0,0,0,0,70.84,58.27Z"/><polygon class="cls-1" points="72.52 55.23 72.5 55.23 72.53 55.24 72.52 55.23 72.52 55.23"/><path class="cls-1" d="M71.31,56.79l0,0Z"/><path class="cls-1" d="M74.81,54.58h-.07S74.77,54.61,74.81,54.58Z"/><path class="cls-1" d="M74.3,54.5Z"/><path class="cls-1" d="M74,54.46Z"/><path class="cls-1" d="M74.74,54.58c0-.06,0-.21-.1-.06v0s-.09,0-.13,0a.08.08,0,0,1,0,0l.08,0S74.69,54.6,74.74,54.58Z"/><path class="cls-1" d="M71.61,56s0,0,0,0Z"/><path class="cls-1" d="M71.82,55.7l0,0S71.81,55.72,71.82,55.7Z"/><path class="cls-1" d="M73.13,55.17h0S73.13,55.18,73.13,55.17Z"/><path class="cls-1" d="M71.76,55.74l0,0S71.76,55.73,71.76,55.74Z"/><path class="cls-1" d="M72.69,55.2Z"/><path class="cls-1" d="M78.14,59s0,0,0,.09,0-.16.1,0a.14.14,0,0,0,0-.09l-.11,0C78.1,59,78.11,58.92,78.14,59Z"/><path class="cls-1" d="M73,62.44h0s0,.06.05.09,0-.18.1-.24a.07.07,0,0,1-.06,0C73.1,62.33,73.05,62.39,73,62.44Z"/><path class="cls-1" d="M73.08,62.26h0v0l0,0A.07.07,0,0,0,73.08,62.26Z"/><path class="cls-1" d="M77.78,60.14l0,0S77.79,60.16,77.78,60.14Z"/><path class="cls-1" d="M69.55,58.09l0-.06A.06.06,0,0,0,69.55,58.09Z"/><path class="cls-1" d="M72.26,62.11l0,0h0Z"/><path class="cls-1" d="M74.61,61.31c0,.11,0,0,.08,0v-.08S74.64,61.3,74.61,61.31Z"/><polygon class="cls-1" points="78.19 58.92 78.17 58.91 78.18 58.92 78.19 58.92"/><path class="cls-1" d="M75.64,60.75h0Z"/><path class="cls-1" d="M72.79,62.15l-.19-.07.05.05S72.74,62.21,72.79,62.15Z"/><path class="cls-1" d="M74,61.35l0-.07c-.14.16-.31-.07-.44.14-.15-.27-.15.2-.29,0v0a5.78,5.78,0,0,1-1.45-.79l0,0a3.15,3.15,0,0,1-.92-2.17c0-.08-.16,0-.21-.1s0-.1.07-.1.08,0,.1.05.09-.2,0-.29l-.09.06s0-.09,0-.12.13,0,.14,0c-.16-.21.11-.11.07-.27s-.23-.29-.3-.46l.07-.05c0,.08.11,0,.07.14.07-.07,0-.17.11-.24s-.1,0-.1-.07.12,0,.16-.06L71,57c.07,0,0-.07,0-.11s.12,0,.18,0c0-.11,0-.11,0-.21s-.06-.08-.12-.1l0,.1c.13-.1,0,.05.1.1-.09,0-.12-.19-.17-.07,0-.16.1-.15.1-.33,0,.09,0-.06-.11,0s0,0,.14,0,.1,0,.07-.13.06.07.13.06-.26.15,0,.29c0,0,0,.15,0,.2s.18,0,.18-.14l-.12-.09c0-.05,0-.12,0-.15s.09.06.11,0,0,0,0,0,0-.15,0-.25a1.44,1.44,0,0,1-.24,0c-.06-.09,0-.06.06-.11s0,0,0,0v-.07c.11-.06.1.11.2.08s0-.1.1-.09l0,0h0c0-.05.09-.09.05-.16s0,0,0-.07,0-.17.13-.1h0c.07,0,.14,0,.15,0l.12,0,0,.09c.08-.08,0-.12.05-.25a.3.3,0,0,0,.23-.15,0,0,0,0,0,0,0h-.06c.09,0,.06-.08.11-.11h0s0,0,0,0l0,0c.1.07.08-.1.17-.09l0,0s.15.13.14,0,0,0,0,0h0s0-.07,0-.05H73s0,0,.06,0l0,0s0,0,0,0c.16.12.2-.1.36,0,0-.07,0-.1-.06-.13s.1-.11.15-.15.28.17.24.31c.12,0,0-.08,0-.13h0a.24.24,0,0,1-.1-.12c0-.08.1-.1.14-.08l0,.11c.12,0,.1-.19.18-.3.1.05,0,.14,0,.24h.1V55c.06,0,.09-.09.17,0s.11.1,0,.19.09-.12.09,0c.05-.08,0-.05,0-.08s.11,0,.18-.06-.06.07,0,.13.07-.07.1,0,.08,0,.11,0a.12.12,0,0,1,0-.16.14.14,0,0,1,.15,0l0-.06c.11-.08.09.12.19.12-.06,0-.08,0-.13.07a1.09,1.09,0,0,1,.23-.06l0,.14s.08,0,.11,0c.07.09-.11.05-.14.1s.14-.08.2.08l-.07,0s.12,0,.1.06,0,0,0,0,.21,0,.28-.16l0,0c.09,0,.2,0,.23,0s-.09.08-.14.1.16-.13.23-.05,0-.1.06-.12-.13-.13-.15-.06v0a.14.14,0,0,1-.09,0c-.07,0,0-.09,0-.12s-.09.14-.19.07v0c-.07,0-.15,0-.21.07,0-.12-.14,0-.16-.1s.17.1.29,0c0-.07.08-.09.13-.12h-.23s0-.16-.07-.1h0c-.09,0-.1.09-.15,0s0,0,0-.06-.07,0-.12,0,.07-.08,0-.12-.1-.06-.17-.08c0,.13-.29.11-.19.26L74.6,55c0-.08.14-.16.13-.28l.11,0c0-.17-.27,0-.31-.16-.06,0,0,0-.16-.09v.15a.22.22,0,0,1-.06-.15l-.11,0s0,0,0,0-.06-.06-.08,0-.07,0-.12,0l0-.06a.13.13,0,0,0-.07,0l0,0a.31.31,0,0,0,.09.15c-.15-.06-.26,0-.4-.16s.06-.1,0-.1a.11.11,0,0,0-.13.12h0s0-.07-.07-.08l0,0c0,.12-.15.08-.17.14a.22.22,0,0,0,.11,0c-.05.09-.08.18-.13.13s-.12-.11,0-.16c-.12-.14,0,.11-.15.07l-.09,0c0-.09.11-.06.09-.09h0c0-.07.24-.05.35-.16l-.25,0c-.29.14-.69.14-.87.41h0a.35.35,0,0,1,0,.06v0l0,.08c-.08,0-.18,0-.29,0a.19.19,0,0,1,.11.08c0,.08,0,.12-.06.13s0-.08-.06-.09,0,.06,0,.08-.13,0-.16,0,0,0,.05,0-.1,0-.07-.08l-.07.06c-.07,0,0-.09,0-.11s-.1.27-.18.38a.7.7,0,0,0-.07-.11c-.11,0-.09.25-.17.32s0,0,0-.09c-.31.17-.51.37-.82.55l.06.15-.13,0a1.5,1.5,0,0,0-.44.84c0,.1-.12,0-.17.05-.09.22,0,.32,0,.53,0,0-.14-.12-.17,0s.1.06.06.11l0,0c-.07,0,0,.1-.08.21a.72.72,0,0,0,.19.57c0,.17-.15,0-.18,0s0-.09-.06-.12,0,.15,0,.18a.27.27,0,0,0,.06.22s0-.08.07,0,0,.26-.11.26a4.86,4.86,0,0,0,.32,1.37c.09,0,0-.07.06,0s0,.1.09.15h-.08c0,.14.23.21.35.29-.08,0,0,.12-.1.05,0,0-.21.3-.12.31l.24-.24s0,.07.07,0a.38.38,0,0,0,0,.22c0,.06-.1,0-.13-.08s0,.2-.11.21c.09.08,0-.06.13,0l0,.1V61c.08.05.18,0,.19.15h.18c-.08.08,0,.08.06.14h-.08a.19.19,0,0,1,.07.16c-.1,0,0-.07-.11,0l0,.09s.11,0,.1-.11a.36.36,0,0,1,.37.08c0,.14-.13,0-.18.11.14.18.37,0,.46,0s.14,0,.27.12c-.08,0,0,.12,0,.19l-.09,0a.05.05,0,0,1,0,.09c0-.09.22,0,.34,0L72,62a.53.53,0,0,1,.28.07c.12,0,.13-.06.24-.11a.32.32,0,0,1,0,.25s-.09,0-.13-.09-.37.1-.5,0c-.16.14.11,0,.15.13h0s0,0,0,0a.25.25,0,0,0-.24.06c.11,0,.16-.14.24,0s.12.16.17.2.15-.19.28-.11l-.1.08c.17.06.13-.13.28-.07,0,0,.09-.09,0-.12a.23.23,0,0,1,.25,0s0,0,0-.08-.16,0-.2-.09l-.09.1c-.07-.07-.05-.17,0-.19s0,0-.06,0c0-.18.07.09.15,0h-.06c0-.12.15,0,.22,0s.14.11.12.19h-.12c0,.08.15,0,.22,0s0,0,0,0v0l0,0c.06,0,.15,0,.2,0v0c-.05,0-.12-.06-.07-.11s.13.11.15.18-.12,0-.19,0,.13,0,.24.13c-.06.11-.14,0-.19.08.11,0,.14,0,.25,0s-.13,0-.13.13l.07,0c-.18,0,0,.16-.13.17.06.06.1-.08.2,0s-.1-.16,0-.21l.1.05c0,.06-.12.13,0,.18l.11,0s-.05-.06,0-.11.11-.14.18-.19.1,0,.12.05c.14-.12.32-.12.43-.25-.07.09,0,.13.08.18-.1,0-.08.14-.06.22s.08-.15.05-.19,0-.09.16,0,0,.12,0,.16,0-.15.13-.15,0,0,0,0a.11.11,0,0,0,.13-.12c.12.13.2-.07.22.08.15-.1,0-.07,0-.14s.18-.07.22-.06-.06.07-.1.06l.07.09c.22,0,0-.26.25-.26-.07.09,0,.09,0,.17s.17-.07.06-.11l.18,0a.37.37,0,0,0,.09-.2A.47.47,0,0,1,76,62c.15-.18.39-.19.51-.41h0c.14-.1-.15,0,0-.17.06.11.14,0,.23,0s.21-.35.39-.47a.07.07,0,0,1,0,.09,1.54,1.54,0,0,0,.27-.36v0c.22-.15.21-.41.27-.65,0,0,0,0,.06.07s.16-.29.08-.41c.17-.1,0-.1.16-.25s0,0,0,0a1.3,1.3,0,0,0,.1-.25c0-.23-.2-.29-.13-.53.17,0,0,.16.16.18s0-.1,0-.17,0,0,.11,0-.17-.22-.16-.22,0,0,0,.06,0-.23,0-.35c0,0,0,.15-.11.11s-.14-.19-.21-.29.15.09.27.06.14-.09.19,0c0-.13-.11-.21-.15-.32h0c0-.16-.22-.29-.19-.43l0,.07s0-.1-.11-.12.08-.12.13-.09c-.19,0-.22-.31-.41-.31,0-.06.11-.06.15-.06s0,.14.09.16,0-.15,0-.15c-.13,0-.26-.19-.38-.18,0-.07,0-.14.13-.17-.18-.18-.2.24-.34,0,0-.15.17,0,.11-.12l0,0c.15-.23-.19,0-.25-.11.1-.09.13,0,.16-.1s-.3,0-.34-.14l.06,0a2.43,2.43,0,0,0-.2-.25s0,0,0,0c-.07-.15-.1,0-.11-.15h-.07c0,.08,0,.21.14.22-.1,0,0,.2-.16.24l0,0a1.92,1.92,0,0,0,.12.69c.2.06,0,.24.21.33s0,0,.11.13c0-.06-.11,0-.12.08a.12.12,0,0,1,.09.06s-.12.22,0,.25,0,0-.09,0,.08,0,0,.08h0a.61.61,0,0,1,0,.3c.15,0,.08.11.13.15s0,.08-.08.11l.12.06c.1.06-.06.09,0,.17l0,0c0,.07,0,.22-.14.27.21.61-.33.79-.52,1.28,0,.05.08,0,.12.08a.19.19,0,0,1-.05.11c.06,0,0,0,0,0v-.09h0a.18.18,0,0,1,0-.1c0,.07.1.14,0,.18a0,0,0,0,1,0,0s0,.08,0,.1,0,0-.06,0l-.14.1c.06.15-.11.14-.14.15s0-.09,0-.19h-.09l.06,0-.07.05v0s0,.06,0,.06l0,0v.08c0-.09-.06,0-.12-.06-.15.1-.08.26-.29.27,0,0,.06.15,0,.17s-.06,0-.07-.06l0,.08c-.15-.07-.16.05-.3.06v0a.15.15,0,0,1-.1.14l0-.08c-.1,0,0,.18-.08.17s.11.1.16.18c-.06-.08-.16-.05-.11,0s-.06,0-.08,0l0,.08c-.07,0-.06-.11-.06-.16,0,.11-.11.06-.18.07v-.05l-.08,0a.16.16,0,0,1-.2.09l0-.13c-.06-.05,0,0,0,.07s-.11,0-.16-.06C74.22,61.46,74.06,61.17,74,61.35Zm-.88-6.22,0,0S73.11,55.06,73.09,55.13Zm-.78.23c.07-.09.06,0,.08,0s-.13.07-.22.07l0,.06a.09.09,0,0,1-.11,0C72.09,55.32,72.38,55.4,72.31,55.36Zm1.84-.92,0,0h0Zm-.57.1a.07.07,0,0,0,0,0S73.57,54.55,73.58,54.54Zm-1.13.07s-.09,0-.13,0Zm-2.07,5.92s-.11-.05-.11,0,0,.09.08.07h0A.43.43,0,0,0,70.38,60.53ZM73.14,62c0,.05,0,.09,0,.13h0s0,0,0,0,0,0,.07,0S73.25,62,73.14,62Z"/><path class="cls-1" d="M71.89,62.24h0Z"/><path class="cls-1" d="M73.16,62.16l-.06-.06S73.12,62.14,73.16,62.16Z"/><path class="cls-1" d="M75.61,55.49h0l0,.07a.23.23,0,0,0,.21-.1c-.11,0-.14,0-.25-.08Z"/><path class="cls-1" d="M75.84,55a.34.34,0,0,0,0-.1l0,0Z"/><path class="cls-1" d="M74.67,54.29l.1.07S74.7,54.22,74.67,54.29Z"/><path class="cls-1" d="M74.87,55.23l.07,0s-.09-.07-.11,0S74.83,55.21,74.87,55.23Z"/><path class="cls-1" d="M74.37,54.23c0,.09-.1-.06-.13,0S74.36,54.32,74.37,54.23Z"/><path class="cls-1" d="M74.31,55.15c0,.09.07,0,.12.05S74.34,55.09,74.31,55.15Z"/><path class="cls-1" d="M73.78,54.46c0-.07,0-.06.1-.05s0,.06,0,.07a.93.93,0,0,1,.15-.07c-.06,0-.16-.09-.15-.17S73.72,54.4,73.78,54.46Z"/><path class="cls-1" d="M74.18,55.14s.06.1.11.1,0-.12-.08-.12l0-.07C74.19,55,74.26,55.16,74.18,55.14Z"/><path class="cls-1" d="M73.46,54.29l0,0c.07-.07.18,0,.22-.14A.45.45,0,0,0,73.46,54.29Z"/><path class="cls-1" d="M74,55l0,.12c.07,0,0,0,0-.07A0,0,0,0,0,74,55C74,55,74,54.94,74,55Z"/><path class="cls-1" d="M73.74,55.09l-.08,0,.06.12C73.82,55.22,73.73,55.19,73.74,55.09Z"/><path class="cls-1" d="M73.63,55v0l-.11.17A.44.44,0,0,0,73.63,55Z"/><path class="cls-1" d="M71.81,54.79c0,.05.11.05,0,0S71.72,54.78,71.81,54.79Z"/><path class="cls-1" d="M72.5,55.45s-.12.1-.15.14S72.53,55.51,72.5,55.45Z"/><path class="cls-1" d="M72.34,55.61v0Z"/><path class="cls-1" d="M71.16,57.15v0Z"/><path class="cls-1" d="M71.16,57.1a.09.09,0,0,0,0-.12.34.34,0,0,0,0,.17S71.21,57.12,71.16,57.1Z"/><path class="cls-1" d="M71,57.49s0-.05,0-.06S70.93,57.5,71,57.49Z"/><path class="cls-1" d="M70.35,61.16c0,.06.05.08.1,0S70.4,61.18,70.35,61.16Z"/><polygon class="cls-1" points="70.51 61.23 70.49 61.26 70.48 61.32 70.51 61.23"/><path class="cls-1" d="M70.73,61.61h0S70.73,61.63,70.73,61.61Z"/><path class="cls-1" d="M70.67,61.61h0Z"/><path class="cls-1" d="M70.67,61.57l0,0h0S70.66,61.59,70.67,61.57Z"/><path class="cls-1" d="M70.81,61.7l0-.13c-.1,0,0,.11-.11.13Z"/><path class="cls-1" d="M71.05,61.87c0,.07.23,0,.19.13.22.08.08-.2.31-.1-.15-.18-.24.14-.36,0C71.22,62,71.09,61.87,71.05,61.87Z"/><path class="cls-1" d="M71.15,61.68c-.05,0,0,.1.08.09S71.23,61.65,71.15,61.68Z"/><polygon class="cls-1" points="71.43 62.08 71.46 62.15 71.5 62.13 71.43 62.08"/><path class="cls-1" d="M71.64,62.23l-.1,0S71.66,62.3,71.64,62.23Z"/><path class="cls-1" d="M71.91,62.47c0,.05.17-.08,0-.1l0,0S72,62.49,71.91,62.47Z"/><path class="cls-1" d="M72.77,62.49s-.1,0-.1,0h.12Z"/><path class="cls-1" d="M72.85,62.09c0-.11-.09,0-.15-.07A.35.35,0,0,0,72.85,62.09Z"/><path class="cls-1" d="M72.86,62.67s-.08,0-.11,0S72.83,62.71,72.86,62.67Z"/><path class="cls-1" d="M73,62.67s0,0,0,.08a.16.16,0,0,0,.21,0c0-.05,0-.17,0-.22-.12,0-.22.2-.26.05l-.14.15C73,62.8,73,62.64,73,62.67Z"/><path class="cls-1" d="M72.87,62.28l0,.07c0-.06,0-.06.08-.07S72.91,62.28,72.87,62.28Z"/><path class="cls-1" d="M73.75,62.65a.7.7,0,0,0,.14,0h0Z"/><polygon class="cls-1" points="73.84 62.69 73.84 62.73 73.95 62.66 73.84 62.69"/><polygon class="cls-1" points="73.99 62.73 73.98 62.73 73.89 62.76 73.99 62.73"/><path class="cls-1" d="M74.3,62.73l0,0s-.12,0-.1,0A.11.11,0,0,1,74.3,62.73Z"/><path class="cls-1" d="M74.79,61.17a.18.18,0,0,0,0,.1v-.1S74.81,61.19,74.79,61.17Z"/><path class="cls-1" d="M75,61.27l0-.13c-.08,0-.06.11-.13.15s.06-.07.11-.06Z"/><path class="cls-1" d="M76.25,60.41s.06,0,0,.1a.68.68,0,0,1,.12-.22s-.07-.11-.07-.08l0,.11,0,0C76.21,60.31,76.33,60.37,76.25,60.41Z"/><path class="cls-1" d="M76.91,56.12A.1.1,0,0,0,77,56C76.89,56,76.92,56.12,76.91,56.12Z"/><circle class="cls-4" cx="40.72" cy="58.08" r="3.32"/><path class="cls-1" d="M37.63,56.24c0,.09.14,0,0,.07S37.58,56.24,37.63,56.24Z"/><path class="cls-1" d="M37.56,56.56c.23.38-.23.56-.05.89,0,0-.2-.05-.17,0,.24.31,0,.65-.13,1h-.06c0,.07.16.12.15.19a.22.22,0,0,0-.11,0c.12,0,.08.11.18.12s-.14.05-.18.1h.14c.33,0,.05.25.26.34a.13.13,0,0,0-.09,0c.27.14.35.4.55.56a.7.7,0,0,0-.16.1.25.25,0,0,1,.26,0c-.1.12.17,0,.16.12h0c.15-.06,0,.12.15,0l-.06.1c.16-.12,0,.13.09.09l0,0c.06,0,0,.08.06.09l0,0c.11,0,.08.14.18,0-.06.12-.11,0-.19.16a4.46,4.46,0,0,1,.88.41.45.45,0,0,1,0,.16s.13,0,.18,0,0,.08,0,.1.12-.14.16-.06a.21.21,0,0,0-.07.14c.09-.1.15-.07.23-.09a.19.19,0,0,0,0,.09c.1-.12.12.06.2,0l0,.09c.08.13.07-.18.14-.1s0,.06,0,.09c.11-.15.23-.07.31-.12a.1.1,0,0,1,0,0c.09,0,.18.05.27,0s0,.22.09.19c0-.19.15-.08.09-.29.07,0,.2.08.24,0s.07.22,0,.24l.07.11c0,.08-.06,0,0,.07s.13-.09.16-.07.06-.34.14-.39.08.2,0,.23a2.21,2.21,0,0,0,0-.37s.05.14.08.07a.25.25,0,0,1,0-.12s.11-.08.18.09,0,.05,0,.1,0-.08.09-.11v0c.05,0,.07-.11,0-.19s.05.1,0,.07a.18.18,0,0,1,.08-.19.79.79,0,0,0,0,.13.82.82,0,0,1,.09-.33c0-.08.06.15,0,.12.16,0,.1-.25.26-.16,0,0-.07-.09-.06-.07s.12.08.12,0,0,0,0-.08,0,0,0,0,.07-.27.21-.27c0,0-.08-.18-.06-.19l.07.09c.07,0,0-.06.13,0-.07-.13-.06.23-.09.1.09.05-.06-.2,0-.08,0,0,0-.15.08-.12s.09.14.11.1,0-.05,0-.12v-.06c-.09-.07.05,0-.07-.09.08,0,0-.11.16,0l.12.09s-.1-.13-.14-.18l.06,0c-.18-.12,0,0-.07-.17.1,0,.08-.12.22-.08,0-.08-.09-.15,0-.18s0,0,.06.06,0,0,0-.08.14,0,.23,0-.16-.1-.23-.13c.22,0-.08-.17.12-.15,0,0,.08.1.15.08s-.13-.14,0-.18l-.18,0c.11,0-.08-.12.1-.07-.06,0,.07-.07-.1-.1.17-.08,0-.27.27-.31,0,0,0-.06-.08-.06s.06.05,0,.05l-.08,0s.06-.06.2,0-.29-.1-.22-.19.1,0,.09,0L43.39,58c0-.06.16,0,.29-.05,0,0,0-.08-.11-.09l.15-.05c-.11,0-.08,0-.11,0h0s0-.05,0-.07a.2.2,0,0,0-.12.09s0,0-.11-.06c.12,0,.08-.07.09-.09s-.12,0-.11,0,0,0,.09,0-.06,0,0,0,.15,0,.06-.08-.23.06-.17,0h.13l0-.07-.11,0,0,0c-.12,0,0-.08-.18-.06s.05-.07.06-.1h0c.05,0,0-.08-.09-.09h0s0-.06-.1-.06.39-.16.24-.16-.22,0-.28.05-.16-.11-.05-.26l-.1,0c0-.14-.25-.14-.12-.35.06,0,.09-.06.14-.1s.06-.09-.08,0-.12.09-.13.14-.16-.1-.11-.19a.13.13,0,0,1-.09.06c.13-.1.11-.16,0-.15l-.08.06,0-.08s-.15.13-.11,0a.47.47,0,0,0,.06-.09c-.09,0-.21.09-.19,0l.06-.13s-.1.05-.1.1c0-.11,0-.15,0-.27a.44.44,0,0,1-.55,0l0-.07c0-.08-.07.11-.07,0s0-.15.1-.22-.12.09-.17.1,0,0,0,.07-.05-.1-.11,0a.88.88,0,0,1,.09-.2l-.06,0c0-.18.2-.24.24-.46h0c0-.16.17-.12.09-.21a.52.52,0,0,0-.16.31c-.09,0-.15.31-.23.28s.07,0,.09-.12-.09,0-.11,0-.06.19-.08.21.06-.12,0-.15-.1.12-.07.19,0-.06-.11.07c0-.13.13-.28.09-.37,0,.13-.12.16-.13.35a.45.45,0,0,1,0-.21c0-.09-.12.22-.09,0l0,.13,0-.15s-.12.16-.1,0c0,0-.08,0-.07.15s.06-.1.07.09c0-.16-.07,0-.09.06v-.07s-.05,0-.06.09a.24.24,0,0,0,0-.12l0,.12c-.06,0,0-.21-.06-.18l0-.09s0-.09,0,0l-.05.32s0-.12,0,0l0-.13s0-.18-.07-.17a.27.27,0,0,0,0,.25s-.06-.07,0-.15,0,.12,0,.19a2.12,2.12,0,0,0-.13-.27l0-.18h0c0-.15,0-.1,0-.26s0,0-.07.08c.09.23,0,.33,0,.55s-.14-.52-.17-.16c0,.05,0,.22.06.15s0,.22-.06.15-.1-.21-.06-.35c0,.07,0,0,0,0s0-.22-.1-.21-.07,0,0,.16.05,0,.06.1-.12-.12-.08.1c0,0,.08.09.1.18l0,.06v-.08c-.09,0,0,.15,0,.15L40,55.79c0-.14.11,0,0-.19,0,0,0,.13-.08.08s0,0,0,0-.13-.29-.14-.1,0,.08,0,.16,0,.15-.08.18c-.06-.16-.09,0-.11-.16.06.08.16,0,.12-.13s.07,0,0-.2c-.07,0-.13-.17-.19-.28s0,.06,0,.08.06.1.1.22-.12.09-.11.22c0,0-.09-.16-.07-.18a.47.47,0,0,1-.25.11c.15.15-.06.09.06.21a.4.4,0,0,1,.19.21s0-.07-.08-.11-.14-.12-.07,0c0-.1-.12-.22-.19-.36,0,.11-.06-.1-.11-.06a.63.63,0,0,1-.06.27c-.16-.06-.17.14-.22.19s-.18-.18-.24-.17.16.11.05.11l0,0s-.19,0,0,.21l-.12-.15s0,0,0,.06-.1-.06-.11-.11-.06.1-.09.14l.11.05c0,.13-.11.1-.13.2l-.09-.07,0,.09c-.08-.08-.16-.07-.11,0L37.86,56c.08,0,.08.12.19.16s.12,0,0-.12,0,0,0,.08C38,56,38,56,37.94,55.91s-.06,0,0,.05a.13.13,0,0,1,0-.16c0,.07.08,0,.11.08s-.1-.17,0-.2,0-.17.12-.21a1,1,0,0,1,.13.31c.08,0,0-.05.12,0a.61.61,0,0,1-.14-.32l.07.07c0-.08-.09-.19,0-.22s.26-.15.36-.2l.06.08c-.07-.22.12-.18.15-.3s.23-.24.38-.1a1.11,1.11,0,0,1,.66-.34v.16c0-.12,0,.07.08,0s0-.16,0-.26c.14.09.26,0,.37-.16v.1c.09-.19.24,0,.37,0s0,.14.07.13.12-.15.24-.24a.47.47,0,0,1,.27.14c.34-.17.6.07.94.06l0,.12c.39-.1.62.29.89.35l-.14.15c0,.1.18.07.25,0,0,.1.23.06.15.22s.14,0,.22,0a.55.55,0,0,0,.25.32l0,0s-.11.07-.1.11.09.2.25,0c0,.22.34.29.25.54.05,0,.08,0,.13,0s0,.35.17.42c0,0-.12,0-.1.06s.08,0,.13,0c.21.21,0,.53.1.74a2.19,2.19,0,0,1,.12,1.21h0c.16.16-.24.27,0,.43,0,0-.06.11-.14.06.1.14-.19.25-.09.44,0,0,0,0,0-.05s-.06.29-.22.39c0,0,0-.06-.06-.08s.12.22-.1.14c0,0,.09.08.1,0a7.81,7.81,0,0,0-.53,1c-.29.1-.3-.26-.31,0,0,0,.05.07,0,0s-.27-.11-.22,0,0,.08.08.15c-.18,0-.28-.05-.31.11l0-.07c0,.25-.18.25-.16.53a4.17,4.17,0,0,1-2.33.78,3.68,3.68,0,0,1-2.29-.86c0-.27,0-.28-.26-.35,0,0,0,0,0,0s-.12-.09-.24,0a7.87,7.87,0,0,1-.6-.68s.16,0,.12-.07h-.12l0,0s-.13,0-.15.05a3.49,3.49,0,0,1-.57-2.27,2,2,0,0,0,0-.65,7.31,7.31,0,0,0,.76-1.5S37.56,56.34,37.56,56.56Z"/><path class="cls-1" d="M37.67,56.15c.08,0,.15,0,.22.1S37.73,56.19,37.67,56.15Z"/><path class="cls-1" d="M39.22,55.76l0,0s0,.08,0,.05S39.23,55.79,39.22,55.76Z"/><path class="cls-1" d="M39.5,55.65a.21.21,0,0,1,0,.18Z"/><path class="cls-1" d="M39.86,55.82s0,.08,0,.09S39.87,55.86,39.86,55.82Z"/><path class="cls-1" d="M39.82,55.66s0,0,.07.07S39.86,55.78,39.82,55.66Z"/><path class="cls-1" d="M40.41,55.74s0-.08.05,0S40.41,55.84,40.41,55.74Z"/><path class="cls-1" d="M40.65,55.61s0,0,0,0a.11.11,0,0,1,0,.1Z"/><polygon class="cls-1" points="43.37 58.86 43.35 58.82 43.41 58.85 43.37 58.86"/><path class="cls-1" d="M41.94,60.57c0,.06,0,0,0-.06S41.92,60.6,41.94,60.57Z"/><polygon class="cls-1" points="40.76 61.22 40.77 61.22 40.77 61.36 40.76 61.22"/><path class="cls-1" d="M57.64,53.37H57.2c-4.82,0-10.62-.17-15.74-.31L37.37,53a1,1,0,0,1-.86-.54,1,1,0,0,1,.05-1,19.91,19.91,0,0,1,3.1-3.76l.67-.68a1,1,0,0,1,.6-.29.72.72,0,0,1,.37-.07c10.35.1,30.44.9,32.48,1.23,1,.16,2.83.46,3,2a1.5,1.5,0,0,1-.39,1.2C74.61,53.13,63,53.37,57.64,53.37ZM39.29,51l2.23.06c5.1.14,10.89.3,15.69.31,8.94,0,15.37-.64,17.24-1.36-.21-.06-.53-.13-1-.21-1.76-.28-21.17-1.09-31.94-1.2l-.44.45A21.19,21.19,0,0,0,39.29,51Z"/></svg>