<svg xmlns="http://www.w3.org/2000/svg" width="127.041" height="32.854" viewBox="0 0 127.041 32.854">
  <g id="Groupe_942" data-name="Groupe 942" transform="translate(-304.647 -35.721)">
    <path id="Tracé_1" data-name="Tracé 1" d="M304.671,43.752a.349.349,0,0,1,.352-.467l17.047.031a.3.3,0,0,1,.289.45l-2.578,6.024a.9.9,0,0,1-.7.445l-4.03.1a.3.3,0,0,0-.287.457l5.175,11.965a.322.322,0,0,1-.328.474l-12.4.014c-.272,0-.406-.2-.316-.485l4.653-11.942a.334.334,0,0,0-.322-.482h-3.861a.738.738,0,0,1-.651-.46Z" transform="translate(0 -2.159)" fill="#1d1d1b"/>
    <path id="Tracé_2" data-name="Tracé 2" d="M393.6,43.752a.339.339,0,0,1,.332-.467l17.018.014a.291.291,0,0,1,.285.449L408.7,49.79a.85.85,0,0,1-.689.445l-4.039.1a.308.308,0,0,0-.288.457L408.8,62.877a.311.311,0,0,1-.285.474l-12.364-.016c-.3,0-.437-.2-.317-.484l4.653-12.03a.328.328,0,0,0-.314-.482H396.3a.745.745,0,0,1-.665-.46Z" transform="translate(-25.381 -2.159)" fill="#1d1d1b"/>
    <path id="Tracé_3" data-name="Tracé 3" d="M433.246,43.543a.345.345,0,0,1,.331-.479l17,0c.276,0,.417.193.287.453l-2.506,6.039a.862.862,0,0,1-.712.464l-4.027.1c-.267,0-.392.187-.289.47l5.089,12c.137.274-.022.482-.319.482l-12.3.021a.326.326,0,0,1-.339-.462L440.1,50.6c.132-.257-.011-.47-.313-.47h-3.844a.7.7,0,0,1-.65-.477Z" transform="translate(-36.697 -2.096)" fill="#1d1d1b"/>
    <path id="Tracé_4" data-name="Tracé 4" d="M393.551,68.164l-2.017-5a.8.8,0,0,0-.675-.429h-3.9a.3.3,0,0,1-.285-.455l2.13-5.522a1.473,1.473,0,0,0,0-.95l-7.33-19.434c-.1-.273-.246-.273-.359-.014L373.033,57.4a.942.942,0,0,0,.085.868l2.729,4.024c.137.239.044.434-.212.434h-4.2a.739.739,0,0,0-.647.454l-1.726,5.023c-.093.262.074.455.359.455h5.591a.73.73,0,0,0,.66-.455l.587-1.582a.774.774,0,0,1,.688-.45L385.5,66a.72.72,0,0,1,.678.483l.628,1.682a.8.8,0,0,0,.689.494h5.74A.339.339,0,0,0,393.551,68.164ZM380.881,61l-2.488-6.422h5.319Z" transform="translate(-18.377 -0.126)" fill="#1d1d1b"/>
    <path id="Tracé_5" data-name="Tracé 5" d="M433.122,68.059l-1.977-5.312a.751.751,0,0,0-.677-.47h-3.843c-.288,0-.439-.209-.352-.449l2.145-5.514a1.276,1.276,0,0,0,.025-.925l-7.326-19.463c-.1-.273-.263-.273-.365,0l-7.694,20.051a1.206,1.206,0,0,0,.029.91l2.456,4.941c.121.241,0,.449-.3.449h-4.165a.762.762,0,0,0-.651.47l-1.733,5.3a.359.359,0,0,0,.334.494h5.616a.745.745,0,0,0,.654-.494l.622-1.853a.743.743,0,0,1,.649-.472l8.575.008a.76.76,0,0,1,.679.469l.582,1.855a.791.791,0,0,0,.687.459h5.746A.3.3,0,0,0,433.122,68.059Zm-12.268-7.368-2.505-6.406h5.325Z" transform="translate(-29.689 0)" fill="#1d1d1b"/>
    <path id="Tracé_6" data-name="Tracé 6" d="M472.532,68.118,470.6,63.159c-.107-.229-.291-.664-.366-.884L468.2,56.753c-.074-.263-.237-.69-.336-.95l-7.347-19.434c-.086-.273-.218-.273-.347-.014l-7.7,19.448a1.3,1.3,0,0,0,.038.915l2.472,5.557c.129.22,0,.455-.3.455h-4.2a.765.765,0,0,0-.656.454l-1.7,5.023c-.086.262.052.455.357.455h5.581a.78.78,0,0,0,.675-.455l.587-1.582a.767.767,0,0,1,.687-.45H464.6a.719.719,0,0,1,.637.484l.582,1.226a.82.82,0,0,0,.686.494m-1.268-1.72.612,1.55a.818.818,0,0,0,.686.494h5.756a.34.34,0,0,0,.314-.494l-2-5.049M460.044,61l-2.506-6.422h5.327Z" transform="translate(-40.943 -0.126)" fill="#1d1d1b"/>
    <path id="Tracé_7" data-name="Tracé 7" d="M344.584,68.156l-1.9-5c-.089-.229-.248-.664-.339-.884l-2.036-5.522c-.094-.263-.224-.69-.312-.95l-7.356-19.434c-.094-.273-.256-.273-.354-.014l-7.7,19.448a1.281,1.281,0,0,0,0,.915l2.507,5.557a.316.316,0,0,1-.3.455h-4.19a.754.754,0,0,0-.643.454l-1.74,5.023a.324.324,0,0,0,.332.455h5.612a.733.733,0,0,0,.664-.455l.6-1.582a.772.772,0,0,1,.667-.45l8.6-.022a.767.767,0,0,1,.662.484l.5,1.52a.8.8,0,0,0,.678.494h5.756A.331.331,0,0,0,344.584,68.156ZM332.16,61l-2.508-6.422h5.306Z" transform="translate(-4.439 -0.126)" fill="#1d1d1b"/>
    <path id="Tracé_8" data-name="Tracé 8" d="M367.819,62.868,364.442,58.2s7.538-12.28-4.975-14.433a2.01,2.01,0,0,0-.648-.081h-8.9a.484.484,0,0,0-.506.479V56.05a3.875,3.875,0,0,0,.193.962l2.25,5.744a.756.756,0,0,0,.687.473h3.118a.477.477,0,0,0,.5-.475V61.433a.528.528,0,0,1,.517-.507h1.666a.524.524,0,0,1,.516.507v1.348a.479.479,0,0,0,.483.5h8.252A.251.251,0,0,0,367.819,62.868ZM357.5,54.493a2.12,2.12,0,1,1,2.135-2.127A2.144,2.144,0,0,1,357.5,54.493Z" transform="translate(-12.776 -2.272)" fill="#1d1d1b"/>
  </g>
</svg>
